{"asset":{"version":"2.0","generator":"Blockbench 4.12.4 glTF exporter"},"scenes":[{"nodes":[14],"name":"blockbench_export"}],"scene":0,"nodes":[{"translation":[0.5,-0.457369375,0.5],"name":"cube","mesh":0},{"translation":[0.46875,-0.519869375,0.5],"name":"cube","mesh":1},{"translation":[0.875,-0.769869375,0.5],"name":"cube","mesh":2},{"translation":[0.125,-0.769869375,0.5],"name":"cube","mesh":3},{"translation":[0.46875,-0.519869375,0.5],"name":"cube","mesh":4},{"translation":[0.5,-0.457369375,0.5],"name":"cube","mesh":5},{"translation":[0.5,-0.457369375,0.5],"name":"cube","mesh":6},{"translation":[0.53125,-0.519869375,0.5],"name":"cube","mesh":7},{"translation":[0.53125,-0.519869375,0.5],"name":"cube","mesh":8},{"translation":[0.46875,-0.519869375,0.5],"name":"cube","mesh":9},{"translation":[0.46875,-0.519869375,0.5],"name":"cube","mesh":10},{"rotation":[-0.19509032201612825,0,0,0.9807852804032304],"translation":[0.5,-0.457369375,0.5],"name":"cube","mesh":11},{"rotation":[-0.19509032201612825,0,0,0.9807852804032304],"translation":[0.5,-0.457369375,0.5],"name":"cube","mesh":12},{"translation":[0.125,0.53125,1.265625],"name":"group"},{"children":[0,1,2,3,4,5,6,7,8,9,10,11,12,13]}],"bufferViews":[{"buffer":0,"byteOffset":0,"byteLength":288,"target":34962,"byteStride":12},{"buffer":0,"byteOffset":288,"byteLength":288,"target":34962,"byteStride":12},{"buffer":0,"byteOffset":576,"byteLength":192,"target":34962,"byteStride":8},{"buffer":0,"byteOffset":768,"byteLength":48,"target":34963},{"buffer":0,"byteOffset":816,"byteLength":288,"target":34962,"byteStride":12},{"buffer":0,"byteOffset":1104,"byteLength":288,"target":34962,"byteStride":12},{"buffer":0,"byteOffset":1392,"byteLength":192,"target":34962,"byteStride":8},{"buffer":0,"byteOffset":1584,"byteLength":48,"target":34963},{"buffer":0,"byteOffset":1632,"byteLength":288,"target":34962,"byteStride":12},{"buffer":0,"byteOffset":1920,"byteLength":288,"target":34962,"byteStride":12},{"buffer":0,"byteOffset":2208,"byteLength":192,"target":34962,"byteStride":8},{"buffer":0,"byteOffset":2400,"byteLength":48,"target":34963},{"buffer":0,"byteOffset":2448,"byteLength":288,"target":34962,"byteStride":12},{"buffer":0,"byteOffset":2736,"byteLength":288,"target":34962,"byteStride":12},{"buffer":0,"byteOffset":3024,"byteLength":192,"target":34962,"byteStride":8},{"buffer":0,"byteOffset":3216,"byteLength":48,"target":34963},{"buffer":0,"byteOffset":3264,"byteLength":288,"target":34962,"byteStride":12},{"buffer":0,"byteOffset":3552,"byteLength":288,"target":34962,"byteStride":12},{"buffer":0,"byteOffset":3840,"byteLength":192,"target":34962,"byteStride":8},{"buffer":0,"byteOffset":4032,"byteLength":48,"target":34963},{"buffer":0,"byteOffset":4080,"byteLength":288,"target":34962,"byteStride":12},{"buffer":0,"byteOffset":4368,"byteLength":288,"target":34962,"byteStride":12},{"buffer":0,"byteOffset":4656,"byteLength":192,"target":34962,"byteStride":8},{"buffer":0,"byteOffset":4848,"byteLength":36,"target":34963},{"buffer":0,"byteOffset":4884,"byteLength":288,"target":34962,"byteStride":12},{"buffer":0,"byteOffset":5172,"byteLength":288,"target":34962,"byteStride":12},{"buffer":0,"byteOffset":5460,"byteLength":192,"target":34962,"byteStride":8},{"buffer":0,"byteOffset":5652,"byteLength":60,"target":34963},{"buffer":0,"byteOffset":5712,"byteLength":288,"target":34962,"byteStride":12},{"buffer":0,"byteOffset":6000,"byteLength":288,"target":34962,"byteStride":12},{"buffer":0,"byteOffset":6288,"byteLength":192,"target":34962,"byteStride":8},{"buffer":0,"byteOffset":6480,"byteLength":72,"target":34963},{"buffer":0,"byteOffset":6552,"byteLength":288,"target":34962,"byteStride":12},{"buffer":0,"byteOffset":6840,"byteLength":288,"target":34962,"byteStride":12},{"buffer":0,"byteOffset":7128,"byteLength":192,"target":34962,"byteStride":8},{"buffer":0,"byteOffset":7320,"byteLength":72,"target":34963},{"buffer":0,"byteOffset":7392,"byteLength":288,"target":34962,"byteStride":12},{"buffer":0,"byteOffset":7680,"byteLength":288,"target":34962,"byteStride":12},{"buffer":0,"byteOffset":7968,"byteLength":192,"target":34962,"byteStride":8},{"buffer":0,"byteOffset":8160,"byteLength":72,"target":34963},{"buffer":0,"byteOffset":8232,"byteLength":288,"target":34962,"byteStride":12},{"buffer":0,"byteOffset":8520,"byteLength":288,"target":34962,"byteStride":12},{"buffer":0,"byteOffset":8808,"byteLength":192,"target":34962,"byteStride":8},{"buffer":0,"byteOffset":9000,"byteLength":72,"target":34963},{"buffer":0,"byteOffset":9072,"byteLength":288,"target":34962,"byteStride":12},{"buffer":0,"byteOffset":9360,"byteLength":288,"target":34962,"byteStride":12},{"buffer":0,"byteOffset":9648,"byteLength":192,"target":34962,"byteStride":8},{"buffer":0,"byteOffset":9840,"byteLength":60,"target":34963},{"buffer":0,"byteOffset":9900,"byteLength":288,"target":34962,"byteStride":12},{"buffer":0,"byteOffset":10188,"byteLength":288,"target":34962,"byteStride":12},{"buffer":0,"byteOffset":10476,"byteLength":192,"target":34962,"byteStride":8},{"buffer":0,"byteOffset":10668,"byteLength":60,"target":34963}],"buffers":[{"byteLength":10728,"uri":"data:application/octet-stream;base64,"}],"accessors":[{"bufferView":0,"componentType":5126,"count":24,"max":[1.09375,0.1448693722486496,1.40625],"min":[-1.09375,-0.3551306128501892,-1.40625],"type":"VEC3"},{"bufferView":1,"componentType":5126,"count":24,"max":[1,1,1],"min":[-1,-1,-1],"type":"VEC3"},{"bufferView":2,"componentType":5126,"count":24,"max":[1,1],"min":[0,0],"type":"VEC2"},{"bufferView":3,"componentType":5123,"count":24,"max":[15],"min":[0],"type":"SCALAR"},{"bufferView":4,"componentType":5126,"count":24,"max":[1.0625,0.3323693871498108,-1.40625],"min":[-1,-0.3551306128501892,-1.46875],"type":"VEC3"},{"bufferView":5,"componentType":5126,"count":24,"max":[1,1,1],"min":[-1,-1,-1],"type":"VEC3"},{"bufferView":6,"componentType":5126,"count":24,"max":[1,1],"min":[0,0],"type":"VEC2"},{"bufferView":7,"componentType":5123,"count":24,"max":[23],"min":[8],"type":"SCALAR"},{"bufferView":8,"componentType":5126,"count":24,"max":[-1.46875,0.3323693871498108,1.3125],"min":[-1.53125,-0.1051306277513504,-1.3125],"type":"VEC3"},{"bufferView":9,"componentType":5126,"count":24,"max":[1,1,1],"min":[-1,-1,-1],"type":"VEC3"},{"bufferView":10,"componentType":5126,"count":24,"max":[1,1],"min":[0,0],"type":"VEC2"},{"bufferView":11,"componentType":5123,"count":24,"max":[15],"min":[0],"type":"SCALAR"},{"bufferView":12,"componentType":5126,"count":24,"max":[1.53125,0.3323693871498108,1.3125],"min":[1.46875,-0.1051306277513504,-1.3125],"type":"VEC3"},{"bufferView":13,"componentType":5126,"count":24,"max":[1,1,1],"min":[-1,-1,-1],"type":"VEC3"},{"bufferView":14,"componentType":5126,"count":24,"max":[1,1],"min":[0,0],"type":"VEC2"},{"bufferView":15,"componentType":5123,"count":24,"max":[15],"min":[0],"type":"SCALAR"},{"bufferView":16,"componentType":5126,"count":24,"max":[1.0625,0.7073693871498108,1.46875],"min":[-1,-0.3551306128501892,1.40625],"type":"VEC3"},{"bufferView":17,"componentType":5126,"count":24,"max":[1,1,1],"min":[-1,-1,-1],"type":"VEC3"},{"bufferView":18,"componentType":5126,"count":24,"max":[1,1],"min":[0,0],"type":"VEC2"},{"bufferView":19,"componentType":5123,"count":24,"max":[23],"min":[8],"type":"SCALAR"},{"bufferView":20,"componentType":5126,"count":24,"max":[1.095312476158142,0.1761193722486496,0.15625],"min":[-1.095312476158142,-0.1363806277513504,-1.40625],"type":"VEC3"},{"bufferView":21,"componentType":5126,"count":24,"max":[1,1,1],"min":[-1,-1,-1],"type":"VEC3"},{"bufferView":22,"componentType":5126,"count":24,"max":[1,1],"min":[0,0],"type":"VEC2"},{"bufferView":23,"componentType":5123,"count":18,"max":[11],"min":[0],"type":"SCALAR"},{"bufferView":24,"componentType":5126,"count":24,"max":[1.125,0.2073693722486496,0.71875],"min":[-1.125,-0.1676306277513504,0.15625],"type":"VEC3"},{"bufferView":25,"componentType":5126,"count":24,"max":[1,1,1],"min":[-1,-1,-1],"type":"VEC3"},{"bufferView":26,"componentType":5126,"count":24,"max":[1,1],"min":[0,0],"type":"VEC2"},{"bufferView":27,"componentType":5123,"count":30,"max":[23],"min":[0],"type":"SCALAR"},{"bufferView":28,"componentType":5126,"count":24,"max":[-1.0625,0.4573693871498108,-1.3125],"min":[-1.25,-0.4801306128501892,-1.5],"type":"VEC3"},{"bufferView":29,"componentType":5126,"count":24,"max":[1,1,1],"min":[-1,-1,-1],"type":"VEC3"},{"bufferView":30,"componentType":5126,"count":24,"max":[0.1875,0.40625],"min":[0.1171875,0.2734375],"type":"VEC2"},{"bufferView":31,"componentType":5123,"count":36,"max":[23],"min":[0],"type":"SCALAR"},{"bufferView":32,"componentType":5126,"count":24,"max":[-1.0625,0.8323693871498108,1.5],"min":[-1.25,-0.4801306128501892,1.3125],"type":"VEC3"},{"bufferView":33,"componentType":5126,"count":24,"max":[1,1,1],"min":[-1,-1,-1],"type":"VEC3"},{"bufferView":34,"componentType":5126,"count":24,"max":[0.28125,0.41796875],"min":[0.1171875,0.296875],"type":"VEC2"},{"bufferView":35,"componentType":5123,"count":36,"max":[23],"min":[0],"type":"SCALAR"},{"bufferView":36,"componentType":5126,"count":24,"max":[1.25,0.4573693871498108,-1.3125],"min":[1.0625,-0.4801306128501892,-1.5],"type":"VEC3"},{"bufferView":37,"componentType":5126,"count":24,"max":[1,1,1],"min":[-1,-1,-1],"type":"VEC3"},{"bufferView":38,"componentType":5126,"count":24,"max":[0.375,0.41015625],"min":[0,0.34765625],"type":"VEC2"},{"bufferView":39,"componentType":5123,"count":36,"max":[23],"min":[0],"type":"SCALAR"},{"bufferView":40,"componentType":5126,"count":24,"max":[1.25,0.8323693871498108,1.5],"min":[1.0625,-0.4801306128501892,1.3125],"type":"VEC3"},{"bufferView":41,"componentType":5126,"count":24,"max":[1,1,1],"min":[-1,-1,-1],"type":"VEC3"},{"bufferView":42,"componentType":5126,"count":24,"max":[0.375,0.41796875],"min":[0.03515625,0.3359375],"type":"VEC2"},{"bufferView":43,"componentType":5123,"count":36,"max":[23],"min":[0],"type":"SCALAR"},{"bufferView":44,"componentType":5126,"count":24,"max":[0.96875,-0.09658437222242355,1.335902452468872],"min":[0.03125,-0.40908437967300415,0.7734025120735168],"type":"VEC3"},{"bufferView":45,"componentType":5126,"count":24,"max":[1,1,1],"min":[-1,-1,-1],"type":"VEC3"},{"bufferView":46,"componentType":5126,"count":24,"max":[1,1],"min":[0,0],"type":"VEC2"},{"bufferView":47,"componentType":5123,"count":30,"max":[23],"min":[0],"type":"SCALAR"},{"bufferView":48,"componentType":5126,"count":24,"max":[-0.09375,-0.09658437222242355,1.335902452468872],"min":[-1.03125,-0.40908437967300415,0.7734025120735168],"type":"VEC3"},{"bufferView":49,"componentType":5126,"count":24,"max":[1,1,1],"min":[-1,-1,-1],"type":"VEC3"},{"bufferView":50,"componentType":5126,"count":24,"max":[1,1],"min":[0,0],"type":"VEC2"},{"bufferView":51,"componentType":5123,"count":30,"max":[23],"min":[0],"type":"SCALAR"}],"materials":[{"pbrMetallicRoughness":{"metallicFactor":0,"roughnessFactor":1,"baseColorTexture":{"index":0}},"alphaMode":"MASK","alphaCutoff":0.05}],"textures":[{"sampler":0,"source":0}],"samplers":[{"magFilter":9728,"minFilter":9728,"wrapS":33071,"wrapT":33071}],"images":[{"mimeType":"image/png","uri":"data:image/png;base64,"}],"meshes":[{"primitives":[{"mode":4,"attributes":{"POSITION":0,"NORMAL":1,"TEXCOORD_0":2},"indices":3,"material":0}]},{"primitives":[{"mode":4,"attributes":{"POSITION":4,"NORMAL":5,"TEXCOORD_0":6},"indices":7,"material":0}]},{"primitives":[{"mode":4,"attributes":{"POSITION":8,"NORMAL":9,"TEXCOORD_0":10},"indices":11,"material":0}]},{"primitives":[{"mode":4,"attributes":{"POSITION":12,"NORMAL":13,"TEXCOORD_0":14},"indices":15,"material":0}]},{"primitives":[{"mode":4,"attributes":{"POSITION":16,"NORMAL":17,"TEXCOORD_0":18},"indices":19,"material":0}]},{"primitives":[{"mode":4,"attributes":{"POSITION":20,"NORMAL":21,"TEXCOORD_0":22},"indices":23,"material":0}]},{"primitives":[{"mode":4,"attributes":{"POSITION":24,"NORMAL":25,"TEXCOORD_0":26},"indices":27,"material":0}]},{"primitives":[{"mode":4,"attributes":{"POSITION":28,"NORMAL":29,"TEXCOORD_0":30},"indices":31,"material":0}]},{"primitives":[{"mode":4,"attributes":{"POSITION":32,"NORMAL":33,"TEXCOORD_0":34},"indices":35,"material":0}]},{"primitives":[{"mode":4,"attributes":{"POSITION":36,"NORMAL":37,"TEXCOORD_0":38},"indices":39,"material":0}]},{"primitives":[{"mode":4,"attributes":{"POSITION":40,"NORMAL":41,"TEXCOORD_0":42},"indices":43,"material":0}]},{"primitives":[{"mode":4,"attributes":{"POSITION":44,"NORMAL":45,"TEXCOORD_0":46},"indices":47,"material":0}]},{"primitives":[{"mode":4,"attributes":{"POSITION":48,"NORMAL":49,"TEXCOORD_0":50},"indices":51,"material":0}]}]}