{"asset":{"version":"2.0","generator":"Blockbench 4.12.4 glTF exporter"},"scenes":[{"nodes":[11],"name":"blockbench_export"}],"scene":0,"nodes":[{"translation":[0.78125,0.649254375,0.8199675],"name":"cube","mesh":0},{"translation":[0.7763675,0.649254375,0.813619375],"name":"cube","mesh":1},{"translation":[0.223633125,0.649254375,0.813619375],"name":"cube","mesh":2},{"translation":[0.15625,1.055504375,0.8824675],"name":"cube","mesh":3},{"translation":[0.28125,0.649254375,0.8199675],"name":"cube","mesh":4},{"rotation":[0.3826834323650898,0,0,0.9238795325112867],"translation":[0.84375,0.11892375,0.32624875],"name":"cube","mesh":5},{"rotation":[-0.3826834323650898,0,0,0.9238795325112867],"translation":[0.15625,0.24313875,0.48359],"name":"cube","mesh":6},{"rotation":[-0.3826834323650898,0,0,0.9238795325112867],"translation":[0.84375,0.2518875,0.584320625],"name":"cube","mesh":7},{"rotation":[0.3826834323650898,0,0,0.9238795325112867],"translation":[0.15625,0.24313875,0.57734],"name":"cube","mesh":8},{"translation":[0.0625,0.515136875,0.125],"name":"cube","mesh":9},{"translation":[0.5,0.5,0.5],"name":"group"},{"children":[0,1,2,3,4,5,6,7,8,9,10]}],"bufferViews":[{"buffer":0,"byteOffset":0,"byteLength":288,"target":34962,"byteStride":12},{"buffer":0,"byteOffset":288,"byteLength":288,"target":34962,"byteStride":12},{"buffer":0,"byteOffset":576,"byteLength":192,"target":34962,"byteStride":8},{"buffer":0,"byteOffset":768,"byteLength":60,"target":34963},{"buffer":0,"byteOffset":828,"byteLength":288,"target":34962,"byteStride":12},{"buffer":0,"byteOffset":1116,"byteLength":288,"target":34962,"byteStride":12},{"buffer":0,"byteOffset":1404,"byteLength":192,"target":34962,"byteStride":8},{"buffer":0,"byteOffset":1596,"byteLength":48,"target":34963},{"buffer":0,"byteOffset":1644,"byteLength":288,"target":34962,"byteStride":12},{"buffer":0,"byteOffset":1932,"byteLength":288,"target":34962,"byteStride":12},{"buffer":0,"byteOffset":2220,"byteLength":192,"target":34962,"byteStride":8},{"buffer":0,"byteOffset":2412,"byteLength":48,"target":34963},{"buffer":0,"byteOffset":2460,"byteLength":288,"target":34962,"byteStride":12},{"buffer":0,"byteOffset":2748,"byteLength":288,"target":34962,"byteStride":12},{"buffer":0,"byteOffset":3036,"byteLength":192,"target":34962,"byteStride":8},{"buffer":0,"byteOffset":3228,"byteLength":60,"target":34963},{"buffer":0,"byteOffset":3288,"byteLength":288,"target":34962,"byteStride":12},{"buffer":0,"byteOffset":3576,"byteLength":288,"target":34962,"byteStride":12},{"buffer":0,"byteOffset":3864,"byteLength":192,"target":34962,"byteStride":8},{"buffer":0,"byteOffset":4056,"byteLength":24,"target":34963},{"buffer":0,"byteOffset":4080,"byteLength":288,"target":34962,"byteStride":12},{"buffer":0,"byteOffset":4368,"byteLength":288,"target":34962,"byteStride":12},{"buffer":0,"byteOffset":4656,"byteLength":192,"target":34962,"byteStride":8},{"buffer":0,"byteOffset":4848,"byteLength":60,"target":34963},{"buffer":0,"byteOffset":4908,"byteLength":288,"target":34962,"byteStride":12},{"buffer":0,"byteOffset":5196,"byteLength":288,"target":34962,"byteStride":12},{"buffer":0,"byteOffset":5484,"byteLength":192,"target":34962,"byteStride":8},{"buffer":0,"byteOffset":5676,"byteLength":60,"target":34963},{"buffer":0,"byteOffset":5736,"byteLength":288,"target":34962,"byteStride":12},{"buffer":0,"byteOffset":6024,"byteLength":288,"target":34962,"byteStride":12},{"buffer":0,"byteOffset":6312,"byteLength":192,"target":34962,"byteStride":8},{"buffer":0,"byteOffset":6504,"byteLength":60,"target":34963},{"buffer":0,"byteOffset":6564,"byteLength":288,"target":34962,"byteStride":12},{"buffer":0,"byteOffset":6852,"byteLength":288,"target":34962,"byteStride":12},{"buffer":0,"byteOffset":7140,"byteLength":192,"target":34962,"byteStride":8},{"buffer":0,"byteOffset":7332,"byteLength":60,"target":34963},{"buffer":0,"byteOffset":7392,"byteLength":288,"target":34962,"byteStride":12},{"buffer":0,"byteOffset":7680,"byteLength":288,"target":34962,"byteStride":12},{"buffer":0,"byteOffset":7968,"byteLength":192,"target":34962,"byteStride":8},{"buffer":0,"byteOffset":8160,"byteLength":72,"target":34963}],"buffers":[{"byteLength":8232,"uri":"data:application/octet-stream;base64,"}],"accessors":[{"bufferView":0,"componentType":5126,"count":24,"max":[0.125,0.8125,0.125],"min":[0,-1.1102230246251565e-16,0],"type":"VEC3"},{"bufferView":1,"componentType":5126,"count":24,"max":[1,1,1],"min":[-1,-1,-1],"type":"VEC3"},{"bufferView":2,"componentType":5126,"count":24,"max":[1,1],"min":[0,0],"type":"VEC2"},{"bufferView":3,"componentType":5123,"count":30,"max":[23],"min":[0],"type":"SCALAR"},{"bufferView":4,"componentType":5126,"count":24,"max":[0.13750000298023224,0.6875,0.13750000298023224],"min":[-1.1102230246251565e-16,0.3125,0],"type":"VEC3"},{"bufferView":5,"componentType":5126,"count":24,"max":[1,1,1],"min":[-1,-1,-1],"type":"VEC3"},{"bufferView":6,"componentType":5126,"count":24,"max":[1,1],"min":[0,0],"type":"VEC2"},{"bufferView":7,"componentType":5123,"count":24,"max":[23],"min":[0],"type":"SCALAR"},{"bufferView":8,"componentType":5126,"count":24,"max":[0,0.6875,0.13750000298023224],"min":[-0.13750000298023224,0.3125,0],"type":"VEC3"},{"bufferView":9,"componentType":5126,"count":24,"max":[1,1,1],"min":[-1,-1,-1],"type":"VEC3"},{"bufferView":10,"componentType":5126,"count":24,"max":[1,1],"min":[0,0],"type":"VEC2"},{"bufferView":11,"componentType":5123,"count":24,"max":[23],"min":[0],"type":"SCALAR"},{"bufferView":12,"componentType":5126,"count":24,"max":[0.0625,0.40625,0.0625],"min":[-0.0625,-0.40625,-0.0625],"type":"VEC3"},{"bufferView":13,"componentType":5126,"count":24,"max":[1,1,1],"min":[-1,-1,-1],"type":"VEC3"},{"bufferView":14,"componentType":5126,"count":24,"max":[1,1],"min":[0,0],"type":"VEC2"},{"bufferView":15,"componentType":5123,"count":30,"max":[23],"min":[0],"type":"SCALAR"},{"bufferView":16,"componentType":5126,"count":24,"max":[0.5,0.6875,0.0625625029206276],"min":[-0.0625,0.3125,0.0625],"type":"VEC3"},{"bufferView":17,"componentType":5126,"count":24,"max":[1,1,1],"min":[-1,-1,-1],"type":"VEC3"},{"bufferView":18,"componentType":5126,"count":24,"max":[1,1],"min":[0,0],"type":"VEC2"},{"bufferView":19,"componentType":5123,"count":12,"max":[23],"min":[16],"type":"SCALAR"},{"bufferView":20,"componentType":5126,"count":24,"max":[0.0625,0.8125,0.0625],"min":[-0.0625,-0.25,-0.0625],"type":"VEC3"},{"bufferView":21,"componentType":5126,"count":24,"max":[1,1,1],"min":[-1,-1,-1],"type":"VEC3"},{"bufferView":22,"componentType":5126,"count":24,"max":[1,1],"min":[0,0],"type":"VEC2"},{"bufferView":23,"componentType":5123,"count":30,"max":[23],"min":[0],"type":"SCALAR"},{"bufferView":24,"componentType":5126,"count":24,"max":[0.0625,0.37245938181877136,0.13991375267505646],"min":[-0.0625,-0.502540647983551,0.014913749881088734],"type":"VEC3"},{"bufferView":25,"componentType":5126,"count":24,"max":[1,1,1],"min":[-1,-1,-1],"type":"VEC3"},{"bufferView":26,"componentType":5126,"count":24,"max":[1,1],"min":[0,0],"type":"VEC2"},{"bufferView":27,"componentType":5123,"count":30,"max":[23],"min":[0],"type":"SCALAR"},{"bufferView":28,"componentType":5126,"count":24,"max":[0.0625,0.4375,0.0625],"min":[-0.0625,-0.4375,-0.0625],"type":"VEC3"},{"bufferView":29,"componentType":5126,"count":24,"max":[1,1,1],"min":[-1,-1,-1],"type":"VEC3"},{"bufferView":30,"componentType":5126,"count":24,"max":[1,1],"min":[0,0],"type":"VEC2"},{"bufferView":31,"componentType":5123,"count":30,"max":[23],"min":[0],"type":"SCALAR"},{"bufferView":32,"componentType":5126,"count":24,"max":[0.0625,0.5471187233924866,-0.027215000241994858],"min":[-0.0625,-0.5153812766075134,-0.15221500396728516],"type":"VEC3"},{"bufferView":33,"componentType":5126,"count":24,"max":[1,1,1],"min":[-1,-1,-1],"type":"VEC3"},{"bufferView":34,"componentType":5126,"count":24,"max":[1,1],"min":[0,0],"type":"VEC2"},{"bufferView":35,"componentType":5123,"count":30,"max":[23],"min":[0],"type":"SCALAR"},{"bufferView":36,"componentType":5126,"count":24,"max":[0.875,0.125,0.75],"min":[0,0,0],"type":"VEC3"},{"bufferView":37,"componentType":5126,"count":24,"max":[1,1,1],"min":[-1,-1,-1],"type":"VEC3"},{"bufferView":38,"componentType":5126,"count":24,"max":[0.66015625,0.265625],"min":[0.578125,0.15625],"type":"VEC2"},{"bufferView":39,"componentType":5123,"count":36,"max":[23],"min":[0],"type":"SCALAR"}],"materials":[{"pbrMetallicRoughness":{"metallicFactor":0,"roughnessFactor":1,"baseColorTexture":{"index":0}},"alphaMode":"MASK","alphaCutoff":0.05}],"textures":[{"sampler":0,"source":0}],"samplers":[{"magFilter":9728,"minFilter":9728,"wrapS":33071,"wrapT":33071}],"images":[{"mimeType":"image/png","uri":"data:image/png;base64,"}],"meshes":[{"primitives":[{"mode":4,"attributes":{"POSITION":0,"NORMAL":1,"TEXCOORD_0":2},"indices":3,"material":0}]},{"primitives":[{"mode":4,"attributes":{"POSITION":4,"NORMAL":5,"TEXCOORD_0":6},"indices":7,"material":0}]},{"primitives":[{"mode":4,"attributes":{"POSITION":8,"NORMAL":9,"TEXCOORD_0":10},"indices":11,"material":0}]},{"primitives":[{"mode":4,"attributes":{"POSITION":12,"NORMAL":13,"TEXCOORD_0":14},"indices":15,"material":0}]},{"primitives":[{"mode":4,"attributes":{"POSITION":16,"NORMAL":17,"TEXCOORD_0":18},"indices":19,"material":0}]},{"primitives":[{"mode":4,"attributes":{"POSITION":20,"NORMAL":21,"TEXCOORD_0":22},"indices":23,"material":0}]},{"primitives":[{"mode":4,"attributes":{"POSITION":24,"NORMAL":25,"TEXCOORD_0":26},"indices":27,"material":0}]},{"primitives":[{"mode":4,"attributes":{"POSITION":28,"NORMAL":29,"TEXCOORD_0":30},"indices":31,"material":0}]},{"primitives":[{"mode":4,"attributes":{"POSITION":32,"NORMAL":33,"TEXCOORD_0":34},"indices":35,"material":0}]},{"primitives":[{"mode":4,"attributes":{"POSITION":36,"NORMAL":37,"TEXCOORD_0":38},"indices":39,"material":0}]}]}