{"asset":{"version":"2.0","generator":"Blockbench 4.12.4 glTF exporter"},"scenes":[{"nodes":[28],"name":"blockbench_export"}],"scene":0,"nodes":[{"translation":[0.15625,0.038574375,0.84375],"name":"cube","mesh":0},{"rotation":[0,0,0.19509032201612825,0.9807852804032304],"translation":[0.175483125,0.25492125,0.78125],"name":"cube","mesh":1},{"rotation":[0,0,-0.19509032201612825,0.9807852804032304],"translation":[0.262016875,0.25492125,0.78125],"name":"cube","mesh":2},{"rotation":[-0.19509032201612825,0,0,0.9807852804032304],"translation":[0.21875,0.25492125,0.737983125],"name":"cube","mesh":3},{"rotation":[0.19509032201612825,0,0,0.9807852804032304],"translation":[0.21875,0.25492125,0.824516875],"name":"cube","mesh":4},{"translation":[0.125,0.101074375,0.8125],"name":"cube","mesh":5},{"translation":[0.71875,0.038574375,0.84375],"name":"cube","mesh":6},{"rotation":[0,0,0.19509032201612825,0.9807852804032304],"translation":[0.737983125,0.25492125,0.78125],"name":"cube","mesh":7},{"rotation":[0,0,-0.19509032201612825,0.9807852804032304],"translation":[0.824516875,0.25492125,0.78125],"name":"cube","mesh":8},{"rotation":[-0.19509032201612825,0,0,0.9807852804032304],"translation":[0.78125,0.25492125,0.737983125],"name":"cube","mesh":9},{"rotation":[0.19509032201612825,0,0,0.9807852804032304],"translation":[0.78125,0.25492125,0.824516875],"name":"cube","mesh":10},{"translation":[0.6875,0.101074375,0.8125],"name":"cube","mesh":11},{"translation":[0.15625,0.038574375,0.28125],"name":"cube","mesh":12},{"rotation":[0,0,0.19509032201612825,0.9807852804032304],"translation":[0.175483125,0.25492125,0.21875],"name":"cube","mesh":13},{"rotation":[0,0,-0.19509032201612825,0.9807852804032304],"translation":[0.262016875,0.25492125,0.21875],"name":"cube","mesh":14},{"rotation":[-0.19509032201612825,0,0,0.9807852804032304],"translation":[0.21875,0.25492125,0.175483125],"name":"cube","mesh":15},{"rotation":[0.19509032201612825,0,0,0.9807852804032304],"translation":[0.21875,0.25492125,0.262016875],"name":"cube","mesh":16},{"translation":[0.125,0.101074375,0.25],"name":"cube","mesh":17},{"translation":[0.71875,0.038574375,0.28125],"name":"cube","mesh":18},{"rotation":[0,0,0.19509032201612825,0.9807852804032304],"translation":[0.737983125,0.25492125,0.21875],"name":"cube","mesh":19},{"rotation":[0,0,-0.19509032201612825,0.9807852804032304],"translation":[0.824516875,0.25492125,0.21875],"name":"cube","mesh":20},{"rotation":[-0.19509032201612825,0,0,0.9807852804032304],"translation":[0.78125,0.25492125,0.175483125],"name":"cube","mesh":21},{"rotation":[0.19509032201612825,0,0,0.9807852804032304],"translation":[0.78125,0.25492125,0.262016875],"name":"cube","mesh":22},{"translation":[0.6875,0.101074375,0.25],"name":"cube","mesh":23},{"name":"group"},{"translation":[0.5,0.5,0.5],"name":"group","children":[24]},{"name":"group"},{"translation":[0.5,0.5,0.5],"name":"group","children":[26]},{"children":[0,1,2,3,4,5,6,7,8,9,10,11,12,13,14,15,16,17,18,19,20,21,22,23,25,27]}],"bufferViews":[{"buffer":0,"byteOffset":0,"byteLength":288,"target":34962,"byteStride":12},{"buffer":0,"byteOffset":288,"byteLength":288,"target":34962,"byteStride":12},{"buffer":0,"byteOffset":576,"byteLength":192,"target":34962,"byteStride":8},{"buffer":0,"byteOffset":768,"byteLength":72,"target":34963},{"buffer":0,"byteOffset":840,"byteLength":288,"target":34962,"byteStride":12},{"buffer":0,"byteOffset":1128,"byteLength":288,"target":34962,"byteStride":12},{"buffer":0,"byteOffset":1416,"byteLength":192,"target":34962,"byteStride":8},{"buffer":0,"byteOffset":1608,"byteLength":24,"target":34963},{"buffer":0,"byteOffset":1632,"byteLength":288,"target":34962,"byteStride":12},{"buffer":0,"byteOffset":1920,"byteLength":288,"target":34962,"byteStride":12},{"buffer":0,"byteOffset":2208,"byteLength":192,"target":34962,"byteStride":8},{"buffer":0,"byteOffset":2400,"byteLength":24,"target":34963},{"buffer":0,"byteOffset":2424,"byteLength":288,"target":34962,"byteStride":12},{"buffer":0,"byteOffset":2712,"byteLength":288,"target":34962,"byteStride":12},{"buffer":0,"byteOffset":3000,"byteLength":192,"target":34962,"byteStride":8},{"buffer":0,"byteOffset":3192,"byteLength":24,"target":34963},{"buffer":0,"byteOffset":3216,"byteLength":288,"target":34962,"byteStride":12},{"buffer":0,"byteOffset":3504,"byteLength":288,"target":34962,"byteStride":12},{"buffer":0,"byteOffset":3792,"byteLength":192,"target":34962,"byteStride":8},{"buffer":0,"byteOffset":3984,"byteLength":24,"target":34963},{"buffer":0,"byteOffset":4008,"byteLength":288,"target":34962,"byteStride":12},{"buffer":0,"byteOffset":4296,"byteLength":288,"target":34962,"byteStride":12},{"buffer":0,"byteOffset":4584,"byteLength":192,"target":34962,"byteStride":8},{"buffer":0,"byteOffset":4776,"byteLength":72,"target":34963},{"buffer":0,"byteOffset":4848,"byteLength":288,"target":34962,"byteStride":12},{"buffer":0,"byteOffset":5136,"byteLength":288,"target":34962,"byteStride":12},{"buffer":0,"byteOffset":5424,"byteLength":192,"target":34962,"byteStride":8},{"buffer":0,"byteOffset":5616,"byteLength":72,"target":34963},{"buffer":0,"byteOffset":5688,"byteLength":288,"target":34962,"byteStride":12},{"buffer":0,"byteOffset":5976,"byteLength":288,"target":34962,"byteStride":12},{"buffer":0,"byteOffset":6264,"byteLength":192,"target":34962,"byteStride":8},{"buffer":0,"byteOffset":6456,"byteLength":24,"target":34963},{"buffer":0,"byteOffset":6480,"byteLength":288,"target":34962,"byteStride":12},{"buffer":0,"byteOffset":6768,"byteLength":288,"target":34962,"byteStride":12},{"buffer":0,"byteOffset":7056,"byteLength":192,"target":34962,"byteStride":8},{"buffer":0,"byteOffset":7248,"byteLength":24,"target":34963},{"buffer":0,"byteOffset":7272,"byteLength":288,"target":34962,"byteStride":12},{"buffer":0,"byteOffset":7560,"byteLength":288,"target":34962,"byteStride":12},{"buffer":0,"byteOffset":7848,"byteLength":192,"target":34962,"byteStride":8},{"buffer":0,"byteOffset":8040,"byteLength":24,"target":34963},{"buffer":0,"byteOffset":8064,"byteLength":288,"target":34962,"byteStride":12},{"buffer":0,"byteOffset":8352,"byteLength":288,"target":34962,"byteStride":12},{"buffer":0,"byteOffset":8640,"byteLength":192,"target":34962,"byteStride":8},{"buffer":0,"byteOffset":8832,"byteLength":24,"target":34963},{"buffer":0,"byteOffset":8856,"byteLength":288,"target":34962,"byteStride":12},{"buffer":0,"byteOffset":9144,"byteLength":288,"target":34962,"byteStride":12},{"buffer":0,"byteOffset":9432,"byteLength":192,"target":34962,"byteStride":8},{"buffer":0,"byteOffset":9624,"byteLength":72,"target":34963},{"buffer":0,"byteOffset":9696,"byteLength":288,"target":34962,"byteStride":12},{"buffer":0,"byteOffset":9984,"byteLength":288,"target":34962,"byteStride":12},{"buffer":0,"byteOffset":10272,"byteLength":192,"target":34962,"byteStride":8},{"buffer":0,"byteOffset":10464,"byteLength":72,"target":34963},{"buffer":0,"byteOffset":10536,"byteLength":288,"target":34962,"byteStride":12},{"buffer":0,"byteOffset":10824,"byteLength":288,"target":34962,"byteStride":12},{"buffer":0,"byteOffset":11112,"byteLength":192,"target":34962,"byteStride":8},{"buffer":0,"byteOffset":11304,"byteLength":24,"target":34963},{"buffer":0,"byteOffset":11328,"byteLength":288,"target":34962,"byteStride":12},{"buffer":0,"byteOffset":11616,"byteLength":288,"target":34962,"byteStride":12},{"buffer":0,"byteOffset":11904,"byteLength":192,"target":34962,"byteStride":8},{"buffer":0,"byteOffset":12096,"byteLength":24,"target":34963},{"buffer":0,"byteOffset":12120,"byteLength":288,"target":34962,"byteStride":12},{"buffer":0,"byteOffset":12408,"byteLength":288,"target":34962,"byteStride":12},{"buffer":0,"byteOffset":12696,"byteLength":192,"target":34962,"byteStride":8},{"buffer":0,"byteOffset":12888,"byteLength":24,"target":34963},{"buffer":0,"byteOffset":12912,"byteLength":288,"target":34962,"byteStride":12},{"buffer":0,"byteOffset":13200,"byteLength":288,"target":34962,"byteStride":12},{"buffer":0,"byteOffset":13488,"byteLength":192,"target":34962,"byteStride":8},{"buffer":0,"byteOffset":13680,"byteLength":24,"target":34963},{"buffer":0,"byteOffset":13704,"byteLength":288,"target":34962,"byteStride":12},{"buffer":0,"byteOffset":13992,"byteLength":288,"target":34962,"byteStride":12},{"buffer":0,"byteOffset":14280,"byteLength":192,"target":34962,"byteStride":8},{"buffer":0,"byteOffset":14472,"byteLength":72,"target":34963},{"buffer":0,"byteOffset":14544,"byteLength":288,"target":34962,"byteStride":12},{"buffer":0,"byteOffset":14832,"byteLength":288,"target":34962,"byteStride":12},{"buffer":0,"byteOffset":15120,"byteLength":192,"target":34962,"byteStride":8},{"buffer":0,"byteOffset":15312,"byteLength":72,"target":34963},{"buffer":0,"byteOffset":15384,"byteLength":288,"target":34962,"byteStride":12},{"buffer":0,"byteOffset":15672,"byteLength":288,"target":34962,"byteStride":12},{"buffer":0,"byteOffset":15960,"byteLength":192,"target":34962,"byteStride":8},{"buffer":0,"byteOffset":16152,"byteLength":24,"target":34963},{"buffer":0,"byteOffset":16176,"byteLength":288,"target":34962,"byteStride":12},{"buffer":0,"byteOffset":16464,"byteLength":288,"target":34962,"byteStride":12},{"buffer":0,"byteOffset":16752,"byteLength":192,"target":34962,"byteStride":8},{"buffer":0,"byteOffset":16944,"byteLength":24,"target":34963},{"buffer":0,"byteOffset":16968,"byteLength":288,"target":34962,"byteStride":12},{"buffer":0,"byteOffset":17256,"byteLength":288,"target":34962,"byteStride":12},{"buffer":0,"byteOffset":17544,"byteLength":192,"target":34962,"byteStride":8},{"buffer":0,"byteOffset":17736,"byteLength":24,"target":34963},{"buffer":0,"byteOffset":17760,"byteLength":288,"target":34962,"byteStride":12},{"buffer":0,"byteOffset":18048,"byteLength":288,"target":34962,"byteStride":12},{"buffer":0,"byteOffset":18336,"byteLength":192,"target":34962,"byteStride":8},{"buffer":0,"byteOffset":18528,"byteLength":24,"target":34963},{"buffer":0,"byteOffset":18552,"byteLength":288,"target":34962,"byteStride":12},{"buffer":0,"byteOffset":18840,"byteLength":288,"target":34962,"byteStride":12},{"buffer":0,"byteOffset":19128,"byteLength":192,"target":34962,"byteStride":8},{"buffer":0,"byteOffset":19320,"byteLength":72,"target":34963}],"buffers":[{"byteLength":19392,"uri":"data:application/octet-stream;base64,"}],"accessors":[{"bufferView":0,"componentType":5126,"count":24,"max":[0.125,-0.0625,0],"min":[0,-0.25,-0.125],"type":"VEC3"},{"bufferView":1,"componentType":5126,"count":24,"max":[1,1,1],"min":[-1,-1,-1],"type":"VEC3"},{"bufferView":2,"componentType":5126,"count":24,"max":[0.91796875,0.06640625],"min":[0.91015625,0.02734375],"type":"VEC2"},{"bufferView":3,"componentType":5123,"count":36,"max":[23],"min":[0],"type":"SCALAR"},{"bufferView":4,"componentType":5126,"count":24,"max":[0.0000625000029685907,0.40625,0.15625],"min":[0,-0.03125,-0.15625],"type":"VEC3"},{"bufferView":5,"componentType":5126,"count":24,"max":[1,1,1],"min":[-1,-1,-1],"type":"VEC3"},{"bufferView":6,"componentType":5126,"count":24,"max":[1,1],"min":[0,0],"type":"VEC2"},{"bufferView":7,"componentType":5123,"count":12,"max":[7],"min":[0],"type":"SCALAR"},{"bufferView":8,"componentType":5126,"count":24,"max":[0.0000625000029685907,0.40625,0.15625],"min":[0,-0.03125,-0.15625],"type":"VEC3"},{"bufferView":9,"componentType":5126,"count":24,"max":[1,1,1],"min":[-1,-1,-1],"type":"VEC3"},{"bufferView":10,"componentType":5126,"count":24,"max":[1,1],"min":[0,0],"type":"VEC2"},{"bufferView":11,"componentType":5123,"count":12,"max":[7],"min":[0],"type":"SCALAR"},{"bufferView":12,"componentType":5126,"count":24,"max":[0.15625,0.40625,0.0000625000029685907],"min":[-0.15625,-0.03125,0],"type":"VEC3"},{"bufferView":13,"componentType":5126,"count":24,"max":[1,1,1],"min":[-1,-1,-1],"type":"VEC3"},{"bufferView":14,"componentType":5126,"count":24,"max":[1,1],"min":[0,0],"type":"VEC2"},{"bufferView":15,"componentType":5123,"count":12,"max":[23],"min":[16],"type":"SCALAR"},{"bufferView":16,"componentType":5126,"count":24,"max":[0.15625,0.40625,0.0000625000029685907],"min":[-0.15625,-0.03125,0],"type":"VEC3"},{"bufferView":17,"componentType":5126,"count":24,"max":[1,1,1],"min":[-1,-1,-1],"type":"VEC3"},{"bufferView":18,"componentType":5126,"count":24,"max":[1,1],"min":[0,0],"type":"VEC2"},{"bufferView":19,"componentType":5123,"count":12,"max":[23],"min":[16],"type":"SCALAR"},{"bufferView":20,"componentType":5126,"count":24,"max":[0.1875,0.125,0.0625],"min":[0,-0.125,-0.125],"type":"VEC3"},{"bufferView":21,"componentType":5126,"count":24,"max":[1,1,1],"min":[-1,-1,-1],"type":"VEC3"},{"bufferView":22,"componentType":5126,"count":24,"max":[0.90625,0.0703125],"min":[0.89453125,0.0234375],"type":"VEC2"},{"bufferView":23,"componentType":5123,"count":36,"max":[23],"min":[0],"type":"SCALAR"},{"bufferView":24,"componentType":5126,"count":24,"max":[0.125,-0.0625,0],"min":[0,-0.25,-0.125],"type":"VEC3"},{"bufferView":25,"componentType":5126,"count":24,"max":[1,1,1],"min":[-1,-1,-1],"type":"VEC3"},{"bufferView":26,"componentType":5126,"count":24,"max":[0.91796875,0.06640625],"min":[0.91015625,0.02734375],"type":"VEC2"},{"bufferView":27,"componentType":5123,"count":36,"max":[23],"min":[0],"type":"SCALAR"},{"bufferView":28,"componentType":5126,"count":24,"max":[0.0000625000029685907,0.40625,0.15625],"min":[0,-0.03125,-0.15625],"type":"VEC3"},{"bufferView":29,"componentType":5126,"count":24,"max":[1,1,1],"min":[-1,-1,-1],"type":"VEC3"},{"bufferView":30,"componentType":5126,"count":24,"max":[1,1],"min":[0,0],"type":"VEC2"},{"bufferView":31,"componentType":5123,"count":12,"max":[7],"min":[0],"type":"SCALAR"},{"bufferView":32,"componentType":5126,"count":24,"max":[0.0000625000029685907,0.40625,0.15625],"min":[0,-0.03125,-0.15625],"type":"VEC3"},{"bufferView":33,"componentType":5126,"count":24,"max":[1,1,1],"min":[-1,-1,-1],"type":"VEC3"},{"bufferView":34,"componentType":5126,"count":24,"max":[1,1],"min":[0,0],"type":"VEC2"},{"bufferView":35,"componentType":5123,"count":12,"max":[7],"min":[0],"type":"SCALAR"},{"bufferView":36,"componentType":5126,"count":24,"max":[0.15625,0.40625,0.0000625000029685907],"min":[-0.15625,-0.03125,0],"type":"VEC3"},{"bufferView":37,"componentType":5126,"count":24,"max":[1,1,1],"min":[-1,-1,-1],"type":"VEC3"},{"bufferView":38,"componentType":5126,"count":24,"max":[1,1],"min":[0,0],"type":"VEC2"},{"bufferView":39,"componentType":5123,"count":12,"max":[23],"min":[16],"type":"SCALAR"},{"bufferView":40,"componentType":5126,"count":24,"max":[0.15625,0.40625,0.0000625000029685907],"min":[-0.15625,-0.03125,0],"type":"VEC3"},{"bufferView":41,"componentType":5126,"count":24,"max":[1,1,1],"min":[-1,-1,-1],"type":"VEC3"},{"bufferView":42,"componentType":5126,"count":24,"max":[1,1],"min":[0,0],"type":"VEC2"},{"bufferView":43,"componentType":5123,"count":12,"max":[23],"min":[16],"type":"SCALAR"},{"bufferView":44,"componentType":5126,"count":24,"max":[0.1875,0.125,0.0625],"min":[0,-0.125,-0.125],"type":"VEC3"},{"bufferView":45,"componentType":5126,"count":24,"max":[1,1,1],"min":[-1,-1,-1],"type":"VEC3"},{"bufferView":46,"componentType":5126,"count":24,"max":[0.90625,0.0703125],"min":[0.89453125,0.0234375],"type":"VEC2"},{"bufferView":47,"componentType":5123,"count":36,"max":[23],"min":[0],"type":"SCALAR"},{"bufferView":48,"componentType":5126,"count":24,"max":[0.125,-0.0625,0],"min":[0,-0.25,-0.125],"type":"VEC3"},{"bufferView":49,"componentType":5126,"count":24,"max":[1,1,1],"min":[-1,-1,-1],"type":"VEC3"},{"bufferView":50,"componentType":5126,"count":24,"max":[0.91796875,0.06640625],"min":[0.91015625,0.02734375],"type":"VEC2"},{"bufferView":51,"componentType":5123,"count":36,"max":[23],"min":[0],"type":"SCALAR"},{"bufferView":52,"componentType":5126,"count":24,"max":[0.0000625000029685907,0.40625,0.15625],"min":[0,-0.03125,-0.15625],"type":"VEC3"},{"bufferView":53,"componentType":5126,"count":24,"max":[1,1,1],"min":[-1,-1,-1],"type":"VEC3"},{"bufferView":54,"componentType":5126,"count":24,"max":[1,1],"min":[0,0],"type":"VEC2"},{"bufferView":55,"componentType":5123,"count":12,"max":[7],"min":[0],"type":"SCALAR"},{"bufferView":56,"componentType":5126,"count":24,"max":[0.0000625000029685907,0.40625,0.15625],"min":[0,-0.03125,-0.15625],"type":"VEC3"},{"bufferView":57,"componentType":5126,"count":24,"max":[1,1,1],"min":[-1,-1,-1],"type":"VEC3"},{"bufferView":58,"componentType":5126,"count":24,"max":[1,1],"min":[0,0],"type":"VEC2"},{"bufferView":59,"componentType":5123,"count":12,"max":[7],"min":[0],"type":"SCALAR"},{"bufferView":60,"componentType":5126,"count":24,"max":[0.15625,0.40625,0.0000625000029685907],"min":[-0.15625,-0.03125,0],"type":"VEC3"},{"bufferView":61,"componentType":5126,"count":24,"max":[1,1,1],"min":[-1,-1,-1],"type":"VEC3"},{"bufferView":62,"componentType":5126,"count":24,"max":[1,1],"min":[0,0],"type":"VEC2"},{"bufferView":63,"componentType":5123,"count":12,"max":[23],"min":[16],"type":"SCALAR"},{"bufferView":64,"componentType":5126,"count":24,"max":[0.15625,0.40625,0.0000625000029685907],"min":[-0.15625,-0.03125,0],"type":"VEC3"},{"bufferView":65,"componentType":5126,"count":24,"max":[1,1,1],"min":[-1,-1,-1],"type":"VEC3"},{"bufferView":66,"componentType":5126,"count":24,"max":[1,1],"min":[0,0],"type":"VEC2"},{"bufferView":67,"componentType":5123,"count":12,"max":[23],"min":[16],"type":"SCALAR"},{"bufferView":68,"componentType":5126,"count":24,"max":[0.1875,0.125,0.0625],"min":[0,-0.125,-0.125],"type":"VEC3"},{"bufferView":69,"componentType":5126,"count":24,"max":[1,1,1],"min":[-1,-1,-1],"type":"VEC3"},{"bufferView":70,"componentType":5126,"count":24,"max":[0.90625,0.0703125],"min":[0.89453125,0.0234375],"type":"VEC2"},{"bufferView":71,"componentType":5123,"count":36,"max":[23],"min":[0],"type":"SCALAR"},{"bufferView":72,"componentType":5126,"count":24,"max":[0.125,-0.0625,0],"min":[0,-0.25,-0.125],"type":"VEC3"},{"bufferView":73,"componentType":5126,"count":24,"max":[1,1,1],"min":[-1,-1,-1],"type":"VEC3"},{"bufferView":74,"componentType":5126,"count":24,"max":[0.91796875,0.06640625],"min":[0.91015625,0.02734375],"type":"VEC2"},{"bufferView":75,"componentType":5123,"count":36,"max":[23],"min":[0],"type":"SCALAR"},{"bufferView":76,"componentType":5126,"count":24,"max":[0.0000625000029685907,0.40625,0.15625],"min":[0,-0.03125,-0.15625],"type":"VEC3"},{"bufferView":77,"componentType":5126,"count":24,"max":[1,1,1],"min":[-1,-1,-1],"type":"VEC3"},{"bufferView":78,"componentType":5126,"count":24,"max":[1,1],"min":[0,0],"type":"VEC2"},{"bufferView":79,"componentType":5123,"count":12,"max":[7],"min":[0],"type":"SCALAR"},{"bufferView":80,"componentType":5126,"count":24,"max":[0.0000625000029685907,0.40625,0.15625],"min":[0,-0.03125,-0.15625],"type":"VEC3"},{"bufferView":81,"componentType":5126,"count":24,"max":[1,1,1],"min":[-1,-1,-1],"type":"VEC3"},{"bufferView":82,"componentType":5126,"count":24,"max":[1,1],"min":[0,0],"type":"VEC2"},{"bufferView":83,"componentType":5123,"count":12,"max":[7],"min":[0],"type":"SCALAR"},{"bufferView":84,"componentType":5126,"count":24,"max":[0.15625,0.40625,0.0000625000029685907],"min":[-0.15625,-0.03125,0],"type":"VEC3"},{"bufferView":85,"componentType":5126,"count":24,"max":[1,1,1],"min":[-1,-1,-1],"type":"VEC3"},{"bufferView":86,"componentType":5126,"count":24,"max":[1,1],"min":[0,0],"type":"VEC2"},{"bufferView":87,"componentType":5123,"count":12,"max":[23],"min":[16],"type":"SCALAR"},{"bufferView":88,"componentType":5126,"count":24,"max":[0.15625,0.40625,0.0000625000029685907],"min":[-0.15625,-0.03125,0],"type":"VEC3"},{"bufferView":89,"componentType":5126,"count":24,"max":[1,1,1],"min":[-1,-1,-1],"type":"VEC3"},{"bufferView":90,"componentType":5126,"count":24,"max":[1,1],"min":[0,0],"type":"VEC2"},{"bufferView":91,"componentType":5123,"count":12,"max":[23],"min":[16],"type":"SCALAR"},{"bufferView":92,"componentType":5126,"count":24,"max":[0.1875,0.125,0.0625],"min":[0,-0.125,-0.125],"type":"VEC3"},{"bufferView":93,"componentType":5126,"count":24,"max":[1,1,1],"min":[-1,-1,-1],"type":"VEC3"},{"bufferView":94,"componentType":5126,"count":24,"max":[0.90625,0.0703125],"min":[0.89453125,0.0234375],"type":"VEC2"},{"bufferView":95,"componentType":5123,"count":36,"max":[23],"min":[0],"type":"SCALAR"}],"materials":[{"pbrMetallicRoughness":{"metallicFactor":0,"roughnessFactor":1,"baseColorTexture":{"index":0}},"alphaMode":"MASK","alphaCutoff":0.05}],"textures":[{"sampler":0,"source":0}],"samplers":[{"magFilter":9728,"minFilter":9728,"wrapS":33071,"wrapT":33071}],"images":[{"mimeType":"image/png","uri":"data:image/png;base64,"}],"meshes":[{"primitives":[{"mode":4,"attributes":{"POSITION":0,"NORMAL":1,"TEXCOORD_0":2},"indices":3,"material":0}]},{"primitives":[{"mode":4,"attributes":{"POSITION":4,"NORMAL":5,"TEXCOORD_0":6},"indices":7,"material":0}]},{"primitives":[{"mode":4,"attributes":{"POSITION":8,"NORMAL":9,"TEXCOORD_0":10},"indices":11,"material":0}]},{"primitives":[{"mode":4,"attributes":{"POSITION":12,"NORMAL":13,"TEXCOORD_0":14},"indices":15,"material":0}]},{"primitives":[{"mode":4,"attributes":{"POSITION":16,"NORMAL":17,"TEXCOORD_0":18},"indices":19,"material":0}]},{"primitives":[{"mode":4,"attributes":{"POSITION":20,"NORMAL":21,"TEXCOORD_0":22},"indices":23,"material":0}]},{"primitives":[{"mode":4,"attributes":{"POSITION":24,"NORMAL":25,"TEXCOORD_0":26},"indices":27,"material":0}]},{"primitives":[{"mode":4,"attributes":{"POSITION":28,"NORMAL":29,"TEXCOORD_0":30},"indices":31,"material":0}]},{"primitives":[{"mode":4,"attributes":{"POSITION":32,"NORMAL":33,"TEXCOORD_0":34},"indices":35,"material":0}]},{"primitives":[{"mode":4,"attributes":{"POSITION":36,"NORMAL":37,"TEXCOORD_0":38},"indices":39,"material":0}]},{"primitives":[{"mode":4,"attributes":{"POSITION":40,"NORMAL":41,"TEXCOORD_0":42},"indices":43,"material":0}]},{"primitives":[{"mode":4,"attributes":{"POSITION":44,"NORMAL":45,"TEXCOORD_0":46},"indices":47,"material":0}]},{"primitives":[{"mode":4,"attributes":{"POSITION":48,"NORMAL":49,"TEXCOORD_0":50},"indices":51,"material":0}]},{"primitives":[{"mode":4,"attributes":{"POSITION":52,"NORMAL":53,"TEXCOORD_0":54},"indices":55,"material":0}]},{"primitives":[{"mode":4,"attributes":{"POSITION":56,"NORMAL":57,"TEXCOORD_0":58},"indices":59,"material":0}]},{"primitives":[{"mode":4,"attributes":{"POSITION":60,"NORMAL":61,"TEXCOORD_0":62},"indices":63,"material":0}]},{"primitives":[{"mode":4,"attributes":{"POSITION":64,"NORMAL":65,"TEXCOORD_0":66},"indices":67,"material":0}]},{"primitives":[{"mode":4,"attributes":{"POSITION":68,"NORMAL":69,"TEXCOORD_0":70},"indices":71,"material":0}]},{"primitives":[{"mode":4,"attributes":{"POSITION":72,"NORMAL":73,"TEXCOORD_0":74},"indices":75,"material":0}]},{"primitives":[{"mode":4,"attributes":{"POSITION":76,"NORMAL":77,"TEXCOORD_0":78},"indices":79,"material":0}]},{"primitives":[{"mode":4,"attributes":{"POSITION":80,"NORMAL":81,"TEXCOORD_0":82},"indices":83,"material":0}]},{"primitives":[{"mode":4,"attributes":{"POSITION":84,"NORMAL":85,"TEXCOORD_0":86},"indices":87,"material":0}]},{"primitives":[{"mode":4,"attributes":{"POSITION":88,"NORMAL":89,"TEXCOORD_0":90},"indices":91,"material":0}]},{"primitives":[{"mode":4,"attributes":{"POSITION":92,"NORMAL":93,"TEXCOORD_0":94},"indices":95,"material":0}]}]}