{"asset":{"version":"2.0","generator":"Blockbench 4.12.4 glTF exporter"},"scenes":[{"nodes":[20],"name":"blockbench_export"}],"scene":0,"nodes":[{"rotation":[0,-0.19509032201612825,0,0.9807852804032304],"translation":[-0.003857131636753941,0,0.08053850607304414],"name":"cube","mesh":0},{"translation":[-0.003857131636753941,0,0.9367885060730443],"name":"cube","mesh":1},{"rotation":[0,0.19509032201612825,0,0.9807852804032304],"translation":[0.26020305696259727,0.15625000000000017,0.47385453526497656],"name":"cube","mesh":2},{"rotation":[0,-0.19509032201612825,0,0.9807852804032304],"translation":[0.4025649773161045,0.18750000000000017,0.7313704989861263],"name":"cube","mesh":3},{"rotation":[0,0.19509032201612825,0,0.9807852804032304],"translation":[-0.003857131636753941,0,0.08053850607304414],"name":"cube","mesh":4},{"rotation":[0,-0.19509032201612825,0,0.9807852804032304],"translation":[0.23950384456345253,0.2812500000000001,0.46885235117019275],"name":"cube","mesh":5},{"rotation":[0,-0.19509032201612825,0,0.9807852804032304],"translation":[0.23950384456345253,0.2812500000000001,0.46885235117019275],"name":"cube","mesh":6},{"rotation":[0,-0.19509032201612825,0,0.9807852804032304],"translation":[0.23950384456345253,0.2812500000000001,0.46885235117019275],"name":"cube","mesh":7},{"translation":[0.6039553683632458,0.34375000000000017,0.6086635060730443],"name":"cube","mesh":8},{"translation":[0.6039553683632458,0.34375000000000017,0.6086635060730443],"name":"cube","mesh":9},{"translation":[0.6039553683632458,0.34375000000000017,0.6086635060730443],"name":"cube","mesh":10},{"rotation":[0,-0.19509032201612825,0,0.9807852804032304],"translation":[0.4025649773161045,0.18750000000000017,0.7313704989861263],"name":"cube","mesh":11},{"rotation":[0,0.19509032201612825,0,0.9807852804032304],"translation":[0.6419910495087104,0.37500000000000017,0.16987060874249632],"name":"cube","mesh":12},{"rotation":[0,0.19509032201612825,0,0.9807852804032304],"translation":[0.6419910495087104,0.37500000000000017,0.16987060874249632],"name":"cube","mesh":13},{"rotation":[0,0.3826834323650898,0,0.9238795325112867],"translation":[0.26020305696259727,0.15625000000000017,0.47385453526497656],"name":"cube","mesh":14},{"rotation":[0,-0.3826834323650898,0,0.9238795325112867],"translation":[0.26020305696259727,0.15625000000000017,0.47385453526497656],"name":"cube","mesh":15},{"rotation":[0,0.19509032201612825,0,0.9807852804032304],"translation":[0.18512326314208327,0.12500000000000017,0.7417268979395704],"name":"cube","mesh":16},{"rotation":[0,0.19509032201612825,0,0.9807852804032304],"translation":[0.6039553683632458,0.34375000000000017,0.6086635060730443],"name":"cube","mesh":17},{"rotation":[0,-0.19509032201612825,0,0.9807852804032304],"translation":[0.4025649773161045,0.18750000000000017,0.7313704989861263],"name":"cube","mesh":18},{"translation":[0.4025649773161045,0.18750000000000017,0.7313704989861263],"name":"flower"},{"children":[0,1,2,3,4,5,6,7,8,9,10,11,12,13,14,15,16,17,18,19]}],"bufferViews":[{"buffer":0,"byteOffset":0,"byteLength":288,"target":34962,"byteStride":12},{"buffer":0,"byteOffset":288,"byteLength":288,"target":34962,"byteStride":12},{"buffer":0,"byteOffset":576,"byteLength":192,"target":34962,"byteStride":8},{"buffer":0,"byteOffset":768,"byteLength":24,"target":34963},{"buffer":0,"byteOffset":792,"byteLength":288,"target":34962,"byteStride":12},{"buffer":0,"byteOffset":1080,"byteLength":288,"target":34962,"byteStride":12},{"buffer":0,"byteOffset":1368,"byteLength":192,"target":34962,"byteStride":8},{"buffer":0,"byteOffset":1560,"byteLength":24,"target":34963},{"buffer":0,"byteOffset":1584,"byteLength":288,"target":34962,"byteStride":12},{"buffer":0,"byteOffset":1872,"byteLength":288,"target":34962,"byteStride":12},{"buffer":0,"byteOffset":2160,"byteLength":192,"target":34962,"byteStride":8},{"buffer":0,"byteOffset":2352,"byteLength":24,"target":34963},{"buffer":0,"byteOffset":2376,"byteLength":288,"target":34962,"byteStride":12},{"buffer":0,"byteOffset":2664,"byteLength":288,"target":34962,"byteStride":12},{"buffer":0,"byteOffset":2952,"byteLength":192,"target":34962,"byteStride":8},{"buffer":0,"byteOffset":3144,"byteLength":24,"target":34963},{"buffer":0,"byteOffset":3168,"byteLength":288,"target":34962,"byteStride":12},{"buffer":0,"byteOffset":3456,"byteLength":288,"target":34962,"byteStride":12},{"buffer":0,"byteOffset":3744,"byteLength":192,"target":34962,"byteStride":8},{"buffer":0,"byteOffset":3936,"byteLength":24,"target":34963},{"buffer":0,"byteOffset":3960,"byteLength":288,"target":34962,"byteStride":12},{"buffer":0,"byteOffset":4248,"byteLength":288,"target":34962,"byteStride":12},{"buffer":0,"byteOffset":4536,"byteLength":192,"target":34962,"byteStride":8},{"buffer":0,"byteOffset":4728,"byteLength":24,"target":34963},{"buffer":0,"byteOffset":4752,"byteLength":288,"target":34962,"byteStride":12},{"buffer":0,"byteOffset":5040,"byteLength":288,"target":34962,"byteStride":12},{"buffer":0,"byteOffset":5328,"byteLength":192,"target":34962,"byteStride":8},{"buffer":0,"byteOffset":5520,"byteLength":24,"target":34963},{"buffer":0,"byteOffset":5544,"byteLength":288,"target":34962,"byteStride":12},{"buffer":0,"byteOffset":5832,"byteLength":288,"target":34962,"byteStride":12},{"buffer":0,"byteOffset":6120,"byteLength":192,"target":34962,"byteStride":8},{"buffer":0,"byteOffset":6312,"byteLength":24,"target":34963},{"buffer":0,"byteOffset":6336,"byteLength":288,"target":34962,"byteStride":12},{"buffer":0,"byteOffset":6624,"byteLength":288,"target":34962,"byteStride":12},{"buffer":0,"byteOffset":6912,"byteLength":192,"target":34962,"byteStride":8},{"buffer":0,"byteOffset":7104,"byteLength":24,"target":34963},{"buffer":0,"byteOffset":7128,"byteLength":288,"target":34962,"byteStride":12},{"buffer":0,"byteOffset":7416,"byteLength":288,"target":34962,"byteStride":12},{"buffer":0,"byteOffset":7704,"byteLength":192,"target":34962,"byteStride":8},{"buffer":0,"byteOffset":7896,"byteLength":24,"target":34963},{"buffer":0,"byteOffset":7920,"byteLength":288,"target":34962,"byteStride":12},{"buffer":0,"byteOffset":8208,"byteLength":288,"target":34962,"byteStride":12},{"buffer":0,"byteOffset":8496,"byteLength":192,"target":34962,"byteStride":8},{"buffer":0,"byteOffset":8688,"byteLength":24,"target":34963},{"buffer":0,"byteOffset":8712,"byteLength":288,"target":34962,"byteStride":12},{"buffer":0,"byteOffset":9000,"byteLength":288,"target":34962,"byteStride":12},{"buffer":0,"byteOffset":9288,"byteLength":192,"target":34962,"byteStride":8},{"buffer":0,"byteOffset":9480,"byteLength":12,"target":34963},{"buffer":0,"byteOffset":9492,"byteLength":288,"target":34962,"byteStride":12},{"buffer":0,"byteOffset":9780,"byteLength":288,"target":34962,"byteStride":12},{"buffer":0,"byteOffset":10068,"byteLength":192,"target":34962,"byteStride":8},{"buffer":0,"byteOffset":10260,"byteLength":24,"target":34963},{"buffer":0,"byteOffset":10284,"byteLength":288,"target":34962,"byteStride":12},{"buffer":0,"byteOffset":10572,"byteLength":288,"target":34962,"byteStride":12},{"buffer":0,"byteOffset":10860,"byteLength":192,"target":34962,"byteStride":8},{"buffer":0,"byteOffset":11052,"byteLength":24,"target":34963},{"buffer":0,"byteOffset":11076,"byteLength":288,"target":34962,"byteStride":12},{"buffer":0,"byteOffset":11364,"byteLength":288,"target":34962,"byteStride":12},{"buffer":0,"byteOffset":11652,"byteLength":192,"target":34962,"byteStride":8},{"buffer":0,"byteOffset":11844,"byteLength":24,"target":34963},{"buffer":0,"byteOffset":11868,"byteLength":288,"target":34962,"byteStride":12},{"buffer":0,"byteOffset":12156,"byteLength":288,"target":34962,"byteStride":12},{"buffer":0,"byteOffset":12444,"byteLength":192,"target":34962,"byteStride":8},{"buffer":0,"byteOffset":12636,"byteLength":24,"target":34963},{"buffer":0,"byteOffset":12660,"byteLength":288,"target":34962,"byteStride":12},{"buffer":0,"byteOffset":12948,"byteLength":288,"target":34962,"byteStride":12},{"buffer":0,"byteOffset":13236,"byteLength":192,"target":34962,"byteStride":8},{"buffer":0,"byteOffset":13428,"byteLength":24,"target":34963},{"buffer":0,"byteOffset":13452,"byteLength":288,"target":34962,"byteStride":12},{"buffer":0,"byteOffset":13740,"byteLength":288,"target":34962,"byteStride":12},{"buffer":0,"byteOffset":14028,"byteLength":192,"target":34962,"byteStride":8},{"buffer":0,"byteOffset":14220,"byteLength":12,"target":34963},{"buffer":0,"byteOffset":14232,"byteLength":288,"target":34962,"byteStride":12},{"buffer":0,"byteOffset":14520,"byteLength":288,"target":34962,"byteStride":12},{"buffer":0,"byteOffset":14808,"byteLength":192,"target":34962,"byteStride":8},{"buffer":0,"byteOffset":15000,"byteLength":24,"target":34963}],"buffers":[{"byteLength":15024,"uri":"data:application/octet-stream;base64,"}],"accessors":[{"bufferView":0,"componentType":5126,"count":24,"max":[0.3734999895095825,0.6875,0.609375],"min":[0.3734374940395355,0,-0.078125],"type":"VEC3"},{"bufferView":1,"componentType":5126,"count":24,"max":[1,1,1],"min":[-1,-1,-1],"type":"VEC3"},{"bufferView":2,"componentType":5126,"count":24,"max":[1,1],"min":[0,0],"type":"VEC2"},{"bufferView":3,"componentType":5123,"count":12,"max":[7],"min":[0],"type":"SCALAR"},{"bufferView":4,"componentType":5126,"count":24,"max":[0.6703749895095825,0.8125,0.015625],"min":[0.6703125238418579,0,-0.671875],"type":"VEC3"},{"bufferView":5,"componentType":5126,"count":24,"max":[1,1,1],"min":[-1,-1,-1],"type":"VEC3"},{"bufferView":6,"componentType":5126,"count":24,"max":[1,1],"min":[0,0],"type":"VEC2"},{"bufferView":7,"componentType":5123,"count":12,"max":[7],"min":[0],"type":"SCALAR"},{"bufferView":8,"componentType":5126,"count":24,"max":[0.5625625252723694,0.09375,0.28125],"min":[0.5625,-0.15625,-0.21875],"type":"VEC3"},{"bufferView":9,"componentType":5126,"count":24,"max":[1,1,1],"min":[-1,-1,-1],"type":"VEC3"},{"bufferView":10,"componentType":5126,"count":24,"max":[1,1],"min":[0,0],"type":"VEC2"},{"bufferView":11,"componentType":5123,"count":12,"max":[7],"min":[0],"type":"SCALAR"},{"bufferView":12,"componentType":5126,"count":24,"max":[0.25,0.375,0.0000625000029685907],"min":[-0.375,-0.1875,0],"type":"VEC3"},{"bufferView":13,"componentType":5126,"count":24,"max":[1,1,1],"min":[-1,-1,-1],"type":"VEC3"},{"bufferView":14,"componentType":5126,"count":24,"max":[1,1],"min":[0,0],"type":"VEC2"},{"bufferView":15,"componentType":5123,"count":12,"max":[23],"min":[16],"type":"SCALAR"},{"bufferView":16,"componentType":5126,"count":24,"max":[0.875,0.75,0.3297500014305115],"min":[0.25,0,0.3296875059604645],"type":"VEC3"},{"bufferView":17,"componentType":5126,"count":24,"max":[1,1,1],"min":[-1,-1,-1],"type":"VEC3"},{"bufferView":18,"componentType":5126,"count":24,"max":[1,1],"min":[0,0],"type":"VEC2"},{"bufferView":19,"componentType":5123,"count":12,"max":[23],"min":[16],"type":"SCALAR"},{"bufferView":20,"componentType":5126,"count":24,"max":[0.09375,0.46875,0.0000625000029685907],"min":[-0.09375,0.09375,0],"type":"VEC3"},{"bufferView":21,"componentType":5126,"count":24,"max":[1,1,1],"min":[-1,-1,-1],"type":"VEC3"},{"bufferView":22,"componentType":5126,"count":24,"max":[1,1],"min":[0,0],"type":"VEC2"},{"bufferView":23,"componentType":5123,"count":12,"max":[23],"min":[16],"type":"SCALAR"},{"bufferView":24,"componentType":5126,"count":24,"max":[0.09375,0.40625,0.250062495470047],"min":[-0.09375,0.03125,0.25],"type":"VEC3"},{"bufferView":25,"componentType":5126,"count":24,"max":[1,1,1],"min":[-1,-1,-1],"type":"VEC3"},{"bufferView":26,"componentType":5126,"count":24,"max":[1,1],"min":[0,0],"type":"VEC2"},{"bufferView":27,"componentType":5123,"count":12,"max":[23],"min":[16],"type":"SCALAR"},{"bufferView":28,"componentType":5126,"count":24,"max":[0.09375,0.40625,-0.249937504529953],"min":[-0.09375,0.03125,-0.25],"type":"VEC3"},{"bufferView":29,"componentType":5126,"count":24,"max":[1,1,1],"min":[-1,-1,-1],"type":"VEC3"},{"bufferView":30,"componentType":5126,"count":24,"max":[1,1],"min":[0,0],"type":"VEC2"},{"bufferView":31,"componentType":5123,"count":12,"max":[23],"min":[16],"type":"SCALAR"},{"bufferView":32,"componentType":5126,"count":24,"max":[0.125,0.53125,0.0000625000029685907],"min":[0,0.21875,0],"type":"VEC3"},{"bufferView":33,"componentType":5126,"count":24,"max":[1,1,1],"min":[-1,-1,-1],"type":"VEC3"},{"bufferView":34,"componentType":5126,"count":24,"max":[1,1],"min":[0,0],"type":"VEC2"},{"bufferView":35,"componentType":5123,"count":12,"max":[23],"min":[16],"type":"SCALAR"},{"bufferView":36,"componentType":5126,"count":24,"max":[0.125,0.34375,-0.249937504529953],"min":[0,0.03125,-0.25],"type":"VEC3"},{"bufferView":37,"componentType":5126,"count":24,"max":[1,1,1],"min":[-1,-1,-1],"type":"VEC3"},{"bufferView":38,"componentType":5126,"count":24,"max":[1,1],"min":[0,0],"type":"VEC2"},{"bufferView":39,"componentType":5123,"count":12,"max":[23],"min":[16],"type":"SCALAR"},{"bufferView":40,"componentType":5126,"count":24,"max":[0.125,0.34375,0.187562495470047],"min":[0,0.03125,0.1875],"type":"VEC3"},{"bufferView":41,"componentType":5126,"count":24,"max":[1,1,1],"min":[-1,-1,-1],"type":"VEC3"},{"bufferView":42,"componentType":5126,"count":24,"max":[1,1],"min":[0,0],"type":"VEC2"},{"bufferView":43,"componentType":5123,"count":12,"max":[23],"min":[16],"type":"SCALAR"},{"bufferView":44,"componentType":5126,"count":24,"max":[0.0000625000029685907,0.4375,0.0625],"min":[0,0.1875,-0.0625],"type":"VEC3"},{"bufferView":45,"componentType":5126,"count":24,"max":[1,1,1],"min":[-1,-1,-1],"type":"VEC3"},{"bufferView":46,"componentType":5126,"count":24,"max":[1,1],"min":[0,0],"type":"VEC2"},{"bufferView":47,"componentType":5123,"count":6,"max":[3],"min":[0],"type":"SCALAR"},{"bufferView":48,"componentType":5126,"count":24,"max":[-0.156187504529953,0.375,0.0625],"min":[-0.15625,0.125,-0.0625],"type":"VEC3"},{"bufferView":49,"componentType":5126,"count":24,"max":[1,1,1],"min":[-1,-1,-1],"type":"VEC3"},{"bufferView":50,"componentType":5126,"count":24,"max":[1,1],"min":[0,0],"type":"VEC2"},{"bufferView":51,"componentType":5123,"count":12,"max":[7],"min":[0],"type":"SCALAR"},{"bufferView":52,"componentType":5126,"count":24,"max":[0.125062495470047,0.4375,0.0625],"min":[0.125,0.1875,-0.0625],"type":"VEC3"},{"bufferView":53,"componentType":5126,"count":24,"max":[1,1,1],"min":[-1,-1,-1],"type":"VEC3"},{"bufferView":54,"componentType":5126,"count":24,"max":[1,1],"min":[0,0],"type":"VEC2"},{"bufferView":55,"componentType":5123,"count":12,"max":[7],"min":[0],"type":"SCALAR"},{"bufferView":56,"componentType":5126,"count":24,"max":[0.359375,0.09375,0.5625625252723694],"min":[-0.140625,-0.15625,0.5625],"type":"VEC3"},{"bufferView":57,"componentType":5126,"count":24,"max":[1,1,1],"min":[-1,-1,-1],"type":"VEC3"},{"bufferView":58,"componentType":5126,"count":24,"max":[1,1],"min":[0,0],"type":"VEC2"},{"bufferView":59,"componentType":5123,"count":12,"max":[23],"min":[16],"type":"SCALAR"},{"bufferView":60,"componentType":5126,"count":24,"max":[0.0625,0.09375,-0.1249374970793724],"min":[-0.4375,-0.15625,-0.125],"type":"VEC3"},{"bufferView":61,"componentType":5126,"count":24,"max":[1,1,1],"min":[-1,-1,-1],"type":"VEC3"},{"bufferView":62,"componentType":5126,"count":24,"max":[1,1],"min":[0,0],"type":"VEC2"},{"bufferView":63,"componentType":5123,"count":12,"max":[23],"min":[16],"type":"SCALAR"},{"bufferView":64,"componentType":5126,"count":24,"max":[0.015687499195337296,0.125,0.25],"min":[0.015625,-0.125,-0.3125],"type":"VEC3"},{"bufferView":65,"componentType":5126,"count":24,"max":[1,1,1],"min":[-1,-1,-1],"type":"VEC3"},{"bufferView":66,"componentType":5126,"count":24,"max":[1,1],"min":[0,0],"type":"VEC2"},{"bufferView":67,"componentType":5123,"count":12,"max":[7],"min":[0],"type":"SCALAR"},{"bufferView":68,"componentType":5126,"count":24,"max":[0.46875,0.09375,-0.156187504529953],"min":[0.03125,-0.34375,-0.15625],"type":"VEC3"},{"bufferView":69,"componentType":5126,"count":24,"max":[1,1,1],"min":[-1,-1,-1],"type":"VEC3"},{"bufferView":70,"componentType":5126,"count":24,"max":[1,1],"min":[0,0],"type":"VEC2"},{"bufferView":71,"componentType":5123,"count":6,"max":[23],"min":[20],"type":"SCALAR"},{"bufferView":72,"componentType":5126,"count":24,"max":[0.312562495470047,0.375,-0.125],"min":[0.3125,-0.1875,-0.75],"type":"VEC3"},{"bufferView":73,"componentType":5126,"count":24,"max":[1,1,1],"min":[-1,-1,-1],"type":"VEC3"},{"bufferView":74,"componentType":5126,"count":24,"max":[1,1],"min":[0,0],"type":"VEC2"},{"bufferView":75,"componentType":5123,"count":12,"max":[7],"min":[0],"type":"SCALAR"}],"materials":[{"pbrMetallicRoughness":{"metallicFactor":0,"roughnessFactor":1,"baseColorTexture":{"index":0}},"alphaMode":"MASK","alphaCutoff":0.05}],"textures":[{"sampler":0,"source":0,"name":"flower_lupin.png"}],"samplers":[{"magFilter":9728,"minFilter":9728,"wrapS":33071,"wrapT":33071}],"images":[{"mimeType":"image/png","uri":"data:image/png;base64,"}],"meshes":[{"primitives":[{"mode":4,"attributes":{"POSITION":0,"NORMAL":1,"TEXCOORD_0":2},"indices":3,"material":0}]},{"primitives":[{"mode":4,"attributes":{"POSITION":4,"NORMAL":5,"TEXCOORD_0":6},"indices":7,"material":0}]},{"primitives":[{"mode":4,"attributes":{"POSITION":8,"NORMAL":9,"TEXCOORD_0":10},"indices":11,"material":0}]},{"primitives":[{"mode":4,"attributes":{"POSITION":12,"NORMAL":13,"TEXCOORD_0":14},"indices":15,"material":0}]},{"primitives":[{"mode":4,"attributes":{"POSITION":16,"NORMAL":17,"TEXCOORD_0":18},"indices":19,"material":0}]},{"primitives":[{"mode":4,"attributes":{"POSITION":20,"NORMAL":21,"TEXCOORD_0":22},"indices":23,"material":0}]},{"primitives":[{"mode":4,"attributes":{"POSITION":24,"NORMAL":25,"TEXCOORD_0":26},"indices":27,"material":0}]},{"primitives":[{"mode":4,"attributes":{"POSITION":28,"NORMAL":29,"TEXCOORD_0":30},"indices":31,"material":0}]},{"primitives":[{"mode":4,"attributes":{"POSITION":32,"NORMAL":33,"TEXCOORD_0":34},"indices":35,"material":0}]},{"primitives":[{"mode":4,"attributes":{"POSITION":36,"NORMAL":37,"TEXCOORD_0":38},"indices":39,"material":0}]},{"primitives":[{"mode":4,"attributes":{"POSITION":40,"NORMAL":41,"TEXCOORD_0":42},"indices":43,"material":0}]},{"primitives":[{"mode":4,"attributes":{"POSITION":44,"NORMAL":45,"TEXCOORD_0":46},"indices":47,"material":0}]},{"primitives":[{"mode":4,"attributes":{"POSITION":48,"NORMAL":49,"TEXCOORD_0":50},"indices":51,"material":0}]},{"primitives":[{"mode":4,"attributes":{"POSITION":52,"NORMAL":53,"TEXCOORD_0":54},"indices":55,"material":0}]},{"primitives":[{"mode":4,"attributes":{"POSITION":56,"NORMAL":57,"TEXCOORD_0":58},"indices":59,"material":0}]},{"primitives":[{"mode":4,"attributes":{"POSITION":60,"NORMAL":61,"TEXCOORD_0":62},"indices":63,"material":0}]},{"primitives":[{"mode":4,"attributes":{"POSITION":64,"NORMAL":65,"TEXCOORD_0":66},"indices":67,"material":0}]},{"primitives":[{"mode":4,"attributes":{"POSITION":68,"NORMAL":69,"TEXCOORD_0":70},"indices":71,"material":0}]},{"primitives":[{"mode":4,"attributes":{"POSITION":72,"NORMAL":73,"TEXCOORD_0":74},"indices":75,"material":0}]}]}