{"asset":{"version":"2.0","generator":"Blockbench 4.12.4 glTF exporter"},"scenes":[{"nodes":[15],"name":"blockbench_export"}],"scene":0,"nodes":[{"translation":[0.14999999999999947,0.0625,0.13750000000000084],"name":"cube","mesh":0},{"translation":[0.21249999999999947,0.125,0.13750000000000084],"name":"cube","mesh":1},{"rotation":[0.19509032201612825,0,0,0.9807852804032304],"translation":[0.39999999999999947,0.16250000000000037,0.13750000000000084],"name":"cube","mesh":2},{"rotation":[-0.19509032201612825,0,0,0.9807852804032304],"translation":[0.21249999999999947,0,0.13750000000000084],"name":"cube","mesh":3},{"rotation":[0,0,-0.19509032201612825,0.9807852804032304],"translation":[0.5249999999999995,0.03125000000000011,0.26250000000000084],"name":"cube","mesh":4},{"rotation":[0,0,0.19509032201612825,0.9807852804032304],"translation":[0.08749999999999947,0.020312500000000122,0.8875000000000008],"name":"cube","mesh":5},{"rotation":[0,0,0.19509032201612825,0.9807852804032304],"translation":[-0.10000000000000053,-0.05156250000000004,0.5125000000000008],"name":"cube","mesh":6},{"translation":[-0.22500000000000053,-0.25,0.26250000000000084],"name":"cube","mesh":7},{"rotation":[0,-0.19509032201612825,0,0.9807852804032304],"translation":[0.5187499999999997,0,-0.031249999999999223],"name":"cube","mesh":8},{"rotation":[0,-0.19509032201612825,0,0.9807852804032304],"translation":[0.5093750000000001,0,0.5375000000000003],"name":"cube","mesh":9},{"rotation":[0,0.19509032201612825,0,0.9807852804032304],"translation":[-0.08124999999999993,0,0.390625],"name":"cube","mesh":10},{"rotation":[0,0.19509032201612825,0,0.9807852804032304],"translation":[0.265625,0,0.390625],"name":"cube","mesh":11},{"translation":[0.4375,0,0.484375],"name":"cube","mesh":12},{"rotation":[0,0.3826834323650898,0,0.9238795325112867],"name":"cube","mesh":13},{"translation":[-0.27499999999999947,0.25,-0.26250000000000084],"name":"flower","children":[0,1,2,3,4,5,6,7,8,9,10,11,12,13]},{"children":[14]}],"bufferViews":[{"buffer":0,"byteOffset":0,"byteLength":288,"target":34962,"byteStride":12},{"buffer":0,"byteOffset":288,"byteLength":288,"target":34962,"byteStride":12},{"buffer":0,"byteOffset":576,"byteLength":192,"target":34962,"byteStride":8},{"buffer":0,"byteOffset":768,"byteLength":12,"target":34963},{"buffer":0,"byteOffset":780,"byteLength":288,"target":34962,"byteStride":12},{"buffer":0,"byteOffset":1068,"byteLength":288,"target":34962,"byteStride":12},{"buffer":0,"byteOffset":1356,"byteLength":192,"target":34962,"byteStride":8},{"buffer":0,"byteOffset":1548,"byteLength":12,"target":34963},{"buffer":0,"byteOffset":1560,"byteLength":288,"target":34962,"byteStride":12},{"buffer":0,"byteOffset":1848,"byteLength":288,"target":34962,"byteStride":12},{"buffer":0,"byteOffset":2136,"byteLength":192,"target":34962,"byteStride":8},{"buffer":0,"byteOffset":2328,"byteLength":12,"target":34963},{"buffer":0,"byteOffset":2340,"byteLength":288,"target":34962,"byteStride":12},{"buffer":0,"byteOffset":2628,"byteLength":288,"target":34962,"byteStride":12},{"buffer":0,"byteOffset":2916,"byteLength":192,"target":34962,"byteStride":8},{"buffer":0,"byteOffset":3108,"byteLength":12,"target":34963},{"buffer":0,"byteOffset":3120,"byteLength":288,"target":34962,"byteStride":12},{"buffer":0,"byteOffset":3408,"byteLength":288,"target":34962,"byteStride":12},{"buffer":0,"byteOffset":3696,"byteLength":192,"target":34962,"byteStride":8},{"buffer":0,"byteOffset":3888,"byteLength":12,"target":34963},{"buffer":0,"byteOffset":3900,"byteLength":288,"target":34962,"byteStride":12},{"buffer":0,"byteOffset":4188,"byteLength":288,"target":34962,"byteStride":12},{"buffer":0,"byteOffset":4476,"byteLength":192,"target":34962,"byteStride":8},{"buffer":0,"byteOffset":4668,"byteLength":12,"target":34963},{"buffer":0,"byteOffset":4680,"byteLength":288,"target":34962,"byteStride":12},{"buffer":0,"byteOffset":4968,"byteLength":288,"target":34962,"byteStride":12},{"buffer":0,"byteOffset":5256,"byteLength":192,"target":34962,"byteStride":8},{"buffer":0,"byteOffset":5448,"byteLength":12,"target":34963},{"buffer":0,"byteOffset":5460,"byteLength":288,"target":34962,"byteStride":12},{"buffer":0,"byteOffset":5748,"byteLength":288,"target":34962,"byteStride":12},{"buffer":0,"byteOffset":6036,"byteLength":192,"target":34962,"byteStride":8},{"buffer":0,"byteOffset":6228,"byteLength":24,"target":34963},{"buffer":0,"byteOffset":6252,"byteLength":288,"target":34962,"byteStride":12},{"buffer":0,"byteOffset":6540,"byteLength":288,"target":34962,"byteStride":12},{"buffer":0,"byteOffset":6828,"byteLength":192,"target":34962,"byteStride":8},{"buffer":0,"byteOffset":7020,"byteLength":24,"target":34963},{"buffer":0,"byteOffset":7044,"byteLength":288,"target":34962,"byteStride":12},{"buffer":0,"byteOffset":7332,"byteLength":288,"target":34962,"byteStride":12},{"buffer":0,"byteOffset":7620,"byteLength":192,"target":34962,"byteStride":8},{"buffer":0,"byteOffset":7812,"byteLength":24,"target":34963},{"buffer":0,"byteOffset":7836,"byteLength":288,"target":34962,"byteStride":12},{"buffer":0,"byteOffset":8124,"byteLength":288,"target":34962,"byteStride":12},{"buffer":0,"byteOffset":8412,"byteLength":192,"target":34962,"byteStride":8},{"buffer":0,"byteOffset":8604,"byteLength":24,"target":34963},{"buffer":0,"byteOffset":8628,"byteLength":288,"target":34962,"byteStride":12},{"buffer":0,"byteOffset":8916,"byteLength":288,"target":34962,"byteStride":12},{"buffer":0,"byteOffset":9204,"byteLength":192,"target":34962,"byteStride":8},{"buffer":0,"byteOffset":9396,"byteLength":24,"target":34963},{"buffer":0,"byteOffset":9420,"byteLength":288,"target":34962,"byteStride":12},{"buffer":0,"byteOffset":9708,"byteLength":288,"target":34962,"byteStride":12},{"buffer":0,"byteOffset":9996,"byteLength":192,"target":34962,"byteStride":8},{"buffer":0,"byteOffset":10188,"byteLength":24,"target":34963},{"buffer":0,"byteOffset":10212,"byteLength":288,"target":34962,"byteStride":12},{"buffer":0,"byteOffset":10500,"byteLength":288,"target":34962,"byteStride":12},{"buffer":0,"byteOffset":10788,"byteLength":192,"target":34962,"byteStride":8},{"buffer":0,"byteOffset":10980,"byteLength":24,"target":34963}],"buffers":[{"byteLength":11004,"uri":"data:application/octet-stream;base64,"}],"accessors":[{"bufferView":0,"componentType":5126,"count":24,"max":[0.1875,0.187562495470047,0.25],"min":[-0.125,0.1875,-0.0625],"type":"VEC3"},{"bufferView":1,"componentType":5126,"count":24,"max":[1,1,1],"min":[-1,-1,-1],"type":"VEC3"},{"bufferView":2,"componentType":5126,"count":24,"max":[1,1],"min":[0,0],"type":"VEC2"},{"bufferView":3,"componentType":5123,"count":6,"max":[11],"min":[8],"type":"SCALAR"},{"bufferView":4,"componentType":5126,"count":24,"max":[0.5,0.187562495470047,0.375],"min":[0.25,0.1875,0.125],"type":"VEC3"},{"bufferView":5,"componentType":5126,"count":24,"max":[1,1,1],"min":[-1,-1,-1],"type":"VEC3"},{"bufferView":6,"componentType":5126,"count":24,"max":[1,1],"min":[0,0],"type":"VEC2"},{"bufferView":7,"componentType":5123,"count":6,"max":[11],"min":[8],"type":"SCALAR"},{"bufferView":8,"componentType":5126,"count":24,"max":[0.1875,0.187562495470047,0.6875],"min":[-0.125,0.1875,0.375],"type":"VEC3"},{"bufferView":9,"componentType":5126,"count":24,"max":[1,1,1],"min":[-1,-1,-1],"type":"VEC3"},{"bufferView":10,"componentType":5126,"count":24,"max":[1,1],"min":[0,0],"type":"VEC2"},{"bufferView":11,"componentType":5123,"count":6,"max":[11],"min":[8],"type":"SCALAR"},{"bufferView":12,"componentType":5126,"count":24,"max":[0.125,0.187562495470047,-0.125],"min":[-0.125,0.1875,-0.375],"type":"VEC3"},{"bufferView":13,"componentType":5126,"count":24,"max":[1,1,1],"min":[-1,-1,-1],"type":"VEC3"},{"bufferView":14,"componentType":5126,"count":24,"max":[1,1],"min":[0,0],"type":"VEC2"},{"bufferView":15,"componentType":5123,"count":6,"max":[11],"min":[8],"type":"SCALAR"},{"bufferView":16,"componentType":5126,"count":24,"max":[0.1875,0.187562495470047,-0.125],"min":[-0.125,0.1875,-0.4375],"type":"VEC3"},{"bufferView":17,"componentType":5126,"count":24,"max":[1,1,1],"min":[-1,-1,-1],"type":"VEC3"},{"bufferView":18,"componentType":5126,"count":24,"max":[1,1],"min":[0,0],"type":"VEC2"},{"bufferView":19,"componentType":5123,"count":6,"max":[11],"min":[8],"type":"SCALAR"},{"bufferView":20,"componentType":5126,"count":24,"max":[0.125,0.187562495470047,-0.125],"min":[-0.125,0.1875,-0.375],"type":"VEC3"},{"bufferView":21,"componentType":5126,"count":24,"max":[1,1,1],"min":[-1,-1,-1],"type":"VEC3"},{"bufferView":22,"componentType":5126,"count":24,"max":[1,1],"min":[0,0],"type":"VEC2"},{"bufferView":23,"componentType":5123,"count":6,"max":[11],"min":[8],"type":"SCALAR"},{"bufferView":24,"componentType":5126,"count":24,"max":[0.125,0.218812495470047,-0.125],"min":[-0.125,0.21875,-0.375],"type":"VEC3"},{"bufferView":25,"componentType":5126,"count":24,"max":[1,1,1],"min":[-1,-1,-1],"type":"VEC3"},{"bufferView":26,"componentType":5126,"count":24,"max":[1,1],"min":[0,0],"type":"VEC2"},{"bufferView":27,"componentType":5123,"count":6,"max":[11],"min":[8],"type":"SCALAR"},{"bufferView":28,"componentType":5126,"count":24,"max":[0.5,0.5,0.0000625000029685907],"min":[0,0,0],"type":"VEC3"},{"bufferView":29,"componentType":5126,"count":24,"max":[1,1,1],"min":[-1,-1,-1],"type":"VEC3"},{"bufferView":30,"componentType":5126,"count":24,"max":[1,1],"min":[0,0],"type":"VEC2"},{"bufferView":31,"componentType":5123,"count":12,"max":[23],"min":[16],"type":"SCALAR"},{"bufferView":32,"componentType":5126,"count":24,"max":[0.25,0.25,0.0000625000029685907],"min":[-0.4375,-0.25,0],"type":"VEC3"},{"bufferView":33,"componentType":5126,"count":24,"max":[1,1,1],"min":[-1,-1,-1],"type":"VEC3"},{"bufferView":34,"componentType":5126,"count":24,"max":[1,1],"min":[0,0],"type":"VEC2"},{"bufferView":35,"componentType":5123,"count":12,"max":[23],"min":[16],"type":"SCALAR"},{"bufferView":36,"componentType":5126,"count":24,"max":[0.0000625000029685907,0.3125,0.25],"min":[0,-0.25,-0.4375],"type":"VEC3"},{"bufferView":37,"componentType":5126,"count":24,"max":[1,1,1],"min":[-1,-1,-1],"type":"VEC3"},{"bufferView":38,"componentType":5126,"count":24,"max":[1,1],"min":[0,0],"type":"VEC2"},{"bufferView":39,"componentType":5123,"count":12,"max":[7],"min":[0],"type":"SCALAR"},{"bufferView":40,"componentType":5126,"count":24,"max":[0.0000625000029685907,0.1875,0.4375],"min":[0,-0.25,-0.25],"type":"VEC3"},{"bufferView":41,"componentType":5126,"count":24,"max":[1,1,1],"min":[-1,-1,-1],"type":"VEC3"},{"bufferView":42,"componentType":5126,"count":24,"max":[1,1],"min":[0,0],"type":"VEC2"},{"bufferView":43,"componentType":5123,"count":12,"max":[7],"min":[0],"type":"SCALAR"},{"bufferView":44,"componentType":5126,"count":24,"max":[0.0000625000029685907,0.1875,0.4375],"min":[0,-0.25,-0.625],"type":"VEC3"},{"bufferView":45,"componentType":5126,"count":24,"max":[1,1,1],"min":[-1,-1,-1],"type":"VEC3"},{"bufferView":46,"componentType":5126,"count":24,"max":[1,1],"min":[0,0],"type":"VEC2"},{"bufferView":47,"componentType":5123,"count":12,"max":[7],"min":[0],"type":"SCALAR"},{"bufferView":48,"componentType":5126,"count":24,"max":[0.25,0.1875,0.0000625000029685907],"min":[-0.625,-0.25,0],"type":"VEC3"},{"bufferView":49,"componentType":5126,"count":24,"max":[1,1,1],"min":[-1,-1,-1],"type":"VEC3"},{"bufferView":50,"componentType":5126,"count":24,"max":[1,1],"min":[0,0],"type":"VEC2"},{"bufferView":51,"componentType":5123,"count":12,"max":[23],"min":[16],"type":"SCALAR"},{"bufferView":52,"componentType":5126,"count":24,"max":[0.1875,0.1875,0.0000625000029685907],"min":[-0.25,-0.25,0],"type":"VEC3"},{"bufferView":53,"componentType":5126,"count":24,"max":[1,1,1],"min":[-1,-1,-1],"type":"VEC3"},{"bufferView":54,"componentType":5126,"count":24,"max":[1,1],"min":[0,0],"type":"VEC2"},{"bufferView":55,"componentType":5123,"count":12,"max":[23],"min":[16],"type":"SCALAR"}],"materials":[{"pbrMetallicRoughness":{"metallicFactor":0,"roughnessFactor":1,"baseColorTexture":{"index":0}},"alphaMode":"MASK","alphaCutoff":0.05,"doubleSided":true}],"textures":[{"sampler":0,"source":0,"name":"flower_white2.png"}],"samplers":[{"magFilter":9728,"minFilter":9728,"wrapS":33071,"wrapT":33071}],"images":[{"mimeType":"image/png","uri":"data:image/png;base64,"}],"meshes":[{"primitives":[{"mode":4,"attributes":{"POSITION":0,"NORMAL":1,"TEXCOORD_0":2},"indices":3,"material":0}]},{"primitives":[{"mode":4,"attributes":{"POSITION":4,"NORMAL":5,"TEXCOORD_0":6},"indices":7,"material":0}]},{"primitives":[{"mode":4,"attributes":{"POSITION":8,"NORMAL":9,"TEXCOORD_0":10},"indices":11,"material":0}]},{"primitives":[{"mode":4,"attributes":{"POSITION":12,"NORMAL":13,"TEXCOORD_0":14},"indices":15,"material":0}]},{"primitives":[{"mode":4,"attributes":{"POSITION":16,"NORMAL":17,"TEXCOORD_0":18},"indices":19,"material":0}]},{"primitives":[{"mode":4,"attributes":{"POSITION":20,"NORMAL":21,"TEXCOORD_0":22},"indices":23,"material":0}]},{"primitives":[{"mode":4,"attributes":{"POSITION":24,"NORMAL":25,"TEXCOORD_0":26},"indices":27,"material":0}]},{"primitives":[{"mode":4,"attributes":{"POSITION":28,"NORMAL":29,"TEXCOORD_0":30},"indices":31,"material":0}]},{"primitives":[{"mode":4,"attributes":{"POSITION":32,"NORMAL":33,"TEXCOORD_0":34},"indices":35,"material":0}]},{"primitives":[{"mode":4,"attributes":{"POSITION":36,"NORMAL":37,"TEXCOORD_0":38},"indices":39,"material":0}]},{"primitives":[{"mode":4,"attributes":{"POSITION":40,"NORMAL":41,"TEXCOORD_0":42},"indices":43,"material":0}]},{"primitives":[{"mode":4,"attributes":{"POSITION":44,"NORMAL":45,"TEXCOORD_0":46},"indices":47,"material":0}]},{"primitives":[{"mode":4,"attributes":{"POSITION":48,"NORMAL":49,"TEXCOORD_0":50},"indices":51,"material":0}]},{"primitives":[{"mode":4,"attributes":{"POSITION":52,"NORMAL":53,"TEXCOORD_0":54},"indices":55,"material":0}]}]}