{"asset":{"version":"2.0","generator":"Blockbench 4.12.4 glTF exporter"},"scenes":[{"nodes":[23],"name":"blockbench_export"}],"scene":0,"nodes":[{"rotation":[0,0.3826834323650898,0,0.9238795325112867],"translation":[0.7162315240419206,0.12500000000000017,-0.12094685745343497],"name":"cube","mesh":0},{"rotation":[0,-0.19509032201612825,0,0.9807852804032304],"translation":[0.7162315240419206,0.12500000000000017,-0.12094685745343497],"name":"cube","mesh":1},{"rotation":[0,0.19509032201612825,0,0.9807852804032304],"translation":[0.6007465824780097,0.18750000000000017,-0.16878228649907118],"name":"cube","mesh":2},{"rotation":[0,0.3826834323650898,0,0.9238795325112867],"translation":[0.7162315240419206,0.12500000000000017,-0.12094685745343497],"name":"cube","mesh":3},{"rotation":[0,0.19509032201612825,0,0.9807852804032304],"translation":[1.0255907408110352,0.15625000000000017,0.27680070696399794],"name":"cube","mesh":4},{"translation":[0.7162315240419206,0.12500000000000017,-0.12094685745343497],"name":"cube","mesh":5},{"rotation":[0,-0.3826834323650898,0,0.9238795325112867],"translation":[0.30998152404192053,0.15625000000000017,0.3790531425465651],"name":"cube","mesh":6},{"rotation":[0,-0.19509032201612825,0,0.9807852804032304],"translation":[0.7740203491955924,0.03125000000000017,0.2243735341620079],"name":"cube","mesh":7},{"rotation":[0,0,-0.19509032201612825,0.9807852804032304],"translation":[0.42499999999999993,0.33281250000000046,0.14843750000000056],"name":"cube","mesh":8},{"rotation":[0.19509032201612825,0,0,0.9807852804032304],"translation":[0.3114213760227321,0.2665465926354085,0.5779205299169926],"name":"cube","mesh":9},{"rotation":[0.19509032201612825,0,0,0.9807852804032304],"translation":[0.4036088760227319,0.4477965926354085,0.38104552991699314],"name":"cube","mesh":10},{"rotation":[0,0,0.19509032201612825,0.9807852804032304],"translation":[0.15204637602273197,0.1509215926354086,0.1497955299169934],"name":"cube","mesh":11},{"rotation":[0,0,0.19509032201612825,0.9807852804032304],"translation":[0.19579637602273192,0.5727965926354085,-0.11895447008300686],"name":"cube","mesh":12},{"rotation":[-0.19509032201612825,0,0,0.9807852804032304],"translation":[0.4088911239772681,0.3290465926354085,-0.2654205299169926],"name":"cube","mesh":13},{"rotation":[-0.19509032201612825,0,0,0.9807852804032304],"translation":[0.8463911239772681,0.2665465926354085,-0.07792052991699261],"name":"cube","mesh":14},{"rotation":[0,0,-0.19509032201612825,0.9807852804032304],"translation":[0.171875,0.3531250000000002,-0.325],"name":"cube","mesh":15},{"rotation":[-0.19509032201612825,0,0,0.9807852804032304],"translation":[0.6807661239772682,0.5587340926354083,0.2970794700830074],"name":"cube","mesh":16},{"rotation":[0.19509032201612825,0,0,0.9807852804032304],"translation":[0.6614213760227322,0.4056090926354081,0.4810455299169921],"name":"cube","mesh":17},{"rotation":[-0.19509032201612825,0,0,0.9807852804032304],"translation":[0.8463911239772681,0.25092159263540864,-0.29979552991699254],"name":"cube","mesh":18},{"translation":[-0.375,-0.125,-0.25],"name":"cube","mesh":19},{"name":"cube","mesh":20},{"rotation":[-0.19509032201612825,0,0,0.9807852804032304],"translation":[0.35420362397726735,0.6321715926354089,0.025204470083007746],"name":"cube","mesh":21},{"translation":[-0.5,0.125,-0.125],"name":"flower","children":[0,1,2,3,4,5,6,7,8,9,10,11,12,13,14,15,16,17,18,19,20,21]},{"children":[22]}],"bufferViews":[{"buffer":0,"byteOffset":0,"byteLength":288,"target":34962,"byteStride":12},{"buffer":0,"byteOffset":288,"byteLength":288,"target":34962,"byteStride":12},{"buffer":0,"byteOffset":576,"byteLength":192,"target":34962,"byteStride":8},{"buffer":0,"byteOffset":768,"byteLength":24,"target":34963},{"buffer":0,"byteOffset":792,"byteLength":288,"target":34962,"byteStride":12},{"buffer":0,"byteOffset":1080,"byteLength":288,"target":34962,"byteStride":12},{"buffer":0,"byteOffset":1368,"byteLength":192,"target":34962,"byteStride":8},{"buffer":0,"byteOffset":1560,"byteLength":24,"target":34963},{"buffer":0,"byteOffset":1584,"byteLength":288,"target":34962,"byteStride":12},{"buffer":0,"byteOffset":1872,"byteLength":288,"target":34962,"byteStride":12},{"buffer":0,"byteOffset":2160,"byteLength":192,"target":34962,"byteStride":8},{"buffer":0,"byteOffset":2352,"byteLength":24,"target":34963},{"buffer":0,"byteOffset":2376,"byteLength":288,"target":34962,"byteStride":12},{"buffer":0,"byteOffset":2664,"byteLength":288,"target":34962,"byteStride":12},{"buffer":0,"byteOffset":2952,"byteLength":192,"target":34962,"byteStride":8},{"buffer":0,"byteOffset":3144,"byteLength":24,"target":34963},{"buffer":0,"byteOffset":3168,"byteLength":288,"target":34962,"byteStride":12},{"buffer":0,"byteOffset":3456,"byteLength":288,"target":34962,"byteStride":12},{"buffer":0,"byteOffset":3744,"byteLength":192,"target":34962,"byteStride":8},{"buffer":0,"byteOffset":3936,"byteLength":24,"target":34963},{"buffer":0,"byteOffset":3960,"byteLength":288,"target":34962,"byteStride":12},{"buffer":0,"byteOffset":4248,"byteLength":288,"target":34962,"byteStride":12},{"buffer":0,"byteOffset":4536,"byteLength":192,"target":34962,"byteStride":8},{"buffer":0,"byteOffset":4728,"byteLength":24,"target":34963},{"buffer":0,"byteOffset":4752,"byteLength":288,"target":34962,"byteStride":12},{"buffer":0,"byteOffset":5040,"byteLength":288,"target":34962,"byteStride":12},{"buffer":0,"byteOffset":5328,"byteLength":192,"target":34962,"byteStride":8},{"buffer":0,"byteOffset":5520,"byteLength":24,"target":34963},{"buffer":0,"byteOffset":5544,"byteLength":288,"target":34962,"byteStride":12},{"buffer":0,"byteOffset":5832,"byteLength":288,"target":34962,"byteStride":12},{"buffer":0,"byteOffset":6120,"byteLength":192,"target":34962,"byteStride":8},{"buffer":0,"byteOffset":6312,"byteLength":24,"target":34963},{"buffer":0,"byteOffset":6336,"byteLength":288,"target":34962,"byteStride":12},{"buffer":0,"byteOffset":6624,"byteLength":288,"target":34962,"byteStride":12},{"buffer":0,"byteOffset":6912,"byteLength":192,"target":34962,"byteStride":8},{"buffer":0,"byteOffset":7104,"byteLength":12,"target":34963},{"buffer":0,"byteOffset":7116,"byteLength":288,"target":34962,"byteStride":12},{"buffer":0,"byteOffset":7404,"byteLength":288,"target":34962,"byteStride":12},{"buffer":0,"byteOffset":7692,"byteLength":192,"target":34962,"byteStride":8},{"buffer":0,"byteOffset":7884,"byteLength":12,"target":34963},{"buffer":0,"byteOffset":7896,"byteLength":288,"target":34962,"byteStride":12},{"buffer":0,"byteOffset":8184,"byteLength":288,"target":34962,"byteStride":12},{"buffer":0,"byteOffset":8472,"byteLength":192,"target":34962,"byteStride":8},{"buffer":0,"byteOffset":8664,"byteLength":12,"target":34963},{"buffer":0,"byteOffset":8676,"byteLength":288,"target":34962,"byteStride":12},{"buffer":0,"byteOffset":8964,"byteLength":288,"target":34962,"byteStride":12},{"buffer":0,"byteOffset":9252,"byteLength":192,"target":34962,"byteStride":8},{"buffer":0,"byteOffset":9444,"byteLength":12,"target":34963},{"buffer":0,"byteOffset":9456,"byteLength":288,"target":34962,"byteStride":12},{"buffer":0,"byteOffset":9744,"byteLength":288,"target":34962,"byteStride":12},{"buffer":0,"byteOffset":10032,"byteLength":192,"target":34962,"byteStride":8},{"buffer":0,"byteOffset":10224,"byteLength":12,"target":34963},{"buffer":0,"byteOffset":10236,"byteLength":288,"target":34962,"byteStride":12},{"buffer":0,"byteOffset":10524,"byteLength":288,"target":34962,"byteStride":12},{"buffer":0,"byteOffset":10812,"byteLength":192,"target":34962,"byteStride":8},{"buffer":0,"byteOffset":11004,"byteLength":12,"target":34963},{"buffer":0,"byteOffset":11016,"byteLength":288,"target":34962,"byteStride":12},{"buffer":0,"byteOffset":11304,"byteLength":288,"target":34962,"byteStride":12},{"buffer":0,"byteOffset":11592,"byteLength":192,"target":34962,"byteStride":8},{"buffer":0,"byteOffset":11784,"byteLength":12,"target":34963},{"buffer":0,"byteOffset":11796,"byteLength":288,"target":34962,"byteStride":12},{"buffer":0,"byteOffset":12084,"byteLength":288,"target":34962,"byteStride":12},{"buffer":0,"byteOffset":12372,"byteLength":192,"target":34962,"byteStride":8},{"buffer":0,"byteOffset":12564,"byteLength":12,"target":34963},{"buffer":0,"byteOffset":12576,"byteLength":288,"target":34962,"byteStride":12},{"buffer":0,"byteOffset":12864,"byteLength":288,"target":34962,"byteStride":12},{"buffer":0,"byteOffset":13152,"byteLength":192,"target":34962,"byteStride":8},{"buffer":0,"byteOffset":13344,"byteLength":12,"target":34963},{"buffer":0,"byteOffset":13356,"byteLength":288,"target":34962,"byteStride":12},{"buffer":0,"byteOffset":13644,"byteLength":288,"target":34962,"byteStride":12},{"buffer":0,"byteOffset":13932,"byteLength":192,"target":34962,"byteStride":8},{"buffer":0,"byteOffset":14124,"byteLength":12,"target":34963},{"buffer":0,"byteOffset":14136,"byteLength":288,"target":34962,"byteStride":12},{"buffer":0,"byteOffset":14424,"byteLength":288,"target":34962,"byteStride":12},{"buffer":0,"byteOffset":14712,"byteLength":192,"target":34962,"byteStride":8},{"buffer":0,"byteOffset":14904,"byteLength":12,"target":34963},{"buffer":0,"byteOffset":14916,"byteLength":288,"target":34962,"byteStride":12},{"buffer":0,"byteOffset":15204,"byteLength":288,"target":34962,"byteStride":12},{"buffer":0,"byteOffset":15492,"byteLength":192,"target":34962,"byteStride":8},{"buffer":0,"byteOffset":15684,"byteLength":12,"target":34963},{"buffer":0,"byteOffset":15696,"byteLength":288,"target":34962,"byteStride":12},{"buffer":0,"byteOffset":15984,"byteLength":288,"target":34962,"byteStride":12},{"buffer":0,"byteOffset":16272,"byteLength":192,"target":34962,"byteStride":8},{"buffer":0,"byteOffset":16464,"byteLength":12,"target":34963},{"buffer":0,"byteOffset":16476,"byteLength":288,"target":34962,"byteStride":12},{"buffer":0,"byteOffset":16764,"byteLength":288,"target":34962,"byteStride":12},{"buffer":0,"byteOffset":17052,"byteLength":192,"target":34962,"byteStride":8},{"buffer":0,"byteOffset":17244,"byteLength":12,"target":34963}],"buffers":[{"byteLength":17256,"uri":"data:application/octet-stream;base64,"}],"accessors":[{"bufferView":0,"componentType":5126,"count":24,"max":[0.3125,0.3125,0.0000625000029685907],"min":[-0.4375,-0.25,0],"type":"VEC3"},{"bufferView":1,"componentType":5126,"count":24,"max":[1,1,1],"min":[-1,-1,-1],"type":"VEC3"},{"bufferView":2,"componentType":5126,"count":24,"max":[1,1],"min":[0,0],"type":"VEC2"},{"bufferView":3,"componentType":5123,"count":12,"max":[23],"min":[16],"type":"SCALAR"},{"bufferView":4,"componentType":5126,"count":24,"max":[0.1875,0.1875,0.0000625000029685907],"min":[-0.5625,-0.25,0],"type":"VEC3"},{"bufferView":5,"componentType":5126,"count":24,"max":[1,1,1],"min":[-1,-1,-1],"type":"VEC3"},{"bufferView":6,"componentType":5126,"count":24,"max":[1,1],"min":[0,0],"type":"VEC2"},{"bufferView":7,"componentType":5123,"count":12,"max":[23],"min":[16],"type":"SCALAR"},{"bufferView":8,"componentType":5126,"count":24,"max":[-0.5468124747276306,0.0625,0.609375],"min":[-0.546875,-0.3125,-0.015625],"type":"VEC3"},{"bufferView":9,"componentType":5126,"count":24,"max":[1,1,1],"min":[-1,-1,-1],"type":"VEC3"},{"bufferView":10,"componentType":5126,"count":24,"max":[1,1],"min":[0,0],"type":"VEC2"},{"bufferView":11,"componentType":5123,"count":12,"max":[7],"min":[0],"type":"SCALAR"},{"bufferView":12,"componentType":5126,"count":24,"max":[-0.343687504529953,0.5,0.5625],"min":[-0.34375,-0.25,-0.4375],"type":"VEC3"},{"bufferView":13,"componentType":5126,"count":24,"max":[1,1,1],"min":[-1,-1,-1],"type":"VEC3"},{"bufferView":14,"componentType":5126,"count":24,"max":[1,1],"min":[0,0],"type":"VEC2"},{"bufferView":15,"componentType":5123,"count":12,"max":[7],"min":[0],"type":"SCALAR"},{"bufferView":16,"componentType":5126,"count":24,"max":[-0.0625,0.28125,0.046937499195337296],"min":[-0.625,-0.28125,0.046875],"type":"VEC3"},{"bufferView":17,"componentType":5126,"count":24,"max":[1,1,1],"min":[-1,-1,-1],"type":"VEC3"},{"bufferView":18,"componentType":5126,"count":24,"max":[1,1],"min":[0,0],"type":"VEC2"},{"bufferView":19,"componentType":5123,"count":12,"max":[23],"min":[16],"type":"SCALAR"},{"bufferView":20,"componentType":5126,"count":24,"max":[-0.125,0.3125,0.5000625252723694],"min":[-0.6875,-0.25,0.5],"type":"VEC3"},{"bufferView":21,"componentType":5126,"count":24,"max":[1,1,1],"min":[-1,-1,-1],"type":"VEC3"},{"bufferView":22,"componentType":5126,"count":24,"max":[1,1],"min":[0,0],"type":"VEC2"},{"bufferView":23,"componentType":5123,"count":12,"max":[23],"min":[16],"type":"SCALAR"},{"bufferView":24,"componentType":5126,"count":24,"max":[-0.406187504529953,0.03125,-0.03125],"min":[-0.40625,-0.28125,-0.59375],"type":"VEC3"},{"bufferView":25,"componentType":5126,"count":24,"max":[1,1,1],"min":[-1,-1,-1],"type":"VEC3"},{"bufferView":26,"componentType":5126,"count":24,"max":[1,1],"min":[0,0],"type":"VEC2"},{"bufferView":27,"componentType":5123,"count":12,"max":[7],"min":[0],"type":"SCALAR"},{"bufferView":28,"componentType":5126,"count":24,"max":[-0.001500000013038516,0.15625,0.17031249403953552],"min":[-0.0015625000232830644,-0.15625,-0.3921875059604645],"type":"VEC3"},{"bufferView":29,"componentType":5126,"count":24,"max":[1,1,1],"min":[-1,-1,-1],"type":"VEC3"},{"bufferView":30,"componentType":5126,"count":24,"max":[1,1],"min":[0,0],"type":"VEC2"},{"bufferView":31,"componentType":5123,"count":12,"max":[7],"min":[0],"type":"SCALAR"},{"bufferView":32,"componentType":5126,"count":24,"max":[0.40625,0.265687495470047,0.37968748807907104],"min":[0.28125,0.265625,0.25468748807907104],"type":"VEC3"},{"bufferView":33,"componentType":5126,"count":24,"max":[1,1,1],"min":[-1,-1,-1],"type":"VEC3"},{"bufferView":34,"componentType":5126,"count":24,"max":[1,1],"min":[0,0],"type":"VEC2"},{"bufferView":35,"componentType":5123,"count":6,"max":[11],"min":[8],"type":"SCALAR"},{"bufferView":36,"componentType":5126,"count":24,"max":[0.0625,0.0000625000029685907,0.0625],"min":[-0.0625,0,-0.0625],"type":"VEC3"},{"bufferView":37,"componentType":5126,"count":24,"max":[1,1,1],"min":[-1,-1,-1],"type":"VEC3"},{"bufferView":38,"componentType":5126,"count":24,"max":[1,1],"min":[0,0],"type":"VEC2"},{"bufferView":39,"componentType":5123,"count":6,"max":[11],"min":[8],"type":"SCALAR"},{"bufferView":40,"componentType":5126,"count":24,"max":[0.0625,0.0000625000029685907,0.0625],"min":[-0.0625,0,-0.0625],"type":"VEC3"},{"bufferView":41,"componentType":5126,"count":24,"max":[1,1,1],"min":[-1,-1,-1],"type":"VEC3"},{"bufferView":42,"componentType":5126,"count":24,"max":[1,1],"min":[0,0],"type":"VEC2"},{"bufferView":43,"componentType":5123,"count":6,"max":[11],"min":[8],"type":"SCALAR"},{"bufferView":44,"componentType":5126,"count":24,"max":[0.0625,0.0000625000029685907,0.0625],"min":[-0.0625,0,-0.0625],"type":"VEC3"},{"bufferView":45,"componentType":5126,"count":24,"max":[1,1,1],"min":[-1,-1,-1],"type":"VEC3"},{"bufferView":46,"componentType":5126,"count":24,"max":[1,1],"min":[0,0],"type":"VEC2"},{"bufferView":47,"componentType":5123,"count":6,"max":[11],"min":[8],"type":"SCALAR"},{"bufferView":48,"componentType":5126,"count":24,"max":[0.0625,0.0000625000029685907,0.0625],"min":[-0.0625,0,-0.0625],"type":"VEC3"},{"bufferView":49,"componentType":5126,"count":24,"max":[1,1,1],"min":[-1,-1,-1],"type":"VEC3"},{"bufferView":50,"componentType":5126,"count":24,"max":[1,1],"min":[0,0],"type":"VEC2"},{"bufferView":51,"componentType":5123,"count":6,"max":[11],"min":[8],"type":"SCALAR"},{"bufferView":52,"componentType":5126,"count":24,"max":[0.0625,0.0000625000029685907,0.0625],"min":[-0.0625,0,-0.0625],"type":"VEC3"},{"bufferView":53,"componentType":5126,"count":24,"max":[1,1,1],"min":[-1,-1,-1],"type":"VEC3"},{"bufferView":54,"componentType":5126,"count":24,"max":[1,1],"min":[0,0],"type":"VEC2"},{"bufferView":55,"componentType":5123,"count":6,"max":[11],"min":[8],"type":"SCALAR"},{"bufferView":56,"componentType":5126,"count":24,"max":[0.0625,0.0000625000029685907,0.0625],"min":[-0.0625,0,-0.0625],"type":"VEC3"},{"bufferView":57,"componentType":5126,"count":24,"max":[1,1,1],"min":[-1,-1,-1],"type":"VEC3"},{"bufferView":58,"componentType":5126,"count":24,"max":[1,1],"min":[0,0],"type":"VEC2"},{"bufferView":59,"componentType":5123,"count":6,"max":[11],"min":[8],"type":"SCALAR"},{"bufferView":60,"componentType":5126,"count":24,"max":[0.40625,0.265687495470047,0.37968748807907104],"min":[0.28125,0.265625,0.25468748807907104],"type":"VEC3"},{"bufferView":61,"componentType":5126,"count":24,"max":[1,1,1],"min":[-1,-1,-1],"type":"VEC3"},{"bufferView":62,"componentType":5126,"count":24,"max":[1,1],"min":[0,0],"type":"VEC2"},{"bufferView":63,"componentType":5123,"count":6,"max":[11],"min":[8],"type":"SCALAR"},{"bufferView":64,"componentType":5126,"count":24,"max":[0.0625,0.0000625000029685907,0.0625],"min":[-0.0625,0,-0.0625],"type":"VEC3"},{"bufferView":65,"componentType":5126,"count":24,"max":[1,1,1],"min":[-1,-1,-1],"type":"VEC3"},{"bufferView":66,"componentType":5126,"count":24,"max":[1,1],"min":[0,0],"type":"VEC2"},{"bufferView":67,"componentType":5123,"count":6,"max":[11],"min":[8],"type":"SCALAR"},{"bufferView":68,"componentType":5126,"count":24,"max":[0.0625,0.0000625000029685907,0.0625],"min":[-0.0625,0,-0.0625],"type":"VEC3"},{"bufferView":69,"componentType":5126,"count":24,"max":[1,1,1],"min":[-1,-1,-1],"type":"VEC3"},{"bufferView":70,"componentType":5126,"count":24,"max":[1,1],"min":[0,0],"type":"VEC2"},{"bufferView":71,"componentType":5123,"count":6,"max":[11],"min":[8],"type":"SCALAR"},{"bufferView":72,"componentType":5126,"count":24,"max":[0.0625,0.0000625000029685907,0.0625],"min":[-0.0625,0,-0.0625],"type":"VEC3"},{"bufferView":73,"componentType":5126,"count":24,"max":[1,1,1],"min":[-1,-1,-1],"type":"VEC3"},{"bufferView":74,"componentType":5126,"count":24,"max":[1,1],"min":[0,0],"type":"VEC2"},{"bufferView":75,"componentType":5123,"count":6,"max":[11],"min":[8],"type":"SCALAR"},{"bufferView":76,"componentType":5126,"count":24,"max":[1,0.375062495470047,0.75],"min":[0.4375,0.375,-0.0625],"type":"VEC3"},{"bufferView":77,"componentType":5126,"count":24,"max":[1,1,1],"min":[-1,-1,-1],"type":"VEC3"},{"bufferView":78,"componentType":5126,"count":24,"max":[1,1],"min":[0,0],"type":"VEC2"},{"bufferView":79,"componentType":5123,"count":6,"max":[11],"min":[8],"type":"SCALAR"},{"bufferView":80,"componentType":5126,"count":24,"max":[1,0.375062495470047,0.625],"min":[0.375,0.375,-0.1875],"type":"VEC3"},{"bufferView":81,"componentType":5126,"count":24,"max":[1,1,1],"min":[-1,-1,-1],"type":"VEC3"},{"bufferView":82,"componentType":5126,"count":24,"max":[1,1],"min":[0,0],"type":"VEC2"},{"bufferView":83,"componentType":5123,"count":6,"max":[11],"min":[8],"type":"SCALAR"},{"bufferView":84,"componentType":5126,"count":24,"max":[0.0625,0.0000625000029685907,0.0625],"min":[-0.0625,0,-0.0625],"type":"VEC3"},{"bufferView":85,"componentType":5126,"count":24,"max":[1,1,1],"min":[-1,-1,-1],"type":"VEC3"},{"bufferView":86,"componentType":5126,"count":24,"max":[1,1],"min":[0,0],"type":"VEC2"},{"bufferView":87,"componentType":5123,"count":6,"max":[11],"min":[8],"type":"SCALAR"}],"materials":[{"pbrMetallicRoughness":{"metallicFactor":0,"roughnessFactor":1,"baseColorTexture":{"index":0}},"alphaMode":"MASK","alphaCutoff":0.05,"doubleSided":true}],"textures":[{"sampler":0,"source":0,"name":"flower_yellow3.png"}],"samplers":[{"magFilter":9728,"minFilter":9728,"wrapS":33071,"wrapT":33071}],"images":[{"mimeType":"image/png","uri":"data:image/png;base64,"}],"meshes":[{"primitives":[{"mode":4,"attributes":{"POSITION":0,"NORMAL":1,"TEXCOORD_0":2},"indices":3,"material":0}]},{"primitives":[{"mode":4,"attributes":{"POSITION":4,"NORMAL":5,"TEXCOORD_0":6},"indices":7,"material":0}]},{"primitives":[{"mode":4,"attributes":{"POSITION":8,"NORMAL":9,"TEXCOORD_0":10},"indices":11,"material":0}]},{"primitives":[{"mode":4,"attributes":{"POSITION":12,"NORMAL":13,"TEXCOORD_0":14},"indices":15,"material":0}]},{"primitives":[{"mode":4,"attributes":{"POSITION":16,"NORMAL":17,"TEXCOORD_0":18},"indices":19,"material":0}]},{"primitives":[{"mode":4,"attributes":{"POSITION":20,"NORMAL":21,"TEXCOORD_0":22},"indices":23,"material":0}]},{"primitives":[{"mode":4,"attributes":{"POSITION":24,"NORMAL":25,"TEXCOORD_0":26},"indices":27,"material":0}]},{"primitives":[{"mode":4,"attributes":{"POSITION":28,"NORMAL":29,"TEXCOORD_0":30},"indices":31,"material":0}]},{"primitives":[{"mode":4,"attributes":{"POSITION":32,"NORMAL":33,"TEXCOORD_0":34},"indices":35,"material":0}]},{"primitives":[{"mode":4,"attributes":{"POSITION":36,"NORMAL":37,"TEXCOORD_0":38},"indices":39,"material":0}]},{"primitives":[{"mode":4,"attributes":{"POSITION":40,"NORMAL":41,"TEXCOORD_0":42},"indices":43,"material":0}]},{"primitives":[{"mode":4,"attributes":{"POSITION":44,"NORMAL":45,"TEXCOORD_0":46},"indices":47,"material":0}]},{"primitives":[{"mode":4,"attributes":{"POSITION":48,"NORMAL":49,"TEXCOORD_0":50},"indices":51,"material":0}]},{"primitives":[{"mode":4,"attributes":{"POSITION":52,"NORMAL":53,"TEXCOORD_0":54},"indices":55,"material":0}]},{"primitives":[{"mode":4,"attributes":{"POSITION":56,"NORMAL":57,"TEXCOORD_0":58},"indices":59,"material":0}]},{"primitives":[{"mode":4,"attributes":{"POSITION":60,"NORMAL":61,"TEXCOORD_0":62},"indices":63,"material":0}]},{"primitives":[{"mode":4,"attributes":{"POSITION":64,"NORMAL":65,"TEXCOORD_0":66},"indices":67,"material":0}]},{"primitives":[{"mode":4,"attributes":{"POSITION":68,"NORMAL":69,"TEXCOORD_0":70},"indices":71,"material":0}]},{"primitives":[{"mode":4,"attributes":{"POSITION":72,"NORMAL":73,"TEXCOORD_0":74},"indices":75,"material":0}]},{"primitives":[{"mode":4,"attributes":{"POSITION":76,"NORMAL":77,"TEXCOORD_0":78},"indices":79,"material":0}]},{"primitives":[{"mode":4,"attributes":{"POSITION":80,"NORMAL":81,"TEXCOORD_0":82},"indices":83,"material":0}]},{"primitives":[{"mode":4,"attributes":{"POSITION":84,"NORMAL":85,"TEXCOORD_0":86},"indices":87,"material":0}]}]}