{"asset":{"version":"2.0","generator":"Blockbench 4.12.4 glTF exporter"},"scenes":[{"nodes":[17],"name":"blockbench_export"}],"scene":0,"nodes":[{"rotation":[-0.19509032201612825,0,0,0.9807852804032304],"translation":[0.15625,0.21875,0.171875],"name":"cube","mesh":0},{"rotation":[0,0,0.19509032201612825,0.9807852804032304],"translation":[0.15625,0.21875,0.171875],"name":"cube","mesh":1},{"rotation":[0.19509032201612825,0,0,0.9807852804032304],"translation":[0.15625,0.21875,0.171875],"name":"cube","mesh":2},{"rotation":[0.19509032201612825,0,0,0.9807852804032304],"translation":[0.15625,0.21875,0.171875],"name":"cube","mesh":3},{"rotation":[0,0,-0.19509032201612825,0.9807852804032304],"translation":[0.15625,0.21875,0.171875],"name":"cube","mesh":4},{"translation":[0.15625,0.21875,0.171875],"name":"cube","mesh":5},{"translation":[0.15625,0.21875,0.171875],"name":"cube","mesh":6},{"rotation":[0,-0.19509032201612825,0,0.9807852804032304],"translation":[0.375,0,0.234375],"name":"cube","mesh":7},{"rotation":[0,-0.19509032201612825,0,0.9807852804032304],"translation":[0.375,0,0.234375],"name":"cube","mesh":8},{"rotation":[0,0.19509032201612825,0,0.9807852804032304],"translation":[0.6875,0,0.71875],"name":"cube","mesh":9},{"rotation":[0,-0.19509032201612825,0,0.9807852804032304],"translation":[0.6875,0,0.71875],"name":"cube","mesh":10},{"rotation":[0,-0.3826834323650898,0,0.9238795325112867],"translation":[0.6875,0,0.71875],"name":"cube","mesh":11},{"rotation":[0,-0.19509032201612825,0,0.9807852804032304],"translation":[0.6875,0,0.71875],"name":"cube","mesh":12},{"rotation":[0,-0.19509032201612825,0,0.9807852804032304],"name":"cube","mesh":13},{"translation":[0.6875,0,0.71875],"name":"cube","mesh":14},{"rotation":[0,0.19509032201612825,0,0.9807852804032304],"name":"cube","mesh":15},{"translation":[-0.34375,0.21875,-0.359375],"name":"group","children":[0,1,2,3,4,5,6,7,8,9,10,11,12,13,14,15]},{"children":[16]}],"bufferViews":[{"buffer":0,"byteOffset":0,"byteLength":288,"target":34962,"byteStride":12},{"buffer":0,"byteOffset":288,"byteLength":288,"target":34962,"byteStride":12},{"buffer":0,"byteOffset":576,"byteLength":192,"target":34962,"byteStride":8},{"buffer":0,"byteOffset":768,"byteLength":12,"target":34963},{"buffer":0,"byteOffset":780,"byteLength":288,"target":34962,"byteStride":12},{"buffer":0,"byteOffset":1068,"byteLength":288,"target":34962,"byteStride":12},{"buffer":0,"byteOffset":1356,"byteLength":192,"target":34962,"byteStride":8},{"buffer":0,"byteOffset":1548,"byteLength":12,"target":34963},{"buffer":0,"byteOffset":1560,"byteLength":288,"target":34962,"byteStride":12},{"buffer":0,"byteOffset":1848,"byteLength":288,"target":34962,"byteStride":12},{"buffer":0,"byteOffset":2136,"byteLength":192,"target":34962,"byteStride":8},{"buffer":0,"byteOffset":2328,"byteLength":12,"target":34963},{"buffer":0,"byteOffset":2340,"byteLength":288,"target":34962,"byteStride":12},{"buffer":0,"byteOffset":2628,"byteLength":288,"target":34962,"byteStride":12},{"buffer":0,"byteOffset":2916,"byteLength":192,"target":34962,"byteStride":8},{"buffer":0,"byteOffset":3108,"byteLength":12,"target":34963},{"buffer":0,"byteOffset":3120,"byteLength":288,"target":34962,"byteStride":12},{"buffer":0,"byteOffset":3408,"byteLength":288,"target":34962,"byteStride":12},{"buffer":0,"byteOffset":3696,"byteLength":192,"target":34962,"byteStride":8},{"buffer":0,"byteOffset":3888,"byteLength":12,"target":34963},{"buffer":0,"byteOffset":3900,"byteLength":288,"target":34962,"byteStride":12},{"buffer":0,"byteOffset":4188,"byteLength":288,"target":34962,"byteStride":12},{"buffer":0,"byteOffset":4476,"byteLength":192,"target":34962,"byteStride":8},{"buffer":0,"byteOffset":4668,"byteLength":12,"target":34963},{"buffer":0,"byteOffset":4680,"byteLength":288,"target":34962,"byteStride":12},{"buffer":0,"byteOffset":4968,"byteLength":288,"target":34962,"byteStride":12},{"buffer":0,"byteOffset":5256,"byteLength":192,"target":34962,"byteStride":8},{"buffer":0,"byteOffset":5448,"byteLength":12,"target":34963},{"buffer":0,"byteOffset":5460,"byteLength":288,"target":34962,"byteStride":12},{"buffer":0,"byteOffset":5748,"byteLength":288,"target":34962,"byteStride":12},{"buffer":0,"byteOffset":6036,"byteLength":192,"target":34962,"byteStride":8},{"buffer":0,"byteOffset":6228,"byteLength":24,"target":34963},{"buffer":0,"byteOffset":6252,"byteLength":288,"target":34962,"byteStride":12},{"buffer":0,"byteOffset":6540,"byteLength":288,"target":34962,"byteStride":12},{"buffer":0,"byteOffset":6828,"byteLength":192,"target":34962,"byteStride":8},{"buffer":0,"byteOffset":7020,"byteLength":24,"target":34963},{"buffer":0,"byteOffset":7044,"byteLength":288,"target":34962,"byteStride":12},{"buffer":0,"byteOffset":7332,"byteLength":288,"target":34962,"byteStride":12},{"buffer":0,"byteOffset":7620,"byteLength":192,"target":34962,"byteStride":8},{"buffer":0,"byteOffset":7812,"byteLength":24,"target":34963},{"buffer":0,"byteOffset":7836,"byteLength":288,"target":34962,"byteStride":12},{"buffer":0,"byteOffset":8124,"byteLength":288,"target":34962,"byteStride":12},{"buffer":0,"byteOffset":8412,"byteLength":192,"target":34962,"byteStride":8},{"buffer":0,"byteOffset":8604,"byteLength":24,"target":34963},{"buffer":0,"byteOffset":8628,"byteLength":288,"target":34962,"byteStride":12},{"buffer":0,"byteOffset":8916,"byteLength":288,"target":34962,"byteStride":12},{"buffer":0,"byteOffset":9204,"byteLength":192,"target":34962,"byteStride":8},{"buffer":0,"byteOffset":9396,"byteLength":24,"target":34963},{"buffer":0,"byteOffset":9420,"byteLength":288,"target":34962,"byteStride":12},{"buffer":0,"byteOffset":9708,"byteLength":288,"target":34962,"byteStride":12},{"buffer":0,"byteOffset":9996,"byteLength":192,"target":34962,"byteStride":8},{"buffer":0,"byteOffset":10188,"byteLength":24,"target":34963},{"buffer":0,"byteOffset":10212,"byteLength":288,"target":34962,"byteStride":12},{"buffer":0,"byteOffset":10500,"byteLength":288,"target":34962,"byteStride":12},{"buffer":0,"byteOffset":10788,"byteLength":192,"target":34962,"byteStride":8},{"buffer":0,"byteOffset":10980,"byteLength":24,"target":34963},{"buffer":0,"byteOffset":11004,"byteLength":288,"target":34962,"byteStride":12},{"buffer":0,"byteOffset":11292,"byteLength":288,"target":34962,"byteStride":12},{"buffer":0,"byteOffset":11580,"byteLength":192,"target":34962,"byteStride":8},{"buffer":0,"byteOffset":11772,"byteLength":24,"target":34963},{"buffer":0,"byteOffset":11796,"byteLength":288,"target":34962,"byteStride":12},{"buffer":0,"byteOffset":12084,"byteLength":288,"target":34962,"byteStride":12},{"buffer":0,"byteOffset":12372,"byteLength":192,"target":34962,"byteStride":8},{"buffer":0,"byteOffset":12564,"byteLength":24,"target":34963}],"buffers":[{"byteLength":12588,"uri":"data:application/octet-stream;base64,"}],"accessors":[{"bufferView":0,"componentType":5126,"count":24,"max":[0.3125,0.15162500739097595,-0.0625],"min":[0.0625,0.15156249701976776,-0.3125],"type":"VEC3"},{"bufferView":1,"componentType":5126,"count":24,"max":[1,1,1],"min":[-1,-1,-1],"type":"VEC3"},{"bufferView":2,"componentType":5126,"count":24,"max":[1,1],"min":[0,0],"type":"VEC2"},{"bufferView":3,"componentType":5123,"count":6,"max":[11],"min":[8],"type":"SCALAR"},{"bufferView":4,"componentType":5126,"count":24,"max":[0,0.07506249845027924,0.1875],"min":[-0.3125,0.07500000298023224,-0.125],"type":"VEC3"},{"bufferView":5,"componentType":5126,"count":24,"max":[1,1,1],"min":[-1,-1,-1],"type":"VEC3"},{"bufferView":6,"componentType":5126,"count":24,"max":[1,1],"min":[0,0],"type":"VEC2"},{"bufferView":7,"componentType":5123,"count":6,"max":[11],"min":[8],"type":"SCALAR"},{"bufferView":8,"componentType":5126,"count":24,"max":[0.0625,0.20475000143051147,0.625],"min":[-0.25,0.20468750596046448,0.3125],"type":"VEC3"},{"bufferView":9,"componentType":5126,"count":24,"max":[1,1,1],"min":[-1,-1,-1],"type":"VEC3"},{"bufferView":10,"componentType":5126,"count":24,"max":[1,1],"min":[0,0],"type":"VEC2"},{"bufferView":11,"componentType":5123,"count":6,"max":[11],"min":[8],"type":"SCALAR"},{"bufferView":12,"componentType":5126,"count":24,"max":[0.5,0.187562495470047,0.6875],"min":[0.25,0.1875,0.4375],"type":"VEC3"},{"bufferView":13,"componentType":5126,"count":24,"max":[1,1,1],"min":[-1,-1,-1],"type":"VEC3"},{"bufferView":14,"componentType":5126,"count":24,"max":[1,1],"min":[0,0],"type":"VEC2"},{"bufferView":15,"componentType":5123,"count":6,"max":[11],"min":[8],"type":"SCALAR"},{"bufferView":16,"componentType":5126,"count":24,"max":[0.625,0.218812495470047,0.0625],"min":[0.375,0.21875,-0.1875],"type":"VEC3"},{"bufferView":17,"componentType":5126,"count":24,"max":[1,1,1],"min":[-1,-1,-1],"type":"VEC3"},{"bufferView":18,"componentType":5126,"count":24,"max":[1,1],"min":[0,0],"type":"VEC2"},{"bufferView":19,"componentType":5123,"count":6,"max":[11],"min":[8],"type":"SCALAR"},{"bufferView":20,"componentType":5126,"count":24,"max":[0.25,0.187562495470047,0.25],"min":[0,0.1875,0],"type":"VEC3"},{"bufferView":21,"componentType":5126,"count":24,"max":[1,1,1],"min":[-1,-1,-1],"type":"VEC3"},{"bufferView":22,"componentType":5126,"count":24,"max":[1,1],"min":[0,0],"type":"VEC2"},{"bufferView":23,"componentType":5123,"count":6,"max":[11],"min":[8],"type":"SCALAR"},{"bufferView":24,"componentType":5126,"count":24,"max":[0.625,0.125062495470047,0.4375],"min":[0.3125,0.125,0.125],"type":"VEC3"},{"bufferView":25,"componentType":5126,"count":24,"max":[1,1,1],"min":[-1,-1,-1],"type":"VEC3"},{"bufferView":26,"componentType":5126,"count":24,"max":[1,1],"min":[0,0],"type":"VEC2"},{"bufferView":27,"componentType":5123,"count":6,"max":[11],"min":[8],"type":"SCALAR"},{"bufferView":28,"componentType":5126,"count":24,"max":[-0.1249374970793724,0.28125,0.546875],"min":[-0.125,-0.21875,-0.328125],"type":"VEC3"},{"bufferView":29,"componentType":5126,"count":24,"max":[1,1,1],"min":[-1,-1,-1],"type":"VEC3"},{"bufferView":30,"componentType":5126,"count":24,"max":[1,1],"min":[0,0],"type":"VEC2"},{"bufferView":31,"componentType":5123,"count":12,"max":[7],"min":[0],"type":"SCALAR"},{"bufferView":32,"componentType":5126,"count":24,"max":[0.46875,0.40625,0.0938125029206276],"min":[-0.46875,-0.21875,0.09375],"type":"VEC3"},{"bufferView":33,"componentType":5126,"count":24,"max":[1,1,1],"min":[-1,-1,-1],"type":"VEC3"},{"bufferView":34,"componentType":5126,"count":24,"max":[1,1],"min":[0,0],"type":"VEC2"},{"bufferView":35,"componentType":5123,"count":12,"max":[23],"min":[16],"type":"SCALAR"},{"bufferView":36,"componentType":5126,"count":24,"max":[0.15156249701976776,0.21875,-0.028062500059604645],"min":[-0.22343750298023224,-0.21875,-0.02812499925494194],"type":"VEC3"},{"bufferView":37,"componentType":5126,"count":24,"max":[1,1,1],"min":[-1,-1,-1],"type":"VEC3"},{"bufferView":38,"componentType":5126,"count":24,"max":[1,1],"min":[0,0],"type":"VEC2"},{"bufferView":39,"componentType":5123,"count":12,"max":[23],"min":[16],"type":"SCALAR"},{"bufferView":40,"componentType":5126,"count":24,"max":[-0.8468124866485596,0.21875,-0.11406250298023224],"min":[-0.846875011920929,-0.21875,-0.48906248807907104],"type":"VEC3"},{"bufferView":41,"componentType":5126,"count":24,"max":[1,1,1],"min":[-1,-1,-1],"type":"VEC3"},{"bufferView":42,"componentType":5126,"count":24,"max":[1,1],"min":[0,0],"type":"VEC2"},{"bufferView":43,"componentType":5123,"count":12,"max":[7],"min":[0],"type":"SCALAR"},{"bufferView":44,"componentType":5126,"count":24,"max":[-0.16093750298023224,0.21875,0.34693750739097595],"min":[-0.785937488079071,-0.21875,0.34687501192092896],"type":"VEC3"},{"bufferView":45,"componentType":5126,"count":24,"max":[1,1,1],"min":[-1,-1,-1],"type":"VEC3"},{"bufferView":46,"componentType":5126,"count":24,"max":[1,1],"min":[0,0],"type":"VEC2"},{"bufferView":47,"componentType":5123,"count":12,"max":[23],"min":[16],"type":"SCALAR"},{"bufferView":48,"componentType":5126,"count":24,"max":[-0.23118749260902405,0.21875,-0.08906249701976776],"min":[-0.23125000298023224,-0.21875,-0.714062511920929],"type":"VEC3"},{"bufferView":49,"componentType":5126,"count":24,"max":[1,1,1],"min":[-1,-1,-1],"type":"VEC3"},{"bufferView":50,"componentType":5126,"count":24,"max":[1,1],"min":[0,0],"type":"VEC2"},{"bufferView":51,"componentType":5123,"count":12,"max":[7],"min":[0],"type":"SCALAR"},{"bufferView":52,"componentType":5126,"count":24,"max":[0.785937488079071,0.21875,-0.09681250154972076],"min":[-0.02656250074505806,-0.21875,-0.09687499701976776],"type":"VEC3"},{"bufferView":53,"componentType":5126,"count":24,"max":[1,1,1],"min":[-1,-1,-1],"type":"VEC3"},{"bufferView":54,"componentType":5126,"count":24,"max":[1,1],"min":[0,0],"type":"VEC2"},{"bufferView":55,"componentType":5123,"count":12,"max":[23],"min":[16],"type":"SCALAR"},{"bufferView":56,"componentType":5126,"count":24,"max":[0.09693749994039536,0.09375,0.09843750298023224],"min":[0.09687499701976776,-0.21875,-0.589062511920929],"type":"VEC3"},{"bufferView":57,"componentType":5126,"count":24,"max":[1,1,1],"min":[-1,-1,-1],"type":"VEC3"},{"bufferView":58,"componentType":5126,"count":24,"max":[1,1],"min":[0,0],"type":"VEC2"},{"bufferView":59,"componentType":5123,"count":12,"max":[7],"min":[0],"type":"SCALAR"},{"bufferView":60,"componentType":5126,"count":24,"max":[0.20781250298023224,0.09375,0.7000625133514404],"min":[-0.41718751192092896,-0.21875,0.699999988079071],"type":"VEC3"},{"bufferView":61,"componentType":5126,"count":24,"max":[1,1,1],"min":[-1,-1,-1],"type":"VEC3"},{"bufferView":62,"componentType":5126,"count":24,"max":[1,1],"min":[0,0],"type":"VEC2"},{"bufferView":63,"componentType":5123,"count":12,"max":[23],"min":[16],"type":"SCALAR"}],"materials":[{"pbrMetallicRoughness":{"metallicFactor":0,"roughnessFactor":1,"baseColorTexture":{"index":0}},"alphaMode":"MASK","alphaCutoff":0.05,"doubleSided":true}],"textures":[{"sampler":0,"source":0,"name":"flower_white.png"}],"samplers":[{"magFilter":9728,"minFilter":9728,"wrapS":33071,"wrapT":33071}],"images":[{"mimeType":"image/png","uri":"data:image/png;base64,"}],"meshes":[{"primitives":[{"mode":4,"attributes":{"POSITION":0,"NORMAL":1,"TEXCOORD_0":2},"indices":3,"material":0}]},{"primitives":[{"mode":4,"attributes":{"POSITION":4,"NORMAL":5,"TEXCOORD_0":6},"indices":7,"material":0}]},{"primitives":[{"mode":4,"attributes":{"POSITION":8,"NORMAL":9,"TEXCOORD_0":10},"indices":11,"material":0}]},{"primitives":[{"mode":4,"attributes":{"POSITION":12,"NORMAL":13,"TEXCOORD_0":14},"indices":15,"material":0}]},{"primitives":[{"mode":4,"attributes":{"POSITION":16,"NORMAL":17,"TEXCOORD_0":18},"indices":19,"material":0}]},{"primitives":[{"mode":4,"attributes":{"POSITION":20,"NORMAL":21,"TEXCOORD_0":22},"indices":23,"material":0}]},{"primitives":[{"mode":4,"attributes":{"POSITION":24,"NORMAL":25,"TEXCOORD_0":26},"indices":27,"material":0}]},{"primitives":[{"mode":4,"attributes":{"POSITION":28,"NORMAL":29,"TEXCOORD_0":30},"indices":31,"material":0}]},{"primitives":[{"mode":4,"attributes":{"POSITION":32,"NORMAL":33,"TEXCOORD_0":34},"indices":35,"material":0}]},{"primitives":[{"mode":4,"attributes":{"POSITION":36,"NORMAL":37,"TEXCOORD_0":38},"indices":39,"material":0}]},{"primitives":[{"mode":4,"attributes":{"POSITION":40,"NORMAL":41,"TEXCOORD_0":42},"indices":43,"material":0}]},{"primitives":[{"mode":4,"attributes":{"POSITION":44,"NORMAL":45,"TEXCOORD_0":46},"indices":47,"material":0}]},{"primitives":[{"mode":4,"attributes":{"POSITION":48,"NORMAL":49,"TEXCOORD_0":50},"indices":51,"material":0}]},{"primitives":[{"mode":4,"attributes":{"POSITION":52,"NORMAL":53,"TEXCOORD_0":54},"indices":55,"material":0}]},{"primitives":[{"mode":4,"attributes":{"POSITION":56,"NORMAL":57,"TEXCOORD_0":58},"indices":59,"material":0}]},{"primitives":[{"mode":4,"attributes":{"POSITION":60,"NORMAL":61,"TEXCOORD_0":62},"indices":63,"material":0}]}]}