{"asset":{"version":"2.0","generator":"Blockbench 4.12.4 glTF exporter"},"scenes":[{"nodes":[24],"name":"blockbench_export"}],"scene":0,"nodes":[{"rotation":[0,0.19509032201612825,0,0.9807852804032304],"translation":[-0.10120608377971241,0.125,-0.43959340187349605],"name":"cube","mesh":0},{"rotation":[0,0.19509032201612825,0,0.9807852804032304],"translation":[-0.1949560837797124,0.125,-0.34584340187349605],"name":"cube","mesh":1},{"rotation":[0,0.19509032201612825,0,0.9807852804032304],"translation":[-0.1949560837797124,0.125,-0.34584340187349605],"name":"cube","mesh":2},{"rotation":[0,0.3826834323650898,0,0.9238795325112867],"translation":[0.02127544026220818,0.09375,-0.5917902593269311],"name":"cube","mesh":3},{"rotation":[0,0.19509032201612825,0,0.9807852804032304],"translation":[-0.1949560837797124,0.125,-0.34584340187349605],"name":"cube","mesh":4},{"rotation":[0,-0.19509032201612825,0,0.9807852804032304],"translation":[-0.11683108377971241,0.125,-0.28334340187349605],"name":"cube","mesh":5},{"rotation":[0,0,0.19509032201612825,0.9807852804032304],"translation":[-0.5230810837797124,0.21874999999999983,-0.783343401873496],"name":"cube","mesh":6},{"rotation":[0,0,0.19509032201612825,0.9807852804032304],"translation":[-0.1480810837797124,0.29687499999999983,-0.40834340187349605],"name":"cube","mesh":7},{"rotation":[0.19509032201612825,0,0,0.9807852804032304],"translation":[-0.5512060837797125,0.29687499999999983,-0.23334340187349623],"name":"cube","mesh":8},{"rotation":[-0.19509032201612825,0,0,0.9807852804032304],"translation":[-0.3012060837797125,0.2874999999999997,-0.08490590187349611],"name":"cube","mesh":9},{"rotation":[0,0,-0.19509032201612825,0.9807852804032304],"translation":[0.07066891622028737,0.30468749999999994,-0.658343401873496],"name":"cube","mesh":10},{"rotation":[-0.19509032201612825,0,0,0.9807852804032304],"translation":[0.2112939162202876,0.23437499999999983,-0.15834340187349605],"name":"cube","mesh":11},{"rotation":[0.19509032201612825,0,0,0.9807852804032304],"translation":[-0.2887060837797124,0.2281249999999997,-0.002093401873496048],"name":"cube","mesh":12},{"translation":[-0.6949560837797124,-0.15625000000000017,-0.845843401873496],"name":"cube","mesh":13},{"translation":[-0.6949560837797124,-0.15625000000000017,-0.845843401873496],"name":"cube","mesh":14},{"translation":[-0.6949560837797124,-0.15625000000000017,-0.845843401873496],"name":"cube","mesh":15},{"translation":[-0.6949560837797124,-0.15625000000000017,-0.845843401873496],"name":"cube","mesh":16},{"rotation":[0,0,0.19509032201612825,0.9807852804032304],"translation":[-0.1480810837797124,0.29687499999999983,-0.40834340187349605],"name":"cube","mesh":17},{"rotation":[0,0,-0.19509032201612825,0.9807852804032304],"translation":[-0.1480810837797124,0.29687499999999983,-0.40834340187349605],"name":"cube","mesh":18},{"rotation":[0,-0.19509032201612825,0,0.9807852804032304],"translation":[-0.29715332570369224,0.03125,0.001012038676541538],"name":"cube","mesh":19},{"rotation":[0,0.19509032201612825,0,0.9807852804032304],"translation":[-0.6557400056109144,-0.15625000000000017,-0.7653048958004524],"name":"cube","mesh":20},{"rotation":[0,-0.3826834323650898,0,0.9238795325112867],"name":"cube","mesh":21},{"rotation":[0,-0.19509032201612825,0,0.9807852804032304],"translation":[0.1334232274560243,-0.03125,-0.5582497072049643],"name":"cube","mesh":22},{"translation":[0.1949560837797124,0.15625000000000017,0.34584340187349605],"name":"flower","children":[0,1,2,3,4,5,6,7,8,9,10,11,12,13,14,15,16,17,18,19,20,21,22]},{"children":[23]}],"bufferViews":[{"buffer":0,"byteOffset":0,"byteLength":288,"target":34962,"byteStride":12},{"buffer":0,"byteOffset":288,"byteLength":288,"target":34962,"byteStride":12},{"buffer":0,"byteOffset":576,"byteLength":192,"target":34962,"byteStride":8},{"buffer":0,"byteOffset":768,"byteLength":24,"target":34963},{"buffer":0,"byteOffset":792,"byteLength":288,"target":34962,"byteStride":12},{"buffer":0,"byteOffset":1080,"byteLength":288,"target":34962,"byteStride":12},{"buffer":0,"byteOffset":1368,"byteLength":192,"target":34962,"byteStride":8},{"buffer":0,"byteOffset":1560,"byteLength":24,"target":34963},{"buffer":0,"byteOffset":1584,"byteLength":288,"target":34962,"byteStride":12},{"buffer":0,"byteOffset":1872,"byteLength":288,"target":34962,"byteStride":12},{"buffer":0,"byteOffset":2160,"byteLength":192,"target":34962,"byteStride":8},{"buffer":0,"byteOffset":2352,"byteLength":24,"target":34963},{"buffer":0,"byteOffset":2376,"byteLength":288,"target":34962,"byteStride":12},{"buffer":0,"byteOffset":2664,"byteLength":288,"target":34962,"byteStride":12},{"buffer":0,"byteOffset":2952,"byteLength":192,"target":34962,"byteStride":8},{"buffer":0,"byteOffset":3144,"byteLength":24,"target":34963},{"buffer":0,"byteOffset":3168,"byteLength":288,"target":34962,"byteStride":12},{"buffer":0,"byteOffset":3456,"byteLength":288,"target":34962,"byteStride":12},{"buffer":0,"byteOffset":3744,"byteLength":192,"target":34962,"byteStride":8},{"buffer":0,"byteOffset":3936,"byteLength":24,"target":34963},{"buffer":0,"byteOffset":3960,"byteLength":288,"target":34962,"byteStride":12},{"buffer":0,"byteOffset":4248,"byteLength":288,"target":34962,"byteStride":12},{"buffer":0,"byteOffset":4536,"byteLength":192,"target":34962,"byteStride":8},{"buffer":0,"byteOffset":4728,"byteLength":24,"target":34963},{"buffer":0,"byteOffset":4752,"byteLength":288,"target":34962,"byteStride":12},{"buffer":0,"byteOffset":5040,"byteLength":288,"target":34962,"byteStride":12},{"buffer":0,"byteOffset":5328,"byteLength":192,"target":34962,"byteStride":8},{"buffer":0,"byteOffset":5520,"byteLength":12,"target":34963},{"buffer":0,"byteOffset":5532,"byteLength":288,"target":34962,"byteStride":12},{"buffer":0,"byteOffset":5820,"byteLength":288,"target":34962,"byteStride":12},{"buffer":0,"byteOffset":6108,"byteLength":192,"target":34962,"byteStride":8},{"buffer":0,"byteOffset":6300,"byteLength":12,"target":34963},{"buffer":0,"byteOffset":6312,"byteLength":288,"target":34962,"byteStride":12},{"buffer":0,"byteOffset":6600,"byteLength":288,"target":34962,"byteStride":12},{"buffer":0,"byteOffset":6888,"byteLength":192,"target":34962,"byteStride":8},{"buffer":0,"byteOffset":7080,"byteLength":12,"target":34963},{"buffer":0,"byteOffset":7092,"byteLength":288,"target":34962,"byteStride":12},{"buffer":0,"byteOffset":7380,"byteLength":288,"target":34962,"byteStride":12},{"buffer":0,"byteOffset":7668,"byteLength":192,"target":34962,"byteStride":8},{"buffer":0,"byteOffset":7860,"byteLength":12,"target":34963},{"buffer":0,"byteOffset":7872,"byteLength":288,"target":34962,"byteStride":12},{"buffer":0,"byteOffset":8160,"byteLength":288,"target":34962,"byteStride":12},{"buffer":0,"byteOffset":8448,"byteLength":192,"target":34962,"byteStride":8},{"buffer":0,"byteOffset":8640,"byteLength":12,"target":34963},{"buffer":0,"byteOffset":8652,"byteLength":288,"target":34962,"byteStride":12},{"buffer":0,"byteOffset":8940,"byteLength":288,"target":34962,"byteStride":12},{"buffer":0,"byteOffset":9228,"byteLength":192,"target":34962,"byteStride":8},{"buffer":0,"byteOffset":9420,"byteLength":12,"target":34963},{"buffer":0,"byteOffset":9432,"byteLength":288,"target":34962,"byteStride":12},{"buffer":0,"byteOffset":9720,"byteLength":288,"target":34962,"byteStride":12},{"buffer":0,"byteOffset":10008,"byteLength":192,"target":34962,"byteStride":8},{"buffer":0,"byteOffset":10200,"byteLength":12,"target":34963},{"buffer":0,"byteOffset":10212,"byteLength":288,"target":34962,"byteStride":12},{"buffer":0,"byteOffset":10500,"byteLength":288,"target":34962,"byteStride":12},{"buffer":0,"byteOffset":10788,"byteLength":192,"target":34962,"byteStride":8},{"buffer":0,"byteOffset":10980,"byteLength":12,"target":34963},{"buffer":0,"byteOffset":10992,"byteLength":288,"target":34962,"byteStride":12},{"buffer":0,"byteOffset":11280,"byteLength":288,"target":34962,"byteStride":12},{"buffer":0,"byteOffset":11568,"byteLength":192,"target":34962,"byteStride":8},{"buffer":0,"byteOffset":11760,"byteLength":12,"target":34963},{"buffer":0,"byteOffset":11772,"byteLength":288,"target":34962,"byteStride":12},{"buffer":0,"byteOffset":12060,"byteLength":288,"target":34962,"byteStride":12},{"buffer":0,"byteOffset":12348,"byteLength":192,"target":34962,"byteStride":8},{"buffer":0,"byteOffset":12540,"byteLength":12,"target":34963},{"buffer":0,"byteOffset":12552,"byteLength":288,"target":34962,"byteStride":12},{"buffer":0,"byteOffset":12840,"byteLength":288,"target":34962,"byteStride":12},{"buffer":0,"byteOffset":13128,"byteLength":192,"target":34962,"byteStride":8},{"buffer":0,"byteOffset":13320,"byteLength":12,"target":34963},{"buffer":0,"byteOffset":13332,"byteLength":288,"target":34962,"byteStride":12},{"buffer":0,"byteOffset":13620,"byteLength":288,"target":34962,"byteStride":12},{"buffer":0,"byteOffset":13908,"byteLength":192,"target":34962,"byteStride":8},{"buffer":0,"byteOffset":14100,"byteLength":12,"target":34963},{"buffer":0,"byteOffset":14112,"byteLength":288,"target":34962,"byteStride":12},{"buffer":0,"byteOffset":14400,"byteLength":288,"target":34962,"byteStride":12},{"buffer":0,"byteOffset":14688,"byteLength":192,"target":34962,"byteStride":8},{"buffer":0,"byteOffset":14880,"byteLength":12,"target":34963},{"buffer":0,"byteOffset":14892,"byteLength":288,"target":34962,"byteStride":12},{"buffer":0,"byteOffset":15180,"byteLength":288,"target":34962,"byteStride":12},{"buffer":0,"byteOffset":15468,"byteLength":192,"target":34962,"byteStride":8},{"buffer":0,"byteOffset":15660,"byteLength":24,"target":34963},{"buffer":0,"byteOffset":15684,"byteLength":288,"target":34962,"byteStride":12},{"buffer":0,"byteOffset":15972,"byteLength":288,"target":34962,"byteStride":12},{"buffer":0,"byteOffset":16260,"byteLength":192,"target":34962,"byteStride":8},{"buffer":0,"byteOffset":16452,"byteLength":24,"target":34963},{"buffer":0,"byteOffset":16476,"byteLength":288,"target":34962,"byteStride":12},{"buffer":0,"byteOffset":16764,"byteLength":288,"target":34962,"byteStride":12},{"buffer":0,"byteOffset":17052,"byteLength":192,"target":34962,"byteStride":8},{"buffer":0,"byteOffset":17244,"byteLength":24,"target":34963},{"buffer":0,"byteOffset":17268,"byteLength":288,"target":34962,"byteStride":12},{"buffer":0,"byteOffset":17556,"byteLength":288,"target":34962,"byteStride":12},{"buffer":0,"byteOffset":17844,"byteLength":192,"target":34962,"byteStride":8},{"buffer":0,"byteOffset":18036,"byteLength":24,"target":34963}],"buffers":[{"byteLength":18060,"uri":"data:application/octet-stream;base64,"}],"accessors":[{"bufferView":0,"componentType":5126,"count":24,"max":[0.18828125298023224,0.15625,-0.3089338541030884],"min":[-0.49921876192092896,-0.28125,-0.3089963495731354],"type":"VEC3"},{"bufferView":1,"componentType":5126,"count":24,"max":[1,1,1],"min":[-1,-1,-1],"type":"VEC3"},{"bufferView":2,"componentType":5126,"count":24,"max":[1,1],"min":[0,0],"type":"VEC2"},{"bufferView":3,"componentType":5123,"count":12,"max":[23],"min":[16],"type":"SCALAR"},{"bufferView":4,"componentType":5126,"count":24,"max":[-0.14134374260902405,0.15625,0.03319115564227104],"min":[-0.14140625298023224,-0.28125,-0.5918088555335999],"type":"VEC3"},{"bufferView":5,"componentType":5126,"count":24,"max":[1,1,1],"min":[-1,-1,-1],"type":"VEC3"},{"bufferView":6,"componentType":5126,"count":24,"max":[1,1],"min":[0,0],"type":"VEC2"},{"bufferView":7,"componentType":5123,"count":12,"max":[7],"min":[0],"type":"SCALAR"},{"bufferView":8,"componentType":5126,"count":24,"max":[0.15553125739097595,0.40625,0.4738161563873291],"min":[0.15546874701976776,-0.28125,-0.2136838436126709],"type":"VEC3"},{"bufferView":9,"componentType":5126,"count":24,"max":[1,1,1],"min":[-1,-1,-1],"type":"VEC3"},{"bufferView":10,"componentType":5126,"count":24,"max":[1,1],"min":[0,0],"type":"VEC2"},{"bufferView":11,"componentType":5123,"count":12,"max":[7],"min":[0],"type":"SCALAR"},{"bufferView":12,"componentType":5126,"count":24,"max":[0.3125,0.25,0.0000625000029685907],"min":[-0.3125,-0.25,0],"type":"VEC3"},{"bufferView":13,"componentType":5126,"count":24,"max":[1,1,1],"min":[-1,-1,-1],"type":"VEC3"},{"bufferView":14,"componentType":5126,"count":24,"max":[1,1],"min":[0,0],"type":"VEC2"},{"bufferView":15,"componentType":5123,"count":12,"max":[23],"min":[16],"type":"SCALAR"},{"bufferView":16,"componentType":5126,"count":24,"max":[0.36756086349487305,0.15625,0.3090588450431824],"min":[-0.25743913650512695,-0.28125,0.3089963495731354],"type":"VEC3"},{"bufferView":17,"componentType":5126,"count":24,"max":[1,1,1],"min":[-1,-1,-1],"type":"VEC3"},{"bufferView":18,"componentType":5126,"count":24,"max":[1,1],"min":[0,0],"type":"VEC2"},{"bufferView":19,"componentType":5123,"count":12,"max":[23],"min":[16],"type":"SCALAR"},{"bufferView":20,"componentType":5126,"count":24,"max":[0.15703125298023224,0.28125,0.23794116079807281],"min":[-0.46796876192092896,-0.28125,0.23787865042686462],"type":"VEC3"},{"bufferView":21,"componentType":5126,"count":24,"max":[1,1,1],"min":[-1,-1,-1],"type":"VEC3"},{"bufferView":22,"componentType":5126,"count":24,"max":[1,1],"min":[0,0],"type":"VEC2"},{"bufferView":23,"componentType":5123,"count":12,"max":[23],"min":[16],"type":"SCALAR"},{"bufferView":24,"componentType":5126,"count":24,"max":[0.0625,0.0625625029206276,0.0625],"min":[-0.0625,0.0625,-0.0625],"type":"VEC3"},{"bufferView":25,"componentType":5126,"count":24,"max":[1,1,1],"min":[-1,-1,-1],"type":"VEC3"},{"bufferView":26,"componentType":5126,"count":24,"max":[1,1],"min":[0,0],"type":"VEC2"},{"bufferView":27,"componentType":5123,"count":6,"max":[11],"min":[8],"type":"SCALAR"},{"bufferView":28,"componentType":5126,"count":24,"max":[0.0625,-0.1264999955892563,0.0078125],"min":[-0.0625,-0.12656250596046448,-0.1171875],"type":"VEC3"},{"bufferView":29,"componentType":5126,"count":24,"max":[1,1,1],"min":[-1,-1,-1],"type":"VEC3"},{"bufferView":30,"componentType":5126,"count":24,"max":[1,1],"min":[0,0],"type":"VEC2"},{"bufferView":31,"componentType":5123,"count":6,"max":[11],"min":[8],"type":"SCALAR"},{"bufferView":32,"componentType":5126,"count":24,"max":[0.0625,0.0625625029206276,0.0625],"min":[-0.0625,0.0625,-0.0625],"type":"VEC3"},{"bufferView":33,"componentType":5126,"count":24,"max":[1,1,1],"min":[-1,-1,-1],"type":"VEC3"},{"bufferView":34,"componentType":5126,"count":24,"max":[1,1],"min":[0,0],"type":"VEC2"},{"bufferView":35,"componentType":5123,"count":6,"max":[11],"min":[8],"type":"SCALAR"},{"bufferView":36,"componentType":5126,"count":24,"max":[0.0625,0,0.03593749925494194],"min":[-0.0625,-1.1102230246251565e-16,-0.08906249701976776],"type":"VEC3"},{"bufferView":37,"componentType":5126,"count":24,"max":[1,1,1],"min":[-1,-1,-1],"type":"VEC3"},{"bufferView":38,"componentType":5126,"count":24,"max":[1,1],"min":[0,0],"type":"VEC2"},{"bufferView":39,"componentType":5123,"count":6,"max":[11],"min":[8],"type":"SCALAR"},{"bufferView":40,"componentType":5126,"count":24,"max":[0.17812499403953552,-0.046812500804662704,-0.02500000037252903],"min":[0.05312500149011612,-0.046875,-0.15000000596046448],"type":"VEC3"},{"bufferView":41,"componentType":5126,"count":24,"max":[1,1,1],"min":[-1,-1,-1],"type":"VEC3"},{"bufferView":42,"componentType":5126,"count":24,"max":[1,1],"min":[0,0],"type":"VEC2"},{"bufferView":43,"componentType":5123,"count":6,"max":[11],"min":[8],"type":"SCALAR"},{"bufferView":44,"componentType":5126,"count":24,"max":[0.0625,-0.11868750303983688,-0.04374999925494194],"min":[-0.0625,-0.11874999850988388,-0.16875000298023224],"type":"VEC3"},{"bufferView":45,"componentType":5126,"count":24,"max":[1,1,1],"min":[-1,-1,-1],"type":"VEC3"},{"bufferView":46,"componentType":5126,"count":24,"max":[1,1],"min":[0,0],"type":"VEC2"},{"bufferView":47,"componentType":5123,"count":6,"max":[11],"min":[8],"type":"SCALAR"},{"bufferView":48,"componentType":5126,"count":24,"max":[0.0625,0.0625625029206276,0.0625],"min":[-0.0625,0.0625,-0.0625],"type":"VEC3"},{"bufferView":49,"componentType":5126,"count":24,"max":[1,1,1],"min":[-1,-1,-1],"type":"VEC3"},{"bufferView":50,"componentType":5126,"count":24,"max":[1,1],"min":[0,0],"type":"VEC2"},{"bufferView":51,"componentType":5123,"count":6,"max":[11],"min":[8],"type":"SCALAR"},{"bufferView":52,"componentType":5126,"count":24,"max":[0.625,0.437562495470047,0.625],"min":[0,0.4375,0],"type":"VEC3"},{"bufferView":53,"componentType":5126,"count":24,"max":[1,1,1],"min":[-1,-1,-1],"type":"VEC3"},{"bufferView":54,"componentType":5126,"count":24,"max":[1,1],"min":[0,0],"type":"VEC2"},{"bufferView":55,"componentType":5123,"count":6,"max":[11],"min":[8],"type":"SCALAR"},{"bufferView":56,"componentType":5126,"count":24,"max":[0.625,0.5000625252723694,0.9375],"min":[0,0.5,0.5],"type":"VEC3"},{"bufferView":57,"componentType":5126,"count":24,"max":[1,1,1],"min":[-1,-1,-1],"type":"VEC3"},{"bufferView":58,"componentType":5126,"count":24,"max":[1,1],"min":[0,0],"type":"VEC2"},{"bufferView":59,"componentType":5123,"count":6,"max":[11],"min":[8],"type":"SCALAR"},{"bufferView":60,"componentType":5126,"count":24,"max":[1,0.375062495470047,0.5],"min":[0.375,0.375,0.0625],"type":"VEC3"},{"bufferView":61,"componentType":5126,"count":24,"max":[1,1,1],"min":[-1,-1,-1],"type":"VEC3"},{"bufferView":62,"componentType":5126,"count":24,"max":[1,1],"min":[0,0],"type":"VEC2"},{"bufferView":63,"componentType":5123,"count":6,"max":[11],"min":[8],"type":"SCALAR"},{"bufferView":64,"componentType":5126,"count":24,"max":[0.875,0.6875625252723694,0.875],"min":[0.5,0.6875,0.0625],"type":"VEC3"},{"bufferView":65,"componentType":5126,"count":24,"max":[1,1,1],"min":[-1,-1,-1],"type":"VEC3"},{"bufferView":66,"componentType":5126,"count":24,"max":[1,1],"min":[0,0],"type":"VEC2"},{"bufferView":67,"componentType":5123,"count":6,"max":[11],"min":[8],"type":"SCALAR"},{"bufferView":68,"componentType":5126,"count":24,"max":[0.2109375,0.059437498450279236,0.125],"min":[0.0859375,0.05937499925494194,0],"type":"VEC3"},{"bufferView":69,"componentType":5126,"count":24,"max":[1,1,1],"min":[-1,-1,-1],"type":"VEC3"},{"bufferView":70,"componentType":5126,"count":24,"max":[1,1],"min":[0,0],"type":"VEC2"},{"bufferView":71,"componentType":5123,"count":6,"max":[11],"min":[8],"type":"SCALAR"},{"bufferView":72,"componentType":5126,"count":24,"max":[0.21875,0.312562495470047,0.40625],"min":[0.09375,0.3125,0.28125],"type":"VEC3"},{"bufferView":73,"componentType":5126,"count":24,"max":[1,1,1],"min":[-1,-1,-1],"type":"VEC3"},{"bufferView":74,"componentType":5126,"count":24,"max":[1,1],"min":[0,0],"type":"VEC2"},{"bufferView":75,"componentType":5123,"count":6,"max":[11],"min":[8],"type":"SCALAR"},{"bufferView":76,"componentType":5126,"count":24,"max":[-0.203062504529953,0.1875,0.234375],"min":[-0.203125,-0.1875,-0.390625],"type":"VEC3"},{"bufferView":77,"componentType":5126,"count":24,"max":[1,1,1],"min":[-1,-1,-1],"type":"VEC3"},{"bufferView":78,"componentType":5126,"count":24,"max":[1,1],"min":[0,0],"type":"VEC2"},{"bufferView":79,"componentType":5123,"count":12,"max":[7],"min":[0],"type":"SCALAR"},{"bufferView":80,"componentType":5126,"count":24,"max":[0.78125,0.375,0.6110000014305115],"min":[0.15625,0,0.6109374761581421],"type":"VEC3"},{"bufferView":81,"componentType":5126,"count":24,"max":[1,1,1],"min":[-1,-1,-1],"type":"VEC3"},{"bufferView":82,"componentType":5126,"count":24,"max":[1,1],"min":[0,0],"type":"VEC2"},{"bufferView":83,"componentType":5123,"count":12,"max":[23],"min":[16],"type":"SCALAR"},{"bufferView":84,"componentType":5126,"count":24,"max":[0.328125,0.15625,-0.1093124970793724],"min":[-0.359375,-0.15625,-0.109375],"type":"VEC3"},{"bufferView":85,"componentType":5126,"count":24,"max":[1,1,1],"min":[-1,-1,-1],"type":"VEC3"},{"bufferView":86,"componentType":5126,"count":24,"max":[1,1],"min":[0,0],"type":"VEC2"},{"bufferView":87,"componentType":5123,"count":12,"max":[23],"min":[16],"type":"SCALAR"},{"bufferView":88,"componentType":5126,"count":24,"max":[0.0625,0.125,-0.171812504529953],"min":[-0.3125,-0.125,-0.171875],"type":"VEC3"},{"bufferView":89,"componentType":5126,"count":24,"max":[1,1,1],"min":[-1,-1,-1],"type":"VEC3"},{"bufferView":90,"componentType":5126,"count":24,"max":[1,1],"min":[0,0],"type":"VEC2"},{"bufferView":91,"componentType":5123,"count":12,"max":[23],"min":[16],"type":"SCALAR"}],"materials":[{"pbrMetallicRoughness":{"metallicFactor":0,"roughnessFactor":1,"baseColorTexture":{"index":0}},"alphaMode":"MASK","alphaCutoff":0.05,"doubleSided":true}],"textures":[{"sampler":0,"source":0,"name":"flower_yellow2.png"}],"samplers":[{"magFilter":9728,"minFilter":9728,"wrapS":33071,"wrapT":33071}],"images":[{"mimeType":"image/png","uri":"data:image/png;base64,"}],"meshes":[{"primitives":[{"mode":4,"attributes":{"POSITION":0,"NORMAL":1,"TEXCOORD_0":2},"indices":3,"material":0}]},{"primitives":[{"mode":4,"attributes":{"POSITION":4,"NORMAL":5,"TEXCOORD_0":6},"indices":7,"material":0}]},{"primitives":[{"mode":4,"attributes":{"POSITION":8,"NORMAL":9,"TEXCOORD_0":10},"indices":11,"material":0}]},{"primitives":[{"mode":4,"attributes":{"POSITION":12,"NORMAL":13,"TEXCOORD_0":14},"indices":15,"material":0}]},{"primitives":[{"mode":4,"attributes":{"POSITION":16,"NORMAL":17,"TEXCOORD_0":18},"indices":19,"material":0}]},{"primitives":[{"mode":4,"attributes":{"POSITION":20,"NORMAL":21,"TEXCOORD_0":22},"indices":23,"material":0}]},{"primitives":[{"mode":4,"attributes":{"POSITION":24,"NORMAL":25,"TEXCOORD_0":26},"indices":27,"material":0}]},{"primitives":[{"mode":4,"attributes":{"POSITION":28,"NORMAL":29,"TEXCOORD_0":30},"indices":31,"material":0}]},{"primitives":[{"mode":4,"attributes":{"POSITION":32,"NORMAL":33,"TEXCOORD_0":34},"indices":35,"material":0}]},{"primitives":[{"mode":4,"attributes":{"POSITION":36,"NORMAL":37,"TEXCOORD_0":38},"indices":39,"material":0}]},{"primitives":[{"mode":4,"attributes":{"POSITION":40,"NORMAL":41,"TEXCOORD_0":42},"indices":43,"material":0}]},{"primitives":[{"mode":4,"attributes":{"POSITION":44,"NORMAL":45,"TEXCOORD_0":46},"indices":47,"material":0}]},{"primitives":[{"mode":4,"attributes":{"POSITION":48,"NORMAL":49,"TEXCOORD_0":50},"indices":51,"material":0}]},{"primitives":[{"mode":4,"attributes":{"POSITION":52,"NORMAL":53,"TEXCOORD_0":54},"indices":55,"material":0}]},{"primitives":[{"mode":4,"attributes":{"POSITION":56,"NORMAL":57,"TEXCOORD_0":58},"indices":59,"material":0}]},{"primitives":[{"mode":4,"attributes":{"POSITION":60,"NORMAL":61,"TEXCOORD_0":62},"indices":63,"material":0}]},{"primitives":[{"mode":4,"attributes":{"POSITION":64,"NORMAL":65,"TEXCOORD_0":66},"indices":67,"material":0}]},{"primitives":[{"mode":4,"attributes":{"POSITION":68,"NORMAL":69,"TEXCOORD_0":70},"indices":71,"material":0}]},{"primitives":[{"mode":4,"attributes":{"POSITION":72,"NORMAL":73,"TEXCOORD_0":74},"indices":75,"material":0}]},{"primitives":[{"mode":4,"attributes":{"POSITION":76,"NORMAL":77,"TEXCOORD_0":78},"indices":79,"material":0}]},{"primitives":[{"mode":4,"attributes":{"POSITION":80,"NORMAL":81,"TEXCOORD_0":82},"indices":83,"material":0}]},{"primitives":[{"mode":4,"attributes":{"POSITION":84,"NORMAL":85,"TEXCOORD_0":86},"indices":87,"material":0}]},{"primitives":[{"mode":4,"attributes":{"POSITION":88,"NORMAL":89,"TEXCOORD_0":90},"indices":91,"material":0}]}]}