{"asset":{"version":"2.0","generator":"Blockbench 4.12.4 glTF exporter"},"scenes":[{"nodes":[23],"name":"blockbench_export"}],"scene":0,"nodes":[{"translation":[-0.06562500000000004,-0.003125,0],"name":"cube","mesh":0},{"rotation":[0,0.3826834323650898,0,0.9238795325112867],"translation":[0.0078125,0.184375,-0.0015625000000004108],"name":"cube","mesh":1},{"rotation":[0,0.19509032201612825,0,0.9807852804032304],"name":"cube","mesh":2},{"rotation":[0,0.19509032201612825,0,0.9807852804032304],"translation":[0.19218750000000018,0.809375,0.00937499999999969],"name":"cube","mesh":3},{"rotation":[0,0.19509032201612825,0,0.9807852804032304],"translation":[0.043749999999999956,0.184375,0.07343750000000016],"name":"cube","mesh":4},{"rotation":[-0.19509032201612825,0,0,0.9807852804032304],"translation":[0.07031250000000044,0.8112889291090811,0.16794110599158507],"name":"cube","mesh":5},{"rotation":[0,-0.19509032201612825,0,0.9807852804032304],"translation":[0.18791723016368578,0.340625,0.012565047750534908],"name":"cube","mesh":6},{"rotation":[0,0,-0.3826834323650898,0.9238795325112867],"translation":[0.04467087152358551,1.2329389301132705,-0.046875],"name":"cube","mesh":7},{"rotation":[0,0,0.3826834323650898,0.9238795325112867],"translation":[0.037272332873126035,0.9876264301132702,0],"name":"cube","mesh":8},{"translation":[0.010885413199208438,-0.45761591229626236,0],"name":"cube","mesh":9},{"rotation":[0.19509032201612825,0,0,0.9807852804032304],"translation":[0.050227667126873876,-0.44298243266663456,-0.21103748907345798],"name":"cube","mesh":10},{"rotation":[-0.19509032201612825,0,0,0.9807852804032304],"translation":[0.050227667126873876,0.1660073948877692,-0.15357475403895376],"name":"cube","mesh":11},{"rotation":[0,0,-0.3826834323650898,0.9238795325112867],"translation":[-0.2968750000000001,0.1588565678595095,0],"name":"cube","mesh":12},{"rotation":[0,0,0.19509032201612825,0.9807852804032304],"translation":[-0.2968750000000001,0.1588565678595095,0],"name":"cube","mesh":13},{"rotation":[0.3826834323650898,0,0,0.9238795325112867],"translation":[0.050227667126873876,0.20410576531330932,0.3416731176093589],"name":"cube","mesh":14},{"rotation":[0.19509032201612825,0,0,0.9807852804032304],"translation":[0.050227667126873876,0.24278945621294662,0.3584306511061308],"name":"cube","mesh":15},{"translation":[0.059374999999999956,0.496875,0],"name":"cube","mesh":16},{"rotation":[0.19509032201612825,0,0,0.9807852804032304],"translation":[0.0004172301636857778,0.3875,-0.1280599522494651],"name":"cube","mesh":17},{"rotation":[0,-0.19509032201612825,0,0.9807852804032304],"translation":[-0.06916723016368587,0.590625,-0.04381504775053491],"name":"cube","mesh":18},{"rotation":[0,0.19509032201612825,0,0.9807852804032304],"translation":[-0.018750000000000044,0.075,-0.0625],"name":"cube","mesh":19},{"rotation":[0,0.3826834323650898,0,0.9238795325112867],"translation":[0.08437499999999987,-0.05,0.03906250000000078],"name":"cube","mesh":20},{"rotation":[0,0.3826834323650898,0,0.9238795325112867],"translation":[-0.051366743661754644,0.38918893011327077,0.043571343443975064],"name":"cube","mesh":21},{"translation":[-0.043749999999999956,0.003125,0],"name":"flower","children":[0,1,2,3,4,5,6,7,8,9,10,11,12,13,14,15,16,17,18,19,20,21]},{"children":[22]}],"bufferViews":[{"buffer":0,"byteOffset":0,"byteLength":288,"target":34962,"byteStride":12},{"buffer":0,"byteOffset":288,"byteLength":288,"target":34962,"byteStride":12},{"buffer":0,"byteOffset":576,"byteLength":192,"target":34962,"byteStride":8},{"buffer":0,"byteOffset":768,"byteLength":24,"target":34963},{"buffer":0,"byteOffset":792,"byteLength":288,"target":34962,"byteStride":12},{"buffer":0,"byteOffset":1080,"byteLength":288,"target":34962,"byteStride":12},{"buffer":0,"byteOffset":1368,"byteLength":192,"target":34962,"byteStride":8},{"buffer":0,"byteOffset":1560,"byteLength":12,"target":34963},{"buffer":0,"byteOffset":1572,"byteLength":288,"target":34962,"byteStride":12},{"buffer":0,"byteOffset":1860,"byteLength":288,"target":34962,"byteStride":12},{"buffer":0,"byteOffset":2148,"byteLength":192,"target":34962,"byteStride":8},{"buffer":0,"byteOffset":2340,"byteLength":12,"target":34963},{"buffer":0,"byteOffset":2352,"byteLength":288,"target":34962,"byteStride":12},{"buffer":0,"byteOffset":2640,"byteLength":288,"target":34962,"byteStride":12},{"buffer":0,"byteOffset":2928,"byteLength":192,"target":34962,"byteStride":8},{"buffer":0,"byteOffset":3120,"byteLength":12,"target":34963},{"buffer":0,"byteOffset":3132,"byteLength":288,"target":34962,"byteStride":12},{"buffer":0,"byteOffset":3420,"byteLength":288,"target":34962,"byteStride":12},{"buffer":0,"byteOffset":3708,"byteLength":192,"target":34962,"byteStride":8},{"buffer":0,"byteOffset":3900,"byteLength":12,"target":34963},{"buffer":0,"byteOffset":3912,"byteLength":288,"target":34962,"byteStride":12},{"buffer":0,"byteOffset":4200,"byteLength":288,"target":34962,"byteStride":12},{"buffer":0,"byteOffset":4488,"byteLength":192,"target":34962,"byteStride":8},{"buffer":0,"byteOffset":4680,"byteLength":12,"target":34963},{"buffer":0,"byteOffset":4692,"byteLength":288,"target":34962,"byteStride":12},{"buffer":0,"byteOffset":4980,"byteLength":288,"target":34962,"byteStride":12},{"buffer":0,"byteOffset":5268,"byteLength":192,"target":34962,"byteStride":8},{"buffer":0,"byteOffset":5460,"byteLength":12,"target":34963},{"buffer":0,"byteOffset":5472,"byteLength":288,"target":34962,"byteStride":12},{"buffer":0,"byteOffset":5760,"byteLength":288,"target":34962,"byteStride":12},{"buffer":0,"byteOffset":6048,"byteLength":192,"target":34962,"byteStride":8},{"buffer":0,"byteOffset":6240,"byteLength":12,"target":34963},{"buffer":0,"byteOffset":6252,"byteLength":288,"target":34962,"byteStride":12},{"buffer":0,"byteOffset":6540,"byteLength":288,"target":34962,"byteStride":12},{"buffer":0,"byteOffset":6828,"byteLength":192,"target":34962,"byteStride":8},{"buffer":0,"byteOffset":7020,"byteLength":12,"target":34963},{"buffer":0,"byteOffset":7032,"byteLength":288,"target":34962,"byteStride":12},{"buffer":0,"byteOffset":7320,"byteLength":288,"target":34962,"byteStride":12},{"buffer":0,"byteOffset":7608,"byteLength":192,"target":34962,"byteStride":8},{"buffer":0,"byteOffset":7800,"byteLength":12,"target":34963},{"buffer":0,"byteOffset":7812,"byteLength":288,"target":34962,"byteStride":12},{"buffer":0,"byteOffset":8100,"byteLength":288,"target":34962,"byteStride":12},{"buffer":0,"byteOffset":8388,"byteLength":192,"target":34962,"byteStride":8},{"buffer":0,"byteOffset":8580,"byteLength":12,"target":34963},{"buffer":0,"byteOffset":8592,"byteLength":288,"target":34962,"byteStride":12},{"buffer":0,"byteOffset":8880,"byteLength":288,"target":34962,"byteStride":12},{"buffer":0,"byteOffset":9168,"byteLength":192,"target":34962,"byteStride":8},{"buffer":0,"byteOffset":9360,"byteLength":12,"target":34963},{"buffer":0,"byteOffset":9372,"byteLength":288,"target":34962,"byteStride":12},{"buffer":0,"byteOffset":9660,"byteLength":288,"target":34962,"byteStride":12},{"buffer":0,"byteOffset":9948,"byteLength":192,"target":34962,"byteStride":8},{"buffer":0,"byteOffset":10140,"byteLength":12,"target":34963},{"buffer":0,"byteOffset":10152,"byteLength":288,"target":34962,"byteStride":12},{"buffer":0,"byteOffset":10440,"byteLength":288,"target":34962,"byteStride":12},{"buffer":0,"byteOffset":10728,"byteLength":192,"target":34962,"byteStride":8},{"buffer":0,"byteOffset":10920,"byteLength":12,"target":34963},{"buffer":0,"byteOffset":10932,"byteLength":288,"target":34962,"byteStride":12},{"buffer":0,"byteOffset":11220,"byteLength":288,"target":34962,"byteStride":12},{"buffer":0,"byteOffset":11508,"byteLength":192,"target":34962,"byteStride":8},{"buffer":0,"byteOffset":11700,"byteLength":12,"target":34963},{"buffer":0,"byteOffset":11712,"byteLength":288,"target":34962,"byteStride":12},{"buffer":0,"byteOffset":12000,"byteLength":288,"target":34962,"byteStride":12},{"buffer":0,"byteOffset":12288,"byteLength":192,"target":34962,"byteStride":8},{"buffer":0,"byteOffset":12480,"byteLength":12,"target":34963},{"buffer":0,"byteOffset":12492,"byteLength":288,"target":34962,"byteStride":12},{"buffer":0,"byteOffset":12780,"byteLength":288,"target":34962,"byteStride":12},{"buffer":0,"byteOffset":13068,"byteLength":192,"target":34962,"byteStride":8},{"buffer":0,"byteOffset":13260,"byteLength":24,"target":34963},{"buffer":0,"byteOffset":13284,"byteLength":288,"target":34962,"byteStride":12},{"buffer":0,"byteOffset":13572,"byteLength":288,"target":34962,"byteStride":12},{"buffer":0,"byteOffset":13860,"byteLength":192,"target":34962,"byteStride":8},{"buffer":0,"byteOffset":14052,"byteLength":12,"target":34963},{"buffer":0,"byteOffset":14064,"byteLength":288,"target":34962,"byteStride":12},{"buffer":0,"byteOffset":14352,"byteLength":288,"target":34962,"byteStride":12},{"buffer":0,"byteOffset":14640,"byteLength":192,"target":34962,"byteStride":8},{"buffer":0,"byteOffset":14832,"byteLength":12,"target":34963},{"buffer":0,"byteOffset":14844,"byteLength":288,"target":34962,"byteStride":12},{"buffer":0,"byteOffset":15132,"byteLength":288,"target":34962,"byteStride":12},{"buffer":0,"byteOffset":15420,"byteLength":192,"target":34962,"byteStride":8},{"buffer":0,"byteOffset":15612,"byteLength":12,"target":34963},{"buffer":0,"byteOffset":15624,"byteLength":288,"target":34962,"byteStride":12},{"buffer":0,"byteOffset":15912,"byteLength":288,"target":34962,"byteStride":12},{"buffer":0,"byteOffset":16200,"byteLength":192,"target":34962,"byteStride":8},{"buffer":0,"byteOffset":16392,"byteLength":12,"target":34963},{"buffer":0,"byteOffset":16404,"byteLength":288,"target":34962,"byteStride":12},{"buffer":0,"byteOffset":16692,"byteLength":288,"target":34962,"byteStride":12},{"buffer":0,"byteOffset":16980,"byteLength":192,"target":34962,"byteStride":8},{"buffer":0,"byteOffset":17172,"byteLength":12,"target":34963}],"buffers":[{"byteLength":17184,"uri":"data:application/octet-stream;base64,"}],"accessors":[{"bufferView":0,"componentType":5126,"count":24,"max":[0.25,1,0.0000625000029685907],"min":[0,0,0],"type":"VEC3"},{"bufferView":1,"componentType":5126,"count":24,"max":[1,1,1],"min":[-1,-1,-1],"type":"VEC3"},{"bufferView":2,"componentType":5126,"count":24,"max":[1,1],"min":[0,0],"type":"VEC2"},{"bufferView":3,"componentType":5123,"count":12,"max":[23],"min":[16],"type":"SCALAR"},{"bufferView":4,"componentType":5126,"count":24,"max":[0.203125,0.75,-0.051500000059604645],"min":[-0.109375,0.4375,-0.05156249925494194],"type":"VEC3"},{"bufferView":5,"componentType":5126,"count":24,"max":[1,1,1],"min":[-1,-1,-1],"type":"VEC3"},{"bufferView":6,"componentType":5126,"count":24,"max":[1,1],"min":[0,0],"type":"VEC2"},{"bufferView":7,"componentType":5123,"count":6,"max":[23],"min":[20],"type":"SCALAR"},{"bufferView":8,"componentType":5126,"count":24,"max":[-0.0702499970793724,1.0625,0.15625],"min":[-0.0703125,0.75,-0.15625],"type":"VEC3"},{"bufferView":9,"componentType":5126,"count":24,"max":[1,1,1],"min":[-1,-1,-1],"type":"VEC3"},{"bufferView":10,"componentType":5126,"count":24,"max":[1,1],"min":[0,0],"type":"VEC2"},{"bufferView":11,"componentType":5123,"count":6,"max":[7],"min":[4],"type":"SCALAR"},{"bufferView":12,"componentType":5126,"count":24,"max":[0.0000625000029685907,0.15625,0.15625],"min":[0,-0.15625,-0.15625],"type":"VEC3"},{"bufferView":13,"componentType":5126,"count":24,"max":[1,1,1],"min":[-1,-1,-1],"type":"VEC3"},{"bufferView":14,"componentType":5126,"count":24,"max":[1,1],"min":[0,0],"type":"VEC2"},{"bufferView":15,"componentType":5123,"count":6,"max":[3],"min":[0],"type":"SCALAR"},{"bufferView":16,"componentType":5126,"count":24,"max":[-0.13743749260902405,0.5625,0.14687499403953552],"min":[-0.13750000298023224,0.25,-0.16562500596046448],"type":"VEC3"},{"bufferView":17,"componentType":5126,"count":24,"max":[1,1,1],"min":[-1,-1,-1],"type":"VEC3"},{"bufferView":18,"componentType":5126,"count":24,"max":[1,1],"min":[0,0],"type":"VEC2"},{"bufferView":19,"componentType":5123,"count":6,"max":[7],"min":[4],"type":"SCALAR"},{"bufferView":20,"componentType":5126,"count":24,"max":[0.15625,0.15625,0.0000625000029685907],"min":[-0.15625,-0.15625,-1.1102230246251565e-16],"type":"VEC3"},{"bufferView":21,"componentType":5126,"count":24,"max":[1,1,1],"min":[-1,-1,-1],"type":"VEC3"},{"bufferView":22,"componentType":5126,"count":24,"max":[1,1],"min":[0,0],"type":"VEC2"},{"bufferView":23,"componentType":5123,"count":6,"max":[19],"min":[16],"type":"SCALAR"},{"bufferView":24,"componentType":5126,"count":24,"max":[0.0000625000029685907,0.15625,0.15625],"min":[0,-0.15625,-0.15625],"type":"VEC3"},{"bufferView":25,"componentType":5126,"count":24,"max":[1,1,1],"min":[-1,-1,-1],"type":"VEC3"},{"bufferView":26,"componentType":5126,"count":24,"max":[1,1],"min":[0,0],"type":"VEC2"},{"bufferView":27,"componentType":5123,"count":6,"max":[3],"min":[0],"type":"SCALAR"},{"bufferView":28,"componentType":5126,"count":24,"max":[0.3125,-0.15462499856948853,0.15625],"min":[-2.220446049250313e-16,-0.15468749403953552,-0.15625],"type":"VEC3"},{"bufferView":29,"componentType":5126,"count":24,"max":[1,1,1],"min":[-1,-1,-1],"type":"VEC3"},{"bufferView":30,"componentType":5126,"count":24,"max":[1,1],"min":[0,0],"type":"VEC2"},{"bufferView":31,"componentType":5123,"count":6,"max":[11],"min":[8],"type":"SCALAR"},{"bufferView":32,"componentType":5126,"count":24,"max":[-0.3125,-0.7171249985694885,0.21875],"min":[-0.6875,-0.7171875238418579,-0.21875],"type":"VEC3"},{"bufferView":33,"componentType":5126,"count":24,"max":[1,1,1],"min":[-1,-1,-1],"type":"VEC3"},{"bufferView":34,"componentType":5126,"count":24,"max":[1,1],"min":[0,0],"type":"VEC2"},{"bufferView":35,"componentType":5123,"count":6,"max":[11],"min":[8],"type":"SCALAR"},{"bufferView":36,"componentType":5126,"count":24,"max":[0.6875,0.7172499895095825,0.21875],"min":[0.3125,0.7171875238418579,-0.21875],"type":"VEC3"},{"bufferView":37,"componentType":5126,"count":24,"max":[1,1,1],"min":[-1,-1,-1],"type":"VEC3"},{"bufferView":38,"componentType":5126,"count":24,"max":[1,1],"min":[0,0],"type":"VEC2"},{"bufferView":39,"componentType":5123,"count":6,"max":[11],"min":[8],"type":"SCALAR"},{"bufferView":40,"componentType":5126,"count":24,"max":[0.21875,0.7172499895095825,-0.3125],"min":[-0.21875,0.7171875238418579,-0.6875],"type":"VEC3"},{"bufferView":41,"componentType":5126,"count":24,"max":[1,1,1],"min":[-1,-1,-1],"type":"VEC3"},{"bufferView":42,"componentType":5126,"count":24,"max":[1,1],"min":[0,0],"type":"VEC2"},{"bufferView":43,"componentType":5123,"count":6,"max":[11],"min":[8],"type":"SCALAR"},{"bufferView":44,"componentType":5126,"count":24,"max":[0.21875,0.1875,0.0000625000029685907],"min":[-0.21875,-0.1875,0],"type":"VEC3"},{"bufferView":45,"componentType":5126,"count":24,"max":[1,1,1],"min":[-1,-1,-1],"type":"VEC3"},{"bufferView":46,"componentType":5126,"count":24,"max":[1,1],"min":[0,0],"type":"VEC2"},{"bufferView":47,"componentType":5123,"count":6,"max":[19],"min":[16],"type":"SCALAR"},{"bufferView":48,"componentType":5126,"count":24,"max":[0.3170976936817169,0.08665691316127777,0.21875],"min":[-0.057902298867702484,0.08659441769123077,-0.21875],"type":"VEC3"},{"bufferView":49,"componentType":5126,"count":24,"max":[1,1,1],"min":[-1,-1,-1],"type":"VEC3"},{"bufferView":50,"componentType":5126,"count":24,"max":[1,1],"min":[0,0],"type":"VEC2"},{"bufferView":51,"componentType":5123,"count":6,"max":[11],"min":[8],"type":"SCALAR"},{"bufferView":52,"componentType":5126,"count":24,"max":[0.057902298867702484,0.08665691316127777,0.21875],"min":[-0.3170976936817169,0.08659441769123077,-0.21875],"type":"VEC3"},{"bufferView":53,"componentType":5126,"count":24,"max":[1,1,1],"min":[-1,-1,-1],"type":"VEC3"},{"bufferView":54,"componentType":5126,"count":24,"max":[1,1],"min":[0,0],"type":"VEC2"},{"bufferView":55,"componentType":5123,"count":6,"max":[11],"min":[8],"type":"SCALAR"},{"bufferView":56,"componentType":5126,"count":24,"max":[0.21875,0.0899808332324028,-0.06621960550546646],"min":[-0.21875,-0.3475191593170166,-0.06628210097551346],"type":"VEC3"},{"bufferView":57,"componentType":5126,"count":24,"max":[1,1,1],"min":[-1,-1,-1],"type":"VEC3"},{"bufferView":58,"componentType":5126,"count":24,"max":[1,1],"min":[0,0],"type":"VEC2"},{"bufferView":59,"componentType":5123,"count":6,"max":[23],"min":[20],"type":"SCALAR"},{"bufferView":60,"componentType":5126,"count":24,"max":[0.21875,0.06634461134672165,0.2850191593170166],"min":[-0.21875,0.06628211587667465,-0.0274808369576931],"type":"VEC3"},{"bufferView":61,"componentType":5126,"count":24,"max":[1,1,1],"min":[-1,-1,-1],"type":"VEC3"},{"bufferView":62,"componentType":5126,"count":24,"max":[1,1],"min":[0,0],"type":"VEC2"},{"bufferView":63,"componentType":5123,"count":6,"max":[11],"min":[8],"type":"SCALAR"},{"bufferView":64,"componentType":5126,"count":24,"max":[0.0000625000029685907,0.5,0.125],"min":[0,-0.5,-0.125],"type":"VEC3"},{"bufferView":65,"componentType":5126,"count":24,"max":[1,1,1],"min":[-1,-1,-1],"type":"VEC3"},{"bufferView":66,"componentType":5126,"count":24,"max":[1,1],"min":[0,0],"type":"VEC2"},{"bufferView":67,"componentType":5123,"count":12,"max":[7],"min":[0],"type":"SCALAR"},{"bufferView":68,"componentType":5126,"count":24,"max":[0.15625,0.15625,0.0000625000029685907],"min":[-0.15625,-0.15625,0],"type":"VEC3"},{"bufferView":69,"componentType":5126,"count":24,"max":[1,1,1],"min":[-1,-1,-1],"type":"VEC3"},{"bufferView":70,"componentType":5126,"count":24,"max":[1,1],"min":[0,0],"type":"VEC2"},{"bufferView":71,"componentType":5123,"count":6,"max":[23],"min":[20],"type":"SCALAR"},{"bufferView":72,"componentType":5126,"count":24,"max":[0.0000625000029685907,0.15625,0.15625],"min":[0,-0.15625,-0.15625],"type":"VEC3"},{"bufferView":73,"componentType":5126,"count":24,"max":[1,1,1],"min":[-1,-1,-1],"type":"VEC3"},{"bufferView":74,"componentType":5126,"count":24,"max":[1,1],"min":[0,0],"type":"VEC2"},{"bufferView":75,"componentType":5123,"count":6,"max":[7],"min":[4],"type":"SCALAR"},{"bufferView":76,"componentType":5126,"count":24,"max":[0.13756249845027924,0.5625,0.16562500596046448],"min":[0.13750000298023224,0.25,-0.14687499403953552],"type":"VEC3"},{"bufferView":77,"componentType":5126,"count":24,"max":[1,1,1],"min":[-1,-1,-1],"type":"VEC3"},{"bufferView":78,"componentType":5126,"count":24,"max":[1,1],"min":[0,0],"type":"VEC2"},{"bufferView":79,"componentType":5123,"count":6,"max":[3],"min":[0],"type":"SCALAR"},{"bufferView":80,"componentType":5126,"count":24,"max":[0.109375,0.75,0.051624998450279236],"min":[-0.203125,0.4375,0.05156249925494194],"type":"VEC3"},{"bufferView":81,"componentType":5126,"count":24,"max":[1,1,1],"min":[-1,-1,-1],"type":"VEC3"},{"bufferView":82,"componentType":5126,"count":24,"max":[1,1],"min":[0,0],"type":"VEC2"},{"bufferView":83,"componentType":5123,"count":6,"max":[19],"min":[16],"type":"SCALAR"},{"bufferView":84,"componentType":5126,"count":24,"max":[0.0000625000029685907,0.15625,0.15625],"min":[0,-0.15625,-0.15625],"type":"VEC3"},{"bufferView":85,"componentType":5126,"count":24,"max":[1,1,1],"min":[-1,-1,-1],"type":"VEC3"},{"bufferView":86,"componentType":5126,"count":24,"max":[1,1],"min":[0,0],"type":"VEC2"},{"bufferView":87,"componentType":5123,"count":6,"max":[7],"min":[4],"type":"SCALAR"}],"materials":[{"pbrMetallicRoughness":{"metallicFactor":0,"roughnessFactor":1,"baseColorTexture":{"index":0}},"alphaMode":"MASK","alphaCutoff":0.05,"doubleSided":true}],"textures":[{"sampler":0,"source":0,"name":"flower_yellow.png"}],"samplers":[{"magFilter":9728,"minFilter":9728,"wrapS":33071,"wrapT":33071}],"images":[{"mimeType":"image/png","uri":"data:image/png;base64,"}],"meshes":[{"primitives":[{"mode":4,"attributes":{"POSITION":0,"NORMAL":1,"TEXCOORD_0":2},"indices":3,"material":0}]},{"primitives":[{"mode":4,"attributes":{"POSITION":4,"NORMAL":5,"TEXCOORD_0":6},"indices":7,"material":0}]},{"primitives":[{"mode":4,"attributes":{"POSITION":8,"NORMAL":9,"TEXCOORD_0":10},"indices":11,"material":0}]},{"primitives":[{"mode":4,"attributes":{"POSITION":12,"NORMAL":13,"TEXCOORD_0":14},"indices":15,"material":0}]},{"primitives":[{"mode":4,"attributes":{"POSITION":16,"NORMAL":17,"TEXCOORD_0":18},"indices":19,"material":0}]},{"primitives":[{"mode":4,"attributes":{"POSITION":20,"NORMAL":21,"TEXCOORD_0":22},"indices":23,"material":0}]},{"primitives":[{"mode":4,"attributes":{"POSITION":24,"NORMAL":25,"TEXCOORD_0":26},"indices":27,"material":0}]},{"primitives":[{"mode":4,"attributes":{"POSITION":28,"NORMAL":29,"TEXCOORD_0":30},"indices":31,"material":0}]},{"primitives":[{"mode":4,"attributes":{"POSITION":32,"NORMAL":33,"TEXCOORD_0":34},"indices":35,"material":0}]},{"primitives":[{"mode":4,"attributes":{"POSITION":36,"NORMAL":37,"TEXCOORD_0":38},"indices":39,"material":0}]},{"primitives":[{"mode":4,"attributes":{"POSITION":40,"NORMAL":41,"TEXCOORD_0":42},"indices":43,"material":0}]},{"primitives":[{"mode":4,"attributes":{"POSITION":44,"NORMAL":45,"TEXCOORD_0":46},"indices":47,"material":0}]},{"primitives":[{"mode":4,"attributes":{"POSITION":48,"NORMAL":49,"TEXCOORD_0":50},"indices":51,"material":0}]},{"primitives":[{"mode":4,"attributes":{"POSITION":52,"NORMAL":53,"TEXCOORD_0":54},"indices":55,"material":0}]},{"primitives":[{"mode":4,"attributes":{"POSITION":56,"NORMAL":57,"TEXCOORD_0":58},"indices":59,"material":0}]},{"primitives":[{"mode":4,"attributes":{"POSITION":60,"NORMAL":61,"TEXCOORD_0":62},"indices":63,"material":0}]},{"primitives":[{"mode":4,"attributes":{"POSITION":64,"NORMAL":65,"TEXCOORD_0":66},"indices":67,"material":0}]},{"primitives":[{"mode":4,"attributes":{"POSITION":68,"NORMAL":69,"TEXCOORD_0":70},"indices":71,"material":0}]},{"primitives":[{"mode":4,"attributes":{"POSITION":72,"NORMAL":73,"TEXCOORD_0":74},"indices":75,"material":0}]},{"primitives":[{"mode":4,"attributes":{"POSITION":76,"NORMAL":77,"TEXCOORD_0":78},"indices":79,"material":0}]},{"primitives":[{"mode":4,"attributes":{"POSITION":80,"NORMAL":81,"TEXCOORD_0":82},"indices":83,"material":0}]},{"primitives":[{"mode":4,"attributes":{"POSITION":84,"NORMAL":85,"TEXCOORD_0":86},"indices":87,"material":0}]}]}