{"asset":{"version":"2.0","generator":"Blockbench 4.12.4 glTF exporter"},"scenes":[{"nodes":[17],"name":"blockbench_export"}],"scene":0,"nodes":[{"translation":[0.25,0.25,0.25],"name":"cube","mesh":0},{"translation":[0.25,0.75,0.25],"name":"cube","mesh":1},{"translation":[0.25,1.875,0.25],"name":"cube","mesh":2},{"translation":[0.25,1.875,1.3125],"name":"cube","mesh":3},{"translation":[1,1.9375,1.125],"name":"cube","mesh":4},{"translation":[0,1.9375,1.125],"name":"cube","mesh":5},{"translation":[0.25,1.34375,0.25],"name":"cube","mesh":6},{"translation":[0.25,0.75,0.25],"name":"cube inverted","mesh":7},{"translation":[0.25,0.251890625,0.25],"name":"cube","mesh":8},{"translation":[0.8125,0.75,0.265625],"name":"cube","mesh":9},{"translation":[-0.125,0.75,0.984375],"name":"cube","mesh":10},{"translation":[-0.125,0.75,0.546875],"name":"cube","mesh":11},{"translation":[0.1875,0.75,0.265625],"name":"cube","mesh":12},{"translation":[0.609375,1.109375,0.3125],"name":"cube","mesh":13},{"translation":[-0.171875,1.109375,0.875],"name":"cube","mesh":14},{"name":"group"},{"translation":[0.5,0.5,0.5],"name":"group","children":[15]},{"children":[0,1,2,3,4,5,6,7,8,9,10,11,12,13,14,16]}],"bufferViews":[{"buffer":0,"byteOffset":0,"byteLength":288,"target":34962,"byteStride":12},{"buffer":0,"byteOffset":288,"byteLength":288,"target":34962,"byteStride":12},{"buffer":0,"byteOffset":576,"byteLength":192,"target":34962,"byteStride":8},{"buffer":0,"byteOffset":768,"byteLength":72,"target":34963},{"buffer":0,"byteOffset":840,"byteLength":288,"target":34962,"byteStride":12},{"buffer":0,"byteOffset":1128,"byteLength":288,"target":34962,"byteStride":12},{"buffer":0,"byteOffset":1416,"byteLength":192,"target":34962,"byteStride":8},{"buffer":0,"byteOffset":1608,"byteLength":60,"target":34963},{"buffer":0,"byteOffset":1668,"byteLength":288,"target":34962,"byteStride":12},{"buffer":0,"byteOffset":1956,"byteLength":288,"target":34962,"byteStride":12},{"buffer":0,"byteOffset":2244,"byteLength":192,"target":34962,"byteStride":8},{"buffer":0,"byteOffset":2436,"byteLength":60,"target":34963},{"buffer":0,"byteOffset":2496,"byteLength":288,"target":34962,"byteStride":12},{"buffer":0,"byteOffset":2784,"byteLength":288,"target":34962,"byteStride":12},{"buffer":0,"byteOffset":3072,"byteLength":192,"target":34962,"byteStride":8},{"buffer":0,"byteOffset":3264,"byteLength":60,"target":34963},{"buffer":0,"byteOffset":3324,"byteLength":288,"target":34962,"byteStride":12},{"buffer":0,"byteOffset":3612,"byteLength":288,"target":34962,"byteStride":12},{"buffer":0,"byteOffset":3900,"byteLength":192,"target":34962,"byteStride":8},{"buffer":0,"byteOffset":4092,"byteLength":48,"target":34963},{"buffer":0,"byteOffset":4140,"byteLength":288,"target":34962,"byteStride":12},{"buffer":0,"byteOffset":4428,"byteLength":288,"target":34962,"byteStride":12},{"buffer":0,"byteOffset":4716,"byteLength":192,"target":34962,"byteStride":8},{"buffer":0,"byteOffset":4908,"byteLength":48,"target":34963},{"buffer":0,"byteOffset":4956,"byteLength":288,"target":34962,"byteStride":12},{"buffer":0,"byteOffset":5244,"byteLength":288,"target":34962,"byteStride":12},{"buffer":0,"byteOffset":5532,"byteLength":192,"target":34962,"byteStride":8},{"buffer":0,"byteOffset":5724,"byteLength":72,"target":34963},{"buffer":0,"byteOffset":5796,"byteLength":288,"target":34962,"byteStride":12},{"buffer":0,"byteOffset":6084,"byteLength":288,"target":34962,"byteStride":12},{"buffer":0,"byteOffset":6372,"byteLength":192,"target":34962,"byteStride":8},{"buffer":0,"byteOffset":6564,"byteLength":60,"target":34963},{"buffer":0,"byteOffset":6624,"byteLength":288,"target":34962,"byteStride":12},{"buffer":0,"byteOffset":6912,"byteLength":288,"target":34962,"byteStride":12},{"buffer":0,"byteOffset":7200,"byteLength":192,"target":34962,"byteStride":8},{"buffer":0,"byteOffset":7392,"byteLength":12,"target":34963},{"buffer":0,"byteOffset":7404,"byteLength":288,"target":34962,"byteStride":12},{"buffer":0,"byteOffset":7692,"byteLength":288,"target":34962,"byteStride":12},{"buffer":0,"byteOffset":7980,"byteLength":192,"target":34962,"byteStride":8},{"buffer":0,"byteOffset":8172,"byteLength":60,"target":34963},{"buffer":0,"byteOffset":8232,"byteLength":288,"target":34962,"byteStride":12},{"buffer":0,"byteOffset":8520,"byteLength":288,"target":34962,"byteStride":12},{"buffer":0,"byteOffset":8808,"byteLength":192,"target":34962,"byteStride":8},{"buffer":0,"byteOffset":9000,"byteLength":60,"target":34963},{"buffer":0,"byteOffset":9060,"byteLength":288,"target":34962,"byteStride":12},{"buffer":0,"byteOffset":9348,"byteLength":288,"target":34962,"byteStride":12},{"buffer":0,"byteOffset":9636,"byteLength":192,"target":34962,"byteStride":8},{"buffer":0,"byteOffset":9828,"byteLength":60,"target":34963},{"buffer":0,"byteOffset":9888,"byteLength":288,"target":34962,"byteStride":12},{"buffer":0,"byteOffset":10176,"byteLength":288,"target":34962,"byteStride":12},{"buffer":0,"byteOffset":10464,"byteLength":192,"target":34962,"byteStride":8},{"buffer":0,"byteOffset":10656,"byteLength":60,"target":34963},{"buffer":0,"byteOffset":10716,"byteLength":288,"target":34962,"byteStride":12},{"buffer":0,"byteOffset":11004,"byteLength":288,"target":34962,"byteStride":12},{"buffer":0,"byteOffset":11292,"byteLength":192,"target":34962,"byteStride":8},{"buffer":0,"byteOffset":11484,"byteLength":72,"target":34963},{"buffer":0,"byteOffset":11556,"byteLength":288,"target":34962,"byteStride":12},{"buffer":0,"byteOffset":11844,"byteLength":288,"target":34962,"byteStride":12},{"buffer":0,"byteOffset":12132,"byteLength":192,"target":34962,"byteStride":8},{"buffer":0,"byteOffset":12324,"byteLength":72,"target":34963}],"buffers":[{"byteLength":12396,"uri":"data:application/octet-stream;base64,"}],"accessors":[{"bufferView":0,"componentType":5126,"count":24,"max":[1,0.5,1],"min":[-0.5,0,0],"type":"VEC3"},{"bufferView":1,"componentType":5126,"count":24,"max":[1,1,1],"min":[-1,-1,-1],"type":"VEC3"},{"bufferView":2,"componentType":5126,"count":24,"max":[0.25390625,0.3203125],"min":[0,0],"type":"VEC2"},{"bufferView":3,"componentType":5123,"count":36,"max":[23],"min":[0],"type":"SCALAR"},{"bufferView":4,"componentType":5126,"count":24,"max":[0.9375,1.125,1],"min":[-0.4375,0,0.0625],"type":"VEC3"},{"bufferView":5,"componentType":5126,"count":24,"max":[1,1,1],"min":[-1,-1,-1],"type":"VEC3"},{"bufferView":6,"componentType":5126,"count":24,"max":[1,1],"min":[0,0],"type":"VEC2"},{"bufferView":7,"componentType":5123,"count":30,"max":[23],"min":[0],"type":"SCALAR"},{"bufferView":8,"componentType":5126,"count":24,"max":[0.8125,0.125,0.3125],"min":[-0.3125,0,0.1875],"type":"VEC3"},{"bufferView":9,"componentType":5126,"count":24,"max":[1,1,1],"min":[-1,-1,-1],"type":"VEC3"},{"bufferView":10,"componentType":5126,"count":24,"max":[1,1],"min":[0,0],"type":"VEC2"},{"bufferView":11,"componentType":5123,"count":30,"max":[23],"min":[0],"type":"SCALAR"},{"bufferView":12,"componentType":5126,"count":24,"max":[0.8125,0.125,-0.1875],"min":[-0.3125,0,-0.3125],"type":"VEC3"},{"bufferView":13,"componentType":5126,"count":24,"max":[1,1,1],"min":[-1,-1,-1],"type":"VEC3"},{"bufferView":14,"componentType":5126,"count":24,"max":[1,1],"min":[0,0],"type":"VEC2"},{"bufferView":15,"componentType":5123,"count":30,"max":[23],"min":[0],"type":"SCALAR"},{"bufferView":16,"componentType":5126,"count":24,"max":[0.0625,0.0625,-0.125],"min":[-0.0625,-0.0625,-0.5625],"type":"VEC3"},{"bufferView":17,"componentType":5126,"count":24,"max":[1,1,1],"min":[-1,-1,-1],"type":"VEC3"},{"bufferView":18,"componentType":5126,"count":24,"max":[1,1],"min":[0,0],"type":"VEC2"},{"bufferView":19,"componentType":5123,"count":24,"max":[15],"min":[0],"type":"SCALAR"},{"bufferView":20,"componentType":5126,"count":24,"max":[0.0625,0.0625,-0.125],"min":[-0.0625,-0.0625,-0.5625],"type":"VEC3"},{"bufferView":21,"componentType":5126,"count":24,"max":[1,1,1],"min":[-1,-1,-1],"type":"VEC3"},{"bufferView":22,"componentType":5126,"count":24,"max":[1,1],"min":[0,0],"type":"VEC2"},{"bufferView":23,"componentType":5123,"count":24,"max":[15],"min":[0],"type":"SCALAR"},{"bufferView":24,"componentType":5126,"count":24,"max":[0.96875,0.09375,1],"min":[-0.46875,0,0.03125],"type":"VEC3"},{"bufferView":25,"componentType":5126,"count":24,"max":[1,1,1],"min":[-1,-1,-1],"type":"VEC3"},{"bufferView":26,"componentType":5126,"count":24,"max":[0.5703125,0.296875],"min":[0.19140625,0.16015625],"type":"VEC2"},{"bufferView":27,"componentType":5123,"count":36,"max":[23],"min":[0],"type":"SCALAR"},{"bufferView":28,"componentType":5126,"count":24,"max":[0.9375,1.125,0.9854737520217896],"min":[-0.4375,0,0.0625],"type":"VEC3"},{"bufferView":29,"componentType":5126,"count":24,"max":[1,1,1],"min":[-1,-1,-1],"type":"VEC3"},{"bufferView":30,"componentType":5126,"count":24,"max":[1,1],"min":[0,0],"type":"VEC2"},{"bufferView":31,"componentType":5123,"count":30,"max":[23],"min":[0],"type":"SCALAR"},{"bufferView":32,"componentType":5126,"count":24,"max":[0.75,0.5000625252723694,0.78125],"min":[-0.25,0.5,0.21875],"type":"VEC3"},{"bufferView":33,"componentType":5126,"count":24,"max":[1,1,1],"min":[-1,-1,-1],"type":"VEC3"},{"bufferView":34,"componentType":5126,"count":24,"max":[1,1],"min":[0,0],"type":"VEC2"},{"bufferView":35,"componentType":5123,"count":6,"max":[11],"min":[8],"type":"SCALAR"},{"bufferView":36,"componentType":5126,"count":24,"max":[0.09375,0.40625,0.09375],"min":[0,0,0],"type":"VEC3"},{"bufferView":37,"componentType":5126,"count":24,"max":[1,1,1],"min":[-1,-1,-1],"type":"VEC3"},{"bufferView":38,"componentType":5126,"count":24,"max":[1,1],"min":[0,0],"type":"VEC2"},{"bufferView":39,"componentType":5123,"count":30,"max":[23],"min":[0],"type":"SCALAR"},{"bufferView":40,"componentType":5126,"count":24,"max":[0,0.40625,0.09375],"min":[-0.09375,0,0],"type":"VEC3"},{"bufferView":41,"componentType":5126,"count":24,"max":[1,1,1],"min":[-1,-1,-1],"type":"VEC3"},{"bufferView":42,"componentType":5126,"count":24,"max":[1,1],"min":[0,0],"type":"VEC2"},{"bufferView":43,"componentType":5123,"count":30,"max":[23],"min":[0],"type":"SCALAR"},{"bufferView":44,"componentType":5126,"count":24,"max":[0,0.40625,0],"min":[-0.09375,0,-0.09375],"type":"VEC3"},{"bufferView":45,"componentType":5126,"count":24,"max":[1,1,1],"min":[-1,-1,-1],"type":"VEC3"},{"bufferView":46,"componentType":5126,"count":24,"max":[1,1],"min":[0,0],"type":"VEC2"},{"bufferView":47,"componentType":5123,"count":30,"max":[23],"min":[0],"type":"SCALAR"},{"bufferView":48,"componentType":5126,"count":24,"max":[0,0.40625,0.09375],"min":[-0.09375,0,0],"type":"VEC3"},{"bufferView":49,"componentType":5126,"count":24,"max":[1,1,1],"min":[-1,-1,-1],"type":"VEC3"},{"bufferView":50,"componentType":5126,"count":24,"max":[1,1],"min":[0,0],"type":"VEC2"},{"bufferView":51,"componentType":5123,"count":30,"max":[23],"min":[0],"type":"SCALAR"},{"bufferView":52,"componentType":5126,"count":24,"max":[0.203125,0.046875,0.046875],"min":[-0.421875,-0.046875,-0.046875],"type":"VEC3"},{"bufferView":53,"componentType":5126,"count":24,"max":[1,1,1],"min":[-1,-1,-1],"type":"VEC3"},{"bufferView":54,"componentType":5126,"count":24,"max":[0.48828125,0.296875],"min":[0.41015625,0.28515625],"type":"VEC2"},{"bufferView":55,"componentType":5123,"count":36,"max":[23],"min":[0],"type":"SCALAR"},{"bufferView":56,"componentType":5126,"count":24,"max":[0.046875,0.046875,0.109375],"min":[-0.046875,-0.046875,-0.328125],"type":"VEC3"},{"bufferView":57,"componentType":5126,"count":24,"max":[1,1,1],"min":[-1,-1,-1],"type":"VEC3"},{"bufferView":58,"componentType":5126,"count":24,"max":[0.46484375,0.296875],"min":[0.41015625,0.28515625],"type":"VEC2"},{"bufferView":59,"componentType":5123,"count":36,"max":[23],"min":[0],"type":"SCALAR"}],"materials":[{"pbrMetallicRoughness":{"metallicFactor":0,"roughnessFactor":1,"baseColorTexture":{"index":0}},"alphaMode":"MASK","alphaCutoff":0.05},{"pbrMetallicRoughness":{"metallicFactor":0,"roughnessFactor":1,"baseColorTexture":{"index":1}},"alphaMode":"MASK","alphaCutoff":0.05}],"textures":[{"sampler":0,"source":0},{"sampler":1,"source":1}],"samplers":[{"magFilter":9728,"minFilter":9728,"wrapS":33071,"wrapT":33071},{"magFilter":9728,"minFilter":9728,"wrapS":33071,"wrapT":33071}],"images":[{"mimeType":"image/png","uri":"data:image/png;base64,"},{"mimeType":"image/png","uri":"data:image/png;base64,"}],"meshes":[{"primitives":[{"mode":4,"attributes":{"POSITION":0,"NORMAL":1,"TEXCOORD_0":2},"indices":3,"material":0}]},{"primitives":[{"mode":4,"attributes":{"POSITION":4,"NORMAL":5,"TEXCOORD_0":6},"indices":7,"material":0}]},{"primitives":[{"mode":4,"attributes":{"POSITION":8,"NORMAL":9,"TEXCOORD_0":10},"indices":11,"material":0}]},{"primitives":[{"mode":4,"attributes":{"POSITION":12,"NORMAL":13,"TEXCOORD_0":14},"indices":15,"material":0}]},{"primitives":[{"mode":4,"attributes":{"POSITION":16,"NORMAL":17,"TEXCOORD_0":18},"indices":19,"material":0}]},{"primitives":[{"mode":4,"attributes":{"POSITION":20,"NORMAL":21,"TEXCOORD_0":22},"indices":23,"material":0}]},{"primitives":[{"mode":4,"attributes":{"POSITION":24,"NORMAL":25,"TEXCOORD_0":26},"indices":27,"material":0}]},{"primitives":[{"mode":4,"attributes":{"POSITION":28,"NORMAL":29,"TEXCOORD_0":30},"indices":31,"material":0}]},{"primitives":[{"mode":4,"attributes":{"POSITION":32,"NORMAL":33,"TEXCOORD_0":34},"indices":35,"material":1}]},{"primitives":[{"mode":4,"attributes":{"POSITION":36,"NORMAL":37,"TEXCOORD_0":38},"indices":39,"material":0}]},{"primitives":[{"mode":4,"attributes":{"POSITION":40,"NORMAL":41,"TEXCOORD_0":42},"indices":43,"material":0}]},{"primitives":[{"mode":4,"attributes":{"POSITION":44,"NORMAL":45,"TEXCOORD_0":46},"indices":47,"material":0}]},{"primitives":[{"mode":4,"attributes":{"POSITION":48,"NORMAL":49,"TEXCOORD_0":50},"indices":51,"material":0}]},{"primitives":[{"mode":4,"attributes":{"POSITION":52,"NORMAL":53,"TEXCOORD_0":54},"indices":55,"material":0}]},{"primitives":[{"mode":4,"attributes":{"POSITION":56,"NORMAL":57,"TEXCOORD_0":58},"indices":59,"material":0}]}]}