{"asset":{"version":"2.0","generator":"Blockbench 4.12.4 glTF exporter"},"scenes":[{"nodes":[12],"name":"blockbench_export"}],"scene":0,"nodes":[{"rotation":[0,0.19509032201612825,0,0.9807852804032304],"translation":[0,0,0.07187499999999997],"name":"cube","mesh":0},{"rotation":[0,0.19509032201612825,0,0.9807852804032304],"translation":[0,0,0.9109375000000003],"name":"cube","mesh":1},{"rotation":[0,0.19509032201612825,0,0.9807852804032304],"translation":[0.28125,0,0],"name":"cube","mesh":2},{"rotation":[0,0.19509032201612825,0,0.9807852804032304],"translation":[0.6875,0,0.9281250000000002],"name":"cube","mesh":3},{"rotation":[0,0.19509032201612825,0,0.9807852804032304],"translation":[0.13124999999999998,0,0.5187500000000003],"name":"cube","mesh":4},{"rotation":[0,0.3826834323650898,0,0.9238795325112867],"translation":[0.8284865971813434,0.32187500000000013,0.8336412696123415],"name":"cube","mesh":5},{"rotation":[0,-0.19509032201612825,0,0.9807852804032304],"translation":[0.28281250000000024,0.2281250000000002,0.28125],"name":"cube","mesh":6},{"rotation":[0,-0.19509032201612825,0,0.9807852804032304],"translation":[1.625,0,0.0625],"name":"cube","mesh":7},{"rotation":[0,-0.19509032201612825,0,0.9807852804032304],"translation":[0.5625,0,1.6875],"name":"cube","mesh":8},{"translation":[-0.6406250000000002,0,0.6875],"name":"cube","mesh":9},{"rotation":[0,0.3826834323650898,0,0.9238795325112867],"translation":[-0.053125,0,0.47656250000000006],"name":"cube","mesh":10},{"translation":[0,0,0.9109375000000003],"name":"grass"},{"children":[0,1,2,3,4,5,6,7,8,9,10,11]}],"bufferViews":[{"buffer":0,"byteOffset":0,"byteLength":288,"target":34962,"byteStride":12},{"buffer":0,"byteOffset":288,"byteLength":288,"target":34962,"byteStride":12},{"buffer":0,"byteOffset":576,"byteLength":192,"target":34962,"byteStride":8},{"buffer":0,"byteOffset":768,"byteLength":24,"target":34963},{"buffer":0,"byteOffset":792,"byteLength":288,"target":34962,"byteStride":12},{"buffer":0,"byteOffset":1080,"byteLength":288,"target":34962,"byteStride":12},{"buffer":0,"byteOffset":1368,"byteLength":192,"target":34962,"byteStride":8},{"buffer":0,"byteOffset":1560,"byteLength":12,"target":34963},{"buffer":0,"byteOffset":1572,"byteLength":288,"target":34962,"byteStride":12},{"buffer":0,"byteOffset":1860,"byteLength":288,"target":34962,"byteStride":12},{"buffer":0,"byteOffset":2148,"byteLength":192,"target":34962,"byteStride":8},{"buffer":0,"byteOffset":2340,"byteLength":24,"target":34963},{"buffer":0,"byteOffset":2364,"byteLength":288,"target":34962,"byteStride":12},{"buffer":0,"byteOffset":2652,"byteLength":288,"target":34962,"byteStride":12},{"buffer":0,"byteOffset":2940,"byteLength":192,"target":34962,"byteStride":8},{"buffer":0,"byteOffset":3132,"byteLength":24,"target":34963},{"buffer":0,"byteOffset":3156,"byteLength":288,"target":34962,"byteStride":12},{"buffer":0,"byteOffset":3444,"byteLength":288,"target":34962,"byteStride":12},{"buffer":0,"byteOffset":3732,"byteLength":192,"target":34962,"byteStride":8},{"buffer":0,"byteOffset":3924,"byteLength":24,"target":34963},{"buffer":0,"byteOffset":3948,"byteLength":288,"target":34962,"byteStride":12},{"buffer":0,"byteOffset":4236,"byteLength":288,"target":34962,"byteStride":12},{"buffer":0,"byteOffset":4524,"byteLength":192,"target":34962,"byteStride":8},{"buffer":0,"byteOffset":4716,"byteLength":24,"target":34963},{"buffer":0,"byteOffset":4740,"byteLength":288,"target":34962,"byteStride":12},{"buffer":0,"byteOffset":5028,"byteLength":288,"target":34962,"byteStride":12},{"buffer":0,"byteOffset":5316,"byteLength":192,"target":34962,"byteStride":8},{"buffer":0,"byteOffset":5508,"byteLength":24,"target":34963},{"buffer":0,"byteOffset":5532,"byteLength":288,"target":34962,"byteStride":12},{"buffer":0,"byteOffset":5820,"byteLength":288,"target":34962,"byteStride":12},{"buffer":0,"byteOffset":6108,"byteLength":192,"target":34962,"byteStride":8},{"buffer":0,"byteOffset":6300,"byteLength":24,"target":34963},{"buffer":0,"byteOffset":6324,"byteLength":288,"target":34962,"byteStride":12},{"buffer":0,"byteOffset":6612,"byteLength":288,"target":34962,"byteStride":12},{"buffer":0,"byteOffset":6900,"byteLength":192,"target":34962,"byteStride":8},{"buffer":0,"byteOffset":7092,"byteLength":24,"target":34963},{"buffer":0,"byteOffset":7116,"byteLength":288,"target":34962,"byteStride":12},{"buffer":0,"byteOffset":7404,"byteLength":288,"target":34962,"byteStride":12},{"buffer":0,"byteOffset":7692,"byteLength":192,"target":34962,"byteStride":8},{"buffer":0,"byteOffset":7884,"byteLength":24,"target":34963},{"buffer":0,"byteOffset":7908,"byteLength":288,"target":34962,"byteStride":12},{"buffer":0,"byteOffset":8196,"byteLength":288,"target":34962,"byteStride":12},{"buffer":0,"byteOffset":8484,"byteLength":192,"target":34962,"byteStride":8},{"buffer":0,"byteOffset":8676,"byteLength":24,"target":34963}],"buffers":[{"byteLength":8700,"uri":"data:application/octet-stream;base64,"}],"accessors":[{"bufferView":0,"componentType":5126,"count":24,"max":[0.3422499895095825,0.4375,1],"min":[0.3421874940395355,0,0.4375],"type":"VEC3"},{"bufferView":1,"componentType":5126,"count":24,"max":[1,1,1],"min":[-1,-1,-1],"type":"VEC3"},{"bufferView":2,"componentType":5126,"count":24,"max":[1,1],"min":[0,0],"type":"VEC2"},{"bufferView":3,"componentType":5123,"count":12,"max":[7],"min":[0],"type":"SCALAR"},{"bufferView":4,"componentType":5126,"count":24,"max":[0.875,0.4468750059604645,-0.6765000224113464],"min":[0.3125,0.00937500037252903,-0.676562488079071],"type":"VEC3"},{"bufferView":5,"componentType":5126,"count":24,"max":[1,1,1],"min":[-1,-1,-1],"type":"VEC3"},{"bufferView":6,"componentType":5126,"count":24,"max":[1,1],"min":[0,0],"type":"VEC2"},{"bufferView":7,"componentType":5123,"count":6,"max":[23],"min":[20],"type":"SCALAR"},{"bufferView":8,"componentType":5126,"count":24,"max":[-0.3421249985694885,0.6343749761581421,0.8125],"min":[-0.3421874940395355,0.00937500037252903,0.375],"type":"VEC3"},{"bufferView":9,"componentType":5126,"count":24,"max":[1,1,1],"min":[-1,-1,-1],"type":"VEC3"},{"bufferView":10,"componentType":5126,"count":24,"max":[1,1],"min":[0,0],"type":"VEC2"},{"bufferView":11,"componentType":5123,"count":12,"max":[7],"min":[0],"type":"SCALAR"},{"bufferView":12,"componentType":5126,"count":24,"max":[0.2797499895095825,0.6343749761581421,-0.1875],"min":[0.2796874940395355,0.00937500037252903,-0.875],"type":"VEC3"},{"bufferView":13,"componentType":5126,"count":24,"max":[1,1,1],"min":[-1,-1,-1],"type":"VEC3"},{"bufferView":14,"componentType":5126,"count":24,"max":[1,1],"min":[0,0],"type":"VEC2"},{"bufferView":15,"componentType":5123,"count":12,"max":[7],"min":[0],"type":"SCALAR"},{"bufferView":16,"componentType":5126,"count":24,"max":[0.6875,0.7593749761581421,0.3422499895095825],"min":[0.0625,0.00937500037252903,0.3421874940395355],"type":"VEC3"},{"bufferView":17,"componentType":5126,"count":24,"max":[1,1,1],"min":[-1,-1,-1],"type":"VEC3"},{"bufferView":18,"componentType":5126,"count":24,"max":[1,1],"min":[0,0],"type":"VEC2"},{"bufferView":19,"componentType":5123,"count":12,"max":[23],"min":[16],"type":"SCALAR"},{"bufferView":20,"componentType":5126,"count":24,"max":[0.1875,0.25,0.0625625029206276],"min":[-0.1875,-0.3125,0.0625],"type":"VEC3"},{"bufferView":21,"componentType":5126,"count":24,"max":[1,1,1],"min":[-1,-1,-1],"type":"VEC3"},{"bufferView":22,"componentType":5126,"count":24,"max":[1,1],"min":[0,0],"type":"VEC2"},{"bufferView":23,"componentType":5123,"count":12,"max":[23],"min":[16],"type":"SCALAR"},{"bufferView":24,"componentType":5126,"count":24,"max":[-0.062437500804662704,0.21875,0.15625],"min":[-0.0625,-0.21875,-0.15625],"type":"VEC3"},{"bufferView":25,"componentType":5126,"count":24,"max":[1,1,1],"min":[-1,-1,-1],"type":"VEC3"},{"bufferView":26,"componentType":5126,"count":24,"max":[1,1],"min":[0,0],"type":"VEC2"},{"bufferView":27,"componentType":5123,"count":12,"max":[7],"min":[0],"type":"SCALAR"},{"bufferView":28,"componentType":5126,"count":24,"max":[-0.5296249985694885,0.3218750059604645,0.875],"min":[-0.5296875238418579,0.00937500037252903,0.375],"type":"VEC3"},{"bufferView":29,"componentType":5126,"count":24,"max":[1,1,1],"min":[-1,-1,-1],"type":"VEC3"},{"bufferView":30,"componentType":5126,"count":24,"max":[1,1],"min":[0,0],"type":"VEC2"},{"bufferView":31,"componentType":5123,"count":12,"max":[7],"min":[0],"type":"SCALAR"},{"bufferView":32,"componentType":5126,"count":24,"max":[-0.296875,0.3218750059604645,-0.5921249985694885],"min":[-0.796875,0.00937500037252903,-0.5921875238418579],"type":"VEC3"},{"bufferView":33,"componentType":5126,"count":24,"max":[1,1,1],"min":[-1,-1,-1],"type":"VEC3"},{"bufferView":34,"componentType":5126,"count":24,"max":[1,1],"min":[0,0],"type":"VEC2"},{"bufferView":35,"componentType":5123,"count":12,"max":[23],"min":[16],"type":"SCALAR"},{"bufferView":36,"componentType":5126,"count":24,"max":[0.6703749895095825,0.3218750059604645,0],"min":[0.6703125238418579,0.00937500037252903,-0.5],"type":"VEC3"},{"bufferView":37,"componentType":5126,"count":24,"max":[1,1,1],"min":[-1,-1,-1],"type":"VEC3"},{"bufferView":38,"componentType":5126,"count":24,"max":[1,1],"min":[0,0],"type":"VEC2"},{"bufferView":39,"componentType":5123,"count":12,"max":[7],"min":[0],"type":"SCALAR"},{"bufferView":40,"componentType":5126,"count":24,"max":[0.6875,0.7593749761581421,0.2328750044107437],"min":[0.0625,0.00937500037252903,0.23281249403953552],"type":"VEC3"},{"bufferView":41,"componentType":5126,"count":24,"max":[1,1,1],"min":[-1,-1,-1],"type":"VEC3"},{"bufferView":42,"componentType":5126,"count":24,"max":[1,1],"min":[0,0],"type":"VEC2"},{"bufferView":43,"componentType":5123,"count":12,"max":[23],"min":[16],"type":"SCALAR"}],"materials":[{"pbrMetallicRoughness":{"metallicFactor":0,"roughnessFactor":1,"baseColorTexture":{"index":0}},"alphaMode":"MASK","alphaCutoff":0.05}],"textures":[{"sampler":0,"source":0,"name":"grass1.png"}],"samplers":[{"magFilter":9728,"minFilter":9728,"wrapS":33071,"wrapT":33071}],"images":[{"mimeType":"image/png","uri":"data:image/png;base64,"}],"meshes":[{"primitives":[{"mode":4,"attributes":{"POSITION":0,"NORMAL":1,"TEXCOORD_0":2},"indices":3,"material":0}]},{"primitives":[{"mode":4,"attributes":{"POSITION":4,"NORMAL":5,"TEXCOORD_0":6},"indices":7,"material":0}]},{"primitives":[{"mode":4,"attributes":{"POSITION":8,"NORMAL":9,"TEXCOORD_0":10},"indices":11,"material":0}]},{"primitives":[{"mode":4,"attributes":{"POSITION":12,"NORMAL":13,"TEXCOORD_0":14},"indices":15,"material":0}]},{"primitives":[{"mode":4,"attributes":{"POSITION":16,"NORMAL":17,"TEXCOORD_0":18},"indices":19,"material":0}]},{"primitives":[{"mode":4,"attributes":{"POSITION":20,"NORMAL":21,"TEXCOORD_0":22},"indices":23,"material":0}]},{"primitives":[{"mode":4,"attributes":{"POSITION":24,"NORMAL":25,"TEXCOORD_0":26},"indices":27,"material":0}]},{"primitives":[{"mode":4,"attributes":{"POSITION":28,"NORMAL":29,"TEXCOORD_0":30},"indices":31,"material":0}]},{"primitives":[{"mode":4,"attributes":{"POSITION":32,"NORMAL":33,"TEXCOORD_0":34},"indices":35,"material":0}]},{"primitives":[{"mode":4,"attributes":{"POSITION":36,"NORMAL":37,"TEXCOORD_0":38},"indices":39,"material":0}]},{"primitives":[{"mode":4,"attributes":{"POSITION":40,"NORMAL":41,"TEXCOORD_0":42},"indices":43,"material":0}]}]}