{"asset":{"version":"2.0","generator":"Blockbench 4.12.4 glTF exporter"},"scenes":[{"nodes":[11],"name":"blockbench_export"}],"scene":0,"nodes":[{"rotation":[0,-0.19509032201612825,0,0.9807852804032304],"translation":[0,0,0.9281250000000001],"name":"cube","mesh":0},{"rotation":[0,-0.3826834323650898,0,0.9238795325112867],"translation":[0.8531859282157725,0.21875000000000017,0.674113706172933],"name":"cube","mesh":1},{"rotation":[0,-0.19509032201612825,0,0.9807852804032304],"translation":[0.2640601885993511,0.15625000000000017,0.5348089708080676],"name":"cube","mesh":2},{"rotation":[0,-0.19509032201612825,0,0.9807852804032304],"translation":[0,0,0.07187499999999997],"name":"cube","mesh":3},{"translation":[0,0,0.9281250000000001],"name":"cube","mesh":4},{"rotation":[0,0.19509032201612825,0,0.9807852804032304],"translation":[0,0,0.07187499999999991],"name":"cube","mesh":5},{"rotation":[0,0.19509032201612825,0,0.9807852804032304],"translation":[0.1324046105954652,0.12500000000000017,0.2789301885954879],"name":"cube","mesh":6},{"rotation":[0,0.19509032201612825,0,0.9807852804032304],"translation":[0.2640601885993511,0.15625000000000017,0.46519102919193245],"name":"cube","mesh":7},{"rotation":[0,0.19509032201612825,0,0.9807852804032304],"translation":[0.1324046105954652,0.12500000000000017,0.2789301885954879],"name":"cube","mesh":8},{"rotation":[0,-0.19509032201612825,0,0.9807852804032304],"translation":[0,0,0.9281250000000001],"name":"cube","mesh":9},{"translation":[0.1324046105954652,0.12500000000000017,0.2789301885954879],"name":"grass"},{"children":[0,1,2,3,4,5,6,7,8,9,10]}],"bufferViews":[{"buffer":0,"byteOffset":0,"byteLength":288,"target":34962,"byteStride":12},{"buffer":0,"byteOffset":288,"byteLength":288,"target":34962,"byteStride":12},{"buffer":0,"byteOffset":576,"byteLength":192,"target":34962,"byteStride":8},{"buffer":0,"byteOffset":768,"byteLength":24,"target":34963},{"buffer":0,"byteOffset":792,"byteLength":288,"target":34962,"byteStride":12},{"buffer":0,"byteOffset":1080,"byteLength":288,"target":34962,"byteStride":12},{"buffer":0,"byteOffset":1368,"byteLength":192,"target":34962,"byteStride":8},{"buffer":0,"byteOffset":1560,"byteLength":24,"target":34963},{"buffer":0,"byteOffset":1584,"byteLength":288,"target":34962,"byteStride":12},{"buffer":0,"byteOffset":1872,"byteLength":288,"target":34962,"byteStride":12},{"buffer":0,"byteOffset":2160,"byteLength":192,"target":34962,"byteStride":8},{"buffer":0,"byteOffset":2352,"byteLength":24,"target":34963},{"buffer":0,"byteOffset":2376,"byteLength":288,"target":34962,"byteStride":12},{"buffer":0,"byteOffset":2664,"byteLength":288,"target":34962,"byteStride":12},{"buffer":0,"byteOffset":2952,"byteLength":192,"target":34962,"byteStride":8},{"buffer":0,"byteOffset":3144,"byteLength":24,"target":34963},{"buffer":0,"byteOffset":3168,"byteLength":288,"target":34962,"byteStride":12},{"buffer":0,"byteOffset":3456,"byteLength":288,"target":34962,"byteStride":12},{"buffer":0,"byteOffset":3744,"byteLength":192,"target":34962,"byteStride":8},{"buffer":0,"byteOffset":3936,"byteLength":24,"target":34963},{"buffer":0,"byteOffset":3960,"byteLength":288,"target":34962,"byteStride":12},{"buffer":0,"byteOffset":4248,"byteLength":288,"target":34962,"byteStride":12},{"buffer":0,"byteOffset":4536,"byteLength":192,"target":34962,"byteStride":8},{"buffer":0,"byteOffset":4728,"byteLength":24,"target":34963},{"buffer":0,"byteOffset":4752,"byteLength":288,"target":34962,"byteStride":12},{"buffer":0,"byteOffset":5040,"byteLength":288,"target":34962,"byteStride":12},{"buffer":0,"byteOffset":5328,"byteLength":192,"target":34962,"byteStride":8},{"buffer":0,"byteOffset":5520,"byteLength":24,"target":34963},{"buffer":0,"byteOffset":5544,"byteLength":288,"target":34962,"byteStride":12},{"buffer":0,"byteOffset":5832,"byteLength":288,"target":34962,"byteStride":12},{"buffer":0,"byteOffset":6120,"byteLength":192,"target":34962,"byteStride":8},{"buffer":0,"byteOffset":6312,"byteLength":12,"target":34963},{"buffer":0,"byteOffset":6324,"byteLength":288,"target":34962,"byteStride":12},{"buffer":0,"byteOffset":6612,"byteLength":288,"target":34962,"byteStride":12},{"buffer":0,"byteOffset":6900,"byteLength":192,"target":34962,"byteStride":8},{"buffer":0,"byteOffset":7092,"byteLength":24,"target":34963},{"buffer":0,"byteOffset":7116,"byteLength":288,"target":34962,"byteStride":12},{"buffer":0,"byteOffset":7404,"byteLength":288,"target":34962,"byteStride":12},{"buffer":0,"byteOffset":7692,"byteLength":192,"target":34962,"byteStride":8},{"buffer":0,"byteOffset":7884,"byteLength":24,"target":34963}],"buffers":[{"byteLength":7908,"uri":"data:application/octet-stream;base64,"}],"accessors":[{"bufferView":0,"componentType":5126,"count":24,"max":[0.640625,0.4375,-0.7671250104904175],"min":[-0.046875,0,-0.7671874761581421],"type":"VEC3"},{"bufferView":1,"componentType":5126,"count":24,"max":[1,1,1],"min":[-1,-1,-1],"type":"VEC3"},{"bufferView":2,"componentType":5126,"count":24,"max":[1,1],"min":[0,0],"type":"VEC2"},{"bufferView":3,"componentType":5123,"count":12,"max":[23],"min":[16],"type":"SCALAR"},{"bufferView":4,"componentType":5126,"count":24,"max":[0.265625,0.09375,0.125062495470047],"min":[-0.421875,-0.21875,0.125],"type":"VEC3"},{"bufferView":5,"componentType":5126,"count":24,"max":[1,1,1],"min":[-1,-1,-1],"type":"VEC3"},{"bufferView":6,"componentType":5126,"count":24,"max":[1,1],"min":[0,0],"type":"VEC2"},{"bufferView":7,"componentType":5123,"count":12,"max":[23],"min":[16],"type":"SCALAR"},{"bufferView":8,"componentType":5126,"count":24,"max":[0.156312495470047,0.15625,0.4375],"min":[0.15625,-0.15625,-0.0625],"type":"VEC3"},{"bufferView":9,"componentType":5126,"count":24,"max":[1,1,1],"min":[-1,-1,-1],"type":"VEC3"},{"bufferView":10,"componentType":5126,"count":24,"max":[1,1],"min":[0,0],"type":"VEC2"},{"bufferView":11,"componentType":5123,"count":12,"max":[7],"min":[0],"type":"SCALAR"},{"bufferView":12,"componentType":5126,"count":24,"max":[0.3734999895095825,0.5625,0.484375],"min":[0.3734374940395355,0,-0.015625],"type":"VEC3"},{"bufferView":13,"componentType":5126,"count":24,"max":[1,1,1],"min":[-1,-1,-1],"type":"VEC3"},{"bufferView":14,"componentType":5126,"count":24,"max":[1,1],"min":[0,0],"type":"VEC2"},{"bufferView":15,"componentType":5123,"count":12,"max":[7],"min":[0],"type":"SCALAR"},{"bufferView":16,"componentType":5126,"count":24,"max":[0.6078749895095825,0.5625,0.015625],"min":[0.6078125238418579,0,-0.671875],"type":"VEC3"},{"bufferView":17,"componentType":5126,"count":24,"max":[1,1,1],"min":[-1,-1,-1],"type":"VEC3"},{"bufferView":18,"componentType":5126,"count":24,"max":[1,1],"min":[0,0],"type":"VEC2"},{"bufferView":19,"componentType":5123,"count":12,"max":[7],"min":[0],"type":"SCALAR"},{"bufferView":20,"componentType":5126,"count":24,"max":[0.875,0.375,0.3297500014305115],"min":[0.25,0,0.3296875059604645],"type":"VEC3"},{"bufferView":21,"componentType":5126,"count":24,"max":[1,1,1],"min":[-1,-1,-1],"type":"VEC3"},{"bufferView":22,"componentType":5126,"count":24,"max":[1,1],"min":[0,0],"type":"VEC2"},{"bufferView":23,"componentType":5123,"count":12,"max":[23],"min":[16],"type":"SCALAR"},{"bufferView":24,"componentType":5126,"count":24,"max":[0.3125,0.125,-0.0936874970793724],"min":[-0.0625,-0.125,-0.09375],"type":"VEC3"},{"bufferView":25,"componentType":5126,"count":24,"max":[1,1,1],"min":[-1,-1,-1],"type":"VEC3"},{"bufferView":26,"componentType":5126,"count":24,"max":[1,1],"min":[0,0],"type":"VEC2"},{"bufferView":27,"componentType":5123,"count":12,"max":[23],"min":[16],"type":"SCALAR"},{"bufferView":28,"componentType":5126,"count":24,"max":[0.5625625252723694,0.09375,0.28125],"min":[0.5625,-0.15625,-0.21875],"type":"VEC3"},{"bufferView":29,"componentType":5126,"count":24,"max":[1,1,1],"min":[-1,-1,-1],"type":"VEC3"},{"bufferView":30,"componentType":5126,"count":24,"max":[1,1],"min":[0,0],"type":"VEC2"},{"bufferView":31,"componentType":5123,"count":6,"max":[3],"min":[0],"type":"SCALAR"},{"bufferView":32,"componentType":5126,"count":24,"max":[0.6875,0.3125,0.5000625252723694],"min":[0.25,-0.125,0.5],"type":"VEC3"},{"bufferView":33,"componentType":5126,"count":24,"max":[1,1,1],"min":[-1,-1,-1],"type":"VEC3"},{"bufferView":34,"componentType":5126,"count":24,"max":[1,1],"min":[0,0],"type":"VEC2"},{"bufferView":35,"componentType":5123,"count":12,"max":[23],"min":[16],"type":"SCALAR"},{"bufferView":36,"componentType":5126,"count":24,"max":[0.609375,0.375,-0.2202499955892563],"min":[-0.015625,0,-0.22031250596046448],"type":"VEC3"},{"bufferView":37,"componentType":5126,"count":24,"max":[1,1,1],"min":[-1,-1,-1],"type":"VEC3"},{"bufferView":38,"componentType":5126,"count":24,"max":[1,1],"min":[0,0],"type":"VEC2"},{"bufferView":39,"componentType":5123,"count":12,"max":[23],"min":[16],"type":"SCALAR"}],"materials":[{"pbrMetallicRoughness":{"metallicFactor":0,"roughnessFactor":1,"baseColorTexture":{"index":0}},"alphaMode":"MASK","alphaCutoff":0.05}],"textures":[{"sampler":0,"source":0,"name":"grass4.png"}],"samplers":[{"magFilter":9728,"minFilter":9728,"wrapS":33071,"wrapT":33071}],"images":[{"mimeType":"image/png","uri":"data:image/png;base64,"}],"meshes":[{"primitives":[{"mode":4,"attributes":{"POSITION":0,"NORMAL":1,"TEXCOORD_0":2},"indices":3,"material":0}]},{"primitives":[{"mode":4,"attributes":{"POSITION":4,"NORMAL":5,"TEXCOORD_0":6},"indices":7,"material":0}]},{"primitives":[{"mode":4,"attributes":{"POSITION":8,"NORMAL":9,"TEXCOORD_0":10},"indices":11,"material":0}]},{"primitives":[{"mode":4,"attributes":{"POSITION":12,"NORMAL":13,"TEXCOORD_0":14},"indices":15,"material":0}]},{"primitives":[{"mode":4,"attributes":{"POSITION":16,"NORMAL":17,"TEXCOORD_0":18},"indices":19,"material":0}]},{"primitives":[{"mode":4,"attributes":{"POSITION":20,"NORMAL":21,"TEXCOORD_0":22},"indices":23,"material":0}]},{"primitives":[{"mode":4,"attributes":{"POSITION":24,"NORMAL":25,"TEXCOORD_0":26},"indices":27,"material":0}]},{"primitives":[{"mode":4,"attributes":{"POSITION":28,"NORMAL":29,"TEXCOORD_0":30},"indices":31,"material":0}]},{"primitives":[{"mode":4,"attributes":{"POSITION":32,"NORMAL":33,"TEXCOORD_0":34},"indices":35,"material":0}]},{"primitives":[{"mode":4,"attributes":{"POSITION":36,"NORMAL":37,"TEXCOORD_0":38},"indices":39,"material":0}]}]}