{"asset":{"version":"2.0","generator":"Blockbench 4.12.4 glTF exporter"},"scenes":[{"nodes":[11],"name":"blockbench_export"}],"scene":0,"nodes":[{"rotation":[0,-0.19509032201612825,0,0.9807852804032304],"translation":[0,0,0.9281250000000001],"name":"cube","mesh":0},{"rotation":[0,0.19509032201612825,0,0.9807852804032304],"translation":[0.6588432570618885,0.2187500000000001,0.44164355637051117],"name":"cube","mesh":1},{"translation":[0.6588432570618885,0.2187500000000001,0.44164355637051117],"name":"cube","mesh":2},{"rotation":[0,-0.19509032201612825,0,0.9807852804032304],"translation":[0.6588432570618885,0.2187500000000001,0.44164355637051117],"name":"cube","mesh":3},{"rotation":[0,-0.19509032201612825,0,0.9807852804032304],"translation":[0.3411567429381115,0.2187500000000001,0.44164355637051117],"name":"cube","mesh":4},{"rotation":[0,-0.3826834323650898,0,0.9238795325112867],"translation":[0.8531859282157725,0.21875000000000017,0.674113706172933],"name":"cube","mesh":5},{"rotation":[0,-0.19509032201612825,0,0.9807852804032304],"translation":[0.2640601885993511,0.15625000000000017,0.5348089708080676],"name":"cube","mesh":6},{"rotation":[0,-0.19509032201612825,0,0.9807852804032304],"translation":[0,0,0.07187499999999997],"name":"cube","mesh":7},{"rotation":[0,-0.19509032201612825,0,0.9807852804032304],"translation":[0.3411567429381115,0.2187500000000001,0.44164355637051117],"name":"cube","mesh":8},{"rotation":[0,0.19509032201612825,0,0.9807852804032304],"translation":[0.6588432570618885,0.2187500000000001,0.44164355637051117],"name":"cube","mesh":9},{"translation":[0.6588432570618885,0.2187500000000001,0.44164355637051117],"name":"grass"},{"children":[0,1,2,3,4,5,6,7,8,9,10]}],"bufferViews":[{"buffer":0,"byteOffset":0,"byteLength":288,"target":34962,"byteStride":12},{"buffer":0,"byteOffset":288,"byteLength":288,"target":34962,"byteStride":12},{"buffer":0,"byteOffset":576,"byteLength":192,"target":34962,"byteStride":8},{"buffer":0,"byteOffset":768,"byteLength":24,"target":34963},{"buffer":0,"byteOffset":792,"byteLength":288,"target":34962,"byteStride":12},{"buffer":0,"byteOffset":1080,"byteLength":288,"target":34962,"byteStride":12},{"buffer":0,"byteOffset":1368,"byteLength":192,"target":34962,"byteStride":8},{"buffer":0,"byteOffset":1560,"byteLength":12,"target":34963},{"buffer":0,"byteOffset":1572,"byteLength":288,"target":34962,"byteStride":12},{"buffer":0,"byteOffset":1860,"byteLength":288,"target":34962,"byteStride":12},{"buffer":0,"byteOffset":2148,"byteLength":192,"target":34962,"byteStride":8},{"buffer":0,"byteOffset":2340,"byteLength":12,"target":34963},{"buffer":0,"byteOffset":2352,"byteLength":288,"target":34962,"byteStride":12},{"buffer":0,"byteOffset":2640,"byteLength":288,"target":34962,"byteStride":12},{"buffer":0,"byteOffset":2928,"byteLength":192,"target":34962,"byteStride":8},{"buffer":0,"byteOffset":3120,"byteLength":24,"target":34963},{"buffer":0,"byteOffset":3144,"byteLength":288,"target":34962,"byteStride":12},{"buffer":0,"byteOffset":3432,"byteLength":288,"target":34962,"byteStride":12},{"buffer":0,"byteOffset":3720,"byteLength":192,"target":34962,"byteStride":8},{"buffer":0,"byteOffset":3912,"byteLength":24,"target":34963},{"buffer":0,"byteOffset":3936,"byteLength":288,"target":34962,"byteStride":12},{"buffer":0,"byteOffset":4224,"byteLength":288,"target":34962,"byteStride":12},{"buffer":0,"byteOffset":4512,"byteLength":192,"target":34962,"byteStride":8},{"buffer":0,"byteOffset":4704,"byteLength":12,"target":34963},{"buffer":0,"byteOffset":4716,"byteLength":288,"target":34962,"byteStride":12},{"buffer":0,"byteOffset":5004,"byteLength":288,"target":34962,"byteStride":12},{"buffer":0,"byteOffset":5292,"byteLength":192,"target":34962,"byteStride":8},{"buffer":0,"byteOffset":5484,"byteLength":24,"target":34963},{"buffer":0,"byteOffset":5508,"byteLength":288,"target":34962,"byteStride":12},{"buffer":0,"byteOffset":5796,"byteLength":288,"target":34962,"byteStride":12},{"buffer":0,"byteOffset":6084,"byteLength":192,"target":34962,"byteStride":8},{"buffer":0,"byteOffset":6276,"byteLength":24,"target":34963},{"buffer":0,"byteOffset":6300,"byteLength":288,"target":34962,"byteStride":12},{"buffer":0,"byteOffset":6588,"byteLength":288,"target":34962,"byteStride":12},{"buffer":0,"byteOffset":6876,"byteLength":192,"target":34962,"byteStride":8},{"buffer":0,"byteOffset":7068,"byteLength":24,"target":34963},{"buffer":0,"byteOffset":7092,"byteLength":288,"target":34962,"byteStride":12},{"buffer":0,"byteOffset":7380,"byteLength":288,"target":34962,"byteStride":12},{"buffer":0,"byteOffset":7668,"byteLength":192,"target":34962,"byteStride":8},{"buffer":0,"byteOffset":7860,"byteLength":24,"target":34963}],"buffers":[{"byteLength":7884,"uri":"data:application/octet-stream;base64,"}],"accessors":[{"bufferView":0,"componentType":5126,"count":24,"max":[0.10787499696016312,0.5625,-0.390625],"min":[0.10781250149011612,0,-1.078125],"type":"VEC3"},{"bufferView":1,"componentType":5126,"count":24,"max":[1,1,1],"min":[-1,-1,-1],"type":"VEC3"},{"bufferView":2,"componentType":5126,"count":24,"max":[1,1],"min":[0,0],"type":"VEC2"},{"bufferView":3,"componentType":5123,"count":12,"max":[7],"min":[0],"type":"SCALAR"},{"bufferView":4,"componentType":5126,"count":24,"max":[0.34375,0.46875,0.0000625000029685907],"min":[-0.15625,-0.21875,0],"type":"VEC3"},{"bufferView":5,"componentType":5126,"count":24,"max":[1,1,1],"min":[-1,-1,-1],"type":"VEC3"},{"bufferView":6,"componentType":5126,"count":24,"max":[1,1],"min":[0,0],"type":"VEC2"},{"bufferView":7,"componentType":5123,"count":6,"max":[19],"min":[16],"type":"SCALAR"},{"bufferView":8,"componentType":5126,"count":24,"max":[-0.28125,0.59375,0.0000625000029685907],"min":[-0.71875,-0.21875,0],"type":"VEC3"},{"bufferView":9,"componentType":5126,"count":24,"max":[1,1,1],"min":[-1,-1,-1],"type":"VEC3"},{"bufferView":10,"componentType":5126,"count":24,"max":[1,1],"min":[0,0],"type":"VEC2"},{"bufferView":11,"componentType":5123,"count":6,"max":[23],"min":[20],"type":"SCALAR"},{"bufferView":12,"componentType":5126,"count":24,"max":[0.0938125029206276,0.65625,0.546875],"min":[0.09375,-0.21875,-0.453125],"type":"VEC3"},{"bufferView":13,"componentType":5126,"count":24,"max":[1,1,1],"min":[-1,-1,-1],"type":"VEC3"},{"bufferView":14,"componentType":5126,"count":24,"max":[1,1],"min":[0,0],"type":"VEC2"},{"bufferView":15,"componentType":5123,"count":12,"max":[7],"min":[0],"type":"SCALAR"},{"bufferView":16,"componentType":5126,"count":24,"max":[0.28125,0.40625,0.281312495470047],"min":[-0.21875,-0.21875,0.28125],"type":"VEC3"},{"bufferView":17,"componentType":5126,"count":24,"max":[1,1,1],"min":[-1,-1,-1],"type":"VEC3"},{"bufferView":18,"componentType":5126,"count":24,"max":[1,1],"min":[0,0],"type":"VEC2"},{"bufferView":19,"componentType":5123,"count":12,"max":[23],"min":[16],"type":"SCALAR"},{"bufferView":20,"componentType":5126,"count":24,"max":[0.1875,0.21875,0.046937499195337296],"min":[-0.3125,-0.21875,0.046875],"type":"VEC3"},{"bufferView":21,"componentType":5126,"count":24,"max":[1,1,1],"min":[-1,-1,-1],"type":"VEC3"},{"bufferView":22,"componentType":5126,"count":24,"max":[1,1],"min":[0,0],"type":"VEC2"},{"bufferView":23,"componentType":5123,"count":6,"max":[19],"min":[16],"type":"SCALAR"},{"bufferView":24,"componentType":5126,"count":24,"max":[0.140687495470047,0.15625,0.46875],"min":[0.140625,-0.15625,-0.03125],"type":"VEC3"},{"bufferView":25,"componentType":5126,"count":24,"max":[1,1,1],"min":[-1,-1,-1],"type":"VEC3"},{"bufferView":26,"componentType":5126,"count":24,"max":[1,1],"min":[0,0],"type":"VEC2"},{"bufferView":27,"componentType":5123,"count":12,"max":[7],"min":[0],"type":"SCALAR"},{"bufferView":28,"componentType":5126,"count":24,"max":[0.2016250044107437,0.5625,0.390625],"min":[0.20156249403953552,0,-0.109375],"type":"VEC3"},{"bufferView":29,"componentType":5126,"count":24,"max":[1,1,1],"min":[-1,-1,-1],"type":"VEC3"},{"bufferView":30,"componentType":5126,"count":24,"max":[1,1],"min":[0,0],"type":"VEC2"},{"bufferView":31,"componentType":5123,"count":12,"max":[7],"min":[0],"type":"SCALAR"},{"bufferView":32,"componentType":5126,"count":24,"max":[0.53125,0.15625,-0.390562504529953],"min":[0.03125,-0.21875,-0.390625],"type":"VEC3"},{"bufferView":33,"componentType":5126,"count":24,"max":[1,1,1],"min":[-1,-1,-1],"type":"VEC3"},{"bufferView":34,"componentType":5126,"count":24,"max":[1,1],"min":[0,0],"type":"VEC2"},{"bufferView":35,"componentType":5123,"count":12,"max":[23],"min":[16],"type":"SCALAR"},{"bufferView":36,"componentType":5126,"count":24,"max":[0.375,0.65625,-0.265562504529953],"min":[-0.625,-0.21875,-0.265625],"type":"VEC3"},{"bufferView":37,"componentType":5126,"count":24,"max":[1,1,1],"min":[-1,-1,-1],"type":"VEC3"},{"bufferView":38,"componentType":5126,"count":24,"max":[1,1],"min":[0,0],"type":"VEC2"},{"bufferView":39,"componentType":5123,"count":12,"max":[23],"min":[16],"type":"SCALAR"}],"materials":[{"pbrMetallicRoughness":{"metallicFactor":0,"roughnessFactor":1,"baseColorTexture":{"index":0}},"alphaMode":"MASK","alphaCutoff":0.05}],"textures":[{"sampler":0,"source":0,"name":"grass3.png"}],"samplers":[{"magFilter":9728,"minFilter":9728,"wrapS":33071,"wrapT":33071}],"images":[{"mimeType":"image/png","uri":"data:image/png;base64,"}],"meshes":[{"primitives":[{"mode":4,"attributes":{"POSITION":0,"NORMAL":1,"TEXCOORD_0":2},"indices":3,"material":0}]},{"primitives":[{"mode":4,"attributes":{"POSITION":4,"NORMAL":5,"TEXCOORD_0":6},"indices":7,"material":0}]},{"primitives":[{"mode":4,"attributes":{"POSITION":8,"NORMAL":9,"TEXCOORD_0":10},"indices":11,"material":0}]},{"primitives":[{"mode":4,"attributes":{"POSITION":12,"NORMAL":13,"TEXCOORD_0":14},"indices":15,"material":0}]},{"primitives":[{"mode":4,"attributes":{"POSITION":16,"NORMAL":17,"TEXCOORD_0":18},"indices":19,"material":0}]},{"primitives":[{"mode":4,"attributes":{"POSITION":20,"NORMAL":21,"TEXCOORD_0":22},"indices":23,"material":0}]},{"primitives":[{"mode":4,"attributes":{"POSITION":24,"NORMAL":25,"TEXCOORD_0":26},"indices":27,"material":0}]},{"primitives":[{"mode":4,"attributes":{"POSITION":28,"NORMAL":29,"TEXCOORD_0":30},"indices":31,"material":0}]},{"primitives":[{"mode":4,"attributes":{"POSITION":32,"NORMAL":33,"TEXCOORD_0":34},"indices":35,"material":0}]},{"primitives":[{"mode":4,"attributes":{"POSITION":36,"NORMAL":37,"TEXCOORD_0":38},"indices":39,"material":0}]}]}