{"asset":{"version":"2.0","generator":"Blockbench 4.12.4 glTF exporter"},"scenes":[{"nodes":[10],"name":"blockbench_export"}],"scene":0,"nodes":[{"translation":[-0.5,-0.10937500000000006,-0.5],"name":"cube","mesh":0},{"translation":[-0.5,0.01562499999999997,-0.5],"name":"cube","mesh":1},{"translation":[-0.5,0.01562499999999997,-0.5],"name":"cube","mesh":2},{"name":"cube","mesh":3},{"name":"cube","mesh":4},{"name":"cube","mesh":5},{"name":"cube inverted","mesh":6},{"name":"cube inverted","mesh":7},{"name":"cube inverted","mesh":8},{"name":"group"},{"children":[0,1,2,3,4,5,6,7,8,9]}],"bufferViews":[{"buffer":0,"byteOffset":0,"byteLength":288,"target":34962,"byteStride":12},{"buffer":0,"byteOffset":288,"byteLength":288,"target":34962,"byteStride":12},{"buffer":0,"byteOffset":576,"byteLength":192,"target":34962,"byteStride":8},{"buffer":0,"byteOffset":768,"byteLength":12,"target":34963},{"buffer":0,"byteOffset":780,"byteLength":288,"target":34962,"byteStride":12},{"buffer":0,"byteOffset":1068,"byteLength":288,"target":34962,"byteStride":12},{"buffer":0,"byteOffset":1356,"byteLength":192,"target":34962,"byteStride":8},{"buffer":0,"byteOffset":1548,"byteLength":12,"target":34963},{"buffer":0,"byteOffset":1560,"byteLength":288,"target":34962,"byteStride":12},{"buffer":0,"byteOffset":1848,"byteLength":288,"target":34962,"byteStride":12},{"buffer":0,"byteOffset":2136,"byteLength":192,"target":34962,"byteStride":8},{"buffer":0,"byteOffset":2328,"byteLength":12,"target":34963},{"buffer":0,"byteOffset":2340,"byteLength":288,"target":34962,"byteStride":12},{"buffer":0,"byteOffset":2628,"byteLength":288,"target":34962,"byteStride":12},{"buffer":0,"byteOffset":2916,"byteLength":192,"target":34962,"byteStride":8},{"buffer":0,"byteOffset":3108,"byteLength":48,"target":34963},{"buffer":0,"byteOffset":3156,"byteLength":288,"target":34962,"byteStride":12},{"buffer":0,"byteOffset":3444,"byteLength":288,"target":34962,"byteStride":12},{"buffer":0,"byteOffset":3732,"byteLength":192,"target":34962,"byteStride":8},{"buffer":0,"byteOffset":3924,"byteLength":48,"target":34963},{"buffer":0,"byteOffset":3972,"byteLength":288,"target":34962,"byteStride":12},{"buffer":0,"byteOffset":4260,"byteLength":288,"target":34962,"byteStride":12},{"buffer":0,"byteOffset":4548,"byteLength":192,"target":34962,"byteStride":8},{"buffer":0,"byteOffset":4740,"byteLength":48,"target":34963},{"buffer":0,"byteOffset":4788,"byteLength":288,"target":34962,"byteStride":12},{"buffer":0,"byteOffset":5076,"byteLength":288,"target":34962,"byteStride":12},{"buffer":0,"byteOffset":5364,"byteLength":192,"target":34962,"byteStride":8},{"buffer":0,"byteOffset":5556,"byteLength":48,"target":34963},{"buffer":0,"byteOffset":5604,"byteLength":288,"target":34962,"byteStride":12},{"buffer":0,"byteOffset":5892,"byteLength":288,"target":34962,"byteStride":12},{"buffer":0,"byteOffset":6180,"byteLength":192,"target":34962,"byteStride":8},{"buffer":0,"byteOffset":6372,"byteLength":48,"target":34963},{"buffer":0,"byteOffset":6420,"byteLength":288,"target":34962,"byteStride":12},{"buffer":0,"byteOffset":6708,"byteLength":288,"target":34962,"byteStride":12},{"buffer":0,"byteOffset":6996,"byteLength":192,"target":34962,"byteStride":8},{"buffer":0,"byteOffset":7188,"byteLength":48,"target":34963}],"buffers":[{"byteLength":7236,"uri":"data:application/octet-stream;base64,"}],"accessors":[{"bufferView":0,"componentType":5126,"count":24,"max":[2.25,0.12968750298023224,2.25],"min":[-0.25,0.12968750298023224,-0.25],"type":"VEC3"},{"bufferView":1,"componentType":5126,"count":24,"max":[1,1,1],"min":[-1,-1,-1],"type":"VEC3"},{"bufferView":2,"componentType":5126,"count":24,"max":[1,1],"min":[0,0],"type":"VEC2"},{"bufferView":3,"componentType":5123,"count":6,"max":[11],"min":[8],"type":"SCALAR"},{"bufferView":4,"componentType":5126,"count":24,"max":[1.9375,0.19224999845027924,2],"min":[0.6875,0.19218750298023224,0.8125],"type":"VEC3"},{"bufferView":5,"componentType":5126,"count":24,"max":[1,1,1],"min":[-1,-1,-1],"type":"VEC3"},{"bufferView":6,"componentType":5126,"count":24,"max":[1,1],"min":[0,0],"type":"VEC2"},{"bufferView":7,"componentType":5123,"count":6,"max":[11],"min":[8],"type":"SCALAR"},{"bufferView":8,"componentType":5126,"count":24,"max":[1.375,0.12974999845027924,1.1875],"min":[0.0625,0.12968750298023224,0.1875],"type":"VEC3"},{"bufferView":9,"componentType":5126,"count":24,"max":[1,1,1],"min":[-1,-1,-1],"type":"VEC3"},{"bufferView":10,"componentType":5126,"count":24,"max":[1,1],"min":[0,0],"type":"VEC2"},{"bufferView":11,"componentType":5123,"count":6,"max":[11],"min":[8],"type":"SCALAR"},{"bufferView":12,"componentType":5126,"count":24,"max":[0.5625,0.12968750298023224,0.4375],"min":[-0.125,0.004687500186264515,-0.125],"type":"VEC3"},{"bufferView":13,"componentType":5126,"count":24,"max":[1,1,1],"min":[-1,-1,-1],"type":"VEC3"},{"bufferView":14,"componentType":5126,"count":24,"max":[1,1],"min":[0,0],"type":"VEC2"},{"bufferView":15,"componentType":5123,"count":24,"max":[23],"min":[0],"type":"SCALAR"},{"bufferView":16,"componentType":5126,"count":24,"max":[1.125,0.19218750298023224,1],"min":[0.4375,0.004687500186264515,0.5],"type":"VEC3"},{"bufferView":17,"componentType":5126,"count":24,"max":[1,1,1],"min":[-1,-1,-1],"type":"VEC3"},{"bufferView":18,"componentType":5126,"count":24,"max":[1,1],"min":[0,0],"type":"VEC2"},{"bufferView":19,"componentType":5123,"count":24,"max":[23],"min":[0],"type":"SCALAR"},{"bufferView":20,"componentType":5126,"count":24,"max":[0.875,0.19218750298023224,1.25],"min":[0.25,0.004687500186264515,0.875],"type":"VEC3"},{"bufferView":21,"componentType":5126,"count":24,"max":[1,1,1],"min":[-1,-1,-1],"type":"VEC3"},{"bufferView":22,"componentType":5126,"count":24,"max":[1,1],"min":[0,0],"type":"VEC2"},{"bufferView":23,"componentType":5123,"count":24,"max":[23],"min":[0],"type":"SCALAR"},{"bufferView":24,"componentType":5126,"count":24,"max":[0.5625,0.12968750298023224,0.4375],"min":[-0.125,0.004687500186264515,-0.125],"type":"VEC3"},{"bufferView":25,"componentType":5126,"count":24,"max":[1,1,1],"min":[-1,-1,-1],"type":"VEC3"},{"bufferView":26,"componentType":5126,"count":24,"max":[1,1],"min":[0,0],"type":"VEC2"},{"bufferView":27,"componentType":5123,"count":24,"max":[23],"min":[0],"type":"SCALAR"},{"bufferView":28,"componentType":5126,"count":24,"max":[1.125,0.19218750298023224,1],"min":[0.4375,0.004687500186264515,0.5],"type":"VEC3"},{"bufferView":29,"componentType":5126,"count":24,"max":[1,1,1],"min":[-1,-1,-1],"type":"VEC3"},{"bufferView":30,"componentType":5126,"count":24,"max":[1,1],"min":[0,0],"type":"VEC2"},{"bufferView":31,"componentType":5123,"count":24,"max":[23],"min":[0],"type":"SCALAR"},{"bufferView":32,"componentType":5126,"count":24,"max":[0.875,0.19218750298023224,1.25],"min":[0.25,0.004687500186264515,0.875],"type":"VEC3"},{"bufferView":33,"componentType":5126,"count":24,"max":[1,1,1],"min":[-1,-1,-1],"type":"VEC3"},{"bufferView":34,"componentType":5126,"count":24,"max":[1,1],"min":[0,0],"type":"VEC2"},{"bufferView":35,"componentType":5123,"count":24,"max":[23],"min":[0],"type":"SCALAR"}],"materials":[{"pbrMetallicRoughness":{"metallicFactor":0,"roughnessFactor":1,"baseColorTexture":{"index":0}},"alphaMode":"MASK","alphaCutoff":0.05}],"textures":[{"sampler":0,"source":0,"name":"ground_moss2.png"}],"samplers":[{"magFilter":9728,"minFilter":9728,"wrapS":33071,"wrapT":33071}],"images":[{"mimeType":"image/png","uri":"data:image/png;base64,"}],"meshes":[{"primitives":[{"mode":4,"attributes":{"POSITION":0,"NORMAL":1,"TEXCOORD_0":2},"indices":3,"material":0}]},{"primitives":[{"mode":4,"attributes":{"POSITION":4,"NORMAL":5,"TEXCOORD_0":6},"indices":7,"material":0}]},{"primitives":[{"mode":4,"attributes":{"POSITION":8,"NORMAL":9,"TEXCOORD_0":10},"indices":11,"material":0}]},{"primitives":[{"mode":4,"attributes":{"POSITION":12,"NORMAL":13,"TEXCOORD_0":14},"indices":15,"material":0}]},{"primitives":[{"mode":4,"attributes":{"POSITION":16,"NORMAL":17,"TEXCOORD_0":18},"indices":19,"material":0}]},{"primitives":[{"mode":4,"attributes":{"POSITION":20,"NORMAL":21,"TEXCOORD_0":22},"indices":23,"material":0}]},{"primitives":[{"mode":4,"attributes":{"POSITION":24,"NORMAL":25,"TEXCOORD_0":26},"indices":27,"material":0}]},{"primitives":[{"mode":4,"attributes":{"POSITION":28,"NORMAL":29,"TEXCOORD_0":30},"indices":31,"material":0}]},{"primitives":[{"mode":4,"attributes":{"POSITION":32,"NORMAL":33,"TEXCOORD_0":34},"indices":35,"material":0}]}]}