{"asset":{"version":"2.0","generator":"Blockbench 4.12.4 glTF exporter"},"scenes":[{"nodes":[7],"name":"blockbench_export"}],"scene":0,"nodes":[{"translation":[-0.5,-0.10937500000000006,-0.5],"name":"cube","mesh":0},{"translation":[-0.5,0.01562499999999997,-0.5],"name":"cube","mesh":1},{"translation":[0.0625,0.0078125,0.125],"name":"cube","mesh":2},{"translation":[0.375,0.0078125,0.5],"name":"cube","mesh":3},{"translation":[0.375,0.0078125,0.5],"name":"cube inverted","mesh":4},{"translation":[0.0625,0.0078125,0.125],"name":"cube inverted","mesh":5},{"translation":[0.0625,0,0.125],"name":"group"},{"children":[0,1,2,3,4,5,6]}],"bufferViews":[{"buffer":0,"byteOffset":0,"byteLength":288,"target":34962,"byteStride":12},{"buffer":0,"byteOffset":288,"byteLength":288,"target":34962,"byteStride":12},{"buffer":0,"byteOffset":576,"byteLength":192,"target":34962,"byteStride":8},{"buffer":0,"byteOffset":768,"byteLength":12,"target":34963},{"buffer":0,"byteOffset":780,"byteLength":288,"target":34962,"byteStride":12},{"buffer":0,"byteOffset":1068,"byteLength":288,"target":34962,"byteStride":12},{"buffer":0,"byteOffset":1356,"byteLength":192,"target":34962,"byteStride":8},{"buffer":0,"byteOffset":1548,"byteLength":12,"target":34963},{"buffer":0,"byteOffset":1560,"byteLength":288,"target":34962,"byteStride":12},{"buffer":0,"byteOffset":1848,"byteLength":288,"target":34962,"byteStride":12},{"buffer":0,"byteOffset":2136,"byteLength":192,"target":34962,"byteStride":8},{"buffer":0,"byteOffset":2328,"byteLength":48,"target":34963},{"buffer":0,"byteOffset":2376,"byteLength":288,"target":34962,"byteStride":12},{"buffer":0,"byteOffset":2664,"byteLength":288,"target":34962,"byteStride":12},{"buffer":0,"byteOffset":2952,"byteLength":192,"target":34962,"byteStride":8},{"buffer":0,"byteOffset":3144,"byteLength":48,"target":34963},{"buffer":0,"byteOffset":3192,"byteLength":288,"target":34962,"byteStride":12},{"buffer":0,"byteOffset":3480,"byteLength":288,"target":34962,"byteStride":12},{"buffer":0,"byteOffset":3768,"byteLength":192,"target":34962,"byteStride":8},{"buffer":0,"byteOffset":3960,"byteLength":48,"target":34963},{"buffer":0,"byteOffset":4008,"byteLength":288,"target":34962,"byteStride":12},{"buffer":0,"byteOffset":4296,"byteLength":288,"target":34962,"byteStride":12},{"buffer":0,"byteOffset":4584,"byteLength":192,"target":34962,"byteStride":8},{"buffer":0,"byteOffset":4776,"byteLength":48,"target":34963}],"buffers":[{"byteLength":4824,"uri":"data:application/octet-stream;base64,"}],"accessors":[{"bufferView":0,"componentType":5126,"count":24,"max":[2,0.125,2],"min":[0,0.125,0],"type":"VEC3"},{"bufferView":1,"componentType":5126,"count":24,"max":[1,1,1],"min":[-1,-1,-1],"type":"VEC3"},{"bufferView":2,"componentType":5126,"count":24,"max":[1,1],"min":[0,0],"type":"VEC2"},{"bufferView":3,"componentType":5123,"count":6,"max":[11],"min":[8],"type":"SCALAR"},{"bufferView":4,"componentType":5126,"count":24,"max":[1.6875,0.125062495470047,1.6875],"min":[0.3125,0.125,0.3125],"type":"VEC3"},{"bufferView":5,"componentType":5126,"count":24,"max":[1,1,1],"min":[-1,-1,-1],"type":"VEC3"},{"bufferView":6,"componentType":5126,"count":24,"max":[1,1],"min":[0,0],"type":"VEC2"},{"bufferView":7,"componentType":5123,"count":6,"max":[11],"min":[8],"type":"SCALAR"},{"bufferView":8,"componentType":5126,"count":24,"max":[0.5625,0.125,0.5],"min":[0,0,0],"type":"VEC3"},{"bufferView":9,"componentType":5126,"count":24,"max":[1,1,1],"min":[-1,-1,-1],"type":"VEC3"},{"bufferView":10,"componentType":5126,"count":24,"max":[1,1],"min":[0,0],"type":"VEC2"},{"bufferView":11,"componentType":5123,"count":24,"max":[23],"min":[0],"type":"SCALAR"},{"bufferView":12,"componentType":5126,"count":24,"max":[0.5625,0.125,0.5],"min":[0,0,-0.125],"type":"VEC3"},{"bufferView":13,"componentType":5126,"count":24,"max":[1,1,1],"min":[-1,-1,-1],"type":"VEC3"},{"bufferView":14,"componentType":5126,"count":24,"max":[1,1],"min":[0,0],"type":"VEC2"},{"bufferView":15,"componentType":5123,"count":24,"max":[23],"min":[0],"type":"SCALAR"},{"bufferView":16,"componentType":5126,"count":24,"max":[0.5625,0.125,0.5],"min":[0,0,-0.125],"type":"VEC3"},{"bufferView":17,"componentType":5126,"count":24,"max":[1,1,1],"min":[-1,-1,-1],"type":"VEC3"},{"bufferView":18,"componentType":5126,"count":24,"max":[1,1],"min":[0,0],"type":"VEC2"},{"bufferView":19,"componentType":5123,"count":24,"max":[23],"min":[0],"type":"SCALAR"},{"bufferView":20,"componentType":5126,"count":24,"max":[0.5625,0.125,0.5],"min":[0,0,0],"type":"VEC3"},{"bufferView":21,"componentType":5126,"count":24,"max":[1,1,1],"min":[-1,-1,-1],"type":"VEC3"},{"bufferView":22,"componentType":5126,"count":24,"max":[1,1],"min":[0,0],"type":"VEC2"},{"bufferView":23,"componentType":5123,"count":24,"max":[23],"min":[0],"type":"SCALAR"}],"materials":[{"pbrMetallicRoughness":{"metallicFactor":0,"roughnessFactor":1,"baseColorTexture":{"index":0}},"alphaMode":"MASK","alphaCutoff":0.05}],"textures":[{"sampler":0,"source":0,"name":"ground_moss1.png"}],"samplers":[{"magFilter":9728,"minFilter":9728,"wrapS":33071,"wrapT":33071}],"images":[{"mimeType":"image/png","uri":"data:image/png;base64,"}],"meshes":[{"primitives":[{"mode":4,"attributes":{"POSITION":0,"NORMAL":1,"TEXCOORD_0":2},"indices":3,"material":0}]},{"primitives":[{"mode":4,"attributes":{"POSITION":4,"NORMAL":5,"TEXCOORD_0":6},"indices":7,"material":0}]},{"primitives":[{"mode":4,"attributes":{"POSITION":8,"NORMAL":9,"TEXCOORD_0":10},"indices":11,"material":0}]},{"primitives":[{"mode":4,"attributes":{"POSITION":12,"NORMAL":13,"TEXCOORD_0":14},"indices":15,"material":0}]},{"primitives":[{"mode":4,"attributes":{"POSITION":16,"NORMAL":17,"TEXCOORD_0":18},"indices":19,"material":0}]},{"primitives":[{"mode":4,"attributes":{"POSITION":20,"NORMAL":21,"TEXCOORD_0":22},"indices":23,"material":0}]}]}