{"asset":{"version":"2.0","generator":"Blockbench 4.12.4 glTF exporter"},"scenes":[{"nodes":[30],"name":"blockbench_export"}],"scene":0,"nodes":[{"translation":[0.8125,0,0.8125],"name":"cube","mesh":0},{"translation":[-0.8125,0,0.8125],"name":"cube","mesh":1},{"translation":[0.6875,0.3125,0],"name":"cube","mesh":2},{"translation":[0.6875,0.875,0],"name":"cube","mesh":3},{"translation":[0.6875,1.5,0],"name":"cube","mesh":4},{"rotation":[0,0.19509032201612825,0,0.9807852804032304],"translation":[0.375,0.5625,0.46875],"name":"cube","mesh":5},{"rotation":[0,0.19509032201612825,0,0.9807852804032304],"translation":[0.375,0.5625,0.46875],"name":"cube","mesh":6},{"rotation":[0,0.19509032201612825,0,0.9807852804032304],"translation":[0.375,0.5625,0.46875],"name":"cube","mesh":7},{"translation":[-0.21875,1.6875,0.46875],"name":"cube","mesh":8},{"translation":[-0.53125,1.6875,0.46875],"name":"cube","mesh":9},{"translation":[-0.40625,1.8125,0.46875],"name":"cube","mesh":10},{"translation":[0.53125,1.6875,0.46875],"name":"cube","mesh":11},{"translation":[0.21875,1.6875,0.46875],"name":"cube","mesh":12},{"translation":[0.34375,1.8125,0.46875],"name":"cube","mesh":13},{"rotation":[0,0.3826834323650898,0,0.9238795325112867],"translation":[-0.375,1.125,0.46875],"name":"cube","mesh":14},{"rotation":[0,0.3826834323650898,0,0.9238795325112867],"translation":[-0.375,1.125,0.46875],"name":"cube","mesh":15},{"rotation":[0,0.3826834323650898,0,0.9238795325112867],"translation":[-0.375,1.125,0.46875],"name":"cube","mesh":16},{"translation":[0.53125,1.0625,0.46875],"name":"cube","mesh":17},{"translation":[0.21875,1.0625,0.46875],"name":"cube","mesh":18},{"translation":[0.34375,1.1875,0.46875],"name":"cube","mesh":19},{"translation":[-0.21875,0.5,0.46875],"name":"cube","mesh":20},{"translation":[-0.53125,0.5,0.46875],"name":"cube","mesh":21},{"translation":[-0.40625,0.625,0.46875],"name":"cube","mesh":22},{"translation":[0.5,0.5,0.5],"name":"group"},{"name":"blacksmith_copper_ingots"},{"name":"blacksmith_copper_ingots"},{"name":"blacksmith_copper_ingots"},{"name":"blacksmith_copper_ingots"},{"name":"blacksmith_copper_ingots"},{"translation":[0.5,0.5,0.5],"name":"blacksmith_copper_ingots","children":[24,25,26,27,28]},{"children":[0,1,2,3,4,5,6,7,8,9,10,11,12,13,14,15,16,17,18,19,20,21,22,23,29]}],"bufferViews":[{"buffer":0,"byteOffset":0,"byteLength":288,"target":34962,"byteStride":12},{"buffer":0,"byteOffset":288,"byteLength":288,"target":34962,"byteStride":12},{"buffer":0,"byteOffset":576,"byteLength":192,"target":34962,"byteStride":8},{"buffer":0,"byteOffset":768,"byteLength":72,"target":34963},{"buffer":0,"byteOffset":840,"byteLength":288,"target":34962,"byteStride":12},{"buffer":0,"byteOffset":1128,"byteLength":288,"target":34962,"byteStride":12},{"buffer":0,"byteOffset":1416,"byteLength":192,"target":34962,"byteStride":8},{"buffer":0,"byteOffset":1608,"byteLength":72,"target":34963},{"buffer":0,"byteOffset":1680,"byteLength":288,"target":34962,"byteStride":12},{"buffer":0,"byteOffset":1968,"byteLength":288,"target":34962,"byteStride":12},{"buffer":0,"byteOffset":2256,"byteLength":192,"target":34962,"byteStride":8},{"buffer":0,"byteOffset":2448,"byteLength":48,"target":34963},{"buffer":0,"byteOffset":2496,"byteLength":288,"target":34962,"byteStride":12},{"buffer":0,"byteOffset":2784,"byteLength":288,"target":34962,"byteStride":12},{"buffer":0,"byteOffset":3072,"byteLength":192,"target":34962,"byteStride":8},{"buffer":0,"byteOffset":3264,"byteLength":48,"target":34963},{"buffer":0,"byteOffset":3312,"byteLength":288,"target":34962,"byteStride":12},{"buffer":0,"byteOffset":3600,"byteLength":288,"target":34962,"byteStride":12},{"buffer":0,"byteOffset":3888,"byteLength":192,"target":34962,"byteStride":8},{"buffer":0,"byteOffset":4080,"byteLength":48,"target":34963},{"buffer":0,"byteOffset":4128,"byteLength":288,"target":34962,"byteStride":12},{"buffer":0,"byteOffset":4416,"byteLength":288,"target":34962,"byteStride":12},{"buffer":0,"byteOffset":4704,"byteLength":192,"target":34962,"byteStride":8},{"buffer":0,"byteOffset":4896,"byteLength":72,"target":34963},{"buffer":0,"byteOffset":4968,"byteLength":288,"target":34962,"byteStride":12},{"buffer":0,"byteOffset":5256,"byteLength":288,"target":34962,"byteStride":12},{"buffer":0,"byteOffset":5544,"byteLength":192,"target":34962,"byteStride":8},{"buffer":0,"byteOffset":5736,"byteLength":72,"target":34963},{"buffer":0,"byteOffset":5808,"byteLength":288,"target":34962,"byteStride":12},{"buffer":0,"byteOffset":6096,"byteLength":288,"target":34962,"byteStride":12},{"buffer":0,"byteOffset":6384,"byteLength":192,"target":34962,"byteStride":8},{"buffer":0,"byteOffset":6576,"byteLength":72,"target":34963},{"buffer":0,"byteOffset":6648,"byteLength":288,"target":34962,"byteStride":12},{"buffer":0,"byteOffset":6936,"byteLength":288,"target":34962,"byteStride":12},{"buffer":0,"byteOffset":7224,"byteLength":192,"target":34962,"byteStride":8},{"buffer":0,"byteOffset":7416,"byteLength":72,"target":34963},{"buffer":0,"byteOffset":7488,"byteLength":288,"target":34962,"byteStride":12},{"buffer":0,"byteOffset":7776,"byteLength":288,"target":34962,"byteStride":12},{"buffer":0,"byteOffset":8064,"byteLength":192,"target":34962,"byteStride":8},{"buffer":0,"byteOffset":8256,"byteLength":72,"target":34963},{"buffer":0,"byteOffset":8328,"byteLength":288,"target":34962,"byteStride":12},{"buffer":0,"byteOffset":8616,"byteLength":288,"target":34962,"byteStride":12},{"buffer":0,"byteOffset":8904,"byteLength":192,"target":34962,"byteStride":8},{"buffer":0,"byteOffset":9096,"byteLength":72,"target":34963},{"buffer":0,"byteOffset":9168,"byteLength":288,"target":34962,"byteStride":12},{"buffer":0,"byteOffset":9456,"byteLength":288,"target":34962,"byteStride":12},{"buffer":0,"byteOffset":9744,"byteLength":192,"target":34962,"byteStride":8},{"buffer":0,"byteOffset":9936,"byteLength":72,"target":34963},{"buffer":0,"byteOffset":10008,"byteLength":288,"target":34962,"byteStride":12},{"buffer":0,"byteOffset":10296,"byteLength":288,"target":34962,"byteStride":12},{"buffer":0,"byteOffset":10584,"byteLength":192,"target":34962,"byteStride":8},{"buffer":0,"byteOffset":10776,"byteLength":72,"target":34963},{"buffer":0,"byteOffset":10848,"byteLength":288,"target":34962,"byteStride":12},{"buffer":0,"byteOffset":11136,"byteLength":288,"target":34962,"byteStride":12},{"buffer":0,"byteOffset":11424,"byteLength":192,"target":34962,"byteStride":8},{"buffer":0,"byteOffset":11616,"byteLength":72,"target":34963},{"buffer":0,"byteOffset":11688,"byteLength":288,"target":34962,"byteStride":12},{"buffer":0,"byteOffset":11976,"byteLength":288,"target":34962,"byteStride":12},{"buffer":0,"byteOffset":12264,"byteLength":192,"target":34962,"byteStride":8},{"buffer":0,"byteOffset":12456,"byteLength":72,"target":34963},{"buffer":0,"byteOffset":12528,"byteLength":288,"target":34962,"byteStride":12},{"buffer":0,"byteOffset":12816,"byteLength":288,"target":34962,"byteStride":12},{"buffer":0,"byteOffset":13104,"byteLength":192,"target":34962,"byteStride":8},{"buffer":0,"byteOffset":13296,"byteLength":72,"target":34963},{"buffer":0,"byteOffset":13368,"byteLength":288,"target":34962,"byteStride":12},{"buffer":0,"byteOffset":13656,"byteLength":288,"target":34962,"byteStride":12},{"buffer":0,"byteOffset":13944,"byteLength":192,"target":34962,"byteStride":8},{"buffer":0,"byteOffset":14136,"byteLength":72,"target":34963},{"buffer":0,"byteOffset":14208,"byteLength":288,"target":34962,"byteStride":12},{"buffer":0,"byteOffset":14496,"byteLength":288,"target":34962,"byteStride":12},{"buffer":0,"byteOffset":14784,"byteLength":192,"target":34962,"byteStride":8},{"buffer":0,"byteOffset":14976,"byteLength":72,"target":34963},{"buffer":0,"byteOffset":15048,"byteLength":288,"target":34962,"byteStride":12},{"buffer":0,"byteOffset":15336,"byteLength":288,"target":34962,"byteStride":12},{"buffer":0,"byteOffset":15624,"byteLength":192,"target":34962,"byteStride":8},{"buffer":0,"byteOffset":15816,"byteLength":72,"target":34963},{"buffer":0,"byteOffset":15888,"byteLength":288,"target":34962,"byteStride":12},{"buffer":0,"byteOffset":16176,"byteLength":288,"target":34962,"byteStride":12},{"buffer":0,"byteOffset":16464,"byteLength":192,"target":34962,"byteStride":8},{"buffer":0,"byteOffset":16656,"byteLength":72,"target":34963},{"buffer":0,"byteOffset":16728,"byteLength":288,"target":34962,"byteStride":12},{"buffer":0,"byteOffset":17016,"byteLength":288,"target":34962,"byteStride":12},{"buffer":0,"byteOffset":17304,"byteLength":192,"target":34962,"byteStride":8},{"buffer":0,"byteOffset":17496,"byteLength":72,"target":34963},{"buffer":0,"byteOffset":17568,"byteLength":288,"target":34962,"byteStride":12},{"buffer":0,"byteOffset":17856,"byteLength":288,"target":34962,"byteStride":12},{"buffer":0,"byteOffset":18144,"byteLength":192,"target":34962,"byteStride":8},{"buffer":0,"byteOffset":18336,"byteLength":72,"target":34963},{"buffer":0,"byteOffset":18408,"byteLength":288,"target":34962,"byteStride":12},{"buffer":0,"byteOffset":18696,"byteLength":288,"target":34962,"byteStride":12},{"buffer":0,"byteOffset":18984,"byteLength":192,"target":34962,"byteStride":8},{"buffer":0,"byteOffset":19176,"byteLength":72,"target":34963}],"buffers":[{"byteLength":19248,"uri":"data:application/octet-stream;base64,"}],"accessors":[{"bufferView":0,"componentType":5126,"count":24,"max":[0.1875,2,0.1875],"min":[0,0,-0.8125],"type":"VEC3"},{"bufferView":1,"componentType":5126,"count":24,"max":[1,1,1],"min":[-1,-1,-1],"type":"VEC3"},{"bufferView":2,"componentType":5126,"count":24,"max":[0.77734375,0.453125],"min":[0.6328125,0.3125],"type":"VEC2"},{"bufferView":3,"componentType":5123,"count":36,"max":[23],"min":[0],"type":"SCALAR"},{"bufferView":4,"componentType":5126,"count":24,"max":[0,2,0.1875],"min":[-0.1875,0,-0.8125],"type":"VEC3"},{"bufferView":5,"componentType":5126,"count":24,"max":[1,1,1],"min":[-1,-1,-1],"type":"VEC3"},{"bufferView":6,"componentType":5126,"count":24,"max":[0.77734375,0.453125],"min":[0.6328125,0.3125],"type":"VEC2"},{"bufferView":7,"componentType":5123,"count":36,"max":[23],"min":[0],"type":"SCALAR"},{"bufferView":8,"componentType":5126,"count":24,"max":[0.125,0.125,1],"min":[-1.5,0,0],"type":"VEC3"},{"bufferView":9,"componentType":5126,"count":24,"max":[1,1,1],"min":[-1,-1,-1],"type":"VEC3"},{"bufferView":10,"componentType":5126,"count":24,"max":[1,1],"min":[0,0],"type":"VEC2"},{"bufferView":11,"componentType":5123,"count":24,"max":[23],"min":[8],"type":"SCALAR"},{"bufferView":12,"componentType":5126,"count":24,"max":[0.125,0.125,1],"min":[-1.5,0,0],"type":"VEC3"},{"bufferView":13,"componentType":5126,"count":24,"max":[1,1,1],"min":[-1,-1,-1],"type":"VEC3"},{"bufferView":14,"componentType":5126,"count":24,"max":[1,1],"min":[0,0],"type":"VEC2"},{"bufferView":15,"componentType":5123,"count":24,"max":[23],"min":[8],"type":"SCALAR"},{"bufferView":16,"componentType":5126,"count":24,"max":[0.125,0.125,1],"min":[-1.5,0,0],"type":"VEC3"},{"bufferView":17,"componentType":5126,"count":24,"max":[1,1,1],"min":[-1,-1,-1],"type":"VEC3"},{"bufferView":18,"componentType":5126,"count":24,"max":[1,1],"min":[0,0],"type":"VEC2"},{"bufferView":19,"componentType":5123,"count":24,"max":[23],"min":[8],"type":"SCALAR"},{"bufferView":20,"componentType":5126,"count":24,"max":[0.28125,0,0.28125],"min":[0.03125,-0.125,-0.28125],"type":"VEC3"},{"bufferView":21,"componentType":5126,"count":24,"max":[1,1,1],"min":[-1,-1,-1],"type":"VEC3"},{"bufferView":22,"componentType":5126,"count":24,"max":[0.3125,0.49609375],"min":[0.23828125,0.45703125],"type":"VEC2"},{"bufferView":23,"componentType":5123,"count":36,"max":[23],"min":[0],"type":"SCALAR"},{"bufferView":24,"componentType":5126,"count":24,"max":[-0.03125,0,0.28125],"min":[-0.28125,-0.125,-0.28125],"type":"VEC3"},{"bufferView":25,"componentType":5126,"count":24,"max":[1,1,1],"min":[-1,-1,-1],"type":"VEC3"},{"bufferView":26,"componentType":5126,"count":24,"max":[0.3125,0.49609375],"min":[0.23828125,0.45703125],"type":"VEC2"},{"bufferView":27,"componentType":5123,"count":36,"max":[23],"min":[0],"type":"SCALAR"},{"bufferView":28,"componentType":5126,"count":24,"max":[0.09375,0.125,0.28125],"min":[-0.15625,0,-0.28125],"type":"VEC3"},{"bufferView":29,"componentType":5126,"count":24,"max":[1,1,1],"min":[-1,-1,-1],"type":"VEC3"},{"bufferView":30,"componentType":5126,"count":24,"max":[0.3125,0.49609375],"min":[0.23828125,0.45703125],"type":"VEC2"},{"bufferView":31,"componentType":5123,"count":36,"max":[23],"min":[0],"type":"SCALAR"},{"bufferView":32,"componentType":5126,"count":24,"max":[0.125,0.0625,0.28125],"min":[-0.125,-0.0625,-0.28125],"type":"VEC3"},{"bufferView":33,"componentType":5126,"count":24,"max":[1,1,1],"min":[-1,-1,-1],"type":"VEC3"},{"bufferView":34,"componentType":5126,"count":24,"max":[0.3125,0.49609375],"min":[0.23828125,0.45703125],"type":"VEC2"},{"bufferView":35,"componentType":5123,"count":36,"max":[23],"min":[0],"type":"SCALAR"},{"bufferView":36,"componentType":5126,"count":24,"max":[0.125,0.0625,0.28125],"min":[-0.125,-0.0625,-0.28125],"type":"VEC3"},{"bufferView":37,"componentType":5126,"count":24,"max":[1,1,1],"min":[-1,-1,-1],"type":"VEC3"},{"bufferView":38,"componentType":5126,"count":24,"max":[0.3125,0.49609375],"min":[0.23828125,0.45703125],"type":"VEC2"},{"bufferView":39,"componentType":5123,"count":36,"max":[23],"min":[0],"type":"SCALAR"},{"bufferView":40,"componentType":5126,"count":24,"max":[0.125,0.0625,0.28125],"min":[-0.125,-0.0625,-0.28125],"type":"VEC3"},{"bufferView":41,"componentType":5126,"count":24,"max":[1,1,1],"min":[-1,-1,-1],"type":"VEC3"},{"bufferView":42,"componentType":5126,"count":24,"max":[0.3125,0.49609375],"min":[0.23828125,0.45703125],"type":"VEC2"},{"bufferView":43,"componentType":5123,"count":36,"max":[23],"min":[0],"type":"SCALAR"},{"bufferView":44,"componentType":5126,"count":24,"max":[0.125,0.0625,0.28125],"min":[-0.125,-0.0625,-0.28125],"type":"VEC3"},{"bufferView":45,"componentType":5126,"count":24,"max":[1,1,1],"min":[-1,-1,-1],"type":"VEC3"},{"bufferView":46,"componentType":5126,"count":24,"max":[0.3125,0.5390625],"min":[0.23828125,0.5],"type":"VEC2"},{"bufferView":47,"componentType":5123,"count":36,"max":[23],"min":[0],"type":"SCALAR"},{"bufferView":48,"componentType":5126,"count":24,"max":[0.125,0.0625,0.28125],"min":[-0.125,-0.0625,-0.28125],"type":"VEC3"},{"bufferView":49,"componentType":5126,"count":24,"max":[1,1,1],"min":[-1,-1,-1],"type":"VEC3"},{"bufferView":50,"componentType":5126,"count":24,"max":[0.3125,0.5390625],"min":[0.23828125,0.5],"type":"VEC2"},{"bufferView":51,"componentType":5123,"count":36,"max":[23],"min":[0],"type":"SCALAR"},{"bufferView":52,"componentType":5126,"count":24,"max":[0.125,0.0625,0.28125],"min":[-0.125,-0.0625,-0.28125],"type":"VEC3"},{"bufferView":53,"componentType":5126,"count":24,"max":[1,1,1],"min":[-1,-1,-1],"type":"VEC3"},{"bufferView":54,"componentType":5126,"count":24,"max":[0.3125,0.5390625],"min":[0.23828125,0.5],"type":"VEC2"},{"bufferView":55,"componentType":5123,"count":36,"max":[23],"min":[0],"type":"SCALAR"},{"bufferView":56,"componentType":5126,"count":24,"max":[0.28125,0,0.28125],"min":[-0.28125,-0.125,0.03125],"type":"VEC3"},{"bufferView":57,"componentType":5126,"count":24,"max":[1,1,1],"min":[-1,-1,-1],"type":"VEC3"},{"bufferView":58,"componentType":5126,"count":24,"max":[0.3125,0.5390625],"min":[0.23828125,0.5],"type":"VEC2"},{"bufferView":59,"componentType":5123,"count":36,"max":[23],"min":[0],"type":"SCALAR"},{"bufferView":60,"componentType":5126,"count":24,"max":[0.28125,0,-0.03125],"min":[-0.28125,-0.125,-0.28125],"type":"VEC3"},{"bufferView":61,"componentType":5126,"count":24,"max":[1,1,1],"min":[-1,-1,-1],"type":"VEC3"},{"bufferView":62,"componentType":5126,"count":24,"max":[0.3125,0.5390625],"min":[0.23828125,0.5],"type":"VEC2"},{"bufferView":63,"componentType":5123,"count":36,"max":[23],"min":[0],"type":"SCALAR"},{"bufferView":64,"componentType":5126,"count":24,"max":[0.28125,0.125,0.09375],"min":[-0.28125,0,-0.15625],"type":"VEC3"},{"bufferView":65,"componentType":5126,"count":24,"max":[1,1,1],"min":[-1,-1,-1],"type":"VEC3"},{"bufferView":66,"componentType":5126,"count":24,"max":[0.3125,0.5390625],"min":[0.23828125,0.5],"type":"VEC2"},{"bufferView":67,"componentType":5123,"count":36,"max":[23],"min":[0],"type":"SCALAR"},{"bufferView":68,"componentType":5126,"count":24,"max":[0.125,0.0625,0.28125],"min":[-0.125,-0.0625,-0.28125],"type":"VEC3"},{"bufferView":69,"componentType":5126,"count":24,"max":[1,1,1],"min":[-1,-1,-1],"type":"VEC3"},{"bufferView":70,"componentType":5126,"count":24,"max":[0.3125,0.58203125],"min":[0.23828125,0.54296875],"type":"VEC2"},{"bufferView":71,"componentType":5123,"count":36,"max":[23],"min":[0],"type":"SCALAR"},{"bufferView":72,"componentType":5126,"count":24,"max":[0.125,0.0625,0.28125],"min":[-0.125,-0.0625,-0.28125],"type":"VEC3"},{"bufferView":73,"componentType":5126,"count":24,"max":[1,1,1],"min":[-1,-1,-1],"type":"VEC3"},{"bufferView":74,"componentType":5126,"count":24,"max":[0.3125,0.58203125],"min":[0.23828125,0.54296875],"type":"VEC2"},{"bufferView":75,"componentType":5123,"count":36,"max":[23],"min":[0],"type":"SCALAR"},{"bufferView":76,"componentType":5126,"count":24,"max":[0.125,0.0625,0.28125],"min":[-0.125,-0.0625,-0.28125],"type":"VEC3"},{"bufferView":77,"componentType":5126,"count":24,"max":[1,1,1],"min":[-1,-1,-1],"type":"VEC3"},{"bufferView":78,"componentType":5126,"count":24,"max":[0.3125,0.58203125],"min":[0.23828125,0.54296875],"type":"VEC2"},{"bufferView":79,"componentType":5123,"count":36,"max":[23],"min":[0],"type":"SCALAR"},{"bufferView":80,"componentType":5126,"count":24,"max":[0.125,0.0625,0.28125],"min":[-0.125,-0.0625,-0.28125],"type":"VEC3"},{"bufferView":81,"componentType":5126,"count":24,"max":[1,1,1],"min":[-1,-1,-1],"type":"VEC3"},{"bufferView":82,"componentType":5126,"count":24,"max":[0.3125,0.58203125],"min":[0.23828125,0.54296875],"type":"VEC2"},{"bufferView":83,"componentType":5123,"count":36,"max":[23],"min":[0],"type":"SCALAR"},{"bufferView":84,"componentType":5126,"count":24,"max":[0.125,0.0625,0.28125],"min":[-0.125,-0.0625,-0.28125],"type":"VEC3"},{"bufferView":85,"componentType":5126,"count":24,"max":[1,1,1],"min":[-1,-1,-1],"type":"VEC3"},{"bufferView":86,"componentType":5126,"count":24,"max":[0.3125,0.58203125],"min":[0.23828125,0.54296875],"type":"VEC2"},{"bufferView":87,"componentType":5123,"count":36,"max":[23],"min":[0],"type":"SCALAR"},{"bufferView":88,"componentType":5126,"count":24,"max":[0.125,0.0625,0.28125],"min":[-0.125,-0.0625,-0.28125],"type":"VEC3"},{"bufferView":89,"componentType":5126,"count":24,"max":[1,1,1],"min":[-1,-1,-1],"type":"VEC3"},{"bufferView":90,"componentType":5126,"count":24,"max":[0.3125,0.58203125],"min":[0.23828125,0.54296875],"type":"VEC2"},{"bufferView":91,"componentType":5123,"count":36,"max":[23],"min":[0],"type":"SCALAR"}],"materials":[{"pbrMetallicRoughness":{"metallicFactor":0,"roughnessFactor":1,"baseColorTexture":{"index":0}},"alphaMode":"MASK","alphaCutoff":0.05}],"textures":[{"sampler":0,"source":0}],"samplers":[{"magFilter":9728,"minFilter":9728,"wrapS":33071,"wrapT":33071}],"images":[{"mimeType":"image/png","uri":"data:image/png;base64,"}],"meshes":[{"primitives":[{"mode":4,"attributes":{"POSITION":0,"NORMAL":1,"TEXCOORD_0":2},"indices":3,"material":0}]},{"primitives":[{"mode":4,"attributes":{"POSITION":4,"NORMAL":5,"TEXCOORD_0":6},"indices":7,"material":0}]},{"primitives":[{"mode":4,"attributes":{"POSITION":8,"NORMAL":9,"TEXCOORD_0":10},"indices":11,"material":0}]},{"primitives":[{"mode":4,"attributes":{"POSITION":12,"NORMAL":13,"TEXCOORD_0":14},"indices":15,"material":0}]},{"primitives":[{"mode":4,"attributes":{"POSITION":16,"NORMAL":17,"TEXCOORD_0":18},"indices":19,"material":0}]},{"primitives":[{"mode":4,"attributes":{"POSITION":20,"NORMAL":21,"TEXCOORD_0":22},"indices":23,"material":0}]},{"primitives":[{"mode":4,"attributes":{"POSITION":24,"NORMAL":25,"TEXCOORD_0":26},"indices":27,"material":0}]},{"primitives":[{"mode":4,"attributes":{"POSITION":28,"NORMAL":29,"TEXCOORD_0":30},"indices":31,"material":0}]},{"primitives":[{"mode":4,"attributes":{"POSITION":32,"NORMAL":33,"TEXCOORD_0":34},"indices":35,"material":0}]},{"primitives":[{"mode":4,"attributes":{"POSITION":36,"NORMAL":37,"TEXCOORD_0":38},"indices":39,"material":0}]},{"primitives":[{"mode":4,"attributes":{"POSITION":40,"NORMAL":41,"TEXCOORD_0":42},"indices":43,"material":0}]},{"primitives":[{"mode":4,"attributes":{"POSITION":44,"NORMAL":45,"TEXCOORD_0":46},"indices":47,"material":0}]},{"primitives":[{"mode":4,"attributes":{"POSITION":48,"NORMAL":49,"TEXCOORD_0":50},"indices":51,"material":0}]},{"primitives":[{"mode":4,"attributes":{"POSITION":52,"NORMAL":53,"TEXCOORD_0":54},"indices":55,"material":0}]},{"primitives":[{"mode":4,"attributes":{"POSITION":56,"NORMAL":57,"TEXCOORD_0":58},"indices":59,"material":0}]},{"primitives":[{"mode":4,"attributes":{"POSITION":60,"NORMAL":61,"TEXCOORD_0":62},"indices":63,"material":0}]},{"primitives":[{"mode":4,"attributes":{"POSITION":64,"NORMAL":65,"TEXCOORD_0":66},"indices":67,"material":0}]},{"primitives":[{"mode":4,"attributes":{"POSITION":68,"NORMAL":69,"TEXCOORD_0":70},"indices":71,"material":0}]},{"primitives":[{"mode":4,"attributes":{"POSITION":72,"NORMAL":73,"TEXCOORD_0":74},"indices":75,"material":0}]},{"primitives":[{"mode":4,"attributes":{"POSITION":76,"NORMAL":77,"TEXCOORD_0":78},"indices":79,"material":0}]},{"primitives":[{"mode":4,"attributes":{"POSITION":80,"NORMAL":81,"TEXCOORD_0":82},"indices":83,"material":0}]},{"primitives":[{"mode":4,"attributes":{"POSITION":84,"NORMAL":85,"TEXCOORD_0":86},"indices":87,"material":0}]},{"primitives":[{"mode":4,"attributes":{"POSITION":88,"NORMAL":89,"TEXCOORD_0":90},"indices":91,"material":0}]}]}