{"asset":{"version":"2.0","generator":"Blockbench 4.12.4 glTF exporter"},"scenes":[{"nodes":[24],"name":"blockbench_export"}],"scene":0,"nodes":[{"translation":[0.875,0.875,0],"name":"cube","mesh":0},{"rotation":[0,0,0.19509032201612825,0.9807852804032304],"translation":[1.625,0.4375,0.5],"name":"cube","mesh":1},{"rotation":[0,0,0.19509032201612825,0.9807852804032304],"translation":[1.5625,0.5625,0.5],"name":"cube","mesh":2},{"rotation":[0,0,0.19509032201612825,0.9807852804032304],"translation":[1.577164375,0.552985,0.5],"name":"cube","mesh":3},{"rotation":[0,0,-0.19509032201612825,0.9807852804032304],"translation":[1.297835625,0.552985,0.5],"name":"cube","mesh":4},{"rotation":[0,0,-0.19509032201612825,0.9807852804032304],"translation":[1.25,0.4375,0.5],"name":"cube","mesh":5},{"rotation":[0,0,-0.19509032201612825,0.9807852804032304],"translation":[1.25,0.4375,0.5],"name":"cube","mesh":6},{"rotation":[0,0,0.19509032201612825,0.9807852804032304],"translation":[1.625,0.4375,0.5],"name":"cube","mesh":7},{"rotation":[0,0,-0.19509032201612825,0.9807852804032304],"translation":[1.3125,0.5625,0.5],"name":"cube","mesh":8},{"translation":[1.5625,0.25,0.0625],"name":"cube","mesh":9},{"translation":[1.5625,0.25,0.8125],"name":"cube","mesh":10},{"rotation":[0,0,0.19509032201612825,0.9807852804032304],"translation":[-0.25,0.4375,0.5],"name":"cube","mesh":11},{"rotation":[0,0,0.19509032201612825,0.9807852804032304],"translation":[-0.3125,0.5625,0.5],"name":"cube","mesh":12},{"rotation":[0,0,0.19509032201612825,0.9807852804032304],"translation":[-0.297835625,0.552985,0.5],"name":"cube","mesh":13},{"rotation":[0,0,-0.19509032201612825,0.9807852804032304],"translation":[-0.577164375,0.552985,0.5],"name":"cube","mesh":14},{"rotation":[0,0,-0.19509032201612825,0.9807852804032304],"translation":[-0.625,0.4375,0.5],"name":"cube","mesh":15},{"rotation":[0,0,-0.19509032201612825,0.9807852804032304],"translation":[-0.625,0.4375,0.5],"name":"cube","mesh":16},{"rotation":[0,0,0.19509032201612825,0.9807852804032304],"translation":[-0.25,0.4375,0.5],"name":"cube","mesh":17},{"rotation":[0,0,-0.19509032201612825,0.9807852804032304],"translation":[-0.5625,0.5625,0.5],"name":"cube","mesh":18},{"translation":[-0.3125,0.25,0.0625],"name":"cube","mesh":19},{"translation":[-0.3125,0.25,0.8125],"name":"cube","mesh":20},{"name":"group"},{"translation":[1.0625,-0.25,0.3125],"name":"group","children":[21]},{"translation":[0.5,0.5,0.5],"name":"group","children":[22]},{"children":[0,1,2,3,4,5,6,7,8,9,10,11,12,13,14,15,16,17,18,19,20,23]}],"bufferViews":[{"buffer":0,"byteOffset":0,"byteLength":288,"target":34962,"byteStride":12},{"buffer":0,"byteOffset":288,"byteLength":288,"target":34962,"byteStride":12},{"buffer":0,"byteOffset":576,"byteLength":192,"target":34962,"byteStride":8},{"buffer":0,"byteOffset":768,"byteLength":72,"target":34963},{"buffer":0,"byteOffset":840,"byteLength":288,"target":34962,"byteStride":12},{"buffer":0,"byteOffset":1128,"byteLength":288,"target":34962,"byteStride":12},{"buffer":0,"byteOffset":1416,"byteLength":192,"target":34962,"byteStride":8},{"buffer":0,"byteOffset":1608,"byteLength":60,"target":34963},{"buffer":0,"byteOffset":1668,"byteLength":288,"target":34962,"byteStride":12},{"buffer":0,"byteOffset":1956,"byteLength":288,"target":34962,"byteStride":12},{"buffer":0,"byteOffset":2244,"byteLength":192,"target":34962,"byteStride":8},{"buffer":0,"byteOffset":2436,"byteLength":48,"target":34963},{"buffer":0,"byteOffset":2484,"byteLength":288,"target":34962,"byteStride":12},{"buffer":0,"byteOffset":2772,"byteLength":288,"target":34962,"byteStride":12},{"buffer":0,"byteOffset":3060,"byteLength":192,"target":34962,"byteStride":8},{"buffer":0,"byteOffset":3252,"byteLength":48,"target":34963},{"buffer":0,"byteOffset":3300,"byteLength":288,"target":34962,"byteStride":12},{"buffer":0,"byteOffset":3588,"byteLength":288,"target":34962,"byteStride":12},{"buffer":0,"byteOffset":3876,"byteLength":192,"target":34962,"byteStride":8},{"buffer":0,"byteOffset":4068,"byteLength":48,"target":34963},{"buffer":0,"byteOffset":4116,"byteLength":288,"target":34962,"byteStride":12},{"buffer":0,"byteOffset":4404,"byteLength":288,"target":34962,"byteStride":12},{"buffer":0,"byteOffset":4692,"byteLength":192,"target":34962,"byteStride":8},{"buffer":0,"byteOffset":4884,"byteLength":60,"target":34963},{"buffer":0,"byteOffset":4944,"byteLength":288,"target":34962,"byteStride":12},{"buffer":0,"byteOffset":5232,"byteLength":288,"target":34962,"byteStride":12},{"buffer":0,"byteOffset":5520,"byteLength":192,"target":34962,"byteStride":8},{"buffer":0,"byteOffset":5712,"byteLength":60,"target":34963},{"buffer":0,"byteOffset":5772,"byteLength":288,"target":34962,"byteStride":12},{"buffer":0,"byteOffset":6060,"byteLength":288,"target":34962,"byteStride":12},{"buffer":0,"byteOffset":6348,"byteLength":192,"target":34962,"byteStride":8},{"buffer":0,"byteOffset":6540,"byteLength":60,"target":34963},{"buffer":0,"byteOffset":6600,"byteLength":288,"target":34962,"byteStride":12},{"buffer":0,"byteOffset":6888,"byteLength":288,"target":34962,"byteStride":12},{"buffer":0,"byteOffset":7176,"byteLength":192,"target":34962,"byteStride":8},{"buffer":0,"byteOffset":7368,"byteLength":48,"target":34963},{"buffer":0,"byteOffset":7416,"byteLength":288,"target":34962,"byteStride":12},{"buffer":0,"byteOffset":7704,"byteLength":288,"target":34962,"byteStride":12},{"buffer":0,"byteOffset":7992,"byteLength":192,"target":34962,"byteStride":8},{"buffer":0,"byteOffset":8184,"byteLength":24,"target":34963},{"buffer":0,"byteOffset":8208,"byteLength":288,"target":34962,"byteStride":12},{"buffer":0,"byteOffset":8496,"byteLength":288,"target":34962,"byteStride":12},{"buffer":0,"byteOffset":8784,"byteLength":192,"target":34962,"byteStride":8},{"buffer":0,"byteOffset":8976,"byteLength":24,"target":34963},{"buffer":0,"byteOffset":9000,"byteLength":288,"target":34962,"byteStride":12},{"buffer":0,"byteOffset":9288,"byteLength":288,"target":34962,"byteStride":12},{"buffer":0,"byteOffset":9576,"byteLength":192,"target":34962,"byteStride":8},{"buffer":0,"byteOffset":9768,"byteLength":60,"target":34963},{"buffer":0,"byteOffset":9828,"byteLength":288,"target":34962,"byteStride":12},{"buffer":0,"byteOffset":10116,"byteLength":288,"target":34962,"byteStride":12},{"buffer":0,"byteOffset":10404,"byteLength":192,"target":34962,"byteStride":8},{"buffer":0,"byteOffset":10596,"byteLength":48,"target":34963},{"buffer":0,"byteOffset":10644,"byteLength":288,"target":34962,"byteStride":12},{"buffer":0,"byteOffset":10932,"byteLength":288,"target":34962,"byteStride":12},{"buffer":0,"byteOffset":11220,"byteLength":192,"target":34962,"byteStride":8},{"buffer":0,"byteOffset":11412,"byteLength":48,"target":34963},{"buffer":0,"byteOffset":11460,"byteLength":288,"target":34962,"byteStride":12},{"buffer":0,"byteOffset":11748,"byteLength":288,"target":34962,"byteStride":12},{"buffer":0,"byteOffset":12036,"byteLength":192,"target":34962,"byteStride":8},{"buffer":0,"byteOffset":12228,"byteLength":48,"target":34963},{"buffer":0,"byteOffset":12276,"byteLength":288,"target":34962,"byteStride":12},{"buffer":0,"byteOffset":12564,"byteLength":288,"target":34962,"byteStride":12},{"buffer":0,"byteOffset":12852,"byteLength":192,"target":34962,"byteStride":8},{"buffer":0,"byteOffset":13044,"byteLength":60,"target":34963},{"buffer":0,"byteOffset":13104,"byteLength":288,"target":34962,"byteStride":12},{"buffer":0,"byteOffset":13392,"byteLength":288,"target":34962,"byteStride":12},{"buffer":0,"byteOffset":13680,"byteLength":192,"target":34962,"byteStride":8},{"buffer":0,"byteOffset":13872,"byteLength":60,"target":34963},{"buffer":0,"byteOffset":13932,"byteLength":288,"target":34962,"byteStride":12},{"buffer":0,"byteOffset":14220,"byteLength":288,"target":34962,"byteStride":12},{"buffer":0,"byteOffset":14508,"byteLength":192,"target":34962,"byteStride":8},{"buffer":0,"byteOffset":14700,"byteLength":60,"target":34963},{"buffer":0,"byteOffset":14760,"byteLength":288,"target":34962,"byteStride":12},{"buffer":0,"byteOffset":15048,"byteLength":288,"target":34962,"byteStride":12},{"buffer":0,"byteOffset":15336,"byteLength":192,"target":34962,"byteStride":8},{"buffer":0,"byteOffset":15528,"byteLength":48,"target":34963},{"buffer":0,"byteOffset":15576,"byteLength":288,"target":34962,"byteStride":12},{"buffer":0,"byteOffset":15864,"byteLength":288,"target":34962,"byteStride":12},{"buffer":0,"byteOffset":16152,"byteLength":192,"target":34962,"byteStride":8},{"buffer":0,"byteOffset":16344,"byteLength":24,"target":34963},{"buffer":0,"byteOffset":16368,"byteLength":288,"target":34962,"byteStride":12},{"buffer":0,"byteOffset":16656,"byteLength":288,"target":34962,"byteStride":12},{"buffer":0,"byteOffset":16944,"byteLength":192,"target":34962,"byteStride":8},{"buffer":0,"byteOffset":17136,"byteLength":24,"target":34963}],"buffers":[{"byteLength":17160,"uri":"data:application/octet-stream;base64,"}],"accessors":[{"bufferView":0,"componentType":5126,"count":24,"max":[1.125,0.125,1],"min":[-1.875,0,0],"type":"VEC3"},{"bufferView":1,"componentType":5126,"count":24,"max":[1,1,1],"min":[-1,-1,-1],"type":"VEC3"},{"bufferView":2,"componentType":5126,"count":24,"max":[0.5625,0.2421875],"min":[0.36328125,0.07421875],"type":"VEC2"},{"bufferView":3,"componentType":5123,"count":36,"max":[23],"min":[0],"type":"SCALAR"},{"bufferView":4,"componentType":5126,"count":24,"max":[0.0625,0.53125,0.4375],"min":[-0.0625,-0.53125,0.3125],"type":"VEC3"},{"bufferView":5,"componentType":5126,"count":24,"max":[1,1,1],"min":[-1,-1,-1],"type":"VEC3"},{"bufferView":6,"componentType":5126,"count":24,"max":[1,1],"min":[0,0],"type":"VEC2"},{"bufferView":7,"componentType":5123,"count":30,"max":[23],"min":[0],"type":"SCALAR"},{"bufferView":8,"componentType":5126,"count":24,"max":[0.03125,-0.28125,0.3125],"min":[-0.03125,-0.40625,-0.3125],"type":"VEC3"},{"bufferView":9,"componentType":5126,"count":24,"max":[1,1,1],"min":[-1,-1,-1],"type":"VEC3"},{"bufferView":10,"componentType":5126,"count":24,"max":[1,1],"min":[0,0],"type":"VEC2"},{"bufferView":11,"componentType":5123,"count":24,"max":[15],"min":[0],"type":"SCALAR"},{"bufferView":12,"componentType":5126,"count":24,"max":[0.0625,0.40625,0.3125],"min":[0,0.28125,-0.3125],"type":"VEC3"},{"bufferView":13,"componentType":5126,"count":24,"max":[1,1,1],"min":[-1,-1,-1],"type":"VEC3"},{"bufferView":14,"componentType":5126,"count":24,"max":[1,1],"min":[0,0],"type":"VEC2"},{"bufferView":15,"componentType":5123,"count":24,"max":[15],"min":[0],"type":"SCALAR"},{"bufferView":16,"componentType":5126,"count":24,"max":[0,0.40625,0.3125],"min":[-0.0625,0.28125,-0.3125],"type":"VEC3"},{"bufferView":17,"componentType":5126,"count":24,"max":[1,1,1],"min":[-1,-1,-1],"type":"VEC3"},{"bufferView":18,"componentType":5126,"count":24,"max":[1,1],"min":[0,0],"type":"VEC2"},{"bufferView":19,"componentType":5123,"count":24,"max":[15],"min":[0],"type":"SCALAR"},{"bufferView":20,"componentType":5126,"count":24,"max":[0.0625,0.53125,0.4375],"min":[-0.0625,-0.53125,0.3125],"type":"VEC3"},{"bufferView":21,"componentType":5126,"count":24,"max":[1,1,1],"min":[-1,-1,-1],"type":"VEC3"},{"bufferView":22,"componentType":5126,"count":24,"max":[1,1],"min":[0,0],"type":"VEC2"},{"bufferView":23,"componentType":5123,"count":30,"max":[23],"min":[0],"type":"SCALAR"},{"bufferView":24,"componentType":5126,"count":24,"max":[0.0625,0.53125,-0.3125],"min":[-0.0625,-0.53125,-0.4375],"type":"VEC3"},{"bufferView":25,"componentType":5126,"count":24,"max":[1,1,1],"min":[-1,-1,-1],"type":"VEC3"},{"bufferView":26,"componentType":5126,"count":24,"max":[1,1],"min":[0,0],"type":"VEC2"},{"bufferView":27,"componentType":5123,"count":30,"max":[23],"min":[0],"type":"SCALAR"},{"bufferView":28,"componentType":5126,"count":24,"max":[0.0625,0.53125,-0.3125],"min":[-0.0625,-0.53125,-0.4375],"type":"VEC3"},{"bufferView":29,"componentType":5126,"count":24,"max":[1,1,1],"min":[-1,-1,-1],"type":"VEC3"},{"bufferView":30,"componentType":5126,"count":24,"max":[1,1],"min":[0,0],"type":"VEC2"},{"bufferView":31,"componentType":5123,"count":30,"max":[23],"min":[0],"type":"SCALAR"},{"bufferView":32,"componentType":5126,"count":24,"max":[0.03125,-0.28125,0.3125],"min":[-0.03125,-0.40625,-0.3125],"type":"VEC3"},{"bufferView":33,"componentType":5126,"count":24,"max":[1,1,1],"min":[-1,-1,-1],"type":"VEC3"},{"bufferView":34,"componentType":5126,"count":24,"max":[1,1],"min":[0,0],"type":"VEC2"},{"bufferView":35,"componentType":5123,"count":24,"max":[15],"min":[0],"type":"SCALAR"},{"bufferView":36,"componentType":5126,"count":24,"max":[0.125,0.125,0.0625625029206276],"min":[-0.375,0,0.0625],"type":"VEC3"},{"bufferView":37,"componentType":5126,"count":24,"max":[1,1,1],"min":[-1,-1,-1],"type":"VEC3"},{"bufferView":38,"componentType":5126,"count":24,"max":[1,1],"min":[0,0],"type":"VEC2"},{"bufferView":39,"componentType":5123,"count":12,"max":[23],"min":[16],"type":"SCALAR"},{"bufferView":40,"componentType":5126,"count":24,"max":[0.125,0.125,0.0625625029206276],"min":[-0.375,0,0.0625],"type":"VEC3"},{"bufferView":41,"componentType":5126,"count":24,"max":[1,1,1],"min":[-1,-1,-1],"type":"VEC3"},{"bufferView":42,"componentType":5126,"count":24,"max":[1,1],"min":[0,0],"type":"VEC2"},{"bufferView":43,"componentType":5123,"count":12,"max":[23],"min":[16],"type":"SCALAR"},{"bufferView":44,"componentType":5126,"count":24,"max":[0.0625,0.53125,0.4375],"min":[-0.0625,-0.53125,0.3125],"type":"VEC3"},{"bufferView":45,"componentType":5126,"count":24,"max":[1,1,1],"min":[-1,-1,-1],"type":"VEC3"},{"bufferView":46,"componentType":5126,"count":24,"max":[1,1],"min":[0,0],"type":"VEC2"},{"bufferView":47,"componentType":5123,"count":30,"max":[23],"min":[0],"type":"SCALAR"},{"bufferView":48,"componentType":5126,"count":24,"max":[0.03125,-0.28125,0.3125],"min":[-0.03125,-0.40625,-0.3125],"type":"VEC3"},{"bufferView":49,"componentType":5126,"count":24,"max":[1,1,1],"min":[-1,-1,-1],"type":"VEC3"},{"bufferView":50,"componentType":5126,"count":24,"max":[1,1],"min":[0,0],"type":"VEC2"},{"bufferView":51,"componentType":5123,"count":24,"max":[15],"min":[0],"type":"SCALAR"},{"bufferView":52,"componentType":5126,"count":24,"max":[0.0625,0.40625,0.3125],"min":[0,0.28125,-0.3125],"type":"VEC3"},{"bufferView":53,"componentType":5126,"count":24,"max":[1,1,1],"min":[-1,-1,-1],"type":"VEC3"},{"bufferView":54,"componentType":5126,"count":24,"max":[1,1],"min":[0,0],"type":"VEC2"},{"bufferView":55,"componentType":5123,"count":24,"max":[15],"min":[0],"type":"SCALAR"},{"bufferView":56,"componentType":5126,"count":24,"max":[0,0.40625,0.3125],"min":[-0.0625,0.28125,-0.3125],"type":"VEC3"},{"bufferView":57,"componentType":5126,"count":24,"max":[1,1,1],"min":[-1,-1,-1],"type":"VEC3"},{"bufferView":58,"componentType":5126,"count":24,"max":[1,1],"min":[0,0],"type":"VEC2"},{"bufferView":59,"componentType":5123,"count":24,"max":[15],"min":[0],"type":"SCALAR"},{"bufferView":60,"componentType":5126,"count":24,"max":[0.0625,0.53125,0.4375],"min":[-0.0625,-0.53125,0.3125],"type":"VEC3"},{"bufferView":61,"componentType":5126,"count":24,"max":[1,1,1],"min":[-1,-1,-1],"type":"VEC3"},{"bufferView":62,"componentType":5126,"count":24,"max":[1,1],"min":[0,0],"type":"VEC2"},{"bufferView":63,"componentType":5123,"count":30,"max":[23],"min":[0],"type":"SCALAR"},{"bufferView":64,"componentType":5126,"count":24,"max":[0.0625,0.53125,-0.3125],"min":[-0.0625,-0.53125,-0.4375],"type":"VEC3"},{"bufferView":65,"componentType":5126,"count":24,"max":[1,1,1],"min":[-1,-1,-1],"type":"VEC3"},{"bufferView":66,"componentType":5126,"count":24,"max":[1,1],"min":[0,0],"type":"VEC2"},{"bufferView":67,"componentType":5123,"count":30,"max":[23],"min":[0],"type":"SCALAR"},{"bufferView":68,"componentType":5126,"count":24,"max":[0.0625,0.53125,-0.3125],"min":[-0.0625,-0.53125,-0.4375],"type":"VEC3"},{"bufferView":69,"componentType":5126,"count":24,"max":[1,1,1],"min":[-1,-1,-1],"type":"VEC3"},{"bufferView":70,"componentType":5126,"count":24,"max":[1,1],"min":[0,0],"type":"VEC2"},{"bufferView":71,"componentType":5123,"count":30,"max":[23],"min":[0],"type":"SCALAR"},{"bufferView":72,"componentType":5126,"count":24,"max":[0.03125,-0.28125,0.3125],"min":[-0.03125,-0.40625,-0.3125],"type":"VEC3"},{"bufferView":73,"componentType":5126,"count":24,"max":[1,1,1],"min":[-1,-1,-1],"type":"VEC3"},{"bufferView":74,"componentType":5126,"count":24,"max":[1,1],"min":[0,0],"type":"VEC2"},{"bufferView":75,"componentType":5123,"count":24,"max":[15],"min":[0],"type":"SCALAR"},{"bufferView":76,"componentType":5126,"count":24,"max":[0.125,0.125,0.0625625029206276],"min":[-0.375,0,0.0625],"type":"VEC3"},{"bufferView":77,"componentType":5126,"count":24,"max":[1,1,1],"min":[-1,-1,-1],"type":"VEC3"},{"bufferView":78,"componentType":5126,"count":24,"max":[1,1],"min":[0,0],"type":"VEC2"},{"bufferView":79,"componentType":5123,"count":12,"max":[23],"min":[16],"type":"SCALAR"},{"bufferView":80,"componentType":5126,"count":24,"max":[0.125,0.125,0.0625625029206276],"min":[-0.375,0,0.0625],"type":"VEC3"},{"bufferView":81,"componentType":5126,"count":24,"max":[1,1,1],"min":[-1,-1,-1],"type":"VEC3"},{"bufferView":82,"componentType":5126,"count":24,"max":[1,1],"min":[0,0],"type":"VEC2"},{"bufferView":83,"componentType":5123,"count":12,"max":[23],"min":[16],"type":"SCALAR"}],"materials":[{"pbrMetallicRoughness":{"metallicFactor":0,"roughnessFactor":1,"baseColorTexture":{"index":0}},"alphaMode":"MASK","alphaCutoff":0.05}],"textures":[{"sampler":0,"source":0}],"samplers":[{"magFilter":9728,"minFilter":9728,"wrapS":33071,"wrapT":33071}],"images":[{"mimeType":"image/png","uri":"data:image/png;base64,"}],"meshes":[{"primitives":[{"mode":4,"attributes":{"POSITION":0,"NORMAL":1,"TEXCOORD_0":2},"indices":3,"material":0}]},{"primitives":[{"mode":4,"attributes":{"POSITION":4,"NORMAL":5,"TEXCOORD_0":6},"indices":7,"material":0}]},{"primitives":[{"mode":4,"attributes":{"POSITION":8,"NORMAL":9,"TEXCOORD_0":10},"indices":11,"material":0}]},{"primitives":[{"mode":4,"attributes":{"POSITION":12,"NORMAL":13,"TEXCOORD_0":14},"indices":15,"material":0}]},{"primitives":[{"mode":4,"attributes":{"POSITION":16,"NORMAL":17,"TEXCOORD_0":18},"indices":19,"material":0}]},{"primitives":[{"mode":4,"attributes":{"POSITION":20,"NORMAL":21,"TEXCOORD_0":22},"indices":23,"material":0}]},{"primitives":[{"mode":4,"attributes":{"POSITION":24,"NORMAL":25,"TEXCOORD_0":26},"indices":27,"material":0}]},{"primitives":[{"mode":4,"attributes":{"POSITION":28,"NORMAL":29,"TEXCOORD_0":30},"indices":31,"material":0}]},{"primitives":[{"mode":4,"attributes":{"POSITION":32,"NORMAL":33,"TEXCOORD_0":34},"indices":35,"material":0}]},{"primitives":[{"mode":4,"attributes":{"POSITION":36,"NORMAL":37,"TEXCOORD_0":38},"indices":39,"material":0}]},{"primitives":[{"mode":4,"attributes":{"POSITION":40,"NORMAL":41,"TEXCOORD_0":42},"indices":43,"material":0}]},{"primitives":[{"mode":4,"attributes":{"POSITION":44,"NORMAL":45,"TEXCOORD_0":46},"indices":47,"material":0}]},{"primitives":[{"mode":4,"attributes":{"POSITION":48,"NORMAL":49,"TEXCOORD_0":50},"indices":51,"material":0}]},{"primitives":[{"mode":4,"attributes":{"POSITION":52,"NORMAL":53,"TEXCOORD_0":54},"indices":55,"material":0}]},{"primitives":[{"mode":4,"attributes":{"POSITION":56,"NORMAL":57,"TEXCOORD_0":58},"indices":59,"material":0}]},{"primitives":[{"mode":4,"attributes":{"POSITION":60,"NORMAL":61,"TEXCOORD_0":62},"indices":63,"material":0}]},{"primitives":[{"mode":4,"attributes":{"POSITION":64,"NORMAL":65,"TEXCOORD_0":66},"indices":67,"material":0}]},{"primitives":[{"mode":4,"attributes":{"POSITION":68,"NORMAL":69,"TEXCOORD_0":70},"indices":71,"material":0}]},{"primitives":[{"mode":4,"attributes":{"POSITION":72,"NORMAL":73,"TEXCOORD_0":74},"indices":75,"material":0}]},{"primitives":[{"mode":4,"attributes":{"POSITION":76,"NORMAL":77,"TEXCOORD_0":78},"indices":79,"material":0}]},{"primitives":[{"mode":4,"attributes":{"POSITION":80,"NORMAL":81,"TEXCOORD_0":82},"indices":83,"material":0}]}]}