{"asset":{"version":"2.0","generator":"Blockbench 4.12.4 glTF exporter"},"scenes":[{"nodes":[14],"name":"blockbench_export"}],"scene":0,"nodes":[{"translation":[0.8125,0.0625,0.6875],"name":"cube","mesh":0},{"translation":[-0.8125,0.0625,0.6875],"name":"cube","mesh":1},{"translation":[0.75,0,0],"name":"cube","mesh":2},{"translation":[-0.75,0,0],"name":"cube","mesh":3},{"translation":[0,0.5625,0.9375],"name":"cube","mesh":4},{"translation":[0,0.5625,0.9375],"name":"cube","mesh":5},{"translation":[0.1875,0.0625,0.0625],"name":"cube","mesh":6},{"translation":[0.1875,0.0625,0.1875],"name":"cube","mesh":7},{"translation":[0.1875,0.0625,0.9375],"name":"cube","mesh":8},{"translation":[0,0.34375,0.65625],"name":"cube","mesh":9},{"translation":[0,0.78125,0.34375],"name":"cube","mesh":10},{"translation":[0.5,0.5,0.5],"name":"group"},{"name":"group"},{"translation":[0.5,0.5,0.5],"name":"lumberjack_log_pile","children":[12]},{"children":[0,1,2,3,4,5,6,7,8,9,10,11,13]}],"bufferViews":[{"buffer":0,"byteOffset":0,"byteLength":288,"target":34962,"byteStride":12},{"buffer":0,"byteOffset":288,"byteLength":288,"target":34962,"byteStride":12},{"buffer":0,"byteOffset":576,"byteLength":192,"target":34962,"byteStride":8},{"buffer":0,"byteOffset":768,"byteLength":48,"target":34963},{"buffer":0,"byteOffset":816,"byteLength":288,"target":34962,"byteStride":12},{"buffer":0,"byteOffset":1104,"byteLength":288,"target":34962,"byteStride":12},{"buffer":0,"byteOffset":1392,"byteLength":192,"target":34962,"byteStride":8},{"buffer":0,"byteOffset":1584,"byteLength":48,"target":34963},{"buffer":0,"byteOffset":1632,"byteLength":288,"target":34962,"byteStride":12},{"buffer":0,"byteOffset":1920,"byteLength":288,"target":34962,"byteStride":12},{"buffer":0,"byteOffset":2208,"byteLength":192,"target":34962,"byteStride":8},{"buffer":0,"byteOffset":2400,"byteLength":72,"target":34963},{"buffer":0,"byteOffset":2472,"byteLength":288,"target":34962,"byteStride":12},{"buffer":0,"byteOffset":2760,"byteLength":288,"target":34962,"byteStride":12},{"buffer":0,"byteOffset":3048,"byteLength":192,"target":34962,"byteStride":8},{"buffer":0,"byteOffset":3240,"byteLength":72,"target":34963},{"buffer":0,"byteOffset":3312,"byteLength":288,"target":34962,"byteStride":12},{"buffer":0,"byteOffset":3600,"byteLength":288,"target":34962,"byteStride":12},{"buffer":0,"byteOffset":3888,"byteLength":192,"target":34962,"byteStride":8},{"buffer":0,"byteOffset":4080,"byteLength":72,"target":34963},{"buffer":0,"byteOffset":4152,"byteLength":288,"target":34962,"byteStride":12},{"buffer":0,"byteOffset":4440,"byteLength":288,"target":34962,"byteStride":12},{"buffer":0,"byteOffset":4728,"byteLength":192,"target":34962,"byteStride":8},{"buffer":0,"byteOffset":4920,"byteLength":72,"target":34963},{"buffer":0,"byteOffset":4992,"byteLength":288,"target":34962,"byteStride":12},{"buffer":0,"byteOffset":5280,"byteLength":288,"target":34962,"byteStride":12},{"buffer":0,"byteOffset":5568,"byteLength":192,"target":34962,"byteStride":8},{"buffer":0,"byteOffset":5760,"byteLength":48,"target":34963},{"buffer":0,"byteOffset":5808,"byteLength":288,"target":34962,"byteStride":12},{"buffer":0,"byteOffset":6096,"byteLength":288,"target":34962,"byteStride":12},{"buffer":0,"byteOffset":6384,"byteLength":192,"target":34962,"byteStride":8},{"buffer":0,"byteOffset":6576,"byteLength":24,"target":34963},{"buffer":0,"byteOffset":6600,"byteLength":288,"target":34962,"byteStride":12},{"buffer":0,"byteOffset":6888,"byteLength":288,"target":34962,"byteStride":12},{"buffer":0,"byteOffset":7176,"byteLength":192,"target":34962,"byteStride":8},{"buffer":0,"byteOffset":7368,"byteLength":48,"target":34963},{"buffer":0,"byteOffset":7416,"byteLength":288,"target":34962,"byteStride":12},{"buffer":0,"byteOffset":7704,"byteLength":288,"target":34962,"byteStride":12},{"buffer":0,"byteOffset":7992,"byteLength":192,"target":34962,"byteStride":8},{"buffer":0,"byteOffset":8184,"byteLength":72,"target":34963},{"buffer":0,"byteOffset":8256,"byteLength":288,"target":34962,"byteStride":12},{"buffer":0,"byteOffset":8544,"byteLength":288,"target":34962,"byteStride":12},{"buffer":0,"byteOffset":8832,"byteLength":192,"target":34962,"byteStride":8},{"buffer":0,"byteOffset":9024,"byteLength":72,"target":34963}],"buffers":[{"byteLength":9096,"uri":"data:application/octet-stream;base64,"}],"accessors":[{"bufferView":0,"componentType":5126,"count":24,"max":[0.0625,0.0625,0.1875],"min":[-0.0625,-0.0625,-0.5625],"type":"VEC3"},{"bufferView":1,"componentType":5126,"count":24,"max":[1,1,1],"min":[-1,-1,-1],"type":"VEC3"},{"bufferView":2,"componentType":5126,"count":24,"max":[1,1],"min":[0,0],"type":"VEC2"},{"bufferView":3,"componentType":5123,"count":24,"max":[15],"min":[0],"type":"SCALAR"},{"bufferView":4,"componentType":5126,"count":24,"max":[0.0625,0.0625,0.1875],"min":[-0.0625,-0.0625,-0.5625],"type":"VEC3"},{"bufferView":5,"componentType":5126,"count":24,"max":[1,1,1],"min":[-1,-1,-1],"type":"VEC3"},{"bufferView":6,"componentType":5126,"count":24,"max":[1,1],"min":[0,0],"type":"VEC2"},{"bufferView":7,"componentType":5123,"count":24,"max":[15],"min":[0],"type":"SCALAR"},{"bufferView":8,"componentType":5126,"count":24,"max":[0.125,1,0.125],"min":[0,0,0],"type":"VEC3"},{"bufferView":9,"componentType":5126,"count":24,"max":[1,1,1],"min":[-1,-1,-1],"type":"VEC3"},{"bufferView":10,"componentType":5126,"count":24,"max":[0.0234375,0.11328125],"min":[0,0.05078125],"type":"VEC2"},{"bufferView":11,"componentType":5123,"count":36,"max":[23],"min":[0],"type":"SCALAR"},{"bufferView":12,"componentType":5126,"count":24,"max":[0,1,0.125],"min":[-0.125,0,0],"type":"VEC3"},{"bufferView":13,"componentType":5126,"count":24,"max":[1,1,1],"min":[-1,-1,-1],"type":"VEC3"},{"bufferView":14,"componentType":5126,"count":24,"max":[0.0234375,0.11328125],"min":[0,0.05078125],"type":"VEC2"},{"bufferView":15,"componentType":5123,"count":36,"max":[23],"min":[0],"type":"SCALAR"},{"bufferView":16,"componentType":5126,"count":24,"max":[-0.75,0.4375,0.0625],"min":[-0.875,-0.5625,-0.0625],"type":"VEC3"},{"bufferView":17,"componentType":5126,"count":24,"max":[1,1,1],"min":[-1,-1,-1],"type":"VEC3"},{"bufferView":18,"componentType":5126,"count":24,"max":[0.0234375,0.11328125],"min":[0,0.05078125],"type":"VEC2"},{"bufferView":19,"componentType":5123,"count":36,"max":[23],"min":[0],"type":"SCALAR"},{"bufferView":20,"componentType":5126,"count":24,"max":[0.875,0.4375,0.0625],"min":[0.75,-0.5625,-0.0625],"type":"VEC3"},{"bufferView":21,"componentType":5126,"count":24,"max":[1,1,1],"min":[-1,-1,-1],"type":"VEC3"},{"bufferView":22,"componentType":5126,"count":24,"max":[0.0234375,0.11328125],"min":[0,0.05078125],"type":"VEC2"},{"bufferView":23,"componentType":5123,"count":36,"max":[23],"min":[0],"type":"SCALAR"},{"bufferView":24,"componentType":5126,"count":24,"max":[0.5625,0.0625,0.0625],"min":[-0.9375,-0.0625,-0.0625],"type":"VEC3"},{"bufferView":25,"componentType":5126,"count":24,"max":[1,1,1],"min":[-1,-1,-1],"type":"VEC3"},{"bufferView":26,"componentType":5126,"count":24,"max":[1,1],"min":[0,0],"type":"VEC2"},{"bufferView":27,"componentType":5123,"count":24,"max":[23],"min":[8],"type":"SCALAR"},{"bufferView":28,"componentType":5126,"count":24,"max":[0.5625,0.0625,0.6875],"min":[-0.9375,0.05786124989390373,-0.0625],"type":"VEC3"},{"bufferView":29,"componentType":5126,"count":24,"max":[1,1,1],"min":[-1,-1,-1],"type":"VEC3"},{"bufferView":30,"componentType":5126,"count":24,"max":[1,1],"min":[0,0],"type":"VEC2"},{"bufferView":31,"componentType":5123,"count":12,"max":[15],"min":[8],"type":"SCALAR"},{"bufferView":32,"componentType":5126,"count":24,"max":[0.5625,0.0625,0.0625],"min":[-0.9375,-0.0625,-0.0625],"type":"VEC3"},{"bufferView":33,"componentType":5126,"count":24,"max":[1,1,1],"min":[-1,-1,-1],"type":"VEC3"},{"bufferView":34,"componentType":5126,"count":24,"max":[1,1],"min":[0,0],"type":"VEC2"},{"bufferView":35,"componentType":5123,"count":24,"max":[23],"min":[8],"type":"SCALAR"},{"bufferView":36,"componentType":5126,"count":24,"max":[0.96875,0.21875,0.21875],"min":[-0.96875,-0.21875,-0.21875],"type":"VEC3"},{"bufferView":37,"componentType":5126,"count":24,"max":[1,1,1],"min":[-1,-1,-1],"type":"VEC3"},{"bufferView":38,"componentType":5126,"count":24,"max":[0.46875,0.09375],"min":[0.22265625,0],"type":"VEC2"},{"bufferView":39,"componentType":5123,"count":36,"max":[23],"min":[0],"type":"SCALAR"},{"bufferView":40,"componentType":5126,"count":24,"max":[0.90625,0.21875,0.21875],"min":[-0.90625,-0.21875,-0.21875],"type":"VEC3"},{"bufferView":41,"componentType":5126,"count":24,"max":[1,1,1],"min":[-1,-1,-1],"type":"VEC3"},{"bufferView":42,"componentType":5126,"count":24,"max":[0.4609375,0.125],"min":[0.22265625,0],"type":"VEC2"},{"bufferView":43,"componentType":5123,"count":36,"max":[23],"min":[0],"type":"SCALAR"}],"materials":[{"pbrMetallicRoughness":{"metallicFactor":0,"roughnessFactor":1,"baseColorTexture":{"index":0}},"alphaMode":"MASK","alphaCutoff":0.05}],"textures":[{"sampler":0,"source":0}],"samplers":[{"magFilter":9728,"minFilter":9728,"wrapS":33071,"wrapT":33071}],"images":[{"mimeType":"image/png","uri":"data:image/png;base64,"}],"meshes":[{"primitives":[{"mode":4,"attributes":{"POSITION":0,"NORMAL":1,"TEXCOORD_0":2},"indices":3,"material":0}]},{"primitives":[{"mode":4,"attributes":{"POSITION":4,"NORMAL":5,"TEXCOORD_0":6},"indices":7,"material":0}]},{"primitives":[{"mode":4,"attributes":{"POSITION":8,"NORMAL":9,"TEXCOORD_0":10},"indices":11,"material":0}]},{"primitives":[{"mode":4,"attributes":{"POSITION":12,"NORMAL":13,"TEXCOORD_0":14},"indices":15,"material":0}]},{"primitives":[{"mode":4,"attributes":{"POSITION":16,"NORMAL":17,"TEXCOORD_0":18},"indices":19,"material":0}]},{"primitives":[{"mode":4,"attributes":{"POSITION":20,"NORMAL":21,"TEXCOORD_0":22},"indices":23,"material":0}]},{"primitives":[{"mode":4,"attributes":{"POSITION":24,"NORMAL":25,"TEXCOORD_0":26},"indices":27,"material":0}]},{"primitives":[{"mode":4,"attributes":{"POSITION":28,"NORMAL":29,"TEXCOORD_0":30},"indices":31,"material":0}]},{"primitives":[{"mode":4,"attributes":{"POSITION":32,"NORMAL":33,"TEXCOORD_0":34},"indices":35,"material":0}]},{"primitives":[{"mode":4,"attributes":{"POSITION":36,"NORMAL":37,"TEXCOORD_0":38},"indices":39,"material":0}]},{"primitives":[{"mode":4,"attributes":{"POSITION":40,"NORMAL":41,"TEXCOORD_0":42},"indices":43,"material":0}]}]}