{"asset":{"version":"2.0","generator":"Blockbench 4.12.4 glTF exporter"},"scenes":[{"nodes":[32],"name":"blockbench_export"}],"scene":0,"nodes":[{"translation":[0.508145,0.144380625,0.045141875],"name":"cube","mesh":0},{"translation":[0.508145,0.144380625,0.045141875],"name":"cube","mesh":1},{"translation":[0.508145,0.144380625,0.045141875],"name":"cube","mesh":2},{"translation":[0.508145,0.144380625,0.045141875],"name":"cube","mesh":3},{"translation":[0.508145,0.144380625,0.045141875],"name":"cube","mesh":4},{"translation":[0.508145,0.144380625,0.045141875],"name":"cube","mesh":5},{"translation":[0.508145,0.144380625,0.045141875],"name":"cube","mesh":6},{"translation":[0.508145,0.144380625,0.045141875],"name":"cube","mesh":7},{"rotation":[0,-0.3826834323650898,0,0.9238795325112867],"translation":[0.508145,0.144380625,0.045141875],"name":"cube","mesh":8},{"rotation":[0,0.3826834323650898,0,0.9238795325112867],"translation":[0.508145,0.144380625,0.045141875],"name":"cube","mesh":9},{"translation":[0.508145,0.144380625,0.045141875],"name":"cube","mesh":10},{"translation":[0.508145,0.144380625,0.045141875],"name":"cube","mesh":11},{"translation":[0.508145,0.144380625,0.045141875],"name":"cube","mesh":12},{"translation":[0.508145,0.144380625,0.045141875],"name":"cube","mesh":13},{"translation":[0.508145,0.144380625,0.045141875],"name":"cube","mesh":14},{"translation":[0.508145,0.144380625,0.045141875],"name":"cube","mesh":15},{"translation":[0.508145,0.144380625,0.045141875],"name":"cube inverted","mesh":16},{"translation":[0.508145,0.144380625,0.045141875],"name":"cube inverted","mesh":17},{"translation":[0.508145,0.144380625,0.045141875],"name":"cube","mesh":18},{"translation":[0.508145,0.144380625,0.045141875],"name":"cube","mesh":19},{"translation":[0.508145,0.144380625,0.045141875],"name":"cube","mesh":20},{"name":"group"},{"name":"group"},{"name":"group","children":[21,22]},{"name":"group"},{"name":"lumberjack_two_man_crosscut_saw_ground","children":[24]},{"name":"group"},{"name":"lumberjack_saw","children":[26]},{"translation":[-0.09375,0.3125,-0.09375],"name":"group"},{"name":"hunter_axe","children":[28]},{"name":"lumberjack_axe","children":[29]},{"translation":[0.5,0.5,0.5],"name":"group","children":[23,25,27,30]},{"children":[0,1,2,3,4,5,6,7,8,9,10,11,12,13,14,15,16,17,18,19,20,31]}],"bufferViews":[{"buffer":0,"byteOffset":0,"byteLength":288,"target":34962,"byteStride":12},{"buffer":0,"byteOffset":288,"byteLength":288,"target":34962,"byteStride":12},{"buffer":0,"byteOffset":576,"byteLength":192,"target":34962,"byteStride":8},{"buffer":0,"byteOffset":768,"byteLength":72,"target":34963},{"buffer":0,"byteOffset":840,"byteLength":288,"target":34962,"byteStride":12},{"buffer":0,"byteOffset":1128,"byteLength":288,"target":34962,"byteStride":12},{"buffer":0,"byteOffset":1416,"byteLength":192,"target":34962,"byteStride":8},{"buffer":0,"byteOffset":1608,"byteLength":72,"target":34963},{"buffer":0,"byteOffset":1680,"byteLength":288,"target":34962,"byteStride":12},{"buffer":0,"byteOffset":1968,"byteLength":288,"target":34962,"byteStride":12},{"buffer":0,"byteOffset":2256,"byteLength":192,"target":34962,"byteStride":8},{"buffer":0,"byteOffset":2448,"byteLength":72,"target":34963},{"buffer":0,"byteOffset":2520,"byteLength":288,"target":34962,"byteStride":12},{"buffer":0,"byteOffset":2808,"byteLength":288,"target":34962,"byteStride":12},{"buffer":0,"byteOffset":3096,"byteLength":192,"target":34962,"byteStride":8},{"buffer":0,"byteOffset":3288,"byteLength":72,"target":34963},{"buffer":0,"byteOffset":3360,"byteLength":288,"target":34962,"byteStride":12},{"buffer":0,"byteOffset":3648,"byteLength":288,"target":34962,"byteStride":12},{"buffer":0,"byteOffset":3936,"byteLength":192,"target":34962,"byteStride":8},{"buffer":0,"byteOffset":4128,"byteLength":72,"target":34963},{"buffer":0,"byteOffset":4200,"byteLength":288,"target":34962,"byteStride":12},{"buffer":0,"byteOffset":4488,"byteLength":288,"target":34962,"byteStride":12},{"buffer":0,"byteOffset":4776,"byteLength":192,"target":34962,"byteStride":8},{"buffer":0,"byteOffset":4968,"byteLength":24,"target":34963},{"buffer":0,"byteOffset":4992,"byteLength":288,"target":34962,"byteStride":12},{"buffer":0,"byteOffset":5280,"byteLength":288,"target":34962,"byteStride":12},{"buffer":0,"byteOffset":5568,"byteLength":192,"target":34962,"byteStride":8},{"buffer":0,"byteOffset":5760,"byteLength":72,"target":34963},{"buffer":0,"byteOffset":5832,"byteLength":288,"target":34962,"byteStride":12},{"buffer":0,"byteOffset":6120,"byteLength":288,"target":34962,"byteStride":12},{"buffer":0,"byteOffset":6408,"byteLength":192,"target":34962,"byteStride":8},{"buffer":0,"byteOffset":6600,"byteLength":72,"target":34963},{"buffer":0,"byteOffset":6672,"byteLength":288,"target":34962,"byteStride":12},{"buffer":0,"byteOffset":6960,"byteLength":288,"target":34962,"byteStride":12},{"buffer":0,"byteOffset":7248,"byteLength":192,"target":34962,"byteStride":8},{"buffer":0,"byteOffset":7440,"byteLength":72,"target":34963},{"buffer":0,"byteOffset":7512,"byteLength":288,"target":34962,"byteStride":12},{"buffer":0,"byteOffset":7800,"byteLength":288,"target":34962,"byteStride":12},{"buffer":0,"byteOffset":8088,"byteLength":192,"target":34962,"byteStride":8},{"buffer":0,"byteOffset":8280,"byteLength":72,"target":34963},{"buffer":0,"byteOffset":8352,"byteLength":288,"target":34962,"byteStride":12},{"buffer":0,"byteOffset":8640,"byteLength":288,"target":34962,"byteStride":12},{"buffer":0,"byteOffset":8928,"byteLength":192,"target":34962,"byteStride":8},{"buffer":0,"byteOffset":9120,"byteLength":72,"target":34963},{"buffer":0,"byteOffset":9192,"byteLength":288,"target":34962,"byteStride":12},{"buffer":0,"byteOffset":9480,"byteLength":288,"target":34962,"byteStride":12},{"buffer":0,"byteOffset":9768,"byteLength":192,"target":34962,"byteStride":8},{"buffer":0,"byteOffset":9960,"byteLength":24,"target":34963},{"buffer":0,"byteOffset":9984,"byteLength":288,"target":34962,"byteStride":12},{"buffer":0,"byteOffset":10272,"byteLength":288,"target":34962,"byteStride":12},{"buffer":0,"byteOffset":10560,"byteLength":192,"target":34962,"byteStride":8},{"buffer":0,"byteOffset":10752,"byteLength":72,"target":34963},{"buffer":0,"byteOffset":10824,"byteLength":288,"target":34962,"byteStride":12},{"buffer":0,"byteOffset":11112,"byteLength":288,"target":34962,"byteStride":12},{"buffer":0,"byteOffset":11400,"byteLength":192,"target":34962,"byteStride":8},{"buffer":0,"byteOffset":11592,"byteLength":72,"target":34963},{"buffer":0,"byteOffset":11664,"byteLength":288,"target":34962,"byteStride":12},{"buffer":0,"byteOffset":11952,"byteLength":288,"target":34962,"byteStride":12},{"buffer":0,"byteOffset":12240,"byteLength":192,"target":34962,"byteStride":8},{"buffer":0,"byteOffset":12432,"byteLength":48,"target":34963},{"buffer":0,"byteOffset":12480,"byteLength":288,"target":34962,"byteStride":12},{"buffer":0,"byteOffset":12768,"byteLength":288,"target":34962,"byteStride":12},{"buffer":0,"byteOffset":13056,"byteLength":192,"target":34962,"byteStride":8},{"buffer":0,"byteOffset":13248,"byteLength":48,"target":34963},{"buffer":0,"byteOffset":13296,"byteLength":288,"target":34962,"byteStride":12},{"buffer":0,"byteOffset":13584,"byteLength":288,"target":34962,"byteStride":12},{"buffer":0,"byteOffset":13872,"byteLength":192,"target":34962,"byteStride":8},{"buffer":0,"byteOffset":14064,"byteLength":48,"target":34963},{"buffer":0,"byteOffset":14112,"byteLength":288,"target":34962,"byteStride":12},{"buffer":0,"byteOffset":14400,"byteLength":288,"target":34962,"byteStride":12},{"buffer":0,"byteOffset":14688,"byteLength":192,"target":34962,"byteStride":8},{"buffer":0,"byteOffset":14880,"byteLength":48,"target":34963},{"buffer":0,"byteOffset":14928,"byteLength":288,"target":34962,"byteStride":12},{"buffer":0,"byteOffset":15216,"byteLength":288,"target":34962,"byteStride":12},{"buffer":0,"byteOffset":15504,"byteLength":192,"target":34962,"byteStride":8},{"buffer":0,"byteOffset":15696,"byteLength":24,"target":34963},{"buffer":0,"byteOffset":15720,"byteLength":288,"target":34962,"byteStride":12},{"buffer":0,"byteOffset":16008,"byteLength":288,"target":34962,"byteStride":12},{"buffer":0,"byteOffset":16296,"byteLength":192,"target":34962,"byteStride":8},{"buffer":0,"byteOffset":16488,"byteLength":72,"target":34963},{"buffer":0,"byteOffset":16560,"byteLength":288,"target":34962,"byteStride":12},{"buffer":0,"byteOffset":16848,"byteLength":288,"target":34962,"byteStride":12},{"buffer":0,"byteOffset":17136,"byteLength":192,"target":34962,"byteStride":8},{"buffer":0,"byteOffset":17328,"byteLength":72,"target":34963}],"buffers":[{"byteLength":17400,"uri":"data:application/octet-stream;base64,"}],"accessors":[{"bufferView":0,"componentType":5126,"count":24,"max":[1.3981050252914429,-0.01735750027000904,0.6290575265884399],"min":[-1.4143949747085571,-0.1423574984073639,0.25405749678611755],"type":"VEC3"},{"bufferView":1,"componentType":5126,"count":24,"max":[1,1,1],"min":[-1,-1,-1],"type":"VEC3"},{"bufferView":2,"componentType":5126,"count":24,"max":[0.5390625,0.0234375],"min":[0.36328125,0],"type":"VEC2"},{"bufferView":3,"componentType":5123,"count":36,"max":[23],"min":[0],"type":"SCALAR"},{"bufferView":4,"componentType":5126,"count":24,"max":[0.9606050252914429,0.1701425015926361,0.41030749678611755],"min":[0.8981050252914429,-0.01735750027000904,0.34780749678611755],"type":"VEC3"},{"bufferView":5,"componentType":5126,"count":24,"max":[1,1,1],"min":[-1,-1,-1],"type":"VEC3"},{"bufferView":6,"componentType":5126,"count":24,"max":[0.0078125,0.0625],"min":[0.00390625,0.046875],"type":"VEC2"},{"bufferView":7,"componentType":5123,"count":36,"max":[23],"min":[0],"type":"SCALAR"},{"bufferView":8,"componentType":5126,"count":24,"max":[0.14810499548912048,0.1701425015926361,0.41030749678611755],"min":[0.08560500293970108,-0.01735750027000904,0.34780749678611755],"type":"VEC3"},{"bufferView":9,"componentType":5126,"count":24,"max":[1,1,1],"min":[-1,-1,-1],"type":"VEC3"},{"bufferView":10,"componentType":5126,"count":24,"max":[0.0078125,0.0625],"min":[0.00390625,0.046875],"type":"VEC2"},{"bufferView":11,"componentType":5123,"count":36,"max":[23],"min":[0],"type":"SCALAR"},{"bufferView":12,"componentType":5126,"count":24,"max":[-0.4456450045108795,0.1701425015926361,0.41030749678611755],"min":[-0.5081449747085571,-0.01735750027000904,0.34780749678611755],"type":"VEC3"},{"bufferView":13,"componentType":5126,"count":24,"max":[1,1,1],"min":[-1,-1,-1],"type":"VEC3"},{"bufferView":14,"componentType":5126,"count":24,"max":[0.0078125,0.0625],"min":[0.00390625,0.046875],"type":"VEC2"},{"bufferView":15,"componentType":5123,"count":36,"max":[23],"min":[0],"type":"SCALAR"},{"bufferView":16,"componentType":5126,"count":24,"max":[-0.9768949747085571,0.1701425015926361,0.40249499678611755],"min":[-1.0393949747085571,-0.01735750027000904,0.33999499678611755],"type":"VEC3"},{"bufferView":17,"componentType":5126,"count":24,"max":[1,1,1],"min":[-1,-1,-1],"type":"VEC3"},{"bufferView":18,"componentType":5126,"count":24,"max":[0.0078125,0.0625],"min":[0.00390625,0.046875],"type":"VEC2"},{"bufferView":19,"componentType":5123,"count":36,"max":[23],"min":[0],"type":"SCALAR"},{"bufferView":20,"componentType":5126,"count":24,"max":[1.0567649602890015,0.06804437190294266,0.658356249332428],"min":[-0.005735000129789114,0.06798187643289566,0.408356249332428],"type":"VEC3"},{"bufferView":21,"componentType":5126,"count":24,"max":[1,1,1],"min":[-1,-1,-1],"type":"VEC3"},{"bufferView":22,"componentType":5126,"count":24,"max":[1,1],"min":[0,0],"type":"VEC2"},{"bufferView":23,"componentType":5123,"count":12,"max":[15],"min":[8],"type":"SCALAR"},{"bufferView":24,"componentType":5126,"count":24,"max":[1.1817649602890015,0.13048186898231506,0.720856249332428],"min":[1.0567649602890015,0.0054818750359117985,0.15835624933242798],"type":"VEC3"},{"bufferView":25,"componentType":5126,"count":24,"max":[1,1,1],"min":[-1,-1,-1],"type":"VEC3"},{"bufferView":26,"componentType":5126,"count":24,"max":[0.09375,0.06640625],"min":[0.0859375,0.03125],"type":"VEC2"},{"bufferView":27,"componentType":5123,"count":36,"max":[23],"min":[0],"type":"SCALAR"},{"bufferView":28,"componentType":5126,"count":24,"max":[-0.005609374959021807,0.13041937351226807,0.7447731494903564],"min":[-0.13060937821865082,0.005419374909251928,0.1822737455368042],"type":"VEC3"},{"bufferView":29,"componentType":5126,"count":24,"max":[1,1,1],"min":[-1,-1,-1],"type":"VEC3"},{"bufferView":30,"componentType":5126,"count":24,"max":[0.09375,0.06640625],"min":[0.0859375,0.03125],"type":"VEC2"},{"bufferView":31,"componentType":5123,"count":36,"max":[23],"min":[0],"type":"SCALAR"},{"bufferView":32,"componentType":5126,"count":24,"max":[-0.5781624913215637,0.11986374855041504,-0.10149499773979187],"min":[-0.8906624913215637,-0.005135625135153532,-0.16399499773979187],"type":"VEC3"},{"bufferView":33,"componentType":5126,"count":24,"max":[1,1,1],"min":[-1,-1,-1],"type":"VEC3"},{"bufferView":34,"componentType":5126,"count":24,"max":[0.1171875,0.05078125],"min":[0,0],"type":"VEC2"},{"bufferView":35,"componentType":5123,"count":36,"max":[23],"min":[0],"type":"SCALAR"},{"bufferView":36,"componentType":5126,"count":24,"max":[-0.45869311690330505,0.11986374855041504,0.044526249170303345],"min":[-0.7711931467056274,-0.005135625135153532,-0.017973750829696655],"type":"VEC3"},{"bufferView":37,"componentType":5126,"count":24,"max":[1,1,1],"min":[-1,-1,-1],"type":"VEC3"},{"bufferView":38,"componentType":5126,"count":24,"max":[0.1171875,0.05078125],"min":[0,0],"type":"VEC2"},{"bufferView":39,"componentType":5123,"count":36,"max":[23],"min":[0],"type":"SCALAR"},{"bufferView":40,"componentType":5126,"count":24,"max":[-0.2928612530231476,0.11986374855041504,0.35583001375198364],"min":[-0.3553612530231476,-0.005135625135153532,-0.5247849822044373],"type":"VEC3"},{"bufferView":41,"componentType":5126,"count":24,"max":[1,1,1],"min":[-1,-1,-1],"type":"VEC3"},{"bufferView":42,"componentType":5126,"count":24,"max":[0.10546875,0.0859375],"min":[0,0],"type":"VEC2"},{"bufferView":43,"componentType":5123,"count":36,"max":[23],"min":[0],"type":"SCALAR"},{"bufferView":44,"componentType":5126,"count":24,"max":[-0.5138318538665771,0.05748875066637993,0.5103949904441833],"min":[-0.7013318538665771,0.05742625147104263,-0.6771056056022644],"type":"VEC3"},{"bufferView":45,"componentType":5126,"count":24,"max":[1,1,1],"min":[-1,-1,-1],"type":"VEC3"},{"bufferView":46,"componentType":5126,"count":24,"max":[1,1],"min":[0,0],"type":"VEC2"},{"bufferView":47,"componentType":5123,"count":12,"max":[15],"min":[8],"type":"SCALAR"},{"bufferView":48,"componentType":5126,"count":24,"max":[-0.5138318538665771,0.11986374855041504,-0.6832556128501892],"min":[-0.6388318538665771,-0.005135625135153532,-0.7457556128501892],"type":"VEC3"},{"bufferView":49,"componentType":5126,"count":24,"max":[1,1,1],"min":[-1,-1,-1],"type":"VEC3"},{"bufferView":50,"componentType":5126,"count":24,"max":[0.1171875,0.0390625],"min":[0,0],"type":"VEC2"},{"bufferView":51,"componentType":5123,"count":36,"max":[23],"min":[0],"type":"SCALAR"},{"bufferView":52,"componentType":5126,"count":24,"max":[-0.5138318538665771,0.11986374855041504,0.5768012404441833],"min":[-0.6388318538665771,-0.005135625135153532,0.5143012404441833],"type":"VEC3"},{"bufferView":53,"componentType":5126,"count":24,"max":[1,1,1],"min":[-1,-1,-1],"type":"VEC3"},{"bufferView":54,"componentType":5126,"count":24,"max":[0.1171875,0.0390625],"min":[0.109375,0.03125],"type":"VEC2"},{"bufferView":55,"componentType":5123,"count":36,"max":[23],"min":[0],"type":"SCALAR"},{"bufferView":56,"componentType":5126,"count":24,"max":[-0.5537731051445007,0.12611374258995056,0.5830512642860413],"min":[-0.6162731051445007,-0.011386250145733356,0.5080506205558777],"type":"VEC3"},{"bufferView":57,"componentType":5126,"count":24,"max":[1,1,1],"min":[-1,-1,-1],"type":"VEC3"},{"bufferView":58,"componentType":5126,"count":24,"max":[1,1],"min":[0,0],"type":"VEC2"},{"bufferView":59,"componentType":5123,"count":24,"max":[23],"min":[8],"type":"SCALAR"},{"bufferView":60,"componentType":5126,"count":24,"max":[-0.5537731051445007,0.12611374258995056,-0.6740293502807617],"min":[-0.6162731051445007,-0.011386250145733356,-0.749028742313385],"type":"VEC3"},{"bufferView":61,"componentType":5126,"count":24,"max":[1,1,1],"min":[-1,-1,-1],"type":"VEC3"},{"bufferView":62,"componentType":5126,"count":24,"max":[1,1],"min":[0,0],"type":"VEC2"},{"bufferView":63,"componentType":5123,"count":24,"max":[23],"min":[8],"type":"SCALAR"},{"bufferView":64,"componentType":5126,"count":24,"max":[-0.5537731051445007,0.12611374258995056,-0.6740293502807617],"min":[-0.6162731051445007,-0.011386250145733356,-0.749028742313385],"type":"VEC3"},{"bufferView":65,"componentType":5126,"count":24,"max":[1,1,1],"min":[-1,-1,-1],"type":"VEC3"},{"bufferView":66,"componentType":5126,"count":24,"max":[1,1],"min":[0,0],"type":"VEC2"},{"bufferView":67,"componentType":5123,"count":24,"max":[23],"min":[8],"type":"SCALAR"},{"bufferView":68,"componentType":5126,"count":24,"max":[-0.5537731051445007,0.12611374258995056,0.5830512642860413],"min":[-0.6162731051445007,-0.011386250145733356,0.5080506205558777],"type":"VEC3"},{"bufferView":69,"componentType":5126,"count":24,"max":[1,1,1],"min":[-1,-1,-1],"type":"VEC3"},{"bufferView":70,"componentType":5126,"count":24,"max":[1,1],"min":[0,0],"type":"VEC2"},{"bufferView":71,"componentType":5123,"count":24,"max":[23],"min":[8],"type":"SCALAR"},{"bufferView":72,"componentType":5126,"count":24,"max":[-0.963015615940094,0.07992062717676163,1.0270062685012817],"min":[-1.2755156755447388,0.07985812425613403,0.27700623869895935],"type":"VEC3"},{"bufferView":73,"componentType":5126,"count":24,"max":[1,1,1],"min":[-1,-1,-1],"type":"VEC3"},{"bufferView":74,"componentType":5126,"count":24,"max":[1,1],"min":[0,0],"type":"VEC2"},{"bufferView":75,"componentType":5123,"count":12,"max":[15],"min":[8],"type":"SCALAR"},{"bufferView":76,"componentType":5126,"count":24,"max":[-0.806765615940094,0.14235812425613403,1.0270062685012817],"min":[-0.931765615940094,0.017358124256134033,-0.22299374639987946],"type":"VEC3"},{"bufferView":77,"componentType":5126,"count":24,"max":[1,1,1],"min":[-1,-1,-1],"type":"VEC3"},{"bufferView":78,"componentType":5126,"count":24,"max":[0.15625,0.1328125],"min":[0.1484375,0.0546875],"type":"VEC2"},{"bufferView":79,"componentType":5123,"count":36,"max":[23],"min":[0],"type":"SCALAR"},{"bufferView":80,"componentType":5126,"count":24,"max":[-0.775515615940094,0.17360812425613403,0.9645068645477295],"min":[-0.963015615940094,-0.013891874812543392,0.4645068645477295],"type":"VEC3"},{"bufferView":81,"componentType":5126,"count":24,"max":[1,1,1],"min":[-1,-1,-1],"type":"VEC3"},{"bufferView":82,"componentType":5126,"count":24,"max":[0.14453125,0.1171875],"min":[0.1328125,0.0546875],"type":"VEC2"},{"bufferView":83,"componentType":5123,"count":36,"max":[23],"min":[0],"type":"SCALAR"}],"materials":[{"pbrMetallicRoughness":{"metallicFactor":0,"roughnessFactor":1,"baseColorTexture":{"index":0}},"alphaMode":"MASK","alphaCutoff":0.05}],"textures":[{"sampler":0,"source":0}],"samplers":[{"magFilter":9728,"minFilter":9728,"wrapS":33071,"wrapT":33071}],"images":[{"mimeType":"image/png","uri":"data:image/png;base64,"}],"meshes":[{"primitives":[{"mode":4,"attributes":{"POSITION":0,"NORMAL":1,"TEXCOORD_0":2},"indices":3,"material":0}]},{"primitives":[{"mode":4,"attributes":{"POSITION":4,"NORMAL":5,"TEXCOORD_0":6},"indices":7,"material":0}]},{"primitives":[{"mode":4,"attributes":{"POSITION":8,"NORMAL":9,"TEXCOORD_0":10},"indices":11,"material":0}]},{"primitives":[{"mode":4,"attributes":{"POSITION":12,"NORMAL":13,"TEXCOORD_0":14},"indices":15,"material":0}]},{"primitives":[{"mode":4,"attributes":{"POSITION":16,"NORMAL":17,"TEXCOORD_0":18},"indices":19,"material":0}]},{"primitives":[{"mode":4,"attributes":{"POSITION":20,"NORMAL":21,"TEXCOORD_0":22},"indices":23,"material":0}]},{"primitives":[{"mode":4,"attributes":{"POSITION":24,"NORMAL":25,"TEXCOORD_0":26},"indices":27,"material":0}]},{"primitives":[{"mode":4,"attributes":{"POSITION":28,"NORMAL":29,"TEXCOORD_0":30},"indices":31,"material":0}]},{"primitives":[{"mode":4,"attributes":{"POSITION":32,"NORMAL":33,"TEXCOORD_0":34},"indices":35,"material":0}]},{"primitives":[{"mode":4,"attributes":{"POSITION":36,"NORMAL":37,"TEXCOORD_0":38},"indices":39,"material":0}]},{"primitives":[{"mode":4,"attributes":{"POSITION":40,"NORMAL":41,"TEXCOORD_0":42},"indices":43,"material":0}]},{"primitives":[{"mode":4,"attributes":{"POSITION":44,"NORMAL":45,"TEXCOORD_0":46},"indices":47,"material":0}]},{"primitives":[{"mode":4,"attributes":{"POSITION":48,"NORMAL":49,"TEXCOORD_0":50},"indices":51,"material":0}]},{"primitives":[{"mode":4,"attributes":{"POSITION":52,"NORMAL":53,"TEXCOORD_0":54},"indices":55,"material":0}]},{"primitives":[{"mode":4,"attributes":{"POSITION":56,"NORMAL":57,"TEXCOORD_0":58},"indices":59,"material":0}]},{"primitives":[{"mode":4,"attributes":{"POSITION":60,"NORMAL":61,"TEXCOORD_0":62},"indices":63,"material":0}]},{"primitives":[{"mode":4,"attributes":{"POSITION":64,"NORMAL":65,"TEXCOORD_0":66},"indices":67,"material":0}]},{"primitives":[{"mode":4,"attributes":{"POSITION":68,"NORMAL":69,"TEXCOORD_0":70},"indices":71,"material":0}]},{"primitives":[{"mode":4,"attributes":{"POSITION":72,"NORMAL":73,"TEXCOORD_0":74},"indices":75,"material":0}]},{"primitives":[{"mode":4,"attributes":{"POSITION":76,"NORMAL":77,"TEXCOORD_0":78},"indices":79,"material":0}]},{"primitives":[{"mode":4,"attributes":{"POSITION":80,"NORMAL":81,"TEXCOORD_0":82},"indices":83,"material":0}]}]}