{"asset":{"version":"2.0","generator":"Blockbench 4.12.4 glTF exporter"},"scenes":[{"nodes":[11],"name":"blockbench_export"}],"scene":0,"nodes":[{"translation":[1.15625,0.25,0.28125],"name":"cube","mesh":0},{"translation":[-0.15625,0.25,0.28125],"name":"cube","mesh":1},{"translation":[-0.171875,0.25,0.375],"name":"cube","mesh":2},{"translation":[1.171875,0.25,0.375],"name":"cube","mesh":3},{"translation":[1.15625,0.25,1.21875],"name":"cube","mesh":4},{"translation":[-0.15625,0.25,1.21875],"name":"cube","mesh":5},{"translation":[-0.21875,0.6875,0.25],"name":"cube","mesh":6},{"translation":[-0.25,0.6875,0.75],"name":"cube","mesh":7},{"translation":[-0.1875,0.6875,0.5],"name":"cube","mesh":8},{"translation":[-0.21875,0.6875,1],"name":"cube","mesh":9},{"translation":[0.5,0.5,0.5],"name":"group"},{"children":[0,1,2,3,4,5,6,7,8,9,10]}],"bufferViews":[{"buffer":0,"byteOffset":0,"byteLength":288,"target":34962,"byteStride":12},{"buffer":0,"byteOffset":288,"byteLength":288,"target":34962,"byteStride":12},{"buffer":0,"byteOffset":576,"byteLength":192,"target":34962,"byteStride":8},{"buffer":0,"byteOffset":768,"byteLength":60,"target":34963},{"buffer":0,"byteOffset":828,"byteLength":288,"target":34962,"byteStride":12},{"buffer":0,"byteOffset":1116,"byteLength":288,"target":34962,"byteStride":12},{"buffer":0,"byteOffset":1404,"byteLength":192,"target":34962,"byteStride":8},{"buffer":0,"byteOffset":1596,"byteLength":60,"target":34963},{"buffer":0,"byteOffset":1656,"byteLength":288,"target":34962,"byteStride":12},{"buffer":0,"byteOffset":1944,"byteLength":288,"target":34962,"byteStride":12},{"buffer":0,"byteOffset":2232,"byteLength":192,"target":34962,"byteStride":8},{"buffer":0,"byteOffset":2424,"byteLength":48,"target":34963},{"buffer":0,"byteOffset":2472,"byteLength":288,"target":34962,"byteStride":12},{"buffer":0,"byteOffset":2760,"byteLength":288,"target":34962,"byteStride":12},{"buffer":0,"byteOffset":3048,"byteLength":192,"target":34962,"byteStride":8},{"buffer":0,"byteOffset":3240,"byteLength":48,"target":34963},{"buffer":0,"byteOffset":3288,"byteLength":288,"target":34962,"byteStride":12},{"buffer":0,"byteOffset":3576,"byteLength":288,"target":34962,"byteStride":12},{"buffer":0,"byteOffset":3864,"byteLength":192,"target":34962,"byteStride":8},{"buffer":0,"byteOffset":4056,"byteLength":60,"target":34963},{"buffer":0,"byteOffset":4116,"byteLength":288,"target":34962,"byteStride":12},{"buffer":0,"byteOffset":4404,"byteLength":288,"target":34962,"byteStride":12},{"buffer":0,"byteOffset":4692,"byteLength":192,"target":34962,"byteStride":8},{"buffer":0,"byteOffset":4884,"byteLength":60,"target":34963},{"buffer":0,"byteOffset":4944,"byteLength":288,"target":34962,"byteStride":12},{"buffer":0,"byteOffset":5232,"byteLength":288,"target":34962,"byteStride":12},{"buffer":0,"byteOffset":5520,"byteLength":192,"target":34962,"byteStride":8},{"buffer":0,"byteOffset":5712,"byteLength":72,"target":34963},{"buffer":0,"byteOffset":5784,"byteLength":288,"target":34962,"byteStride":12},{"buffer":0,"byteOffset":6072,"byteLength":288,"target":34962,"byteStride":12},{"buffer":0,"byteOffset":6360,"byteLength":192,"target":34962,"byteStride":8},{"buffer":0,"byteOffset":6552,"byteLength":72,"target":34963},{"buffer":0,"byteOffset":6624,"byteLength":288,"target":34962,"byteStride":12},{"buffer":0,"byteOffset":6912,"byteLength":288,"target":34962,"byteStride":12},{"buffer":0,"byteOffset":7200,"byteLength":192,"target":34962,"byteStride":8},{"buffer":0,"byteOffset":7392,"byteLength":72,"target":34963},{"buffer":0,"byteOffset":7464,"byteLength":288,"target":34962,"byteStride":12},{"buffer":0,"byteOffset":7752,"byteLength":288,"target":34962,"byteStride":12},{"buffer":0,"byteOffset":8040,"byteLength":192,"target":34962,"byteStride":8},{"buffer":0,"byteOffset":8232,"byteLength":72,"target":34963}],"buffers":[{"byteLength":8304,"uri":"data:application/octet-stream;base64,"}],"accessors":[{"bufferView":0,"componentType":5126,"count":24,"max":[0.0625,0.4375,0.09375],"min":[-0.03125,0,0],"type":"VEC3"},{"bufferView":1,"componentType":5126,"count":24,"max":[1,1,1],"min":[-1,-1,-1],"type":"VEC3"},{"bufferView":2,"componentType":5126,"count":24,"max":[1,1],"min":[0,0],"type":"VEC2"},{"bufferView":3,"componentType":5123,"count":30,"max":[23],"min":[0],"type":"SCALAR"},{"bufferView":4,"componentType":5126,"count":24,"max":[0.03125,0.4375,0.09375],"min":[-0.0625,0,0],"type":"VEC3"},{"bufferView":5,"componentType":5126,"count":24,"max":[1,1,1],"min":[-1,-1,-1],"type":"VEC3"},{"bufferView":6,"componentType":5126,"count":24,"max":[1,1],"min":[0,0],"type":"VEC2"},{"bufferView":7,"componentType":5123,"count":30,"max":[23],"min":[0],"type":"SCALAR"},{"bufferView":8,"componentType":5126,"count":24,"max":[0.03125,0.25,0.75],"min":[-0.03125,0.15625,0],"type":"VEC3"},{"bufferView":9,"componentType":5126,"count":24,"max":[1,1,1],"min":[-1,-1,-1],"type":"VEC3"},{"bufferView":10,"componentType":5126,"count":24,"max":[1,1],"min":[0,0],"type":"VEC2"},{"bufferView":11,"componentType":5123,"count":24,"max":[15],"min":[0],"type":"SCALAR"},{"bufferView":12,"componentType":5126,"count":24,"max":[0.03125,0.25,0.75],"min":[-0.03125,0.15625,0],"type":"VEC3"},{"bufferView":13,"componentType":5126,"count":24,"max":[1,1,1],"min":[-1,-1,-1],"type":"VEC3"},{"bufferView":14,"componentType":5126,"count":24,"max":[1,1],"min":[0,0],"type":"VEC2"},{"bufferView":15,"componentType":5123,"count":24,"max":[15],"min":[0],"type":"SCALAR"},{"bufferView":16,"componentType":5126,"count":24,"max":[0.0625,0.4375,0],"min":[-0.03125,0,-0.09375],"type":"VEC3"},{"bufferView":17,"componentType":5126,"count":24,"max":[1,1,1],"min":[-1,-1,-1],"type":"VEC3"},{"bufferView":18,"componentType":5126,"count":24,"max":[1,1],"min":[0,0],"type":"VEC2"},{"bufferView":19,"componentType":5123,"count":30,"max":[23],"min":[0],"type":"SCALAR"},{"bufferView":20,"componentType":5126,"count":24,"max":[0.03125,0.4375,0],"min":[-0.0625,0,-0.09375],"type":"VEC3"},{"bufferView":21,"componentType":5126,"count":24,"max":[1,1,1],"min":[-1,-1,-1],"type":"VEC3"},{"bufferView":22,"componentType":5126,"count":24,"max":[1,1],"min":[0,0],"type":"VEC2"},{"bufferView":23,"componentType":5123,"count":30,"max":[23],"min":[0],"type":"SCALAR"},{"bufferView":24,"componentType":5126,"count":24,"max":[1.46875,0.0625,0.25],"min":[-0.03125,0,0],"type":"VEC3"},{"bufferView":25,"componentType":5126,"count":24,"max":[1,1,1],"min":[-1,-1,-1],"type":"VEC3"},{"bufferView":26,"componentType":5126,"count":24,"max":[0.19921875,0.34765625],"min":[0,0.234375],"type":"VEC2"},{"bufferView":27,"componentType":5123,"count":36,"max":[23],"min":[0],"type":"SCALAR"},{"bufferView":28,"componentType":5126,"count":24,"max":[1.46875,0.0625,0.25],"min":[-0.03125,0,0],"type":"VEC3"},{"bufferView":29,"componentType":5126,"count":24,"max":[1,1,1],"min":[-1,-1,-1],"type":"VEC3"},{"bufferView":30,"componentType":5126,"count":24,"max":[0.19921875,0.34765625],"min":[0,0.234375],"type":"VEC2"},{"bufferView":31,"componentType":5123,"count":36,"max":[23],"min":[0],"type":"SCALAR"},{"bufferView":32,"componentType":5126,"count":24,"max":[1.46875,0.0625,0.25],"min":[-0.03125,0,0],"type":"VEC3"},{"bufferView":33,"componentType":5126,"count":24,"max":[1,1,1],"min":[-1,-1,-1],"type":"VEC3"},{"bufferView":34,"componentType":5126,"count":24,"max":[0.19921875,0.39453125],"min":[0,0.234375],"type":"VEC2"},{"bufferView":35,"componentType":5123,"count":36,"max":[23],"min":[0],"type":"SCALAR"},{"bufferView":36,"componentType":5126,"count":24,"max":[1.46875,0.0625,0.25],"min":[-0.03125,0,0],"type":"VEC3"},{"bufferView":37,"componentType":5126,"count":24,"max":[1,1,1],"min":[-1,-1,-1],"type":"VEC3"},{"bufferView":38,"componentType":5126,"count":24,"max":[0.19921875,0.39453125],"min":[0,0.234375],"type":"VEC2"},{"bufferView":39,"componentType":5123,"count":36,"max":[23],"min":[0],"type":"SCALAR"}],"materials":[{"pbrMetallicRoughness":{"metallicFactor":0,"roughnessFactor":1,"baseColorTexture":{"index":0}},"alphaMode":"MASK","alphaCutoff":0.05}],"textures":[{"sampler":0,"source":0}],"samplers":[{"magFilter":9728,"minFilter":9728,"wrapS":33071,"wrapT":33071}],"images":[{"mimeType":"image/png","uri":"data:image/png;base64,"}],"meshes":[{"primitives":[{"mode":4,"attributes":{"POSITION":0,"NORMAL":1,"TEXCOORD_0":2},"indices":3,"material":0}]},{"primitives":[{"mode":4,"attributes":{"POSITION":4,"NORMAL":5,"TEXCOORD_0":6},"indices":7,"material":0}]},{"primitives":[{"mode":4,"attributes":{"POSITION":8,"NORMAL":9,"TEXCOORD_0":10},"indices":11,"material":0}]},{"primitives":[{"mode":4,"attributes":{"POSITION":12,"NORMAL":13,"TEXCOORD_0":14},"indices":15,"material":0}]},{"primitives":[{"mode":4,"attributes":{"POSITION":16,"NORMAL":17,"TEXCOORD_0":18},"indices":19,"material":0}]},{"primitives":[{"mode":4,"attributes":{"POSITION":20,"NORMAL":21,"TEXCOORD_0":22},"indices":23,"material":0}]},{"primitives":[{"mode":4,"attributes":{"POSITION":24,"NORMAL":25,"TEXCOORD_0":26},"indices":27,"material":0}]},{"primitives":[{"mode":4,"attributes":{"POSITION":28,"NORMAL":29,"TEXCOORD_0":30},"indices":31,"material":0}]},{"primitives":[{"mode":4,"attributes":{"POSITION":32,"NORMAL":33,"TEXCOORD_0":34},"indices":35,"material":0}]},{"primitives":[{"mode":4,"attributes":{"POSITION":36,"NORMAL":37,"TEXCOORD_0":38},"indices":39,"material":0}]}]}