{"asset":{"version":"2.0","generator":"Blockbench 4.12.4 glTF exporter"},"scenes":[{"nodes":[24],"name":"blockbench_export"}],"scene":0,"nodes":[{"translation":[0.49875,0.0019825,0.50125],"name":"Body","mesh":0},{"translation":[0.5,0.4375,0.5],"name":"cube","mesh":1},{"rotation":[0,0.3826834323650898,0,0.9238795325112867],"translation":[0.5,0.0625,0.5],"name":"cube","mesh":2},{"rotation":[0,0.3826834323650898,0,0.9238795325112867],"translation":[0.5,0.0625,0.5],"name":"cube","mesh":3},{"rotation":[0,0,0.3826834323650898,0.9238795325112867],"translation":[0.374511875,1.790039375,0.25],"name":"cube","mesh":4},{"rotation":[0,0,-0.3826834323650898,0.9238795325112867],"translation":[0.374511875,1.81213625,0.25],"name":"cube","mesh":5},{"rotation":[0,0,0.3826834323650898,0.9238795325112867],"translation":[0.624511875,1.790039375,0.25],"name":"cube","mesh":6},{"rotation":[0,0,-0.3826834323650898,0.9238795325112867],"translation":[0.624511875,1.81213625,0.25],"name":"cube","mesh":7},{"rotation":[0,0,-0.19509032201612825,0.9807852804032304],"translation":[0.29516625,1.9069825,0.5],"name":"leftear","mesh":8},{"rotation":[0,0,0.19509032201612825,0.9807852804032304],"translation":[0.70483375,1.9069825,0.5],"name":"rightear","mesh":9},{"translation":[0.5,0.0007325,0.5],"name":"head","mesh":10},{"translation":[0.46875,0.0632325,0.5],"name":"head","mesh":11},{"translation":[0.49875,0.0019825,0.5325],"name":"RightArm","mesh":12},{"translation":[0.50125,0.0019825,0.5325],"name":"LeftArm","mesh":13},{"rotation":[0.19509032201612825,0,0,0.9807852804032304],"translation":[0.625,1.09375,-0.015625],"name":"cube","mesh":14},{"rotation":[0.19509032201612825,0,0,0.9807852804032304],"translation":[0.625,1.09375,-0.015625],"name":"cube","mesh":15},{"rotation":[0.19509032201612825,0,0,0.9807852804032304],"translation":[0.625,1.09375,-0.015625],"name":"cube","mesh":16},{"rotation":[0.19509032201612825,0,0,0.9807852804032304],"translation":[0.625,1.09375,-0.015625],"name":"cube","mesh":17},{"rotation":[0,0.19509032201612825,0,0.9807852804032304],"translation":[0.28125,1.8125,-0.015625],"name":"cube","mesh":18},{"rotation":[0,0.19509032201612825,0,0.9807852804032304],"translation":[0.28125,1.8125,-0.015625],"name":"cube","mesh":19},{"rotation":[0,0.19509032201612825,0,0.9807852804032304],"translation":[0.28125,1.8125,-0.015625],"name":"cube","mesh":20},{"rotation":[0,0.19509032201612825,0,0.9807852804032304],"translation":[0.28125,1.8125,-0.015625],"name":"cube","mesh":21},{"name":"group"},{"translation":[0.5,1.5,0.5],"name":"Body","children":[22]},{"children":[0,1,2,3,4,5,6,7,8,9,10,11,12,13,14,15,16,17,18,19,20,21,23]}],"bufferViews":[{"buffer":0,"byteOffset":0,"byteLength":288,"target":34962,"byteStride":12},{"buffer":0,"byteOffset":288,"byteLength":288,"target":34962,"byteStride":12},{"buffer":0,"byteOffset":576,"byteLength":192,"target":34962,"byteStride":8},{"buffer":0,"byteOffset":768,"byteLength":60,"target":34963},{"buffer":0,"byteOffset":828,"byteLength":288,"target":34962,"byteStride":12},{"buffer":0,"byteOffset":1116,"byteLength":288,"target":34962,"byteStride":12},{"buffer":0,"byteOffset":1404,"byteLength":192,"target":34962,"byteStride":8},{"buffer":0,"byteOffset":1596,"byteLength":48,"target":34963},{"buffer":0,"byteOffset":1644,"byteLength":288,"target":34962,"byteStride":12},{"buffer":0,"byteOffset":1932,"byteLength":288,"target":34962,"byteStride":12},{"buffer":0,"byteOffset":2220,"byteLength":192,"target":34962,"byteStride":8},{"buffer":0,"byteOffset":2412,"byteLength":72,"target":34963},{"buffer":0,"byteOffset":2484,"byteLength":288,"target":34962,"byteStride":12},{"buffer":0,"byteOffset":2772,"byteLength":288,"target":34962,"byteStride":12},{"buffer":0,"byteOffset":3060,"byteLength":192,"target":34962,"byteStride":8},{"buffer":0,"byteOffset":3252,"byteLength":72,"target":34963},{"buffer":0,"byteOffset":3324,"byteLength":288,"target":34962,"byteStride":12},{"buffer":0,"byteOffset":3612,"byteLength":288,"target":34962,"byteStride":12},{"buffer":0,"byteOffset":3900,"byteLength":192,"target":34962,"byteStride":8},{"buffer":0,"byteOffset":4092,"byteLength":12,"target":34963},{"buffer":0,"byteOffset":4104,"byteLength":288,"target":34962,"byteStride":12},{"buffer":0,"byteOffset":4392,"byteLength":288,"target":34962,"byteStride":12},{"buffer":0,"byteOffset":4680,"byteLength":192,"target":34962,"byteStride":8},{"buffer":0,"byteOffset":4872,"byteLength":12,"target":34963},{"buffer":0,"byteOffset":4884,"byteLength":288,"target":34962,"byteStride":12},{"buffer":0,"byteOffset":5172,"byteLength":288,"target":34962,"byteStride":12},{"buffer":0,"byteOffset":5460,"byteLength":192,"target":34962,"byteStride":8},{"buffer":0,"byteOffset":5652,"byteLength":12,"target":34963},{"buffer":0,"byteOffset":5664,"byteLength":288,"target":34962,"byteStride":12},{"buffer":0,"byteOffset":5952,"byteLength":288,"target":34962,"byteStride":12},{"buffer":0,"byteOffset":6240,"byteLength":192,"target":34962,"byteStride":8},{"buffer":0,"byteOffset":6432,"byteLength":12,"target":34963},{"buffer":0,"byteOffset":6444,"byteLength":288,"target":34962,"byteStride":12},{"buffer":0,"byteOffset":6732,"byteLength":288,"target":34962,"byteStride":12},{"buffer":0,"byteOffset":7020,"byteLength":192,"target":34962,"byteStride":8},{"buffer":0,"byteOffset":7212,"byteLength":60,"target":34963},{"buffer":0,"byteOffset":7272,"byteLength":288,"target":34962,"byteStride":12},{"buffer":0,"byteOffset":7560,"byteLength":288,"target":34962,"byteStride":12},{"buffer":0,"byteOffset":7848,"byteLength":192,"target":34962,"byteStride":8},{"buffer":0,"byteOffset":8040,"byteLength":60,"target":34963},{"buffer":0,"byteOffset":8100,"byteLength":288,"target":34962,"byteStride":12},{"buffer":0,"byteOffset":8388,"byteLength":288,"target":34962,"byteStride":12},{"buffer":0,"byteOffset":8676,"byteLength":192,"target":34962,"byteStride":8},{"buffer":0,"byteOffset":8868,"byteLength":72,"target":34963},{"buffer":0,"byteOffset":8940,"byteLength":288,"target":34962,"byteStride":12},{"buffer":0,"byteOffset":9228,"byteLength":288,"target":34962,"byteStride":12},{"buffer":0,"byteOffset":9516,"byteLength":192,"target":34962,"byteStride":8},{"buffer":0,"byteOffset":9708,"byteLength":72,"target":34963},{"buffer":0,"byteOffset":9780,"byteLength":288,"target":34962,"byteStride":12},{"buffer":0,"byteOffset":10068,"byteLength":288,"target":34962,"byteStride":12},{"buffer":0,"byteOffset":10356,"byteLength":192,"target":34962,"byteStride":8},{"buffer":0,"byteOffset":10548,"byteLength":60,"target":34963},{"buffer":0,"byteOffset":10608,"byteLength":288,"target":34962,"byteStride":12},{"buffer":0,"byteOffset":10896,"byteLength":288,"target":34962,"byteStride":12},{"buffer":0,"byteOffset":11184,"byteLength":192,"target":34962,"byteStride":8},{"buffer":0,"byteOffset":11376,"byteLength":60,"target":34963},{"buffer":0,"byteOffset":11436,"byteLength":288,"target":34962,"byteStride":12},{"buffer":0,"byteOffset":11724,"byteLength":288,"target":34962,"byteStride":12},{"buffer":0,"byteOffset":12012,"byteLength":192,"target":34962,"byteStride":8},{"buffer":0,"byteOffset":12204,"byteLength":24,"target":34963},{"buffer":0,"byteOffset":12228,"byteLength":288,"target":34962,"byteStride":12},{"buffer":0,"byteOffset":12516,"byteLength":288,"target":34962,"byteStride":12},{"buffer":0,"byteOffset":12804,"byteLength":192,"target":34962,"byteStride":8},{"buffer":0,"byteOffset":12996,"byteLength":24,"target":34963},{"buffer":0,"byteOffset":13020,"byteLength":288,"target":34962,"byteStride":12},{"buffer":0,"byteOffset":13308,"byteLength":288,"target":34962,"byteStride":12},{"buffer":0,"byteOffset":13596,"byteLength":192,"target":34962,"byteStride":8},{"buffer":0,"byteOffset":13788,"byteLength":24,"target":34963},{"buffer":0,"byteOffset":13812,"byteLength":288,"target":34962,"byteStride":12},{"buffer":0,"byteOffset":14100,"byteLength":288,"target":34962,"byteStride":12},{"buffer":0,"byteOffset":14388,"byteLength":192,"target":34962,"byteStride":8},{"buffer":0,"byteOffset":14580,"byteLength":24,"target":34963},{"buffer":0,"byteOffset":14604,"byteLength":288,"target":34962,"byteStride":12},{"buffer":0,"byteOffset":14892,"byteLength":288,"target":34962,"byteStride":12},{"buffer":0,"byteOffset":15180,"byteLength":192,"target":34962,"byteStride":8},{"buffer":0,"byteOffset":15372,"byteLength":24,"target":34963},{"buffer":0,"byteOffset":15396,"byteLength":288,"target":34962,"byteStride":12},{"buffer":0,"byteOffset":15684,"byteLength":288,"target":34962,"byteStride":12},{"buffer":0,"byteOffset":15972,"byteLength":192,"target":34962,"byteStride":8},{"buffer":0,"byteOffset":16164,"byteLength":24,"target":34963},{"buffer":0,"byteOffset":16188,"byteLength":288,"target":34962,"byteStride":12},{"buffer":0,"byteOffset":16476,"byteLength":288,"target":34962,"byteStride":12},{"buffer":0,"byteOffset":16764,"byteLength":192,"target":34962,"byteStride":8},{"buffer":0,"byteOffset":16956,"byteLength":24,"target":34963},{"buffer":0,"byteOffset":16980,"byteLength":288,"target":34962,"byteStride":12},{"buffer":0,"byteOffset":17268,"byteLength":288,"target":34962,"byteStride":12},{"buffer":0,"byteOffset":17556,"byteLength":192,"target":34962,"byteStride":8},{"buffer":0,"byteOffset":17748,"byteLength":24,"target":34963}],"buffers":[{"byteLength":17772,"uri":"data:application/octet-stream;base64,"}],"accessors":[{"bufferView":0,"componentType":5126,"count":24,"max":[0.25,1.5,0.1875],"min":[-0.25,0.75,-0.1875],"type":"VEC3"},{"bufferView":1,"componentType":5126,"count":24,"max":[1,1,1],"min":[-1,-1,-1],"type":"VEC3"},{"bufferView":2,"componentType":5126,"count":24,"max":[1,1],"min":[0,0],"type":"VEC2"},{"bufferView":3,"componentType":5123,"count":30,"max":[23],"min":[0],"type":"SCALAR"},{"bufferView":4,"componentType":5126,"count":24,"max":[0.09375,0.3125,0.09375],"min":[-0.09375,-0.3125,-0.09375],"type":"VEC3"},{"bufferView":5,"componentType":5126,"count":24,"max":[1,1,1],"min":[-1,-1,-1],"type":"VEC3"},{"bufferView":6,"componentType":5126,"count":24,"max":[1,1],"min":[0,0],"type":"VEC2"},{"bufferView":7,"componentType":5123,"count":24,"max":[23],"min":[0],"type":"SCALAR"},{"bufferView":8,"componentType":5126,"count":24,"max":[0.3125,0.0625,0.0625],"min":[-0.3125,-0.0625,-0.0625],"type":"VEC3"},{"bufferView":9,"componentType":5126,"count":24,"max":[1,1,1],"min":[-1,-1,-1],"type":"VEC3"},{"bufferView":10,"componentType":5126,"count":24,"max":[0.57421875,0.2734375],"min":[0.56640625,0.234375],"type":"VEC2"},{"bufferView":11,"componentType":5123,"count":36,"max":[23],"min":[0],"type":"SCALAR"},{"bufferView":12,"componentType":5126,"count":24,"max":[0.0625,0.0625,0.3125],"min":[-0.0625,-0.0625,-0.3125],"type":"VEC3"},{"bufferView":13,"componentType":5126,"count":24,"max":[1,1,1],"min":[-1,-1,-1],"type":"VEC3"},{"bufferView":14,"componentType":5126,"count":24,"max":[0.57421875,0.2734375],"min":[0.56640625,0.234375],"type":"VEC2"},{"bufferView":15,"componentType":5123,"count":36,"max":[23],"min":[0],"type":"SCALAR"},{"bufferView":16,"componentType":5126,"count":24,"max":[0.03125,0.0625,0.0000625000029685907],"min":[0,-0.03125,0],"type":"VEC3"},{"bufferView":17,"componentType":5126,"count":24,"max":[1,1,1],"min":[-1,-1,-1],"type":"VEC3"},{"bufferView":18,"componentType":5126,"count":24,"max":[1,1],"min":[0,0],"type":"VEC2"},{"bufferView":19,"componentType":5123,"count":6,"max":[23],"min":[20],"type":"SCALAR"},{"bufferView":20,"componentType":5126,"count":24,"max":[0.015625,0.046875,0.0000625000029685907],"min":[-0.015625,-0.046875,0],"type":"VEC3"},{"bufferView":21,"componentType":5126,"count":24,"max":[1,1,1],"min":[-1,-1,-1],"type":"VEC3"},{"bufferView":22,"componentType":5126,"count":24,"max":[1,1],"min":[0,0],"type":"VEC2"},{"bufferView":23,"componentType":5123,"count":6,"max":[23],"min":[20],"type":"SCALAR"},{"bufferView":24,"componentType":5126,"count":24,"max":[0.03125,0.0625,0.0000625000029685907],"min":[0,-0.03125,0],"type":"VEC3"},{"bufferView":25,"componentType":5126,"count":24,"max":[1,1,1],"min":[-1,-1,-1],"type":"VEC3"},{"bufferView":26,"componentType":5126,"count":24,"max":[1,1],"min":[0,0],"type":"VEC2"},{"bufferView":27,"componentType":5123,"count":6,"max":[23],"min":[20],"type":"SCALAR"},{"bufferView":28,"componentType":5126,"count":24,"max":[0.015625,0.046875,0.0000625000029685907],"min":[-0.015625,-0.046875,0],"type":"VEC3"},{"bufferView":29,"componentType":5126,"count":24,"max":[1,1,1],"min":[-1,-1,-1],"type":"VEC3"},{"bufferView":30,"componentType":5126,"count":24,"max":[1,1],"min":[0,0],"type":"VEC2"},{"bufferView":31,"componentType":5123,"count":6,"max":[23],"min":[20],"type":"SCALAR"},{"bufferView":32,"componentType":5126,"count":24,"max":[0.03125,-0.03125,0.125],"min":[-0.03125,-0.34375,-0.125],"type":"VEC3"},{"bufferView":33,"componentType":5126,"count":24,"max":[1,1,1],"min":[-1,-1,-1],"type":"VEC3"},{"bufferView":34,"componentType":5126,"count":24,"max":[1,1],"min":[0,0],"type":"VEC2"},{"bufferView":35,"componentType":5123,"count":30,"max":[23],"min":[0],"type":"SCALAR"},{"bufferView":36,"componentType":5126,"count":24,"max":[0.03125,-0.03125,0.125],"min":[-0.03125,-0.34375,-0.125],"type":"VEC3"},{"bufferView":37,"componentType":5126,"count":24,"max":[1,1,1],"min":[-1,-1,-1],"type":"VEC3"},{"bufferView":38,"componentType":5126,"count":24,"max":[1,1],"min":[0,0],"type":"VEC2"},{"bufferView":39,"componentType":5123,"count":30,"max":[23],"min":[0],"type":"SCALAR"},{"bufferView":40,"componentType":5126,"count":24,"max":[0.2487500011920929,1.9987499713897705,0.2487500011920929],"min":[-0.2487500011920929,1.5012500286102295,-0.2487500011920929],"type":"VEC3"},{"bufferView":41,"componentType":5126,"count":24,"max":[1,1,1],"min":[-1,-1,-1],"type":"VEC3"},{"bufferView":42,"componentType":5126,"count":24,"max":[0.6953125,0.265625],"min":[0.59375,0.19921875],"type":"VEC2"},{"bufferView":43,"componentType":5123,"count":36,"max":[23],"min":[0],"type":"SCALAR"},{"bufferView":44,"componentType":5126,"count":24,"max":[0.125,1.6875,-0.25],"min":[-0.0625,1.5,-0.3125],"type":"VEC3"},{"bufferView":45,"componentType":5126,"count":24,"max":[1,1,1],"min":[-1,-1,-1],"type":"VEC3"},{"bufferView":46,"componentType":5126,"count":24,"max":[0.67578125,0.24609375],"min":[0.6640625,0.234375],"type":"VEC2"},{"bufferView":47,"componentType":5123,"count":36,"max":[23],"min":[0],"type":"SCALAR"},{"bufferView":48,"componentType":5126,"count":24,"max":[0.5,1.5,0.125],"min":[0.25,0.75,-0.1875],"type":"VEC3"},{"bufferView":49,"componentType":5126,"count":24,"max":[1,1,1],"min":[-1,-1,-1],"type":"VEC3"},{"bufferView":50,"componentType":5126,"count":24,"max":[1,1],"min":[0,0],"type":"VEC2"},{"bufferView":51,"componentType":5123,"count":30,"max":[23],"min":[0],"type":"SCALAR"},{"bufferView":52,"componentType":5126,"count":24,"max":[-0.25,1.5,0.125],"min":[-0.5,0.75,-0.1875],"type":"VEC3"},{"bufferView":53,"componentType":5126,"count":24,"max":[1,1,1],"min":[-1,-1,-1],"type":"VEC3"},{"bufferView":54,"componentType":5126,"count":24,"max":[1,1],"min":[0,0],"type":"VEC2"},{"bufferView":55,"componentType":5123,"count":30,"max":[23],"min":[4],"type":"SCALAR"},{"bufferView":56,"componentType":5126,"count":24,"max":[0.0000625000029685907,0.03125,0.453125],"min":[0,-0.03125,-0.234375],"type":"VEC3"},{"bufferView":57,"componentType":5126,"count":24,"max":[1,1,1],"min":[-1,-1,-1],"type":"VEC3"},{"bufferView":58,"componentType":5126,"count":24,"max":[1,1],"min":[0,0],"type":"VEC2"},{"bufferView":59,"componentType":5123,"count":12,"max":[7],"min":[0],"type":"SCALAR"},{"bufferView":60,"componentType":5126,"count":24,"max":[0.03125,0.0000625000029685907,0.453125],"min":[-0.03125,0,-0.234375],"type":"VEC3"},{"bufferView":61,"componentType":5126,"count":24,"max":[1,1,1],"min":[-1,-1,-1],"type":"VEC3"},{"bufferView":62,"componentType":5126,"count":24,"max":[1,1],"min":[0,0],"type":"VEC2"},{"bufferView":63,"componentType":5123,"count":12,"max":[15],"min":[8],"type":"SCALAR"},{"bufferView":64,"componentType":5126,"count":24,"max":[0.0000625000029685907,0.15625,0.015625],"min":[0,-0.15625,-0.234375],"type":"VEC3"},{"bufferView":65,"componentType":5126,"count":24,"max":[1,1,1],"min":[-1,-1,-1],"type":"VEC3"},{"bufferView":66,"componentType":5126,"count":24,"max":[1,1],"min":[0,0],"type":"VEC2"},{"bufferView":67,"componentType":5123,"count":12,"max":[7],"min":[0],"type":"SCALAR"},{"bufferView":68,"componentType":5126,"count":24,"max":[0.15625,0.0000625000029685907,0.015625],"min":[-0.15625,0,-0.234375],"type":"VEC3"},{"bufferView":69,"componentType":5126,"count":24,"max":[1,1,1],"min":[-1,-1,-1],"type":"VEC3"},{"bufferView":70,"componentType":5126,"count":24,"max":[1,1],"min":[0,0],"type":"VEC2"},{"bufferView":71,"componentType":5123,"count":12,"max":[15],"min":[8],"type":"SCALAR"},{"bufferView":72,"componentType":5126,"count":24,"max":[0.0000625000029685907,0.03125,0.453125],"min":[0,-0.03125,-0.234375],"type":"VEC3"},{"bufferView":73,"componentType":5126,"count":24,"max":[1,1,1],"min":[-1,-1,-1],"type":"VEC3"},{"bufferView":74,"componentType":5126,"count":24,"max":[1,1],"min":[0,0],"type":"VEC2"},{"bufferView":75,"componentType":5123,"count":12,"max":[7],"min":[0],"type":"SCALAR"},{"bufferView":76,"componentType":5126,"count":24,"max":[0.0000625000029685907,0.15625,0.015625],"min":[0,-0.15625,-0.234375],"type":"VEC3"},{"bufferView":77,"componentType":5126,"count":24,"max":[1,1,1],"min":[-1,-1,-1],"type":"VEC3"},{"bufferView":78,"componentType":5126,"count":24,"max":[1,1],"min":[0,0],"type":"VEC2"},{"bufferView":79,"componentType":5123,"count":12,"max":[7],"min":[0],"type":"SCALAR"},{"bufferView":80,"componentType":5126,"count":24,"max":[0.15625,0.0000625000029685907,0.015625],"min":[-0.15625,0,-0.234375],"type":"VEC3"},{"bufferView":81,"componentType":5126,"count":24,"max":[1,1,1],"min":[-1,-1,-1],"type":"VEC3"},{"bufferView":82,"componentType":5126,"count":24,"max":[1,1],"min":[0,0],"type":"VEC2"},{"bufferView":83,"componentType":5123,"count":12,"max":[15],"min":[8],"type":"SCALAR"},{"bufferView":84,"componentType":5126,"count":24,"max":[0.03125,0.0000625000029685907,0.453125],"min":[-0.03125,0,-0.234375],"type":"VEC3"},{"bufferView":85,"componentType":5126,"count":24,"max":[1,1,1],"min":[-1,-1,-1],"type":"VEC3"},{"bufferView":86,"componentType":5126,"count":24,"max":[1,1],"min":[0,0],"type":"VEC2"},{"bufferView":87,"componentType":5123,"count":12,"max":[15],"min":[8],"type":"SCALAR"}],"materials":[{"pbrMetallicRoughness":{"metallicFactor":0,"roughnessFactor":1,"baseColorTexture":{"index":0}},"alphaMode":"MASK","alphaCutoff":0.05}],"textures":[{"sampler":0,"source":0}],"samplers":[{"magFilter":9728,"minFilter":9728,"wrapS":33071,"wrapT":33071}],"images":[{"mimeType":"image/png","uri":"data:image/png;base64,"}],"meshes":[{"primitives":[{"mode":4,"attributes":{"POSITION":0,"NORMAL":1,"TEXCOORD_0":2},"indices":3,"material":0}]},{"primitives":[{"mode":4,"attributes":{"POSITION":4,"NORMAL":5,"TEXCOORD_0":6},"indices":7,"material":0}]},{"primitives":[{"mode":4,"attributes":{"POSITION":8,"NORMAL":9,"TEXCOORD_0":10},"indices":11,"material":0}]},{"primitives":[{"mode":4,"attributes":{"POSITION":12,"NORMAL":13,"TEXCOORD_0":14},"indices":15,"material":0}]},{"primitives":[{"mode":4,"attributes":{"POSITION":16,"NORMAL":17,"TEXCOORD_0":18},"indices":19,"material":0}]},{"primitives":[{"mode":4,"attributes":{"POSITION":20,"NORMAL":21,"TEXCOORD_0":22},"indices":23,"material":0}]},{"primitives":[{"mode":4,"attributes":{"POSITION":24,"NORMAL":25,"TEXCOORD_0":26},"indices":27,"material":0}]},{"primitives":[{"mode":4,"attributes":{"POSITION":28,"NORMAL":29,"TEXCOORD_0":30},"indices":31,"material":0}]},{"primitives":[{"mode":4,"attributes":{"POSITION":32,"NORMAL":33,"TEXCOORD_0":34},"indices":35,"material":0}]},{"primitives":[{"mode":4,"attributes":{"POSITION":36,"NORMAL":37,"TEXCOORD_0":38},"indices":39,"material":0}]},{"primitives":[{"mode":4,"attributes":{"POSITION":40,"NORMAL":41,"TEXCOORD_0":42},"indices":43,"material":0}]},{"primitives":[{"mode":4,"attributes":{"POSITION":44,"NORMAL":45,"TEXCOORD_0":46},"indices":47,"material":0}]},{"primitives":[{"mode":4,"attributes":{"POSITION":48,"NORMAL":49,"TEXCOORD_0":50},"indices":51,"material":0}]},{"primitives":[{"mode":4,"attributes":{"POSITION":52,"NORMAL":53,"TEXCOORD_0":54},"indices":55,"material":0}]},{"primitives":[{"mode":4,"attributes":{"POSITION":56,"NORMAL":57,"TEXCOORD_0":58},"indices":59,"material":0}]},{"primitives":[{"mode":4,"attributes":{"POSITION":60,"NORMAL":61,"TEXCOORD_0":62},"indices":63,"material":0}]},{"primitives":[{"mode":4,"attributes":{"POSITION":64,"NORMAL":65,"TEXCOORD_0":66},"indices":67,"material":0}]},{"primitives":[{"mode":4,"attributes":{"POSITION":68,"NORMAL":69,"TEXCOORD_0":70},"indices":71,"material":0}]},{"primitives":[{"mode":4,"attributes":{"POSITION":72,"NORMAL":73,"TEXCOORD_0":74},"indices":75,"material":0}]},{"primitives":[{"mode":4,"attributes":{"POSITION":76,"NORMAL":77,"TEXCOORD_0":78},"indices":79,"material":0}]},{"primitives":[{"mode":4,"attributes":{"POSITION":80,"NORMAL":81,"TEXCOORD_0":82},"indices":83,"material":0}]},{"primitives":[{"mode":4,"attributes":{"POSITION":84,"NORMAL":85,"TEXCOORD_0":86},"indices":87,"material":0}]}]}