{"asset":{"version":"2.0","generator":"Blockbench 4.12.4 glTF exporter"},"scenes":[{"nodes":[19],"name":"blockbench_export"}],"scene":0,"nodes":[{"rotation":[0.19509032201612825,0,0,0.9807852804032304],"translation":[-0.203125,0.921875,0.3125],"name":"cube","mesh":0},{"rotation":[0.19509032201612825,0,0,0.9807852804032304],"translation":[-0.203125,0.921875,0.3125],"name":"cube inverted","mesh":1},{"rotation":[0.19509032201612825,0,0,0.9807852804032304],"translation":[1.203125,0.921875,0.3125],"name":"cube","mesh":2},{"rotation":[0.19509032201612825,0,0,0.9807852804032304],"translation":[1.203125,0.921875,0.3125],"name":"cube inverted","mesh":3},{"rotation":[-0.3826834323650898,0,0,0.9238795325112867],"translation":[0,1.4375,0.5],"name":"cube","mesh":4},{"rotation":[-0.3826834323650898,0,0,0.9238795325112867],"translation":[0.09375,1.4375,0.5],"name":"cube","mesh":5},{"rotation":[-0.19509032201612825,0,0,0.9807852804032304],"translation":[1.20166,0.921875,0.6875],"name":"cube","mesh":6},{"rotation":[0.19509032201612825,0,0,0.9807852804032304],"translation":[1.203125,0.921875,0.3125],"name":"cube","mesh":7},{"translation":[1.203125,1.34375,0.4375],"name":"cube","mesh":8},{"translation":[1.203125,1.34375,0.4375],"name":"cube inverted","mesh":9},{"rotation":[-0.19509032201612825,0,0,0.9807852804032304],"translation":[-0.20459,0.921875,0.6875],"name":"cube","mesh":10},{"rotation":[0.19509032201612825,0,0,0.9807852804032304],"translation":[-0.203125,0.921875,0.3125],"name":"cube","mesh":11},{"translation":[-0.203125,1.34375,0.4375],"name":"cube","mesh":12},{"translation":[-0.203125,1.34375,0.4375],"name":"cube inverted","mesh":13},{"rotation":[0.19509032201612825,0,0,0.9807852804032304],"translation":[0.493408125,0.822993125,0.268676875],"name":"cube","mesh":14},{"translation":[1.09375,1.375,-0.125],"name":"cube inverted"},{"translation":[1.09375,1.375,-0.125],"name":"cube inverted"},{"name":"group","children":[15,16]},{"translation":[0.5,0.5,0.5],"name":"tanning","children":[17]},{"children":[0,1,2,3,4,5,6,7,8,9,10,11,12,13,14,18]}],"bufferViews":[{"buffer":0,"byteOffset":0,"byteLength":288,"target":34962,"byteStride":12},{"buffer":0,"byteOffset":288,"byteLength":288,"target":34962,"byteStride":12},{"buffer":0,"byteOffset":576,"byteLength":192,"target":34962,"byteStride":8},{"buffer":0,"byteOffset":768,"byteLength":48,"target":34963},{"buffer":0,"byteOffset":816,"byteLength":288,"target":34962,"byteStride":12},{"buffer":0,"byteOffset":1104,"byteLength":288,"target":34962,"byteStride":12},{"buffer":0,"byteOffset":1392,"byteLength":192,"target":34962,"byteStride":8},{"buffer":0,"byteOffset":1584,"byteLength":48,"target":34963},{"buffer":0,"byteOffset":1632,"byteLength":288,"target":34962,"byteStride":12},{"buffer":0,"byteOffset":1920,"byteLength":288,"target":34962,"byteStride":12},{"buffer":0,"byteOffset":2208,"byteLength":192,"target":34962,"byteStride":8},{"buffer":0,"byteOffset":2400,"byteLength":48,"target":34963},{"buffer":0,"byteOffset":2448,"byteLength":288,"target":34962,"byteStride":12},{"buffer":0,"byteOffset":2736,"byteLength":288,"target":34962,"byteStride":12},{"buffer":0,"byteOffset":3024,"byteLength":192,"target":34962,"byteStride":8},{"buffer":0,"byteOffset":3216,"byteLength":48,"target":34963},{"buffer":0,"byteOffset":3264,"byteLength":288,"target":34962,"byteStride":12},{"buffer":0,"byteOffset":3552,"byteLength":288,"target":34962,"byteStride":12},{"buffer":0,"byteOffset":3840,"byteLength":192,"target":34962,"byteStride":8},{"buffer":0,"byteOffset":4032,"byteLength":48,"target":34963},{"buffer":0,"byteOffset":4080,"byteLength":288,"target":34962,"byteStride":12},{"buffer":0,"byteOffset":4368,"byteLength":288,"target":34962,"byteStride":12},{"buffer":0,"byteOffset":4656,"byteLength":192,"target":34962,"byteStride":8},{"buffer":0,"byteOffset":4848,"byteLength":48,"target":34963},{"buffer":0,"byteOffset":4896,"byteLength":288,"target":34962,"byteStride":12},{"buffer":0,"byteOffset":5184,"byteLength":288,"target":34962,"byteStride":12},{"buffer":0,"byteOffset":5472,"byteLength":192,"target":34962,"byteStride":8},{"buffer":0,"byteOffset":5664,"byteLength":72,"target":34963},{"buffer":0,"byteOffset":5736,"byteLength":288,"target":34962,"byteStride":12},{"buffer":0,"byteOffset":6024,"byteLength":288,"target":34962,"byteStride":12},{"buffer":0,"byteOffset":6312,"byteLength":192,"target":34962,"byteStride":8},{"buffer":0,"byteOffset":6504,"byteLength":72,"target":34963},{"buffer":0,"byteOffset":6576,"byteLength":288,"target":34962,"byteStride":12},{"buffer":0,"byteOffset":6864,"byteLength":288,"target":34962,"byteStride":12},{"buffer":0,"byteOffset":7152,"byteLength":192,"target":34962,"byteStride":8},{"buffer":0,"byteOffset":7344,"byteLength":48,"target":34963},{"buffer":0,"byteOffset":7392,"byteLength":288,"target":34962,"byteStride":12},{"buffer":0,"byteOffset":7680,"byteLength":288,"target":34962,"byteStride":12},{"buffer":0,"byteOffset":7968,"byteLength":192,"target":34962,"byteStride":8},{"buffer":0,"byteOffset":8160,"byteLength":48,"target":34963},{"buffer":0,"byteOffset":8208,"byteLength":288,"target":34962,"byteStride":12},{"buffer":0,"byteOffset":8496,"byteLength":288,"target":34962,"byteStride":12},{"buffer":0,"byteOffset":8784,"byteLength":192,"target":34962,"byteStride":8},{"buffer":0,"byteOffset":8976,"byteLength":72,"target":34963},{"buffer":0,"byteOffset":9048,"byteLength":288,"target":34962,"byteStride":12},{"buffer":0,"byteOffset":9336,"byteLength":288,"target":34962,"byteStride":12},{"buffer":0,"byteOffset":9624,"byteLength":192,"target":34962,"byteStride":8},{"buffer":0,"byteOffset":9816,"byteLength":72,"target":34963},{"buffer":0,"byteOffset":9888,"byteLength":288,"target":34962,"byteStride":12},{"buffer":0,"byteOffset":10176,"byteLength":288,"target":34962,"byteStride":12},{"buffer":0,"byteOffset":10464,"byteLength":192,"target":34962,"byteStride":8},{"buffer":0,"byteOffset":10656,"byteLength":48,"target":34963},{"buffer":0,"byteOffset":10704,"byteLength":288,"target":34962,"byteStride":12},{"buffer":0,"byteOffset":10992,"byteLength":288,"target":34962,"byteStride":12},{"buffer":0,"byteOffset":11280,"byteLength":192,"target":34962,"byteStride":8},{"buffer":0,"byteOffset":11472,"byteLength":48,"target":34963},{"buffer":0,"byteOffset":11520,"byteLength":288,"target":34962,"byteStride":12},{"buffer":0,"byteOffset":11808,"byteLength":288,"target":34962,"byteStride":12},{"buffer":0,"byteOffset":12096,"byteLength":192,"target":34962,"byteStride":8},{"buffer":0,"byteOffset":12288,"byteLength":24,"target":34963}],"buffers":[{"byteLength":12312,"uri":"data:application/octet-stream;base64,"}],"accessors":[{"bufferView":0,"componentType":5126,"count":24,"max":[0.05065937340259552,0.75,0.05383312329649925],"min":[-0.052246250212192535,-0.75,-0.05285625159740448],"type":"VEC3"},{"bufferView":1,"componentType":5126,"count":24,"max":[1,1,1],"min":[-1,-1,-1],"type":"VEC3"},{"bufferView":2,"componentType":5126,"count":24,"max":[1,1],"min":[0,0],"type":"VEC2"},{"bufferView":3,"componentType":5123,"count":24,"max":[23],"min":[0],"type":"SCALAR"},{"bufferView":4,"componentType":5126,"count":24,"max":[0.05065937340259552,0.75,0.05383312329649925],"min":[-0.052246250212192535,-0.75,-0.05285625159740448],"type":"VEC3"},{"bufferView":5,"componentType":5126,"count":24,"max":[1,1,1],"min":[-1,-1,-1],"type":"VEC3"},{"bufferView":6,"componentType":5126,"count":24,"max":[1,1],"min":[0,0],"type":"VEC2"},{"bufferView":7,"componentType":5123,"count":24,"max":[23],"min":[0],"type":"SCALAR"},{"bufferView":8,"componentType":5126,"count":24,"max":[0.05065937340259552,0.75,0.05383312329649925],"min":[-0.052246250212192535,-0.75,-0.05285625159740448],"type":"VEC3"},{"bufferView":9,"componentType":5126,"count":24,"max":[1,1,1],"min":[-1,-1,-1],"type":"VEC3"},{"bufferView":10,"componentType":5126,"count":24,"max":[1,1],"min":[0,0],"type":"VEC2"},{"bufferView":11,"componentType":5123,"count":24,"max":[23],"min":[0],"type":"SCALAR"},{"bufferView":12,"componentType":5126,"count":24,"max":[0.05065937340259552,0.75,0.05383312329649925],"min":[-0.052246250212192535,-0.75,-0.05285625159740448],"type":"VEC3"},{"bufferView":13,"componentType":5126,"count":24,"max":[1,1,1],"min":[-1,-1,-1],"type":"VEC3"},{"bufferView":14,"componentType":5126,"count":24,"max":[1,1],"min":[0,0],"type":"VEC2"},{"bufferView":15,"componentType":5123,"count":24,"max":[23],"min":[0],"type":"SCALAR"},{"bufferView":16,"componentType":5126,"count":24,"max":[1.25,0.03125,0.03125],"min":[-0.25,-0.03125,-0.03125],"type":"VEC3"},{"bufferView":17,"componentType":5126,"count":24,"max":[1,1,1],"min":[-1,-1,-1],"type":"VEC3"},{"bufferView":18,"componentType":5126,"count":24,"max":[1,1],"min":[0,0],"type":"VEC2"},{"bufferView":19,"componentType":5123,"count":24,"max":[23],"min":[8],"type":"SCALAR"},{"bufferView":20,"componentType":5126,"count":24,"max":[0.8374999761581421,0.03750000149011612,0.03750000149011612],"min":[-0.06875000149011612,-0.03750000149011612,-0.03750000149011612],"type":"VEC3"},{"bufferView":21,"componentType":5126,"count":24,"max":[1,1,1],"min":[-1,-1,-1],"type":"VEC3"},{"bufferView":22,"componentType":5126,"count":24,"max":[1,1],"min":[0,0],"type":"VEC2"},{"bufferView":23,"componentType":5123,"count":24,"max":[23],"min":[8],"type":"SCALAR"},{"bufferView":24,"componentType":5126,"count":24,"max":[0.0469062514603138,0.75,0.046875],"min":[-0.046875,-0.75,-0.046875],"type":"VEC3"},{"bufferView":25,"componentType":5126,"count":24,"max":[1,1,1],"min":[-1,-1,-1],"type":"VEC3"},{"bufferView":26,"componentType":5126,"count":24,"max":[0.39453125,0.1875],"min":[0.3203125,0],"type":"VEC2"},{"bufferView":27,"componentType":5123,"count":36,"max":[23],"min":[0],"type":"SCALAR"},{"bufferView":28,"componentType":5126,"count":24,"max":[0.046875,0.75,0.046875],"min":[-0.046875,-0.75,-0.046875],"type":"VEC3"},{"bufferView":29,"componentType":5126,"count":24,"max":[1,1,1],"min":[-1,-1,-1],"type":"VEC3"},{"bufferView":30,"componentType":5126,"count":24,"max":[0.39453125,0.1875],"min":[0.3203125,0],"type":"VEC2"},{"bufferView":31,"componentType":5123,"count":36,"max":[23],"min":[0],"type":"SCALAR"},{"bufferView":32,"componentType":5126,"count":24,"max":[0.06875000149011612,0.06875000149011612,0.13124999403953552],"min":[-0.06875000149011612,-0.0062500000931322575,-0.0062500000931322575],"type":"VEC3"},{"bufferView":33,"componentType":5126,"count":24,"max":[1,1,1],"min":[-1,-1,-1],"type":"VEC3"},{"bufferView":34,"componentType":5126,"count":24,"max":[1,1],"min":[0,0],"type":"VEC2"},{"bufferView":35,"componentType":5123,"count":24,"max":[23],"min":[0],"type":"SCALAR"},{"bufferView":36,"componentType":5126,"count":24,"max":[0.06875000149011612,0.06875000149011612,0.13124999403953552],"min":[-0.06875000149011612,-0.0062500000931322575,-0.0062500000931322575],"type":"VEC3"},{"bufferView":37,"componentType":5126,"count":24,"max":[1,1,1],"min":[-1,-1,-1],"type":"VEC3"},{"bufferView":38,"componentType":5126,"count":24,"max":[1,1],"min":[0,0],"type":"VEC2"},{"bufferView":39,"componentType":5123,"count":24,"max":[23],"min":[0],"type":"SCALAR"},{"bufferView":40,"componentType":5126,"count":24,"max":[0.0469062514603138,0.75,0.046875],"min":[-0.046875,-0.75,-0.046875],"type":"VEC3"},{"bufferView":41,"componentType":5126,"count":24,"max":[1,1,1],"min":[-1,-1,-1],"type":"VEC3"},{"bufferView":42,"componentType":5126,"count":24,"max":[0.39453125,0.1875],"min":[0.3203125,0],"type":"VEC2"},{"bufferView":43,"componentType":5123,"count":36,"max":[23],"min":[0],"type":"SCALAR"},{"bufferView":44,"componentType":5126,"count":24,"max":[0.046875,0.75,0.046875],"min":[-0.046875,-0.75,-0.046875],"type":"VEC3"},{"bufferView":45,"componentType":5126,"count":24,"max":[1,1,1],"min":[-1,-1,-1],"type":"VEC3"},{"bufferView":46,"componentType":5126,"count":24,"max":[0.39453125,0.1875],"min":[0.3203125,0],"type":"VEC2"},{"bufferView":47,"componentType":5123,"count":36,"max":[23],"min":[0],"type":"SCALAR"},{"bufferView":48,"componentType":5126,"count":24,"max":[0.06875000149011612,0.06875000149011612,0.13124999403953552],"min":[-0.06875000149011612,-0.0062500000931322575,-0.0062500000931322575],"type":"VEC3"},{"bufferView":49,"componentType":5126,"count":24,"max":[1,1,1],"min":[-1,-1,-1],"type":"VEC3"},{"bufferView":50,"componentType":5126,"count":24,"max":[1,1],"min":[0,0],"type":"VEC2"},{"bufferView":51,"componentType":5123,"count":24,"max":[23],"min":[0],"type":"SCALAR"},{"bufferView":52,"componentType":5126,"count":24,"max":[0.06875000149011612,0.06875000149011612,0.13124999403953552],"min":[-0.06875000149011612,-0.0062500000931322575,-0.0062500000931322575],"type":"VEC3"},{"bufferView":53,"componentType":5126,"count":24,"max":[1,1,1],"min":[-1,-1,-1],"type":"VEC3"},{"bufferView":54,"componentType":5126,"count":24,"max":[1,1],"min":[0,0],"type":"VEC2"},{"bufferView":55,"componentType":5123,"count":24,"max":[23],"min":[0],"type":"SCALAR"},{"bufferView":56,"componentType":5126,"count":24,"max":[0.65625,0.609375,0.0000625000029685907],"min":[-0.65625,-0.609375,0],"type":"VEC3"},{"bufferView":57,"componentType":5126,"count":24,"max":[1,1,1],"min":[-1,-1,-1],"type":"VEC3"},{"bufferView":58,"componentType":5126,"count":24,"max":[1,1],"min":[0,0],"type":"VEC2"},{"bufferView":59,"componentType":5123,"count":12,"max":[23],"min":[16],"type":"SCALAR"}],"materials":[{"pbrMetallicRoughness":{"metallicFactor":0,"roughnessFactor":1,"baseColorTexture":{"index":0}},"alphaMode":"MASK","alphaCutoff":0.05}],"textures":[{"sampler":0,"source":0}],"samplers":[{"magFilter":9728,"minFilter":9728,"wrapS":33071,"wrapT":33071}],"images":[{"mimeType":"image/png","uri":"data:image/png;base64,"}],"meshes":[{"primitives":[{"mode":4,"attributes":{"POSITION":0,"NORMAL":1,"TEXCOORD_0":2},"indices":3,"material":0}]},{"primitives":[{"mode":4,"attributes":{"POSITION":4,"NORMAL":5,"TEXCOORD_0":6},"indices":7,"material":0}]},{"primitives":[{"mode":4,"attributes":{"POSITION":8,"NORMAL":9,"TEXCOORD_0":10},"indices":11,"material":0}]},{"primitives":[{"mode":4,"attributes":{"POSITION":12,"NORMAL":13,"TEXCOORD_0":14},"indices":15,"material":0}]},{"primitives":[{"mode":4,"attributes":{"POSITION":16,"NORMAL":17,"TEXCOORD_0":18},"indices":19,"material":0}]},{"primitives":[{"mode":4,"attributes":{"POSITION":20,"NORMAL":21,"TEXCOORD_0":22},"indices":23,"material":0}]},{"primitives":[{"mode":4,"attributes":{"POSITION":24,"NORMAL":25,"TEXCOORD_0":26},"indices":27,"material":0}]},{"primitives":[{"mode":4,"attributes":{"POSITION":28,"NORMAL":29,"TEXCOORD_0":30},"indices":31,"material":0}]},{"primitives":[{"mode":4,"attributes":{"POSITION":32,"NORMAL":33,"TEXCOORD_0":34},"indices":35,"material":0}]},{"primitives":[{"mode":4,"attributes":{"POSITION":36,"NORMAL":37,"TEXCOORD_0":38},"indices":39,"material":0}]},{"primitives":[{"mode":4,"attributes":{"POSITION":40,"NORMAL":41,"TEXCOORD_0":42},"indices":43,"material":0}]},{"primitives":[{"mode":4,"attributes":{"POSITION":44,"NORMAL":45,"TEXCOORD_0":46},"indices":47,"material":0}]},{"primitives":[{"mode":4,"attributes":{"POSITION":48,"NORMAL":49,"TEXCOORD_0":50},"indices":51,"material":0}]},{"primitives":[{"mode":4,"attributes":{"POSITION":52,"NORMAL":53,"TEXCOORD_0":54},"indices":55,"material":0}]},{"primitives":[{"mode":4,"attributes":{"POSITION":56,"NORMAL":57,"TEXCOORD_0":58},"indices":59,"material":0}]}]}