{"asset":{"version":"2.0","generator":"Blockbench 4.12.4 glTF exporter"},"scenes":[{"nodes":[29],"name":"blockbench_export"}],"scene":0,"nodes":[{"rotation":[-0.19509032201612825,0,0,0.9807852804032304],"translation":[-0.203125,0.46411125,0.574096875],"name":"cube","mesh":0},{"rotation":[-0.19509032201612825,0,0,0.9807852804032304],"translation":[0.703125,0.46411125,0.574096875],"name":"cube","mesh":1},{"rotation":[0.19509032201612825,0,0,0.9807852804032304],"translation":[0.703125,0.46411125,0.425903125],"name":"cube","mesh":2},{"rotation":[0.19509032201612825,0,0,0.9807852804032304],"translation":[-0.203125,0.46411125,0.425903125],"name":"cube","mesh":3},{"rotation":[-0.19509032201612825,0,0,0.9807852804032304],"translation":[0.609375,0.46411125,0.59375],"name":"cube","mesh":4},{"rotation":[0.19509032201612825,0,0,0.9807852804032304],"translation":[0.25,0.313775625,0.36089125],"name":"cube","mesh":5},{"translation":[-0.25,0.59375,0.421875],"name":"cube","mesh":6},{"translation":[0,0.625,0.546875],"name":"cube","mesh":7},{"translation":[0.21875,0.625,0.546875],"name":"cube","mesh":8},{"translation":[0.4375,0.625,0.546875],"name":"cube","mesh":9},{"translation":[-0.07923,0.67194,0.422933125],"name":"cube","mesh":10},{"translation":[-0.07923,0.67194,0.422933125],"name":"cube","mesh":11},{"translation":[-0.07923,0.67194,0.422933125],"name":"cube","mesh":12},{"rotation":[0,0,0.3826834323650898,0.9238795325112867],"translation":[-0.07923,0.67194,0.422933125],"name":"cube","mesh":13},{"translation":[-0.07923,0.67194,0.422933125],"name":"cube","mesh":14},{"translation":[0.13952,0.67194,0.422933125],"name":"cube","mesh":15},{"translation":[0.13952,0.67194,0.422933125],"name":"cube","mesh":16},{"translation":[0.13952,0.67194,0.422933125],"name":"cube","mesh":17},{"rotation":[0,0,0.3826834323650898,0.9238795325112867],"translation":[0.13952,0.67194,0.422933125],"name":"cube","mesh":18},{"translation":[0.13952,0.67194,0.422933125],"name":"cube","mesh":19},{"translation":[0.57702,0.67194,0.422933125],"name":"cube","mesh":20},{"translation":[0.57702,0.67194,0.422933125],"name":"cube","mesh":21},{"translation":[0.57702,0.67194,0.422933125],"name":"cube","mesh":22},{"rotation":[0,0,0.3826834323650898,0.9238795325112867],"translation":[0.57702,0.67194,0.422933125],"name":"cube","mesh":23},{"translation":[0.57702,0.67194,0.422933125],"name":"cube","mesh":24},{"name":"group"},{"name":"group","children":[25]},{"translation":[-0.533470625,-1.125,0.5334706250000001],"name":"group","children":[26]},{"translation":[0.5,0.5,0.5],"name":"group","children":[27]},{"children":[0,1,2,3,4,5,6,7,8,9,10,11,12,13,14,15,16,17,18,19,20,21,22,23,24,28]}],"bufferViews":[{"buffer":0,"byteOffset":0,"byteLength":288,"target":34962,"byteStride":12},{"buffer":0,"byteOffset":288,"byteLength":288,"target":34962,"byteStride":12},{"buffer":0,"byteOffset":576,"byteLength":192,"target":34962,"byteStride":8},{"buffer":0,"byteOffset":768,"byteLength":60,"target":34963},{"buffer":0,"byteOffset":828,"byteLength":288,"target":34962,"byteStride":12},{"buffer":0,"byteOffset":1116,"byteLength":288,"target":34962,"byteStride":12},{"buffer":0,"byteOffset":1404,"byteLength":192,"target":34962,"byteStride":8},{"buffer":0,"byteOffset":1596,"byteLength":60,"target":34963},{"buffer":0,"byteOffset":1656,"byteLength":288,"target":34962,"byteStride":12},{"buffer":0,"byteOffset":1944,"byteLength":288,"target":34962,"byteStride":12},{"buffer":0,"byteOffset":2232,"byteLength":192,"target":34962,"byteStride":8},{"buffer":0,"byteOffset":2424,"byteLength":60,"target":34963},{"buffer":0,"byteOffset":2484,"byteLength":288,"target":34962,"byteStride":12},{"buffer":0,"byteOffset":2772,"byteLength":288,"target":34962,"byteStride":12},{"buffer":0,"byteOffset":3060,"byteLength":192,"target":34962,"byteStride":8},{"buffer":0,"byteOffset":3252,"byteLength":60,"target":34963},{"buffer":0,"byteOffset":3312,"byteLength":288,"target":34962,"byteStride":12},{"buffer":0,"byteOffset":3600,"byteLength":288,"target":34962,"byteStride":12},{"buffer":0,"byteOffset":3888,"byteLength":192,"target":34962,"byteStride":8},{"buffer":0,"byteOffset":4080,"byteLength":48,"target":34963},{"buffer":0,"byteOffset":4128,"byteLength":288,"target":34962,"byteStride":12},{"buffer":0,"byteOffset":4416,"byteLength":288,"target":34962,"byteStride":12},{"buffer":0,"byteOffset":4704,"byteLength":192,"target":34962,"byteStride":8},{"buffer":0,"byteOffset":4896,"byteLength":48,"target":34963},{"buffer":0,"byteOffset":4944,"byteLength":288,"target":34962,"byteStride":12},{"buffer":0,"byteOffset":5232,"byteLength":288,"target":34962,"byteStride":12},{"buffer":0,"byteOffset":5520,"byteLength":192,"target":34962,"byteStride":8},{"buffer":0,"byteOffset":5712,"byteLength":72,"target":34963},{"buffer":0,"byteOffset":5784,"byteLength":288,"target":34962,"byteStride":12},{"buffer":0,"byteOffset":6072,"byteLength":288,"target":34962,"byteStride":12},{"buffer":0,"byteOffset":6360,"byteLength":192,"target":34962,"byteStride":8},{"buffer":0,"byteOffset":6552,"byteLength":72,"target":34963},{"buffer":0,"byteOffset":6624,"byteLength":288,"target":34962,"byteStride":12},{"buffer":0,"byteOffset":6912,"byteLength":288,"target":34962,"byteStride":12},{"buffer":0,"byteOffset":7200,"byteLength":192,"target":34962,"byteStride":8},{"buffer":0,"byteOffset":7392,"byteLength":72,"target":34963},{"buffer":0,"byteOffset":7464,"byteLength":288,"target":34962,"byteStride":12},{"buffer":0,"byteOffset":7752,"byteLength":288,"target":34962,"byteStride":12},{"buffer":0,"byteOffset":8040,"byteLength":192,"target":34962,"byteStride":8},{"buffer":0,"byteOffset":8232,"byteLength":72,"target":34963},{"buffer":0,"byteOffset":8304,"byteLength":288,"target":34962,"byteStride":12},{"buffer":0,"byteOffset":8592,"byteLength":288,"target":34962,"byteStride":12},{"buffer":0,"byteOffset":8880,"byteLength":192,"target":34962,"byteStride":8},{"buffer":0,"byteOffset":9072,"byteLength":72,"target":34963},{"buffer":0,"byteOffset":9144,"byteLength":288,"target":34962,"byteStride":12},{"buffer":0,"byteOffset":9432,"byteLength":288,"target":34962,"byteStride":12},{"buffer":0,"byteOffset":9720,"byteLength":192,"target":34962,"byteStride":8},{"buffer":0,"byteOffset":9912,"byteLength":48,"target":34963},{"buffer":0,"byteOffset":9960,"byteLength":288,"target":34962,"byteStride":12},{"buffer":0,"byteOffset":10248,"byteLength":288,"target":34962,"byteStride":12},{"buffer":0,"byteOffset":10536,"byteLength":192,"target":34962,"byteStride":8},{"buffer":0,"byteOffset":10728,"byteLength":72,"target":34963},{"buffer":0,"byteOffset":10800,"byteLength":288,"target":34962,"byteStride":12},{"buffer":0,"byteOffset":11088,"byteLength":288,"target":34962,"byteStride":12},{"buffer":0,"byteOffset":11376,"byteLength":192,"target":34962,"byteStride":8},{"buffer":0,"byteOffset":11568,"byteLength":72,"target":34963},{"buffer":0,"byteOffset":11640,"byteLength":288,"target":34962,"byteStride":12},{"buffer":0,"byteOffset":11928,"byteLength":288,"target":34962,"byteStride":12},{"buffer":0,"byteOffset":12216,"byteLength":192,"target":34962,"byteStride":8},{"buffer":0,"byteOffset":12408,"byteLength":72,"target":34963},{"buffer":0,"byteOffset":12480,"byteLength":288,"target":34962,"byteStride":12},{"buffer":0,"byteOffset":12768,"byteLength":288,"target":34962,"byteStride":12},{"buffer":0,"byteOffset":13056,"byteLength":192,"target":34962,"byteStride":8},{"buffer":0,"byteOffset":13248,"byteLength":72,"target":34963},{"buffer":0,"byteOffset":13320,"byteLength":288,"target":34962,"byteStride":12},{"buffer":0,"byteOffset":13608,"byteLength":288,"target":34962,"byteStride":12},{"buffer":0,"byteOffset":13896,"byteLength":192,"target":34962,"byteStride":8},{"buffer":0,"byteOffset":14088,"byteLength":48,"target":34963},{"buffer":0,"byteOffset":14136,"byteLength":288,"target":34962,"byteStride":12},{"buffer":0,"byteOffset":14424,"byteLength":288,"target":34962,"byteStride":12},{"buffer":0,"byteOffset":14712,"byteLength":192,"target":34962,"byteStride":8},{"buffer":0,"byteOffset":14904,"byteLength":72,"target":34963},{"buffer":0,"byteOffset":14976,"byteLength":288,"target":34962,"byteStride":12},{"buffer":0,"byteOffset":15264,"byteLength":288,"target":34962,"byteStride":12},{"buffer":0,"byteOffset":15552,"byteLength":192,"target":34962,"byteStride":8},{"buffer":0,"byteOffset":15744,"byteLength":72,"target":34963},{"buffer":0,"byteOffset":15816,"byteLength":288,"target":34962,"byteStride":12},{"buffer":0,"byteOffset":16104,"byteLength":288,"target":34962,"byteStride":12},{"buffer":0,"byteOffset":16392,"byteLength":192,"target":34962,"byteStride":8},{"buffer":0,"byteOffset":16584,"byteLength":72,"target":34963},{"buffer":0,"byteOffset":16656,"byteLength":288,"target":34962,"byteStride":12},{"buffer":0,"byteOffset":16944,"byteLength":288,"target":34962,"byteStride":12},{"buffer":0,"byteOffset":17232,"byteLength":192,"target":34962,"byteStride":8},{"buffer":0,"byteOffset":17424,"byteLength":72,"target":34963},{"buffer":0,"byteOffset":17496,"byteLength":288,"target":34962,"byteStride":12},{"buffer":0,"byteOffset":17784,"byteLength":288,"target":34962,"byteStride":12},{"buffer":0,"byteOffset":18072,"byteLength":192,"target":34962,"byteStride":8},{"buffer":0,"byteOffset":18264,"byteLength":48,"target":34963},{"buffer":0,"byteOffset":18312,"byteLength":288,"target":34962,"byteStride":12},{"buffer":0,"byteOffset":18600,"byteLength":288,"target":34962,"byteStride":12},{"buffer":0,"byteOffset":18888,"byteLength":192,"target":34962,"byteStride":8},{"buffer":0,"byteOffset":19080,"byteLength":72,"target":34963},{"buffer":0,"byteOffset":19152,"byteLength":288,"target":34962,"byteStride":12},{"buffer":0,"byteOffset":19440,"byteLength":288,"target":34962,"byteStride":12},{"buffer":0,"byteOffset":19728,"byteLength":192,"target":34962,"byteStride":8},{"buffer":0,"byteOffset":19920,"byteLength":72,"target":34963},{"buffer":0,"byteOffset":19992,"byteLength":288,"target":34962,"byteStride":12},{"buffer":0,"byteOffset":20280,"byteLength":288,"target":34962,"byteStride":12},{"buffer":0,"byteOffset":20568,"byteLength":192,"target":34962,"byteStride":8},{"buffer":0,"byteOffset":20760,"byteLength":72,"target":34963}],"buffers":[{"byteLength":20832,"uri":"data:application/octet-stream;base64,"}],"accessors":[{"bufferView":0,"componentType":5126,"count":24,"max":[0.046875,0.1875,0.046875],"min":[-0.046875,-0.25,-0.046875],"type":"VEC3"},{"bufferView":1,"componentType":5126,"count":24,"max":[1,1,1],"min":[-1,-1,-1],"type":"VEC3"},{"bufferView":2,"componentType":5126,"count":24,"max":[1,1],"min":[0,0],"type":"VEC2"},{"bufferView":3,"componentType":5123,"count":30,"max":[23],"min":[0],"type":"SCALAR"},{"bufferView":4,"componentType":5126,"count":24,"max":[0.046875,0.1875,0.046875],"min":[-0.046875,-0.25,-0.046875],"type":"VEC3"},{"bufferView":5,"componentType":5126,"count":24,"max":[1,1,1],"min":[-1,-1,-1],"type":"VEC3"},{"bufferView":6,"componentType":5126,"count":24,"max":[1,1],"min":[0,0],"type":"VEC2"},{"bufferView":7,"componentType":5123,"count":30,"max":[23],"min":[0],"type":"SCALAR"},{"bufferView":8,"componentType":5126,"count":24,"max":[0.046875,0.1875,0.046875],"min":[-0.046875,-0.25,-0.046875],"type":"VEC3"},{"bufferView":9,"componentType":5126,"count":24,"max":[1,1,1],"min":[-1,-1,-1],"type":"VEC3"},{"bufferView":10,"componentType":5126,"count":24,"max":[1,1],"min":[0,0],"type":"VEC2"},{"bufferView":11,"componentType":5123,"count":30,"max":[23],"min":[0],"type":"SCALAR"},{"bufferView":12,"componentType":5126,"count":24,"max":[0.046875,0.1875,0.046875],"min":[-0.046875,-0.25,-0.046875],"type":"VEC3"},{"bufferView":13,"componentType":5126,"count":24,"max":[1,1,1],"min":[-1,-1,-1],"type":"VEC3"},{"bufferView":14,"componentType":5126,"count":24,"max":[1,1],"min":[0,0],"type":"VEC2"},{"bufferView":15,"componentType":5123,"count":30,"max":[23],"min":[0],"type":"SCALAR"},{"bufferView":16,"componentType":5126,"count":24,"max":[0.046875,-0.125,0.015625],"min":[-0.765625,-0.1875,-0.046875],"type":"VEC3"},{"bufferView":17,"componentType":5126,"count":24,"max":[1,1,1],"min":[-1,-1,-1],"type":"VEC3"},{"bufferView":18,"componentType":5126,"count":24,"max":[1,1],"min":[0,0],"type":"VEC2"},{"bufferView":19,"componentType":5123,"count":24,"max":[23],"min":[8],"type":"SCALAR"},{"bufferView":20,"componentType":5126,"count":24,"max":[0.40625,0.03125,0.03125],"min":[-0.40625,-0.03125,-0.03125],"type":"VEC3"},{"bufferView":21,"componentType":5126,"count":24,"max":[1,1,1],"min":[-1,-1,-1],"type":"VEC3"},{"bufferView":22,"componentType":5126,"count":24,"max":[1,1],"min":[0,0],"type":"VEC2"},{"bufferView":23,"componentType":5123,"count":24,"max":[23],"min":[8],"type":"SCALAR"},{"bufferView":24,"componentType":5126,"count":24,"max":[1.03125,0.125,0.125],"min":[-0.03125,0,0.03125],"type":"VEC3"},{"bufferView":25,"componentType":5126,"count":24,"max":[1,1,1],"min":[-1,-1,-1],"type":"VEC3"},{"bufferView":26,"componentType":5126,"count":24,"max":[0.984375,0.17578125],"min":[0.75,0.13671875],"type":"VEC2"},{"bufferView":27,"componentType":5123,"count":36,"max":[23],"min":[0],"type":"SCALAR"},{"bufferView":28,"componentType":5126,"count":24,"max":[0.0625,0.0625,0.0625],"min":[0,0,-0.15625],"type":"VEC3"},{"bufferView":29,"componentType":5126,"count":24,"max":[1,1,1],"min":[-1,-1,-1],"type":"VEC3"},{"bufferView":30,"componentType":5126,"count":24,"max":[0.91796875,0.07421875],"min":[0.87890625,0.06640625],"type":"VEC2"},{"bufferView":31,"componentType":5123,"count":36,"max":[23],"min":[0],"type":"SCALAR"},{"bufferView":32,"componentType":5126,"count":24,"max":[0.0625,0.0625,0.0625],"min":[0,0,-0.15625],"type":"VEC3"},{"bufferView":33,"componentType":5126,"count":24,"max":[1,1,1],"min":[-1,-1,-1],"type":"VEC3"},{"bufferView":34,"componentType":5126,"count":24,"max":[0.91796875,0.07421875],"min":[0.87890625,0.06640625],"type":"VEC2"},{"bufferView":35,"componentType":5123,"count":36,"max":[23],"min":[0],"type":"SCALAR"},{"bufferView":36,"componentType":5126,"count":24,"max":[0.0625,0.0625,0.0625],"min":[0,0,-0.15625],"type":"VEC3"},{"bufferView":37,"componentType":5126,"count":24,"max":[1,1,1],"min":[-1,-1,-1],"type":"VEC3"},{"bufferView":38,"componentType":5126,"count":24,"max":[0.91796875,0.07421875],"min":[0.87890625,0.06640625],"type":"VEC2"},{"bufferView":39,"componentType":5123,"count":36,"max":[23],"min":[0],"type":"SCALAR"},{"bufferView":40,"componentType":5126,"count":24,"max":[0.046870000660419464,0.40618500113487244,0.046927500516176224],"min":[-0.046879999339580536,0.34368500113487244,-0.046822499483823776],"type":"VEC3"},{"bufferView":41,"componentType":5126,"count":24,"max":[1,1,1],"min":[-1,-1,-1],"type":"VEC3"},{"bufferView":42,"componentType":5126,"count":24,"max":[0.90234375,0.0390625],"min":[0.875,0.015625],"type":"VEC2"},{"bufferView":43,"componentType":5123,"count":36,"max":[23],"min":[0],"type":"SCALAR"},{"bufferView":44,"componentType":5126,"count":24,"max":[0.031245000660419464,0.34365373849868774,0.031302500516176224],"min":[-0.031254999339580536,0.12490375339984894,-0.031197499483823776],"type":"VEC3"},{"bufferView":45,"componentType":5126,"count":24,"max":[1,1,1],"min":[-1,-1,-1],"type":"VEC3"},{"bufferView":46,"componentType":5126,"count":24,"max":[1,1],"min":[0,0],"type":"VEC2"},{"bufferView":47,"componentType":5123,"count":24,"max":[23],"min":[0],"type":"SCALAR"},{"bufferView":48,"componentType":5126,"count":24,"max":[0.046870000660419464,0.09368500113487244,0.015677500516176224],"min":[-0.046879999339580536,-0.37506499886512756,-0.01557250041514635],"type":"VEC3"},{"bufferView":49,"componentType":5126,"count":24,"max":[1,1,1],"min":[-1,-1,-1],"type":"VEC3"},{"bufferView":50,"componentType":5126,"count":24,"max":[0.87109375,0.0625],"min":[0.859375,0.00390625],"type":"VEC2"},{"bufferView":51,"componentType":5123,"count":36,"max":[23],"min":[0],"type":"SCALAR"},{"bufferView":52,"componentType":5126,"count":24,"max":[-0.23186999559402466,-0.2320612519979477,0.01531125046312809],"min":[-0.2983599901199341,-0.2981856167316437,-0.015416249632835388],"type":"VEC3"},{"bufferView":53,"componentType":5126,"count":24,"max":[1,1,1],"min":[-1,-1,-1],"type":"VEC3"},{"bufferView":54,"componentType":5126,"count":24,"max":[0.8833112716674805,0.01217186450958252],"min":[0.875,0.00390625],"type":"VEC2"},{"bufferView":55,"componentType":5123,"count":36,"max":[23],"min":[0],"type":"SCALAR"},{"bufferView":56,"componentType":5126,"count":24,"max":[0.046870000660419464,0.12493500113487244,0.046927500516176224],"min":[-0.046879999339580536,0.09368500113487244,-0.046822499483823776],"type":"VEC3"},{"bufferView":57,"componentType":5126,"count":24,"max":[1,1,1],"min":[-1,-1,-1],"type":"VEC3"},{"bufferView":58,"componentType":5126,"count":24,"max":[0.8984375,0.0390625],"min":[0.875,0.015625],"type":"VEC2"},{"bufferView":59,"componentType":5123,"count":36,"max":[23],"min":[0],"type":"SCALAR"},{"bufferView":60,"componentType":5126,"count":24,"max":[0.046870000660419464,0.40618500113487244,0.046927500516176224],"min":[-0.04688062518835068,0.34368500113487244,-0.046822499483823776],"type":"VEC3"},{"bufferView":61,"componentType":5126,"count":24,"max":[1,1,1],"min":[-1,-1,-1],"type":"VEC3"},{"bufferView":62,"componentType":5126,"count":24,"max":[0.90234375,0.0390625],"min":[0.875,0.015625],"type":"VEC2"},{"bufferView":63,"componentType":5123,"count":36,"max":[23],"min":[0],"type":"SCALAR"},{"bufferView":64,"componentType":5126,"count":24,"max":[0.031245000660419464,0.34365373849868774,0.031302500516176224],"min":[-0.03125562518835068,0.12490375339984894,-0.031197499483823776],"type":"VEC3"},{"bufferView":65,"componentType":5126,"count":24,"max":[1,1,1],"min":[-1,-1,-1],"type":"VEC3"},{"bufferView":66,"componentType":5126,"count":24,"max":[1,1],"min":[0,0],"type":"VEC2"},{"bufferView":67,"componentType":5123,"count":24,"max":[23],"min":[0],"type":"SCALAR"},{"bufferView":68,"componentType":5126,"count":24,"max":[0.046870000660419464,0.09368500113487244,0.015677500516176224],"min":[-0.04688062518835068,-0.37506499886512756,-0.01557250041514635],"type":"VEC3"},{"bufferView":69,"componentType":5126,"count":24,"max":[1,1,1],"min":[-1,-1,-1],"type":"VEC3"},{"bufferView":70,"componentType":5126,"count":24,"max":[0.91796875,0.0625],"min":[0.90625,0.00390625],"type":"VEC2"},{"bufferView":71,"componentType":5123,"count":36,"max":[23],"min":[0],"type":"SCALAR"},{"bufferView":72,"componentType":5126,"count":24,"max":[-0.23186999559402466,-0.2320612519979477,0.01531125046312809],"min":[-0.2983599901199341,-0.2981856167316437,-0.015416249632835388],"type":"VEC3"},{"bufferView":73,"componentType":5126,"count":24,"max":[1,1,1],"min":[-1,-1,-1],"type":"VEC3"},{"bufferView":74,"componentType":5126,"count":24,"max":[0.9301862716674805,0.01217186450958252],"min":[0.921875,0.00390625],"type":"VEC2"},{"bufferView":75,"componentType":5123,"count":36,"max":[23],"min":[0],"type":"SCALAR"},{"bufferView":76,"componentType":5126,"count":24,"max":[0.046870000660419464,0.12493500113487244,0.046927500516176224],"min":[-0.04688062518835068,0.09368500113487244,-0.046822499483823776],"type":"VEC3"},{"bufferView":77,"componentType":5126,"count":24,"max":[1,1,1],"min":[-1,-1,-1],"type":"VEC3"},{"bufferView":78,"componentType":5126,"count":24,"max":[0.8984375,0.0390625],"min":[0.875,0.015625],"type":"VEC2"},{"bufferView":79,"componentType":5123,"count":36,"max":[23],"min":[0],"type":"SCALAR"},{"bufferView":80,"componentType":5126,"count":24,"max":[0.046870000660419464,0.40618500113487244,0.046927500516176224],"min":[-0.046879999339580536,0.34368500113487244,-0.046822499483823776],"type":"VEC3"},{"bufferView":81,"componentType":5126,"count":24,"max":[1,1,1],"min":[-1,-1,-1],"type":"VEC3"},{"bufferView":82,"componentType":5126,"count":24,"max":[0.90234375,0.0390625],"min":[0.875,0.015625],"type":"VEC2"},{"bufferView":83,"componentType":5123,"count":36,"max":[23],"min":[0],"type":"SCALAR"},{"bufferView":84,"componentType":5126,"count":24,"max":[0.031245000660419464,0.34365373849868774,0.031302500516176224],"min":[-0.031254999339580536,0.12490375339984894,-0.031197499483823776],"type":"VEC3"},{"bufferView":85,"componentType":5126,"count":24,"max":[1,1,1],"min":[-1,-1,-1],"type":"VEC3"},{"bufferView":86,"componentType":5126,"count":24,"max":[1,1],"min":[0,0],"type":"VEC2"},{"bufferView":87,"componentType":5123,"count":24,"max":[23],"min":[0],"type":"SCALAR"},{"bufferView":88,"componentType":5126,"count":24,"max":[0.046870000660419464,0.09368500113487244,0.015677500516176224],"min":[-0.046879999339580536,-0.37506499886512756,-0.01557250041514635],"type":"VEC3"},{"bufferView":89,"componentType":5126,"count":24,"max":[1,1,1],"min":[-1,-1,-1],"type":"VEC3"},{"bufferView":90,"componentType":5126,"count":24,"max":[0.9453125,0.0625],"min":[0.93359375,0.00390625],"type":"VEC2"},{"bufferView":91,"componentType":5123,"count":36,"max":[23],"min":[0],"type":"SCALAR"},{"bufferView":92,"componentType":5126,"count":24,"max":[-0.23186999559402466,-0.2320612519979477,0.01531125046312809],"min":[-0.2983599901199341,-0.2981856167316437,-0.015416249632835388],"type":"VEC3"},{"bufferView":93,"componentType":5126,"count":24,"max":[1,1,1],"min":[-1,-1,-1],"type":"VEC3"},{"bufferView":94,"componentType":5126,"count":24,"max":[0.9575300216674805,0.01217186450958252],"min":[0.94921875,0.00390625],"type":"VEC2"},{"bufferView":95,"componentType":5123,"count":36,"max":[23],"min":[0],"type":"SCALAR"},{"bufferView":96,"componentType":5126,"count":24,"max":[0.046870000660419464,0.12493500113487244,0.046927500516176224],"min":[-0.046879999339580536,0.09368500113487244,-0.046822499483823776],"type":"VEC3"},{"bufferView":97,"componentType":5126,"count":24,"max":[1,1,1],"min":[-1,-1,-1],"type":"VEC3"},{"bufferView":98,"componentType":5126,"count":24,"max":[0.8984375,0.0390625],"min":[0.875,0.015625],"type":"VEC2"},{"bufferView":99,"componentType":5123,"count":36,"max":[23],"min":[0],"type":"SCALAR"}],"materials":[{"pbrMetallicRoughness":{"metallicFactor":0,"roughnessFactor":1,"baseColorTexture":{"index":0}},"alphaMode":"MASK","alphaCutoff":0.05}],"textures":[{"sampler":0,"source":0}],"samplers":[{"magFilter":9728,"minFilter":9728,"wrapS":33071,"wrapT":33071}],"images":[{"mimeType":"image/png","uri":"data:image/png;base64,"}],"meshes":[{"primitives":[{"mode":4,"attributes":{"POSITION":0,"NORMAL":1,"TEXCOORD_0":2},"indices":3,"material":0}]},{"primitives":[{"mode":4,"attributes":{"POSITION":4,"NORMAL":5,"TEXCOORD_0":6},"indices":7,"material":0}]},{"primitives":[{"mode":4,"attributes":{"POSITION":8,"NORMAL":9,"TEXCOORD_0":10},"indices":11,"material":0}]},{"primitives":[{"mode":4,"attributes":{"POSITION":12,"NORMAL":13,"TEXCOORD_0":14},"indices":15,"material":0}]},{"primitives":[{"mode":4,"attributes":{"POSITION":16,"NORMAL":17,"TEXCOORD_0":18},"indices":19,"material":0}]},{"primitives":[{"mode":4,"attributes":{"POSITION":20,"NORMAL":21,"TEXCOORD_0":22},"indices":23,"material":0}]},{"primitives":[{"mode":4,"attributes":{"POSITION":24,"NORMAL":25,"TEXCOORD_0":26},"indices":27,"material":0}]},{"primitives":[{"mode":4,"attributes":{"POSITION":28,"NORMAL":29,"TEXCOORD_0":30},"indices":31,"material":0}]},{"primitives":[{"mode":4,"attributes":{"POSITION":32,"NORMAL":33,"TEXCOORD_0":34},"indices":35,"material":0}]},{"primitives":[{"mode":4,"attributes":{"POSITION":36,"NORMAL":37,"TEXCOORD_0":38},"indices":39,"material":0}]},{"primitives":[{"mode":4,"attributes":{"POSITION":40,"NORMAL":41,"TEXCOORD_0":42},"indices":43,"material":0}]},{"primitives":[{"mode":4,"attributes":{"POSITION":44,"NORMAL":45,"TEXCOORD_0":46},"indices":47,"material":0}]},{"primitives":[{"mode":4,"attributes":{"POSITION":48,"NORMAL":49,"TEXCOORD_0":50},"indices":51,"material":0}]},{"primitives":[{"mode":4,"attributes":{"POSITION":52,"NORMAL":53,"TEXCOORD_0":54},"indices":55,"material":0}]},{"primitives":[{"mode":4,"attributes":{"POSITION":56,"NORMAL":57,"TEXCOORD_0":58},"indices":59,"material":0}]},{"primitives":[{"mode":4,"attributes":{"POSITION":60,"NORMAL":61,"TEXCOORD_0":62},"indices":63,"material":0}]},{"primitives":[{"mode":4,"attributes":{"POSITION":64,"NORMAL":65,"TEXCOORD_0":66},"indices":67,"material":0}]},{"primitives":[{"mode":4,"attributes":{"POSITION":68,"NORMAL":69,"TEXCOORD_0":70},"indices":71,"material":0}]},{"primitives":[{"mode":4,"attributes":{"POSITION":72,"NORMAL":73,"TEXCOORD_0":74},"indices":75,"material":0}]},{"primitives":[{"mode":4,"attributes":{"POSITION":76,"NORMAL":77,"TEXCOORD_0":78},"indices":79,"material":0}]},{"primitives":[{"mode":4,"attributes":{"POSITION":80,"NORMAL":81,"TEXCOORD_0":82},"indices":83,"material":0}]},{"primitives":[{"mode":4,"attributes":{"POSITION":84,"NORMAL":85,"TEXCOORD_0":86},"indices":87,"material":0}]},{"primitives":[{"mode":4,"attributes":{"POSITION":88,"NORMAL":89,"TEXCOORD_0":90},"indices":91,"material":0}]},{"primitives":[{"mode":4,"attributes":{"POSITION":92,"NORMAL":93,"TEXCOORD_0":94},"indices":95,"material":0}]},{"primitives":[{"mode":4,"attributes":{"POSITION":96,"NORMAL":97,"TEXCOORD_0":98},"indices":99,"material":0}]}]}