{"asset":{"version":"2.0","generator":"Blockbench 4.5.2 glTF exporter"},"scenes":[{"nodes":[19],"name":"blockbench_export"}],"scene":0,"nodes":[{"name":"cube","mesh":0},{"name":"cube","mesh":1},{"name":"cube","mesh":2},{"name":"cube","mesh":3},{"name":"Handle","children":[0,1,2,3]},{"name":"cube","mesh":4},{"name":"cube","mesh":5},{"name":"cube","mesh":6},{"name":"cube","mesh":7},{"name":"cube","mesh":8},{"name":"cube","mesh":9},{"name":"Axe","children":[5,6,7,8,9,10]},{"name":"cube","mesh":10},{"name":"pyramid","mesh":11},{"name":"cube","mesh":12},{"name":"cube","mesh":13},{"name":"cube","mesh":14},{"name":"Decor","children":[12,13,14,15,16]},{"name":"Root","children":[4,11,17]},{"children":[18]}],"bufferViews":[{"buffer":0,"byteOffset":0,"byteLength":288,"target":34962,"byteStride":12},{"buffer":0,"byteOffset":288,"byteLength":288,"target":34962,"byteStride":12},{"buffer":0,"byteOffset":576,"byteLength":192,"target":34962,"byteStride":8},{"buffer":0,"byteOffset":768,"byteLength":72,"target":34963},{"buffer":0,"byteOffset":840,"byteLength":288,"target":34962,"byteStride":12},{"buffer":0,"byteOffset":1128,"byteLength":288,"target":34962,"byteStride":12},{"buffer":0,"byteOffset":1416,"byteLength":192,"target":34962,"byteStride":8},{"buffer":0,"byteOffset":1608,"byteLength":72,"target":34963},{"buffer":0,"byteOffset":1680,"byteLength":288,"target":34962,"byteStride":12},{"buffer":0,"byteOffset":1968,"byteLength":288,"target":34962,"byteStride":12},{"buffer":0,"byteOffset":2256,"byteLength":192,"target":34962,"byteStride":8},{"buffer":0,"byteOffset":2448,"byteLength":72,"target":34963},{"buffer":0,"byteOffset":2520,"byteLength":288,"target":34962,"byteStride":12},{"buffer":0,"byteOffset":2808,"byteLength":288,"target":34962,"byteStride":12},{"buffer":0,"byteOffset":3096,"byteLength":192,"target":34962,"byteStride":8},{"buffer":0,"byteOffset":3288,"byteLength":72,"target":34963},{"buffer":0,"byteOffset":3360,"byteLength":288,"target":34962,"byteStride":12},{"buffer":0,"byteOffset":3648,"byteLength":288,"target":34962,"byteStride":12},{"buffer":0,"byteOffset":3936,"byteLength":192,"target":34962,"byteStride":8},{"buffer":0,"byteOffset":4128,"byteLength":72,"target":34963},{"buffer":0,"byteOffset":4200,"byteLength":288,"target":34962,"byteStride":12},{"buffer":0,"byteOffset":4488,"byteLength":288,"target":34962,"byteStride":12},{"buffer":0,"byteOffset":4776,"byteLength":192,"target":34962,"byteStride":8},{"buffer":0,"byteOffset":4968,"byteLength":72,"target":34963},{"buffer":0,"byteOffset":5040,"byteLength":288,"target":34962,"byteStride":12},{"buffer":0,"byteOffset":5328,"byteLength":288,"target":34962,"byteStride":12},{"buffer":0,"byteOffset":5616,"byteLength":192,"target":34962,"byteStride":8},{"buffer":0,"byteOffset":5808,"byteLength":72,"target":34963},{"buffer":0,"byteOffset":5880,"byteLength":288,"target":34962,"byteStride":12},{"buffer":0,"byteOffset":6168,"byteLength":288,"target":34962,"byteStride":12},{"buffer":0,"byteOffset":6456,"byteLength":192,"target":34962,"byteStride":8},{"buffer":0,"byteOffset":6648,"byteLength":72,"target":34963},{"buffer":0,"byteOffset":6720,"byteLength":288,"target":34962,"byteStride":12},{"buffer":0,"byteOffset":7008,"byteLength":288,"target":34962,"byteStride":12},{"buffer":0,"byteOffset":7296,"byteLength":192,"target":34962,"byteStride":8},{"buffer":0,"byteOffset":7488,"byteLength":72,"target":34963},{"buffer":0,"byteOffset":7560,"byteLength":288,"target":34962,"byteStride":12},{"buffer":0,"byteOffset":7848,"byteLength":288,"target":34962,"byteStride":12},{"buffer":0,"byteOffset":8136,"byteLength":192,"target":34962,"byteStride":8},{"buffer":0,"byteOffset":8328,"byteLength":72,"target":34963},{"buffer":0,"byteOffset":8400,"byteLength":288,"target":34962,"byteStride":12},{"buffer":0,"byteOffset":8688,"byteLength":288,"target":34962,"byteStride":12},{"buffer":0,"byteOffset":8976,"byteLength":192,"target":34962,"byteStride":8},{"buffer":0,"byteOffset":9168,"byteLength":72,"target":34963},{"buffer":0,"byteOffset":9240,"byteLength":192,"target":34962,"byteStride":12},{"buffer":0,"byteOffset":9432,"byteLength":192,"target":34962,"byteStride":12},{"buffer":0,"byteOffset":9624,"byteLength":128,"target":34962,"byteStride":8},{"buffer":0,"byteOffset":9752,"byteLength":36,"target":34963},{"buffer":0,"byteOffset":9788,"byteLength":288,"target":34962,"byteStride":12},{"buffer":0,"byteOffset":10076,"byteLength":288,"target":34962,"byteStride":12},{"buffer":0,"byteOffset":10364,"byteLength":192,"target":34962,"byteStride":8},{"buffer":0,"byteOffset":10556,"byteLength":72,"target":34963},{"buffer":0,"byteOffset":10628,"byteLength":288,"target":34962,"byteStride":12},{"buffer":0,"byteOffset":10916,"byteLength":288,"target":34962,"byteStride":12},{"buffer":0,"byteOffset":11204,"byteLength":192,"target":34962,"byteStride":8},{"buffer":0,"byteOffset":11396,"byteLength":72,"target":34963},{"buffer":0,"byteOffset":11468,"byteLength":288,"target":34962,"byteStride":12},{"buffer":0,"byteOffset":11756,"byteLength":288,"target":34962,"byteStride":12},{"buffer":0,"byteOffset":12044,"byteLength":192,"target":34962,"byteStride":8},{"buffer":0,"byteOffset":12236,"byteLength":72,"target":34963}],"buffers":[{"byteLength":12308,"uri":"data:application/octet-stream;base64,"}],"accessors":[{"bufferView":0,"componentType":5126,"count":24,"max":[0.03125,0.6875,0.03125],"min":[-0.03125,0,-0.03125],"type":"VEC3"},{"bufferView":1,"componentType":5126,"count":24,"max":[1,1,1],"min":[-1,-1,-1],"type":"VEC3"},{"bufferView":2,"componentType":5126,"count":24,"max":[0.75,1],"min":[0,0.5],"type":"VEC2"},{"bufferView":3,"componentType":5123,"count":36,"max":[23],"min":[0],"type":"SCALAR"},{"bufferView":4,"componentType":5126,"count":24,"max":[0.046875,0.046875,0.046875],"min":[-0.046875,0.015625,-0.046875],"type":"VEC3"},{"bufferView":5,"componentType":5126,"count":24,"max":[1,1,1],"min":[-1,-1,-1],"type":"VEC3"},{"bufferView":6,"componentType":5126,"count":24,"max":[0.59375,0.71875],"min":[0,0.40625],"type":"VEC2"},{"bufferView":7,"componentType":5123,"count":36,"max":[23],"min":[0],"type":"SCALAR"},{"bufferView":8,"componentType":5126,"count":24,"max":[0.046875,0.296875,0.046875],"min":[-0.046875,0.265625,-0.046875],"type":"VEC3"},{"bufferView":9,"componentType":5126,"count":24,"max":[1,1,1],"min":[-1,-1,-1],"type":"VEC3"},{"bufferView":10,"componentType":5126,"count":24,"max":[0.625,1],"min":[0,0.40625],"type":"VEC2"},{"bufferView":11,"componentType":5123,"count":36,"max":[23],"min":[0],"type":"SCALAR"},{"bufferView":12,"componentType":5126,"count":24,"max":[0.046875,0.78125,0.046875],"min":[-0.046875,0.6875,-0.046875],"type":"VEC3"},{"bufferView":13,"componentType":5126,"count":24,"max":[1,1,1],"min":[-1,-1,-1],"type":"VEC3"},{"bufferView":14,"componentType":5126,"count":24,"max":[0.4375,1],"min":[0,0.5625],"type":"VEC2"},{"bufferView":15,"componentType":5123,"count":36,"max":[23],"min":[0],"type":"SCALAR"},{"bufferView":16,"componentType":5126,"count":24,"max":[-0.046875,0.765625,0.03125],"min":[-0.171875,0.703125,-0.03125],"type":"VEC3"},{"bufferView":17,"componentType":5126,"count":24,"max":[1,1,1],"min":[-1,-1,-1],"type":"VEC3"},{"bufferView":18,"componentType":5126,"count":24,"max":[0.8125,1],"min":[0.40625,0.1875],"type":"VEC2"},{"bufferView":19,"componentType":5123,"count":36,"max":[23],"min":[0],"type":"SCALAR"},{"bufferView":20,"componentType":5126,"count":24,"max":[-0.15178115665912628,0.7613335251808167,0.015625],"min":[-0.2544688582420349,0.6917914748191833,-0.015625],"type":"VEC3"},{"bufferView":21,"componentType":5126,"count":24,"max":[0.9659258127212524,0.9659258127212524,1],"min":[-0.9659258127212524,-0.9659258127212524,-1],"type":"VEC3"},{"bufferView":22,"componentType":5126,"count":24,"max":[0.8125,0.78125],"min":[0,0.3125],"type":"VEC2"},{"bufferView":23,"componentType":5123,"count":36,"max":[23],"min":[0],"type":"SCALAR"},{"bufferView":24,"componentType":5126,"count":24,"max":[-0.2296815663576126,0.736601710319519,0.015625],"min":[-0.3015684187412262,0.685273289680481,-0.015625],"type":"VEC3"},{"bufferView":25,"componentType":5126,"count":24,"max":[0.8924739360809326,0.9025526642799377,1],"min":[-0.8924739360809326,-0.9025526642799377,-1],"type":"VEC3"},{"bufferView":26,"componentType":5126,"count":24,"max":[0.8125,0.9375],"min":[0,0.1875],"type":"VEC2"},{"bufferView":27,"componentType":5123,"count":36,"max":[23],"min":[0],"type":"SCALAR"},{"bufferView":28,"componentType":5126,"count":24,"max":[0.3015684187412262,0.736601710319519,0.015625],"min":[0.2296815663576126,0.685273289680481,-0.015625],"type":"VEC3"},{"bufferView":29,"componentType":5126,"count":24,"max":[0.8924739360809326,0.9025526642799377,1],"min":[-0.8924739360809326,-0.9025526642799377,-1],"type":"VEC3"},{"bufferView":30,"componentType":5126,"count":24,"max":[0.78125,0.4375],"min":[0.0625,0.20540893077850342],"type":"VEC2"},{"bufferView":31,"componentType":5123,"count":36,"max":[23],"min":[0],"type":"SCALAR"},{"bufferView":32,"componentType":5126,"count":24,"max":[0.2544688582420349,0.7613335251808167,0.015625],"min":[0.15178115665912628,0.6917914748191833,-0.015625],"type":"VEC3"},{"bufferView":33,"componentType":5126,"count":24,"max":[0.9659258127212524,0.9659258127212524,1],"min":[-0.9659258127212524,-0.9659258127212524,-1],"type":"VEC3"},{"bufferView":34,"componentType":5126,"count":24,"max":[0.78125,1],"min":[0.28125,0.21875],"type":"VEC2"},{"bufferView":35,"componentType":5123,"count":36,"max":[23],"min":[0],"type":"SCALAR"},{"bufferView":36,"componentType":5126,"count":24,"max":[0.171875,0.765625,0.03125],"min":[0.046875,0.703125,-0.03125],"type":"VEC3"},{"bufferView":37,"componentType":5126,"count":24,"max":[1,1,1],"min":[-1,-1,-1],"type":"VEC3"},{"bufferView":38,"componentType":5126,"count":24,"max":[0.75,0.8125],"min":[0.1875,0.40625],"type":"VEC2"},{"bufferView":39,"componentType":5123,"count":36,"max":[23],"min":[0],"type":"SCALAR"},{"bufferView":40,"componentType":5126,"count":24,"max":[0.06622816622257233,0.8006031513214111,-0.03125],"min":[-0.06622816622257233,0.6681468486785889,-0.0625],"type":"VEC3"},{"bufferView":41,"componentType":5126,"count":24,"max":[0.7372773289680481,0.7372773289680481,1],"min":[-0.7372773289680481,-0.7372773289680481,-1],"type":"VEC3"},{"bufferView":42,"componentType":5126,"count":24,"max":[0.6875,1],"min":[0.09375,0.28125],"type":"VEC2"},{"bufferView":43,"componentType":5123,"count":36,"max":[23],"min":[0],"type":"SCALAR"},{"bufferView":44,"componentType":5126,"count":16,"max":[0.046875,0.859375,0.046875],"min":[-0.046875,0.75,-0.046875],"type":"VEC3"},{"bufferView":45,"componentType":5126,"count":16,"max":[0.9191450476646423,0.39391928911209106,0.9191450476646423],"min":[-0.9191450476646423,-1,-0.9191450476646423],"type":"VEC3"},{"bufferView":46,"componentType":5126,"count":16,"max":[0.53125,0.8125],"min":[0.28125,0.40480318665504456],"type":"VEC2"},{"bufferView":47,"componentType":5123,"count":18,"max":[15],"min":[0],"type":"SCALAR"},{"bufferView":48,"componentType":5126,"count":24,"max":[0.06622816622257233,0.8006031513214111,0.0625],"min":[-0.06622816622257233,0.6681468486785889,0.03125],"type":"VEC3"},{"bufferView":49,"componentType":5126,"count":24,"max":[0.7372773289680481,0.7372773289680481,1],"min":[-0.7372773289680481,-0.7372773289680481,-1],"type":"VEC3"},{"bufferView":50,"componentType":5126,"count":24,"max":[0.71875,0.90625],"min":[0.1875,0.25],"type":"VEC2"},{"bufferView":51,"componentType":5123,"count":36,"max":[23],"min":[0],"type":"SCALAR"},{"bufferView":52,"componentType":5126,"count":24,"max":[0.09100085496902466,0.7210261821746826,0.03243343532085419],"min":[0.0027491471264511347,0.6539738178253174,-0.03243343532085419],"type":"VEC3"},{"bufferView":53,"componentType":5126,"count":24,"max":[0.6605019569396973,0.8859819769859314,0.9975237250328064],"min":[-0.6605019569396973,-0.8859819769859314,-0.9975237250328064],"type":"VEC3"},{"bufferView":54,"componentType":5126,"count":24,"max":[0.8125,0.84375],"min":[0.125,0.1875],"type":"VEC2"},{"bufferView":55,"componentType":5123,"count":36,"max":[23],"min":[0],"type":"SCALAR"},{"bufferView":56,"componentType":5126,"count":24,"max":[-0.0027491471264511347,0.7210261821746826,0.03243343532085419],"min":[-0.09100085496902466,0.6539738178253174,-0.03243343532085419],"type":"VEC3"},{"bufferView":57,"componentType":5126,"count":24,"max":[0.6605019569396973,0.8859819769859314,0.9975237250328064],"min":[-0.6605019569396973,-0.8859819769859314,-0.9975237250328064],"type":"VEC3"},{"bufferView":58,"componentType":5126,"count":24,"max":[0.8125,0.84375],"min":[0.125,0.1875],"type":"VEC2"},{"bufferView":59,"componentType":5123,"count":36,"max":[23],"min":[0],"type":"SCALAR"}],"materials":[{"pbrMetallicRoughness":{"metallicFactor":0,"roughnessFactor":1,"baseColorTexture":{"index":0}},"alphaMode":"MASK","alphaCutoff":0.05,"doubleSided":true}],"textures":[{"sampler":0,"source":0,"name":"Pickaxe"}],"samplers":[{"magFilter":9728,"minFilter":9728,"wrapS":33071,"wrapT":33071}],"images":[{"mimeType":"image/png","uri":"data:image/png;base64,"}],"meshes":[{"primitives":[{"mode":4,"attributes":{"POSITION":0,"NORMAL":1,"TEXCOORD_0":2},"indices":3,"material":0}]},{"primitives":[{"mode":4,"attributes":{"POSITION":4,"NORMAL":5,"TEXCOORD_0":6},"indices":7,"material":0}]},{"primitives":[{"mode":4,"attributes":{"POSITION":8,"NORMAL":9,"TEXCOORD_0":10},"indices":11,"material":0}]},{"primitives":[{"mode":4,"attributes":{"POSITION":12,"NORMAL":13,"TEXCOORD_0":14},"indices":15,"material":0}]},{"primitives":[{"mode":4,"attributes":{"POSITION":16,"NORMAL":17,"TEXCOORD_0":18},"indices":19,"material":0}]},{"primitives":[{"mode":4,"attributes":{"POSITION":20,"NORMAL":21,"TEXCOORD_0":22},"indices":23,"material":0}]},{"primitives":[{"mode":4,"attributes":{"POSITION":24,"NORMAL":25,"TEXCOORD_0":26},"indices":27,"material":0}]},{"primitives":[{"mode":4,"attributes":{"POSITION":28,"NORMAL":29,"TEXCOORD_0":30},"indices":31,"material":0}]},{"primitives":[{"mode":4,"attributes":{"POSITION":32,"NORMAL":33,"TEXCOORD_0":34},"indices":35,"material":0}]},{"primitives":[{"mode":4,"attributes":{"POSITION":36,"NORMAL":37,"TEXCOORD_0":38},"indices":39,"material":0}]},{"primitives":[{"mode":4,"attributes":{"POSITION":40,"NORMAL":41,"TEXCOORD_0":42},"indices":43,"material":0}]},{"primitives":[{"mode":4,"attributes":{"POSITION":44,"NORMAL":45,"TEXCOORD_0":46},"indices":47,"material":0}]},{"primitives":[{"mode":4,"attributes":{"POSITION":48,"NORMAL":49,"TEXCOORD_0":50},"indices":51,"material":0}]},{"primitives":[{"mode":4,"attributes":{"POSITION":52,"NORMAL":53,"TEXCOORD_0":54},"indices":55,"material":0}]},{"primitives":[{"mode":4,"attributes":{"POSITION":56,"NORMAL":57,"TEXCOORD_0":58},"indices":59,"material":0}]}]}